<svg width="240" height="240" viewBox="0 0 240 240"  xmlns="http://www.w3.org/2000/svg">
<path d="M120.611 40C76.6058 40 41 75.8549 41 119.944C41 164.033 76.6058 200 120.611 200C164.617 200 200 164.023 200 119.944C200 75.8651 164.394 40 120.611 40Z" />
<path d="M126.265 138.033C126.265 145.228 129.923 147.711 135.742 147.711H144V166H128.365C114.288 166 103.797 158.805 103.797 141.595V114.025H91V99.0945C105.077 95.4613 110.968 83.4317 111.645 73H126.265V96.6724H143.324V114.025H126.265V138.033Z" fill="white"/>
</svg>
