<svg width="240" height="240" viewBox="0 0 240 240"  xmlns="http://www.w3.org/2000/svg">
<path d="M120.5 201C164.959 201 201 164.959 201 120.5C201 76.0411 164.959 40 120.5 40C76.0411 40 40 76.0411 40 120.5C40 164.959 76.0411 201 120.5 201Z" />
<path d="M154.717 85.1726C148.655 81.2191 144.278 74.8951 142.913 67.5211C142.618 65.926 142.456 64.2864 142.456 62.6105H123.105L123.072 140.163C122.745 148.849 115.601 155.819 106.838 155.819C104.116 155.819 101.552 155.137 99.2947 153.949C94.1176 151.224 90.5719 145.796 90.5719 139.553C90.5719 130.584 97.8692 123.286 106.838 123.286C108.514 123.286 110.117 123.561 111.64 124.037V104.282C110.069 104.068 108.47 103.935 106.838 103.935C87.1999 103.935 71.2203 119.914 71.2203 139.553C71.2203 151.603 77.2414 162.268 86.4246 168.714C92.2115 172.776 99.2463 175.167 106.838 175.167C126.477 175.167 142.456 159.191 142.456 139.549V100.223C150.044 105.671 159.345 108.882 169.38 108.882V89.53C163.977 89.53 158.941 87.9227 154.721 85.1686H154.717V85.1726Z" fill="white"/>
</svg>
