<?xml version="1.0" encoding="UTF-8"?>
<svg id="Calque_1" data-name="Calque 1" xmlns="http://www.w3.org/2000/svg" viewBox="0 0 240 240">
  <defs>
    <style>
      .cls-1 {
        fill: #010101;
      }
    </style>
  </defs>
  <path class="cls-1" d="M120,70c-27.61,0-50,22.39-50,50s22.39,50,50,50,50-22.39,50-50-22.39-50-50-50ZM120,150c-16.57,0-30-13.43-30-30s13.43-30,30-30,30,13.43,30,30-13.43,30-30,30Z"/>
  <rect class="cls-1" x="110" y="20" width="20" height="30"/>
  <rect class="cls-1" x="49.9" y="44.9" width="20" height="30" transform="translate(-24.81 59.9) rotate(-45)"/>
  <rect class="cls-1" x="25" y="105" width="20" height="30" transform="translate(-85 155) rotate(-90)"/>
  <rect class="cls-1" x="49.9" y="165.1" width="20" height="30" transform="translate(-25.1 349.81) rotate(-135)"/>
  <rect class="cls-1" x="110" y="190" width="20" height="30" transform="translate(240 410) rotate(-180)"/>
  <rect class="cls-1" x="170.1" y="165.1" width="20" height="30" transform="translate(434.81 180.1) rotate(135)"/>
  <rect class="cls-1" x="195" y="105" width="20" height="30" transform="translate(325 -85) rotate(90)"/>
  <rect class="cls-1" x="170.1" y="44.9" width="20" height="30" transform="translate(95.1 -109.81) rotate(45)"/>
</svg>