<?xml version="1.0" encoding="UTF-8"?>
<svg id="Calque_1" data-name="Calque 1" xmlns="http://www.w3.org/2000/svg" viewBox="0 0 240 240">
  <defs>
    <style>
      .cls-1 {
        fill: #010101;
      }
    </style>
  </defs>
  <rect class="cls-1" x="140" y="170" width="20" height="20"/>
  <rect class="cls-1" x="200" y="130" width="20" height="40"/>
  <rect class="cls-1" x="20" y="130" width="20" height="40"/>
  <rect class="cls-1" x="80" y="170" width="20" height="20"/>
  <path class="cls-1" d="M160,90h-80v-20h-20v40h-20v20h20v40h20v-20h80v20h20v-40h20v-20h-20v-40h-20v20ZM80,130v-20h20v20h-20ZM160,130h-20v-20h20v20Z"/>
  <rect class="cls-1" x="180" y="50" width="20" height="20"/>
  <rect class="cls-1" x="200" y="70" width="20" height="20"/>
  <rect class="cls-1" x="40" y="50" width="20" height="20"/>
  <rect class="cls-1" x="20" y="70" width="20" height="20"/>
</svg>