<?xml version="1.0" encoding="UTF-8"?>
<svg id="Calque_1" data-name="Calque 1" xmlns="http://www.w3.org/2000/svg" viewBox="0 0 240 240">
  <defs>
    <style>
      .cls-1 {
        fill: #010101;
      }
    </style>
  </defs>
  <path d="M120,70c-16.57,0-30,13.43-30,30s13.43,30,30,30,30-13.43,30-30-13.43-30-30-30ZM120,110c-5.52,0-10-4.48-10-10s4.48-10,10-10,10,4.48,10,10-4.48,10-10,10Z"/>
  <path class="cls-1" d="M120,40c33.14,0,60,26.86,60,60,0,50.12-60,90-60,90,0,0-60-40-60-90,0-33.14,26.86-60,60-60M120,20c-44.11,0-80,35.89-80,80,0,14.66,3.92,29.6,11.64,44.41,5.79,11.1,13.75,22.18,23.66,32.91,16.43,17.8,32.91,28.86,33.6,29.33l11.08,7.39,11.09-7.37c.69-.46,17.18-11.5,33.62-29.29,9.91-10.73,17.87-21.8,23.67-32.91,7.72-14.81,11.64-29.77,11.64-44.45,0-44.11-35.89-80-80-80h0Z"/>
</svg>