<svg width="240" height="240" viewBox="0 0 240 240" fill="none" xmlns="http://www.w3.org/2000/svg">
<path fill-rule="evenodd" clip-rule="evenodd" d="M127 60C153.186 60 175.454 76.7756 183.644 100.166C204.027 102.007 220 119.137 220 140C220 162.091 202.091 180 180 180H69V179.987C47.3707 179.457 30 161.757 30 140C30 117.909 47.9086 100 70 100C70.1375 100 70.2749 100.003 70.4121 100.005C78.6474 76.6984 100.874 60 127 60ZM127 80C110.12 80 95.6831 90.4559 89.8105 105.244C101.871 112.133 110 125.117 110 140H90C90 128.954 81.0457 120 70 120C58.9543 120 50 128.954 50 140C50 150.71 58.4189 159.454 69 159.975V160H180C191.046 160 200 151.046 200 140C200 128.954 191.046 120 180 120C174.884 120 170.217 121.922 166.68 125.082C166.891 123.418 167 121.722 167 120C167 97.9086 149.091 80 127 80Z" fill="black"/>
</svg>
