<?xml version="1.0" encoding="UTF-8"?>
<svg id="Calque_1" data-name="Calque 1" xmlns="http://www.w3.org/2000/svg" viewBox="0 0 240 240">
  <defs>
    <style>
      .cls-1 {
        fill: #1d1d1b;
      }
    </style>
  </defs>
  <path class="cls-1" d="M120,80c22.31,0,43.46,13.51,57.28,24.85,6.44,5.28,11.95,10.62,16.27,15.15-4.32,4.53-9.83,9.87-16.27,15.15-13.82,11.34-34.98,24.85-57.28,24.85s-43.46-13.51-57.28-24.85c-6.44-5.28-11.95-10.62-16.27-15.15,4.32-4.53,9.83-9.87,16.27-15.15,13.82-11.34,34.98-24.85,57.28-24.85M120,60c-55.23,0-100,60-100,60,0,0,44.77,60,100,60s100-60,100-60c0,0-44.77-60-100-60h0Z"/>
  <path d="M119.93,90.07c-16.57,0-30,13.43-30,30s13.43,30,30,30,30-13.43,30-30-13.43-30-30-30ZM119.93,130.07c-5.52,0-10-4.48-10-10s4.48-10,10-10,10,4.48,10,10-4.48,10-10,10Z"/>
</svg>