<?xml version="1.0" encoding="UTF-8"?>
<svg id="Calque_1" data-name="Calque 1" xmlns="http://www.w3.org/2000/svg" viewBox="0 0 240 240">
  <defs>
    <style>
      .cls-1 {
        fill-rule: evenodd;
      }

      .cls-1, .cls-2 {
        fill: #010101;
      }
    </style>
  </defs>
  <path class="cls-1" d="M120,70.91c-27.11,0-49.09,21.98-49.09,49.09s21.98,49.09,49.09,49.09,49.09-21.98,49.09-49.09-21.98-49.09-49.09-49.09ZM120,152.73c-18.07,0-32.73-14.65-32.73-32.73s14.65-32.73,32.73-32.73,32.73,14.65,32.73,32.73-14.65,32.73-32.73,32.73Z"/>
  <circle class="cls-2" cx="169.09" cy="70.91" r="8.18"/>
  <path class="cls-1" d="M204.65,56.8c-4.71-9.24-12.22-16.75-21.45-21.45-10.5-5.35-24.25-5.35-51.74-5.35h-22.91c-27.49,0-41.24,0-51.74,5.35-9.24,4.71-16.75,12.22-21.45,21.45-5.35,10.5-5.35,24.25-5.35,51.74v22.91c0,27.49,0,41.24,5.35,51.74,4.71,9.24,12.22,16.75,21.45,21.45,10.5,5.35,24.25,5.35,51.74,5.35h22.91c27.49,0,41.24,0,51.74-5.35,9.24-4.71,16.75-12.22,21.45-21.45,5.35-10.5,5.35-24.25,5.35-51.74v-22.91c0-27.49,0-41.24-5.35-51.74ZM193.64,131.45c0,14.02-.01,23.54-.61,30.91-.59,7.17-1.65,10.84-2.95,13.4-3.14,6.16-8.14,11.16-14.3,14.3-2.56,1.3-6.23,2.37-13.4,2.95-7.37.6-16.89.61-30.91.61h-22.91c-14.02,0-23.55-.01-30.91-.61-7.17-.59-10.84-1.65-13.4-2.95-6.16-3.14-11.16-8.14-14.3-14.3-1.3-2.56-2.37-6.23-2.95-13.4-.6-7.37-.61-16.89-.61-30.91v-22.91c0-14.02.01-23.54.61-30.91.59-7.17,1.65-10.84,2.95-13.4,3.14-6.16,8.14-11.17,14.3-14.3,2.56-1.3,6.23-2.37,13.4-2.95,7.36-.6,16.89-.61,30.91-.61h22.91c14.02,0,23.54.01,30.91.61,7.17.59,10.84,1.65,13.4,2.95,6.16,3.14,11.16,8.14,14.3,14.3,1.3,2.56,2.37,6.23,2.95,13.4.6,7.37.61,16.89.61,30.91v22.91Z"/>
</svg>