<svg width="240" height="240" viewBox="0 0 240 240" fill="none" xmlns="http://www.w3.org/2000/svg">
<path fill-rule="evenodd" clip-rule="evenodd" d="M90 140C103.062 140 114.172 148.348 118.291 160H200V180H118.291C114.172 191.652 103.062 200 90 200C76.938 200 65.8275 191.652 61.709 180H40V160H61.709C65.8275 148.348 76.938 140 90 140ZM90 160C84.4772 160 80 164.477 80 170C80 175.523 84.4772 180 90 180C95.5228 180 100 175.523 100 170C100 164.477 95.5228 160 90 160Z" fill="black"/>
<path fill-rule="evenodd" clip-rule="evenodd" d="M150 40C163.062 40 174.172 48.3484 178.291 60H200V80H178.291C174.172 91.6516 163.062 100 150 100C136.938 100 125.828 91.6516 121.709 80H40V60H121.709C125.828 48.3484 136.938 40 150 40ZM150 60C144.477 60 140 64.4772 140 70C140 75.5228 144.477 80 150 80C155.523 80 160 75.5228 160 70C160 64.4772 155.523 60 150 60Z" fill="black"/>
</svg>
