<svg width="240" height="240" viewBox="0 0 240 240" fill="none" xmlns="http://www.w3.org/2000/svg">
<path d="M120 139.8C164.18 139.8 200 175.62 200 219.8H180C180 186.66 153.14 159.8 120 159.8C86.8601 159.8 60.0001 186.66 60 219.8H40C40.0001 175.62 75.8201 139.8 120 139.8Z" fill="black"/>
<path fill-rule="evenodd" clip-rule="evenodd" d="M120 20C147.61 20 170 42.39 170 70C170 97.61 147.61 120 120 120C92.39 120 70 97.61 70 70C70 42.39 92.39 20 120 20ZM120 40C103.43 40 90 53.43 90 70C90 86.57 103.43 100 120 100C136.57 100 150 86.57 150 70C150 53.43 136.57 40 120 40Z" fill="black"/>
</svg>
