<svg width="240" height="240" viewBox="0 0 240 240" fill="none" xmlns="http://www.w3.org/2000/svg">
<path d="M119.6 90C103.03 90 89.6 103.43 89.6 120C89.6 136.57 103.03 150 119.6 150C136.17 150 149.6 136.57 149.6 120C149.6 103.43 136.17 90 119.6 90ZM119.6 130C114.08 130 109.6 125.52 109.6 120C109.6 114.48 114.08 110 119.6 110C125.12 110 129.6 114.48 129.6 120C129.6 125.52 125.12 130 119.6 130Z" fill="black"/>
<path d="M221.21 144.02L189.36 125.63C189.51 123.77 189.6 121.9 189.6 120C189.6 118.1 189.51 116.23 189.36 114.37L221.21 95.98L191.21 44.02L159.35 62.41C156.27 60.28 153.02 58.39 149.61 56.77V20H89.61V56.77C86.2 58.39 82.95 60.28 79.87 62.41L48.01 44.02L18 95.98L49.85 114.37C49.7 116.23 49.61 118.1 49.61 120C49.61 121.9 49.7 123.77 49.85 125.63L18 144.02L48 195.98L79.86 177.59C82.94 179.72 86.19 181.61 89.6 183.23V220H149.6V183.23C153.01 181.61 156.27 179.72 159.34 177.59L191.2 195.98L221.2 144.02H221.21ZM183.88 168.66L157.01 153.15C149.96 161.11 140.41 166.8 129.59 169V200H109.59V169C98.77 166.8 89.23 161.11 82.17 153.15L55.3 168.66L45.3 151.34L71.28 136.34L72.16 135.83C70.5 130.85 69.59 125.53 69.59 120C69.59 114.47 70.5 109.14 72.16 104.17L45.31 88.66L55.31 71.34L81.29 86.34L82.17 86.85C89.22 78.89 98.77 73.2 109.59 71V40H129.59V71C140.41 73.2 149.95 78.89 157.01 86.85L183.87 71.34L193.87 88.66L167.01 104.17C168.67 109.15 169.58 114.47 169.58 120C169.58 125.53 168.67 130.86 167.01 135.83L167.89 136.34L193.87 151.34L183.87 168.66H183.88Z" fill="black"/>
</svg>
