<svg width="240" height="240" viewBox="0 0 240 240" fill="none" xmlns="http://www.w3.org/2000/svg">
<path fill-rule="evenodd" clip-rule="evenodd" d="M175.45 159.42V159.41L194.1 178.06L177.03 195.13L153.14 171.24C142.77 175.44 131.62 178.1 120 178.1C64.77 178.1 20 118.1 20 118.1C20.0633 118.015 36.2188 96.4164 61.0498 79.1504L42.9697 61.0703L60.04 44L175.45 159.42ZM75.4697 93.5596C70.7597 96.6396 66.4697 99.8802 62.7197 102.95C56.28 108.23 50.7701 113.57 46.4502 118.1C50.7702 122.63 56.2798 127.97 62.7197 133.25C76.5397 144.59 97.69 158.1 120 158.1H120.01C125.94 158.1 131.78 157.13 137.43 155.52L128.77 146.86C126 147.7 123.06 148.16 120.01 148.16C103.44 148.16 90.0098 134.73 90.0098 118.16C90.0098 115.11 90.4597 112.17 91.3096 109.4L75.4697 93.5596Z" fill="black"/>
<path d="M119.99 58.1104C175.22 58.1104 219.99 118.11 219.99 118.11C219.941 118.177 209.12 132.654 191.58 147.37L177.38 133.17C183.77 127.92 189.25 122.61 193.55 118.11C189.23 113.58 183.72 108.24 177.28 102.96V102.97C163.95 92.0297 143.8 79.0799 122.38 78.1699L103.971 59.7598C109.181 58.6998 114.54 58.1104 119.99 58.1104Z" fill="black"/>
</svg>
