<svg width="240" height="240" viewBox="0 0 240 240" fill="none" xmlns="http://www.w3.org/2000/svg">
<path fill-rule="evenodd" clip-rule="evenodd" d="M120 73C136.57 73 150 86.43 150 103C150 119.57 136.57 133 120 133C103.43 133 90 119.57 90 103C90 86.43 103.43 73 120 73ZM120 93C114.48 93 110 97.48 110 103C110 108.52 114.48 113 120 113C125.52 113 130 108.52 130 103C130 97.48 125.52 93 120 93Z" fill="black"/>
<path fill-rule="evenodd" clip-rule="evenodd" d="M120 23C164.11 23 200 58.8897 200 103.02C200 117.699 196.08 132.66 188.36 147.47C182.56 158.58 174.6 169.65 164.69 180.38C148.252 198.168 131.764 209.207 131.07 209.67L119.98 217.04L108.9 209.65C108.21 209.18 91.7298 198.12 75.2998 180.32C65.3898 169.59 57.4296 158.51 51.6396 147.41C43.9197 132.6 40 117.66 40 103C40 58.89 75.89 23 120 23ZM120 43C86.86 43 60 69.86 60 103C60 153 120 193 120 193C120 193 180 153.12 180 103C180 69.86 153.14 43 120 43Z" fill="black"/>
</svg>
