<svg width="240" height="240" viewBox="0 0 240 240" fill="none" xmlns="http://www.w3.org/2000/svg">
<path d="M120 140.001C106.667 139.809 106.667 160.181 120 159.999C133.333 160.191 133.333 139.819 120 140.001Z" fill="black"/>
<path fill-rule="evenodd" clip-rule="evenodd" d="M70.0098 79C70.5425 51.8473 92.7199 30 120 30C147.614 30 170 52.3858 170 80V100H190V210H50V100H70V81V80V79H70.0098ZM90 80V81V100H150V80C150 63.4315 136.569 50 120 50C103.431 50 90 63.4315 90 80ZM170 190V120H70V190H170Z" fill="black"/>
</svg>
