<svg width="240" height="240" viewBox="0 0 240 240" fill="none" xmlns="http://www.w3.org/2000/svg">
<path fill-rule="evenodd" clip-rule="evenodd" d="M63.9412 63.2169L78.0837 77.3594C66.9219 88.335 60 103.609 60 120.5C60 153.913 87.0868 181 120.5 181C153.913 181 181 153.913 181 120.5C181 103.495 173.984 88.1287 162.689 77.1375L176.833 62.9944C191.746 77.6057 201 97.9722 201 120.5C201 164.959 164.959 201 120.5 201C76.0411 201 40 164.959 40 120.5C40 98.0863 49.1602 77.8121 63.9412 63.2169Z" fill="black"/>
<rect width="20" height="80" transform="matrix(-1 0 0 1 130 40)" fill="black"/>
</svg>
