<svg width="240" height="240" viewBox="0 0 240 240" fill="none" xmlns="http://www.w3.org/2000/svg">
<path d="M75 150C83.2843 150 90 156.716 90 165C90 173.284 83.2843 180 75 180C66.7157 180 60 173.284 60 165C60 156.716 66.7157 150 75 150Z" fill="black"/>
<path d="M120 150C128.284 150 135 156.716 135 165C135 173.284 128.284 180 120 180C111.716 180 105 173.284 105 165C105 156.716 111.716 150 120 150Z" fill="black"/>
<path d="M165 150C173.284 150 180 156.716 180 165C180 173.284 173.284 180 165 180C156.716 180 150 173.284 150 165C150 156.716 156.716 150 165 150Z" fill="black"/>
<path d="M75 105C83.2843 105 90 111.716 90 120C90 128.284 83.2843 135 75 135C66.7157 135 60 128.284 60 120C60 111.716 66.7157 105 75 105Z" fill="black"/>
<path d="M120 105C128.284 105 135 111.716 135 120C135 128.284 128.284 135 120 135C111.716 135 105 128.284 105 120C105 111.716 111.716 105 120 105Z" fill="black"/>
<path d="M165 105C173.284 105 180 111.716 180 120C180 128.284 173.284 135 165 135C156.716 135 150 128.284 150 120C150 111.716 156.716 105 165 105Z" fill="black"/>
<path d="M75 60C83.2843 60 90 66.7157 90 75C90 83.2843 83.2843 90 75 90C66.7157 90 60 83.2843 60 75C60 66.7157 66.7157 60 75 60Z" fill="black"/>
<path d="M120 60C128.284 60 135 66.7157 135 75C135 83.2843 128.284 90 120 90C111.716 90 105 83.2843 105 75C105 66.7157 111.716 60 120 60Z" fill="black"/>
<path d="M165 60C173.284 60 180 66.7157 180 75C180 83.2843 173.284 90 165 90C156.716 90 150 83.2843 150 75C150 66.7157 156.716 60 165 60Z" fill="black"/>
</svg>
