<svg width="240" height="240" viewBox="0 0 240 240" fill="none" xmlns="http://www.w3.org/2000/svg">
<path d="M211.343 162.43C210.06 158.954 207.623 157.096 204.849 155.558C204.32 155.253 203.855 155.013 203.454 154.821C202.621 154.404 201.787 153.988 200.937 153.539C192.295 148.958 185.545 143.175 180.863 136.335C179.276 134.028 178.186 131.93 177.416 130.232C177.015 129.094 177.031 128.437 177.32 127.845C177.544 127.396 178.121 126.932 178.426 126.691C179.917 125.714 181.44 124.721 182.483 124.048C184.342 122.847 185.801 121.902 186.747 121.245C190.291 118.762 192.776 116.135 194.331 113.187C196.512 109.038 196.8 104.297 195.101 99.8433C192.76 93.66 186.908 89.8154 179.821 89.8154C178.346 89.8154 176.855 89.9756 175.38 90.296C174.995 90.376 174.61 90.4722 174.225 90.5683C174.289 86.3713 174.193 81.8859 173.824 77.4967C172.494 62.0543 167.09 53.9646 161.431 47.5089C159.074 44.8177 154.985 40.877 148.844 37.3688C140.283 32.483 130.582 30 120 30C109.418 30 99.7499 32.483 91.172 37.3688C84.9991 40.893 80.8946 44.8337 78.5537 47.5089C72.9099 53.9646 67.5066 62.0543 66.1598 77.4967C65.775 81.8859 65.6948 86.3713 65.759 90.5683C65.3742 90.4722 64.9894 90.376 64.6046 90.296C63.1295 89.9756 61.6384 89.8154 60.1633 89.8154C53.0765 89.8154 47.2243 93.66 44.8834 99.8433C43.1999 104.297 43.4725 109.038 45.653 113.187C47.2083 116.135 49.6934 118.762 53.2368 121.245C54.1828 121.902 55.6419 122.847 57.5017 124.048C58.4958 124.689 59.9709 125.65 61.3979 126.595C61.6223 126.739 62.3919 127.316 62.6485 127.845C62.9371 128.453 62.9531 129.126 62.5042 130.344C61.7506 132.026 60.6603 134.06 59.1211 136.319C54.5356 143.015 47.9939 148.686 39.6244 153.219C35.1992 155.574 30.5816 157.128 28.6415 162.414C27.1664 166.403 28.1284 170.936 31.8642 174.765C33.0988 176.078 34.638 177.248 36.5781 178.321C41.1476 180.836 45.0277 182.069 48.0741 182.918C48.6032 183.079 49.8538 183.479 50.3989 183.96C51.7618 185.145 51.5694 186.939 53.3811 189.55C54.4714 191.184 55.7381 192.29 56.7802 193.011C60.5802 195.638 64.8451 195.798 69.3665 195.974C73.455 196.134 78.0887 196.31 83.3637 198.057C85.5603 198.777 87.837 200.171 90.4665 201.789C96.7998 205.682 105.474 211 119.984 211C134.494 211 143.217 205.65 149.598 201.741C152.211 200.139 154.472 198.745 156.605 198.041C161.896 196.294 166.529 196.118 170.602 195.958C175.123 195.782 179.388 195.622 183.188 192.995C184.391 192.178 185.882 190.832 187.068 188.781C188.367 186.571 188.335 185.017 189.553 183.944C190.05 183.511 191.141 183.127 191.734 182.951C194.812 182.102 198.74 180.868 203.39 178.305C205.442 177.168 207.062 175.934 208.329 174.508C208.345 174.492 208.361 174.476 208.377 174.46C211.872 170.696 212.754 166.291 211.311 162.414M198.452 169.318C190.595 173.659 185.353 173.195 181.296 175.806C177.849 178.033 179.885 182.822 177.384 184.552C174.305 186.683 165.182 184.408 153.414 188.285C143.698 191.489 137.509 200.716 120.032 200.716C102.556 200.716 96.4951 191.537 86.6506 188.285C74.882 184.408 65.759 186.683 62.6805 184.552C60.1793 182.822 62.2156 178.033 58.7684 175.806C54.6959 173.195 49.469 173.659 41.6126 169.318C36.6101 166.563 39.4481 164.849 41.1155 164.032C69.607 150.256 74.1445 128.982 74.3529 127.38C74.5934 125.474 74.866 123.968 72.7656 122.014C70.7293 120.14 61.7025 114.549 59.2013 112.803C55.0486 109.903 53.2368 107.02 54.5676 103.464C55.4976 101.013 57.7903 100.084 60.2274 100.084C60.981 100.084 61.7506 100.18 62.4881 100.34C67.0416 101.333 71.4669 103.608 74.0162 104.217C74.3689 104.297 74.6736 104.345 74.9622 104.345C76.325 104.345 76.806 103.656 76.7098 102.102C76.4212 97.1361 75.7158 87.4285 76.5014 78.3777C77.5756 65.9149 81.6 59.7315 86.378 54.269C88.6708 51.6418 99.4453 40.2683 120.064 40.2683C140.683 40.2683 151.458 51.6418 153.751 54.269C158.529 59.7315 162.553 65.9149 163.627 78.3777C164.413 87.4446 163.739 97.1361 163.419 102.102C163.307 103.736 163.804 104.345 165.166 104.345C165.439 104.345 165.76 104.313 166.112 104.217C168.662 103.592 173.087 101.317 177.64 100.34C178.378 100.18 179.148 100.084 179.901 100.084C182.322 100.084 184.631 101.013 185.561 103.464C186.908 107.02 185.08 109.903 180.927 112.803C178.426 114.549 169.399 120.124 167.363 122.014C165.263 123.968 165.535 125.458 165.776 127.38C165.984 128.982 170.522 150.256 199.013 164.032C200.681 164.833 203.518 166.547 198.516 169.318" fill="black"/>
</svg>
