<svg width="240" height="240" viewBox="0 0 240 240" fill="none" xmlns="http://www.w3.org/2000/svg">
<rect x="40" y="60" width="20" height="120" fill="black"/>
<rect x="180" y="80" width="20" height="100" fill="black"/>
<rect x="40" y="200" width="20" height="160" transform="rotate(-90 40 200)" fill="black"/>
<rect x="40" y="60" width="20" height="120" transform="rotate(-90 40 60)" fill="black"/>
<rect x="90" y="80" width="20" height="30" transform="rotate(-90 90 80)" fill="black"/>
<rect x="160.142" y="40" width="56.5854" height="20" transform="rotate(45 160.142 40)" fill="black"/>
<path d="M120 100C103.43 100 90 113.43 90 130C90 146.57 103.43 160 120 160C136.57 160 150 146.57 150 130C150 113.43 136.57 100 120 100ZM120 140C114.48 140 110 135.52 110 130C110 124.48 114.48 120 120 120C125.52 120 130 124.48 130 130C130 135.52 125.52 140 120 140Z" fill="black"/>
</svg>
