<svg width="240" height="240" viewBox="0 0 240 240" fill="none" xmlns="http://www.w3.org/2000/svg">
<path fill-rule="evenodd" clip-rule="evenodd" d="M120 180H100V160H40V80H100V60H120V180ZM60 140H100V100H60V140Z" fill="black"/>
<path d="M140 60C173.137 60 200 86.8629 200 120C200 153.137 173.137 180 140 180V160C162.091 160 180 142.091 180 120C180 97.9086 162.091 80 140 80V60Z" fill="black"/>
<path d="M140 100C151.046 100 160 108.954 160 120C160 131.046 151.046 140 140 140V100Z" fill="black"/>
</svg>
