<svg width="240" height="240" viewBox="0 0 240 240" fill="none" xmlns="http://www.w3.org/2000/svg">
<path fill-rule="evenodd" clip-rule="evenodd" d="M120.5 180H100.375V160H40V80H100.375V60H120.5V180ZM60.125 140H100.375V100H60.125V140Z" fill="black"/>
<path d="M140.625 60C173.969 60 201 86.8629 201 120C201 153.137 173.969 180 140.625 180V160C162.854 160 180.875 142.091 180.875 120C180.875 97.9086 162.854 80 140.625 80V60Z" fill="black"/>
<path d="M140.625 100C151.74 100 160.75 108.954 160.75 120C160.75 131.046 151.74 140 140.625 140V100Z" fill="black"/>
</svg>
