<svg width="240" height="240" viewBox="0 0 240 240" fill="none" xmlns="http://www.w3.org/2000/svg">
<path d="M178.559 66.5645C197.973 76.5 211.262 96.703 211.262 120.01C211.262 153.147 184.399 180.01 151.262 180.01H113.542L139.392 205.859L125.252 220L75.2617 170.01L125.262 120.01L139.401 134.149L113.542 160.01H151.262C173.353 160.01 191.262 142.101 191.262 120.01C191.262 102.105 179.496 86.9493 163.275 81.8477L178.559 66.5645Z" fill="black"/>
<path d="M147.12 69.7188L97.1201 119.719L83.2617 105.859L109.122 80H91.2617V80.0098H71.2617C49.1703 80.0098 31.2617 97.9184 31.2617 120.01C31.2617 137.753 42.8151 152.795 58.8086 158.03L43.583 173.256C24.3771 163.252 11.2617 143.163 11.2617 120.01C11.2617 86.8727 38.1246 60.0098 71.2617 60.0098H77.2617V60H109.122L83.2715 34.1494L97.4121 20.0098L147.12 69.7188Z" fill="black"/>
</svg>
