<svg width="240" height="240" viewBox="0 0 240 240" fill="none" xmlns="http://www.w3.org/2000/svg">
<rect x="20" y="70" width="20" height="20" fill="black"/>
<rect x="20" y="150" width="20" height="20" fill="black"/>
<path d="M220 160L177.574 202.427L163.432 188.284L181.716 170H160C141.647 170 124.316 163.274 110.947 151.644L120.299 132.94C130.476 143.666 144.757 150 160 150H181.716L165.864 134.148L180.006 120.006L220 160Z" fill="black"/>
<path d="M220 80.0068L205.858 94.1484L205.854 94.1445L179.999 120L165.856 105.857L181.714 90H160C139.273 90 120.325 101.71 111.056 120.249L106.833 128.695C94.1758 154.01 68.3023 170 40 170V150C60.6335 150 79.5021 138.394 88.8164 120C79.5021 101.606 60.6335 90 40 90V70C63.8961 70 86.0569 81.4017 99.9971 100.188C113.937 81.4003 136.103 70 160 70H181.709L163.432 51.7227L177.574 37.5801L220 80.0068Z" fill="black"/>
</svg>
