<svg width="240" height="240" viewBox="0 0 240 240" fill="none" xmlns="http://www.w3.org/2000/svg">
<path d="M160 60C193.137 60 220 86.8629 220 120C220 153.091 193.213 179.924 160.14 179.999L134.141 180L159.99 205.85L145.851 219.99L95.8604 170L145.86 120L160 134.14L134.141 160H160C182.091 160 200 142.091 200 120C200 98.2537 182.647 80.5602 161.032 80.0127L160 80H80C57.9086 80 40 97.9086 40 120C40 141.746 57.3534 159.44 78.9678 159.987L80 160V180C46.8629 180 20 153.137 20 120C20 86.8629 46.8629 60 80 60H160Z" fill="black"/>
</svg>
