<svg width="240" height="240" viewBox="0 0 240 240" fill="none" xmlns="http://www.w3.org/2000/svg">
<path fill-rule="evenodd" clip-rule="evenodd" d="M174.05 186.05L160 200L120 160V180H100V160H40V80L19.999 60.1426L34.0713 46.0703C80.9161 92.9151 126.694 138.694 174.05 186.05ZM60 140H99.8574L60 100.143V140Z" fill="black"/>
<path d="M140 60C173.137 60 200 86.8629 200 120C200 136.58 193.272 151.586 182.401 162.445L168.26 148.304C175.512 141.064 180 131.057 180 120C180 97.9086 162.091 80 140 80V60Z" fill="black"/>
<path d="M140 100C151.046 100 160 108.954 160 120C160 125.534 157.752 130.543 154.12 134.164L140 120.043V100Z" fill="black"/>
<path d="M120 100.043L100 80V60H120V100.043Z" fill="black"/>
</svg>
