<svg width="240" height="240" viewBox="0 0 240 240" fill="none" xmlns="http://www.w3.org/2000/svg">
<path d="M187.297 66.5547C206.711 76.4902 220 96.6932 220 120C220 153.137 193.137 180 160 180H122.28L148.13 205.85L133.99 219.99L84 170L134 120L148.14 134.14L122.28 160H160C182.091 160 200 142.091 200 120C200 102.095 188.235 86.9395 172.014 81.8379L187.297 66.5547Z" fill="black"/>
<path d="M155.858 69.709L105.858 119.709L92 105.85L117.86 79.9902H100V80H80C57.9086 80 40 97.9086 40 120C40 137.743 51.5534 152.785 67.5469 158.021L52.3213 173.246C33.1154 163.242 20 143.153 20 120C20 86.8629 46.8629 60 80 60H86V59.9902H117.86L92.0098 34.1396L106.15 20L155.858 69.709Z" fill="black"/>
</svg>
