<svg width="240" height="240" viewBox="0 0 240 240" fill="none" xmlns="http://www.w3.org/2000/svg">
<path d="M160 130H80V110H160V130Z" fill="black"/>
<path fill-rule="evenodd" clip-rule="evenodd" d="M120 40C164.18 40 200 75.82 200 120C200 138.49 193.71 155.49 183.18 169.04L220 205.86L205.86 220L169.04 183.18C155.49 193.71 138.49 200 120 200C75.82 200 40 164.18 40 120C40 75.82 75.82 40 120 40ZM120 60C86.86 60 60 86.86 60 120C60 153.14 86.86 180 120 180C153.14 180 180 153.14 180 120C180 86.86 153.14 60 120 60Z" fill="black"/>
</svg>
