<svg width="240" height="240" viewBox="0 0 240 240" fill="none" xmlns="http://www.w3.org/2000/svg">
<path d="M57.0819 137.335C57.0819 111.084 70.1779 83.6911 85.5516 83.6911C94.0925 83.6911 100.925 88.8272 111.744 104.236C101.495 120.215 95.2313 129.916 95.2313 129.916C81.5658 151.602 77.0107 156.168 69.6085 156.168C62.2064 156.738 57.0819 149.89 57.0819 137.335ZM146.477 127.634L136.797 111.654C134.52 107.66 131.673 103.665 129.395 100.241C137.936 87.1152 144.769 80.267 153.31 80.267C170.391 80.267 184.057 105.948 184.057 137.906C184.057 149.89 180.071 156.738 172.1 156.738C164.128 156.738 161.281 151.602 146.477 127.634ZM121.993 88.8272C109.466 72.2775 98.6477 66 86.121 66C59.9288 66 40 100.812 40 137.335C40 160.162 50.8185 174.429 69.0391 174.429C82.1352 174.429 91.2456 168.152 108.327 138.476C108.327 138.476 115.16 125.921 120.285 117.361C121.993 120.215 123.701 123.068 125.409 126.492L133.381 140.188C148.754 166.44 157.295 175 172.669 175C190.32 175 200 160.162 200 136.764C199.431 97.9581 178.932 66 154.448 66C141.352 66 131.103 76.2723 121.993 88.8272Z" fill="black"/>
</svg>
