<svg width="240" height="240" viewBox="0 0 240 240" fill="none" xmlns="http://www.w3.org/2000/svg">
<path fill-rule="evenodd" clip-rule="evenodd" d="M120 90C136.569 90 150 103.431 150 120C150 136.569 136.569 150 120 150C103.431 150 90 136.569 90 120C90 103.431 103.431 90 120 90ZM120 110C114.477 110 110 114.477 110 120C110 125.523 114.477 130 120 130C125.523 130 130 125.523 130 120C130 114.477 125.523 110 120 110Z" fill="black"/>
<path fill-rule="evenodd" clip-rule="evenodd" d="M140 40L160 60H200V180H40V60H80L100 40H140ZM108.143 60L88 80H60V160H180V80H152L131.857 60H108.143Z" fill="black"/>
<path d="M80 90.0014C66.6667 89.8089 66.6667 110.181 80 109.999C93.3333 110.191 93.3333 89.819 80 90.0014Z" fill="black"/>
</svg>
