<svg width="240" height="240" viewBox="0 0 240 240" fill="none" xmlns="http://www.w3.org/2000/svg">
<path d="M200 180V160H180V180H160V200H180V220H200V200H220V180H200Z" fill="black"/>
<path d="M80 200L140 200L140 180L80 180L80 200Z" fill="black"/>
<path d="M80 100L200 100L200 80L80 80L80 100Z" fill="black"/>
<path d="M40 60L160 60L160 40L40 40L40 60Z" fill="black"/>
<path d="M200 140L180 140L180 80L200 80L200 140Z" fill="black"/>
<path d="M100 200L80 200L80 80L100 80L100 200Z" fill="black"/>
<path d="M60 160L40 160L40 40L60 40L60 160Z" fill="black"/>
</svg>
