<svg width="240" height="240" viewBox="0 0 240 240" fill="none" xmlns="http://www.w3.org/2000/svg">
<path d="M118.11 167.214C107.446 167.214 100.661 160.768 100.661 152.591C100.661 117.602 193 110.597 193 73.4385C193 50.7705 166.649 41 133.011 41C112.549 41 89.4128 44.7741 67.9266 51.5267V95.8547C99.591 72.8739 134.773 63.0358 157.434 63.0358C171.683 63.0358 181.352 66.9977 181.352 74.096C181.352 103.341 54.0008 98.7072 54 161.901C54 186.122 70.7147 200 94.2306 200C129.8 200 156.705 165.556 176.832 123.569L180.91 125.028C170.31 150.687 148.373 178.82 144.101 196.905H189.894V103.341H179.317C163.966 136.583 141.469 167.214 118.11 167.214Z" fill="black"/>
</svg>
