<svg width="240" height="240" viewBox="0 0 240 240" fill="none" xmlns="http://www.w3.org/2000/svg">
<path d="M210 190H190V158.758C176.353 183.353 150.121 200 120 200C82.7232 200 51.4014 174.505 42.5205 140H63.415C71.6518 163.304 93.8757 180 120 180C146.124 180 168.348 163.304 176.585 140H140V120H210V190ZM120 40C157.277 40 188.599 65.4955 197.479 100H176.585C168.348 76.6963 146.124 60 120 60C93.8757 60 71.6518 76.6963 63.415 100H103V120H30V50H50V81.2412C63.6471 56.6465 89.8793 40 120 40Z" fill="black"/>
</svg>
