<svg width="240" height="240" viewBox="0 0 240 240" fill="none" xmlns="http://www.w3.org/2000/svg">
<path fill-rule="evenodd" clip-rule="evenodd" d="M173.38 50H66.6423C57.4599 50 50.0126 57.442 50.0001 66.6303V173.28C49.9824 177.708 51.7278 181.961 54.8508 185.099C57.9737 188.236 62.2169 190 66.6423 190H173.38C177.802 189.994 182.039 188.228 185.157 185.091C188.275 181.954 190.018 177.704 190 173.28V66.6303C189.987 57.4508 182.554 50.0124 173.38 50ZM110.378 150.837C110.372 152.317 109.777 153.734 108.725 154.774C107.673 155.814 106.25 156.392 104.771 156.38H81.4452C78.3944 156.368 75.9278 153.89 75.9278 150.837V81.3754C75.9278 78.3226 78.3944 75.8444 81.4452 75.832H104.771C107.825 75.8443 110.299 78.319 110.311 81.3754L110.378 150.837ZM164.207 118.945C164.207 120.427 163.614 121.847 162.561 122.889C161.507 123.931 160.081 124.507 158.6 124.489H135.274C132.219 124.476 129.746 122.002 129.734 118.945V81.3754C129.746 78.319 132.219 75.8443 135.274 75.832H158.6C161.65 75.8444 164.117 78.3226 164.117 81.3754L164.207 118.945Z" fill="black"/>
</svg>
