<svg width="240" height="240" viewBox="0 0 240 240" fill="none" xmlns="http://www.w3.org/2000/svg">
<path fill-rule="evenodd" clip-rule="evenodd" d="M149.954 40C151.865 40 153.776 39.9999 155.688 40.0088C157.296 40.0177 158.905 40.0356 160.514 40.0801C164.02 40.1734 167.559 40.3826 171.025 41.0049C174.541 41.6405 177.817 42.6711 181.013 44.2979C184.155 45.8979 187.03 47.9872 189.523 50.4805C192.017 52.9739 194.106 55.845 195.706 58.9873C197.333 62.1874 198.369 65.4633 199 68.9834C199.622 72.45 199.83 75.9836 199.924 79.4902C199.968 81.099 199.986 82.7077 199.995 84.3164C200.004 86.2274 200.004 88.1388 200.004 90.0498H200V152.816C199.999 153.772 199.998 154.727 199.991 155.683C199.982 157.292 199.964 158.901 199.92 160.51C199.827 164.012 199.617 167.55 198.995 171.017C198.364 174.537 197.329 177.813 195.702 181.013C194.102 184.155 192.013 187.026 189.52 189.52C187.026 192.013 184.15 194.102 181.008 195.702C177.812 197.329 174.541 198.364 171.021 198.995C167.555 199.617 164.017 199.827 160.51 199.92C158.901 199.964 157.292 199.982 155.683 199.991C153.772 200 151.86 200 149.949 200H87.1836C86.2279 199.999 85.2721 199.998 84.3164 199.991C82.7075 199.982 81.0981 199.964 79.4893 199.92C75.9827 199.827 72.4451 199.617 68.9785 198.995C65.4629 198.36 62.1869 197.329 58.9912 195.702C55.849 194.102 52.9738 192.013 50.4805 189.52C47.9871 187.026 45.8979 184.155 44.2979 181.013C42.6711 177.813 41.635 174.537 41.0039 171.017C40.3817 167.55 40.1734 164.016 40.0801 160.51C40.0356 158.901 40.0177 157.292 40.0088 155.683C39.9999 153.772 40 151.86 40 149.949V90.0498C40 88.1388 39.9999 86.2278 40.0088 84.3213C40.0177 82.7124 40.0356 81.1031 40.0801 79.4941C40.1734 75.9919 40.3817 72.454 41.0039 68.9873C41.635 65.4672 42.6712 62.1913 44.2979 58.9912C45.8979 55.8491 47.9872 52.9777 50.4805 50.4844C52.9737 47.9912 55.8492 45.9027 58.9912 44.3027C62.1869 42.676 65.4584 41.6399 68.9785 41.0088C72.4451 40.3822 75.9827 40.1779 79.4893 40.0801C81.0981 40.0356 82.7075 40.0177 84.3164 40.0088C86.2275 39.9999 88.1387 40 90.0498 40H149.954ZM157.123 68.6494C157.132 65.9118 155.687 64.2233 153.114 64.4453C152.728 64.4809 149.291 65.0894 148.878 65.1738L101.321 74.7695L101.304 74.7744C100.064 75.0366 99.09 75.4763 98.3389 76.1074C97.4323 76.8674 96.9304 77.9431 96.7393 79.1963C96.6993 79.463 96.6328 80.0056 96.6328 80.8057V140.327C96.6328 141.718 96.5213 143.07 95.5791 144.221C94.6369 145.372 93.4719 145.719 92.1074 145.994C91.072 146.203 90.0364 146.411 89.001 146.62C85.0721 147.411 82.5167 147.95 80.2012 148.848C77.9878 149.705 76.3298 150.799 75.0098 152.186C72.3921 154.928 71.33 158.647 71.6943 162.132C72.0055 165.105 73.3428 167.95 75.6406 170.053C77.1917 171.475 79.1297 172.555 81.4141 173.013C83.783 173.488 86.3081 173.324 89.9971 172.577C91.9615 172.182 93.8017 171.564 95.5527 170.528C97.2861 169.506 98.7706 168.141 99.9307 166.479C101.095 164.812 101.845 162.959 102.259 160.99C102.685 158.959 102.788 157.123 102.788 155.097V103.473C102.788 100.708 103.571 99.9797 105.802 99.4375C105.882 99.4213 145.331 91.4637 147.176 91.1035C149.749 90.6102 150.963 91.3435 150.963 94.041V129.282C150.963 130.678 150.949 132.091 149.998 133.247C149.056 134.398 147.892 134.745 146.527 135.021C145.492 135.229 144.456 135.439 143.42 135.647C139.491 136.439 136.936 136.976 134.62 137.874C132.407 138.732 130.749 139.825 129.429 141.212C126.811 143.954 125.655 147.674 126.02 151.158C126.331 154.132 127.762 156.977 130.06 159.079C131.611 160.501 133.549 161.549 135.833 162.012C138.202 162.487 140.727 162.318 144.416 161.576C146.38 161.181 148.221 160.59 149.972 159.555C151.705 158.532 153.19 157.167 154.35 155.505C155.514 153.838 156.265 151.985 156.679 150.017C157.105 147.986 157.123 146.15 157.123 144.123V68.6494Z" fill="black"/>
</svg>
