<svg width="240" height="240" viewBox="0 0 240 240" fill="none" xmlns="http://www.w3.org/2000/svg">
<path d="M135 120C135 111.716 128.284 105 120 105C111.716 105 105 111.716 105 120C105 128.284 111.716 135 120 135C128.284 135 135 128.284 135 120Z" fill="black"/>
<path d="M90 120C90 111.716 83.2843 105 75 105C66.7157 105 60 111.716 60 120C60 128.284 66.7157 135 75 135C83.2843 135 90 128.284 90 120Z" fill="black"/>
<path d="M180 120C180 111.716 173.284 105 165 105C156.716 105 150 111.716 150 120C150 128.284 156.716 135 165 135C173.284 135 180 128.284 180 120Z" fill="black"/>
</svg>
