<svg width="240" height="240" viewBox="0 0 240 240" fill="none" xmlns="http://www.w3.org/2000/svg">
<path d="M135 95C135 86.7157 128.284 80 120 80C111.716 80 105 86.7157 105 95C105 103.284 111.716 110 120 110C128.284 110 135 103.284 135 95Z" fill="black"/>
<path d="M135 145C135 136.716 128.284 130 120 130C111.716 130 105 136.716 105 145C105 153.284 111.716 160 120 160C128.284 160 135 153.284 135 145Z" fill="black"/>
<path d="M90 95C90 86.7157 83.2843 80 75 80C66.7157 80 60 86.7157 60 95C60 103.284 66.7157 110 75 110C83.2843 110 90 103.284 90 95Z" fill="black"/>
<path d="M90 145C90 136.716 83.2843 130 75 130C66.7157 130 60 136.716 60 145C60 153.284 66.7157 160 75 160C83.2843 160 90 153.284 90 145Z" fill="black"/>
<path d="M180 95C180 86.7157 173.284 80 165 80C156.716 80 150 86.7157 150 95C150 103.284 156.716 110 165 110C173.284 110 180 103.284 180 95Z" fill="black"/>
<path d="M180 145C180 136.716 173.284 130 165 130C156.716 130 150 136.716 150 145C150 153.284 156.716 160 165 160C173.284 160 180 153.284 180 145Z" fill="black"/>
</svg>
