<svg width="240" height="240" viewBox="0 0 240 240" fill="none" xmlns="http://www.w3.org/2000/svg">
<path d="M110 90H70C53.4315 90 40 103.431 40 120C40 136.569 53.4315 150 70 150H110V170H70C42.3858 170 20 147.614 20 120C20 92.3858 42.3858 70 70 70H110V90Z" fill="black"/>
<path d="M170 70C197.614 70 220 92.3858 220 120C220 147.614 197.614 170 170 170H130V150H170C186.569 150 200 136.569 200 120C200 103.431 186.569 90 170 90H130V70H170Z" fill="black"/>
<path d="M160 130H80V110H160V130Z" fill="black"/>
</svg>
