<svg width="240" height="240" viewBox="0 0 240 240" fill="none" xmlns="http://www.w3.org/2000/svg">
<path fill-rule="evenodd" clip-rule="evenodd" d="M120 40C164.183 40 200 75.8172 200 120C200 164.183 164.183 200 120 200C75.8172 200 40 164.183 40 120C40 75.8172 75.8172 40 120 40ZM71.0918 85.2334C64.107 95.0417 60 107.041 60 120C60 153.137 86.8629 180 120 180C133.389 180 145.753 175.613 155.735 168.2C155.414 168.439 155.092 168.675 154.766 168.907L71.0918 85.2334ZM120 60C107.041 60 95.0417 64.107 85.2334 71.0918L168.907 154.766C168.437 155.426 167.952 156.075 167.456 156.715C175.318 146.567 180 133.831 180 120C180 86.8629 153.137 60 120 60Z" fill="black"/>
</svg>
