<svg width="240" height="240" viewBox="0 0 240 240" fill="none" xmlns="http://www.w3.org/2000/svg">
<path fill-rule="evenodd" clip-rule="evenodd" d="M120 20C175.23 20 220 64.77 220 120C220 175.23 175.23 220 120 220C64.77 220 20 175.23 20 120C20 64.77 64.77 20 120 20ZM56.8027 70.9443C46.2715 84.4914 40 101.514 40 120C40 164.18 75.82 200 120 200C138.486 200 155.508 193.727 169.055 183.196L56.8027 70.9443ZM120 40C101.514 40 84.4914 46.2715 70.9443 56.8027L183.196 169.055C193.727 155.508 200 138.486 200 120C200 75.82 164.18 40 120 40Z" fill="black"/>
</svg>
