<svg width="240" height="240" viewBox="0 0 240 240" fill="none" xmlns="http://www.w3.org/2000/svg">
<path d="M60 110C65.5228 110 70 114.477 70 120C70 125.523 65.5228 130 60 130C54.4772 130 50 125.523 50 120C50 114.477 54.4772 110 60 110Z" fill="black"/>
<path fill-rule="evenodd" clip-rule="evenodd" d="M200 60C210.873 60 219.719 68.6765 219.993 79.4834L220 80V160C220 171.046 211.046 180 200 180H40C28.9543 180 20 171.046 20 160V80C20 68.9543 28.9543 60 40 60H200ZM40 160H200V80H40V160Z" fill="black"/>
</svg>
