<svg width="240" height="240" viewBox="0 0 240 240" fill="none" xmlns="http://www.w3.org/2000/svg">
<path d="M110 180C110 174.477 114.477 170 120 170C125.523 170 130 174.477 130 180C130 185.523 125.523 190 120 190C114.477 190 110 185.523 110 180Z" fill="black"/>
<path fill-rule="evenodd" clip-rule="evenodd" d="M40 40C40 29.127 48.6765 20.2808 59.4834 20.0068L60 20L180 20C191.046 20 200 28.9543 200 40L200 200C200 211.046 191.046 220 180 220L60 220C48.9543 220 40 211.046 40 200L40 40ZM180 200L180 40L60 40L60 200L180 200Z" fill="black"/>
</svg>
