<svg width="240" height="240" viewBox="0 0 240 240" fill="none" xmlns="http://www.w3.org/2000/svg">
<path d="M60 110C65.5228 110 70 114.477 70 120C70 125.523 65.5228 130 60 130C54.4772 130 50 125.523 50 120C50 114.477 54.4772 110 60 110Z" fill="black"/>
<path fill-rule="evenodd" clip-rule="evenodd" d="M200 40C210.873 40 219.719 48.6765 219.993 59.4834L220 60V180C220 191.046 211.046 200 200 200H40C28.9543 200 20 191.046 20 180V60C20 48.9543 28.9543 40 40 40H200ZM40 180H200V60H40V180Z" fill="black"/>
</svg>
