<svg width="240" height="240" viewBox="0 0 240 240" fill="none" xmlns="http://www.w3.org/2000/svg">
<path d="M70 90L84.14 104.14L110 78.28L110 110L130 110L130 78.28L155.85 104.13L169.99 89.99L120 40L70 90Z" fill="black"/>
<path d="M169.99 150L155.85 135.86L129.99 161.72L129.99 130L109.99 130L109.99 161.72L84.1402 135.87L70.0002 150.01L119.99 200L169.99 150Z" fill="black"/>
<path d="M39.9951 20L39.9951 40L199.995 40L199.995 20L39.9951 20Z" fill="black"/>
<path d="M39.9951 200L39.9951 220L199.995 220L199.995 200L39.9951 200Z" fill="black"/>
<rect x="110" y="90" width="20" height="60" fill="black"/>
</svg>
