<svg width="240" height="240" viewBox="0 0 240 240" fill="none" xmlns="http://www.w3.org/2000/svg">
<path fill-rule="evenodd" clip-rule="evenodd" d="M130 50C152.091 50 170 67.9086 170 90C170 99.797 166.475 108.769 160.628 115.724C172.236 122.725 180 135.455 180 150C180 172.091 162.091 190 140 190H60V170H80V70H60V50H130ZM100 170H140C151.046 170 160 161.046 160 150C160 138.954 151.046 130 140 130H100V170ZM100 110H130C141.046 110 150 101.046 150 90C150 78.9543 141.046 70 130 70H100V110Z" fill="black"/>
</svg>
