<svg width="240" height="240" viewBox="0 0 240 240" fill="none" xmlns="http://www.w3.org/2000/svg">
<path fill-rule="evenodd" clip-rule="evenodd" d="M170 40C186.57 40 200 53.43 200 70C200 86.57 186.57 100 170 100C161.936 100 154.616 96.8183 149.226 91.6426L99.7314 115.983C99.9072 117.297 100 118.638 100 120C100 121.416 99.8986 122.808 99.709 124.171L149.112 148.466C154.513 143.226 161.879 140 170 140C186.57 140 200 153.43 200 170C200 186.57 186.57 200 170 200C153.43 200 140 186.57 140 170C140 168.774 140.075 167.566 140.218 166.379L90.4805 141.92C85.1191 146.931 77.9188 150 70 150C53.43 150 40 136.57 40 120C40 103.43 53.43 90 70 90C77.9757 90 85.2234 93.112 90.5967 98.1875L140.235 73.7764C140.08 72.5394 140 71.2791 140 70C140 53.43 153.43 40 170 40ZM170 160C164.48 160 160 164.48 160 170C160 175.52 164.48 180 170 180C175.52 180 180 175.52 180 170C180 164.48 175.52 160 170 160ZM70 110C64.48 110 60 114.48 60 120C60 125.52 64.48 130 70 130C75.52 130 80 125.52 80 120C80 114.48 75.52 110 70 110ZM170 60C164.48 60 160 64.48 160 70C160 75.52 164.48 80 170 80C175.52 80 180 75.52 180 70C180 64.48 175.52 60 170 60Z" fill="black"/>
</svg>
