<svg width="240" height="240" viewBox="0 0 240 240" fill="none" xmlns="http://www.w3.org/2000/svg">
<path fill-rule="evenodd" clip-rule="evenodd" d="M120 190H100L93.5713 160H66.4287L60 190H40L70 50H90L120 190ZM70.7139 140H89.2861L80 96.666L70.7139 140Z" fill="black"/>
<path fill-rule="evenodd" clip-rule="evenodd" d="M190 170H200V190C188.954 190 180 181.046 180 170C180 181.046 171.046 190 160 190H150C138.954 190 130 181.046 130 170V150C130 138.954 138.954 130 150 130H170V110H150V120H130V110C130 98.9543 138.954 90 150 90H170C181.046 90 190 98.9543 190 110V170ZM150 170H170V150H150V170Z" fill="black"/>
</svg>
