<svg width="240" height="240" viewBox="0 0 240 240" fill="none" xmlns="http://www.w3.org/2000/svg">
<path d="M142.3 183.796C142.437 184.135 142.604 184.448 142.788 184.741C135.654 187.25 127.989 188.632 119.998 188.632C113.261 188.632 106.759 187.642 100.611 185.835L121.202 126.002L142.3 183.796Z" fill="black"/>
<path d="M90.0487 181.763C67.1575 170.639 51.3712 147.163 51.3712 119.998C51.3712 110.049 53.5054 100.603 57.3132 92.0682L90.0487 181.763Z" fill="black"/>
<path d="M180.215 87.0714C185.576 96.8472 188.623 108.068 188.622 119.999C188.622 145.318 174.899 167.422 154.497 179.32L175.46 118.711C179.377 108.922 180.678 101.093 180.678 94.129C180.678 91.6047 180.51 89.2575 180.215 87.0714Z" fill="black"/>
<path d="M119.998 51.3716C137.864 51.3716 154.131 58.2014 166.341 69.3874C166.044 69.3704 165.756 69.333 165.452 69.333C158.712 69.333 153.928 75.2054 153.928 81.5141C153.928 87.1672 157.188 91.9544 160.667 97.6073C163.28 102.179 166.327 108.054 166.327 116.536C166.327 122.411 164.068 129.229 161.102 138.721L154.257 161.596L129.457 87.8221C133.581 87.6056 137.303 87.1686 137.311 87.1677C141.008 86.7302 140.573 81.2961 136.87 81.5141C136.799 81.5198 125.735 82.3849 118.581 82.3849C111.859 82.3849 100.576 81.5196 100.505 81.5141C96.8069 81.2961 96.3732 86.9509 100.071 87.1677C100.106 87.172 103.591 87.6064 107.268 87.8221L117.96 117.118L102.942 162.161L77.9506 87.8244C82.0874 87.6076 85.805 87.1699 85.805 87.1699C89.5004 86.7323 89.064 81.2983 85.3646 81.5164C85.3131 81.5205 74.2369 82.3883 67.0754 82.3883C65.7865 82.3883 64.2686 82.3539 62.6585 82.3056C74.9294 63.6734 96.0228 51.3717 119.998 51.3716Z" fill="black"/>
<path fill-rule="evenodd" clip-rule="evenodd" d="M119.998 40C164.106 40 199.999 75.887 200 119.998C200 164.115 164.106 200 119.998 200C75.8881 200 40 164.115 40 119.998C40 75.8871 75.8881 40.0002 119.998 40ZM119.998 43.6686C77.9095 43.6688 43.6685 77.9099 43.6685 119.998C43.6685 162.089 77.9108 196.333 119.998 196.334C162.083 196.334 196.324 162.089 196.324 119.998C196.324 77.9098 162.083 43.6686 119.998 43.6686Z" fill="black"/>
</svg>
