<svg width="240" height="240" viewBox="0 0 240 240" fill="none" xmlns="http://www.w3.org/2000/svg">
<path fill-rule="evenodd" clip-rule="evenodd" d="M90 90C101.046 90 110 98.9543 110 110V170H120V190C108.954 190 100 181.046 100 170C100 181.046 91.0457 190 80 190H70C58.9543 190 50 181.046 50 170V150C50 138.954 58.9543 130 70 130H90V110H70V120H50V110C50 98.9543 58.9543 90 70 90H90ZM70 170H90V150H70V170Z" fill="black"/>
<path fill-rule="evenodd" clip-rule="evenodd" d="M190 170H200V190C188.954 190 180 181.046 180 170C180 181.046 171.046 190 160 190H150C138.954 190 130 181.046 130 170V150C130 138.954 138.954 130 150 130H170V110H150V120H130V110C130 98.9543 138.954 90 150 90H170C181.046 90 190 98.9543 190 110V170ZM150 170H170V150H150V170Z" fill="black"/>
</svg>
