<svg width="240" height="240" viewBox="0 0 240 240" fill="none" xmlns="http://www.w3.org/2000/svg">
<path d="M200 110H180V84L161.655 102.343C166.926 110.265 170 119.773 170 130C170 157.61 147.61 180 120 180C92.39 180 70 157.61 70 130C70 102.39 92.39 80 120 80C130.226 80 139.734 83.0736 147.655 88.3438L166 70H140V50H200V110ZM120 100C103.43 100 90 113.43 90 130C90 146.57 103.43 160 120 160C136.57 160 150 146.57 150 130C150 125.33 148.933 120.91 147.029 116.969V116.97C146.761 116.414 146.475 115.867 146.174 115.331C145.832 114.723 145.47 114.129 145.089 113.548C144.549 112.726 143.97 111.933 143.354 111.171C143.053 110.798 142.743 110.431 142.425 110.073C141.644 109.195 140.811 108.363 139.933 107.581C139.38 107.09 138.81 106.619 138.223 106.169C137.661 105.739 137.083 105.328 136.491 104.938C135.869 104.527 135.231 104.139 134.578 103.775C134.071 103.493 133.554 103.223 133.029 102.97V102.969C129.089 101.066 124.669 100 120 100Z" fill="black"/>
</svg>
