<svg width="240" height="240" viewBox="0 0 240 240" fill="none" xmlns="http://www.w3.org/2000/svg">
<path d="M120 100C131.046 100 140 108.954 140 120C140 131.046 131.046 140 120 140C108.954 140 100 131.046 100 120C100 108.954 108.954 100 120 100Z" fill="black"/>
<path fill-rule="evenodd" clip-rule="evenodd" d="M120 60C153.137 60 180 86.8629 180 120C180 153.137 153.137 180 120 180C86.8629 180 60 153.137 60 120C60 86.8629 86.8629 60 120 60ZM120 80C97.9086 80 80 97.9086 80 120C80 142.091 97.9086 160 120 160C142.091 160 160 142.091 160 120C160 97.9086 142.091 80 120 80Z" fill="black"/>
<path fill-rule="evenodd" clip-rule="evenodd" d="M120 20C175.228 20 220 64.7715 220 120C220 175.228 175.228 220 120 220C64.7715 220 20 175.228 20 120C20 64.7715 64.7715 20 120 20ZM120 40C75.8172 40 40 75.8172 40 120C40 164.183 75.8172 200 120 200C164.183 200 200 164.183 200 120C200 75.8172 164.183 40 120 40Z" fill="black"/>
</svg>
