<svg width="240" height="240" viewBox="0 0 240 240" fill="none" xmlns="http://www.w3.org/2000/svg">
<path d="M120 110C125.523 110 130 114.477 130 120C130 125.523 125.523 130 120 130C114.477 130 110 125.523 110 120C110 114.477 114.477 110 120 110Z" fill="black"/>
<path fill-rule="evenodd" clip-rule="evenodd" d="M120 70C147.614 70 170 92.3858 170 120C170 147.614 147.614 170 120 170C92.3858 170 70 147.614 70 120C70 92.3858 92.3858 70 120 70ZM120 90C103.431 90 90 103.431 90 120C90 136.569 103.431 150 120 150C136.569 150 150 136.569 150 120C150 103.431 136.569 90 120 90Z" fill="black"/>
<path fill-rule="evenodd" clip-rule="evenodd" d="M120 30C169.706 30 210 70.2944 210 120C210 169.706 169.706 210 120 210C70.2944 210 30 169.706 30 120C30 70.2944 70.2944 30 120 30ZM120 50C81.3401 50 50 81.3401 50 120C50 158.66 81.3401 190 120 190C158.66 190 190 158.66 190 120C190 81.3401 158.66 50 120 50Z" fill="black"/>
</svg>
