<svg width="240" height="240" viewBox="0 0 240 240" fill="none" xmlns="http://www.w3.org/2000/svg">
<path d="M120 90C136.569 90 150 103.431 150 120C150 136.569 136.569 150 120 150C103.431 150 90 136.569 90 120C90 103.431 103.431 90 120 90Z" fill="black"/>
<path fill-rule="evenodd" clip-rule="evenodd" d="M120 40C164.183 40 200 75.8172 200 120C200 164.183 164.183 200 120 200C75.8172 200 40 164.183 40 120C40 75.8172 75.8172 40 120 40ZM120 60C86.8629 60 60 86.8629 60 120C60 153.137 86.8629 180 120 180C153.137 180 180 153.137 180 120C180 86.8629 153.137 60 120 60Z" fill="black"/>
</svg>
