<svg width="240" height="240" viewBox="0 0 240 240" fill="none" xmlns="http://www.w3.org/2000/svg">
<path d="M120 175C128.284 175 135 181.716 135 190C135 198.284 128.284 205 120 205C111.716 205 105 198.284 105 190C105 181.716 111.716 175 120 175Z" fill="black"/>
<path d="M75 130C83.2843 130 90 136.716 90 145C90 153.284 83.2843 160 75 160C66.7157 160 60 153.284 60 145C60 136.716 66.7157 130 75 130Z" fill="black"/>
<path d="M120 130C128.284 130 135 136.716 135 145C135 153.284 128.284 160 120 160C111.716 160 105 153.284 105 145C105 136.716 111.716 130 120 130Z" fill="black"/>
<path d="M165 130C173.284 130 180 136.716 180 145C180 153.284 173.284 160 165 160C156.716 160 150 153.284 150 145C150 136.716 156.716 130 165 130Z" fill="black"/>
<path d="M75 85C83.2843 85 90 91.7157 90 100C90 108.284 83.2843 115 75 115C66.7157 115 60 108.284 60 100C60 91.7157 66.7157 85 75 85Z" fill="black"/>
<path d="M120 85C128.284 85 135 91.7157 135 100C135 108.284 128.284 115 120 115C111.716 115 105 108.284 105 100C105 91.7157 111.716 85 120 85Z" fill="black"/>
<path d="M165 85C173.284 85 180 91.7157 180 100C180 108.284 173.284 115 165 115C156.716 115 150 108.284 150 100C150 91.7157 156.716 85 165 85Z" fill="black"/>
<path d="M75 40C83.2843 40 90 46.7157 90 55C90 63.2843 83.2843 70 75 70C66.7157 70 60 63.2843 60 55C60 46.7157 66.7157 40 75 40Z" fill="black"/>
<path d="M120 40C128.284 40 135 46.7157 135 55C135 63.2843 128.284 70 120 70C111.716 70 105 63.2843 105 55C105 46.7157 111.716 40 120 40Z" fill="black"/>
<path d="M165 40C173.284 40 180 46.7157 180 55C180 63.2843 173.284 70 165 70C156.716 70 150 63.2843 150 55C150 46.7157 156.716 40 165 40Z" fill="black"/>
</svg>
