<svg width="240" height="240" viewBox="0 0 240 240" fill="none" xmlns="http://www.w3.org/2000/svg">
<path d="M120 100C131.046 100 140 108.954 140 120C140 131.046 131.046 140 120 140C108.954 140 100 131.046 100 120C100 108.954 108.954 100 120 100Z" fill="black"/>
<path fill-rule="evenodd" clip-rule="evenodd" d="M120 60C153.137 60 180 86.8629 180 120C180 153.137 153.137 180 120 180C86.8629 180 60 153.137 60 120C60 86.8629 86.8629 60 120 60ZM120 80C97.9086 80 80 97.9086 80 120C80 142.091 97.9086 160 120 160C142.091 160 160 142.091 160 120C160 97.9086 142.091 80 120 80Z" fill="black"/>
</svg>
