<svg width="240" height="240" viewBox="0 0 240 240" fill="none" xmlns="http://www.w3.org/2000/svg">
<path d="M189 70.5C189 109.436 157.436 141 118.5 141C79.5639 141 48 109.436 48 70.5C48 70.3332 48.0018 70.1665 48.0029 70L30.0029 70C30.002 70.1665 30 70.3332 30 70.5C30 116.377 64.5184 154.19 109 159.389L109 170L79 170L79 190L109 190L109 220L129 220L129 190L159 190L159 170L129 170L129 159.5C173.963 154.756 209 116.721 209 70.5C209 70.3332 208.998 70.1666 208.997 70L188.997 70C188.998 70.1665 189 70.3332 189 70.5Z" fill="black"/>
<path fill-rule="evenodd" clip-rule="evenodd" d="M119 20C91.39 20 69 42.39 69 70C69 97.61 91.39 120 119 120C146.61 120 169 97.61 169 70C169 42.39 146.61 20 119 20ZM119 40C135.57 40 149 53.43 149 70C149 86.57 135.57 100 119 100C102.43 100 89 86.57 89 70C89 53.43 102.43 40 119 40Z" fill="black"/>
</svg>
