<svg width="240" height="240" viewBox="0 0 240 240" fill="none" xmlns="http://www.w3.org/2000/svg">
<path d="M161.995 62.4268L147.853 76.5684L129.468 58.1836V80.8945C152.552 85.3205 170 105.627 170 130C170 157.61 147.61 180 120 180C92.39 180 70 157.61 70 130C70 105.932 87.0143 85.8304 109.669 81.0693V58.1836L91.2842 76.5684L77.1426 62.4268L119.568 20L161.995 62.4268ZM120 100C103.43 100 90 113.43 90 130C90 146.57 103.43 160 120 160C136.57 160 150 146.57 150 130C150 116.685 141.327 105.399 129.322 101.479C128.848 101.324 128.37 101.18 127.886 101.049C127.386 100.913 126.88 100.79 126.37 100.68C126.163 100.635 125.954 100.591 125.745 100.551C123.886 100.19 121.965 100 120 100ZM120 120C125.523 120 130 124.477 130 130C130 135.523 125.523 140 120 140C114.477 140 110 135.523 110 130C110 124.477 114.477 120 120 120Z" fill="black"/>
</svg>
