<svg width="240" height="240" viewBox="0 0 240 240" fill="none" xmlns="http://www.w3.org/2000/svg">
<path d="M100 20C127.614 20 150 42.3858 150 70V150C150 166.569 136.569 180 120 180C103.431 180 90 166.569 90 150V80H110V150C110 155.523 114.477 160 120 160C125.523 160 130 155.523 130 150V70C130 53.4315 116.569 40 100 40C83.4315 40 70 53.4315 70 70V150C70 177.614 92.3858 200 120 200C147.614 200 170 177.614 170 150V80H190V150C190 188.66 158.66 220 120 220C81.3401 220 50 188.66 50 150V70C50 42.3858 72.3858 20 100 20Z" fill="black"/>
</svg>
