<svg width="240" height="240" viewBox="0 0 240 240" fill="none" xmlns="http://www.w3.org/2000/svg">
<path fill-rule="evenodd" clip-rule="evenodd" d="M149.61 56.7695C153.02 58.3895 156.27 60.2802 159.35 62.4102L191.21 44.0195L221.21 95.9805L189.36 114.37C189.51 116.23 189.6 118.1 189.6 120C189.6 121.9 189.51 123.77 189.36 125.63L221.21 144.02H221.2L191.2 195.98L159.34 177.59C156.27 179.72 153.01 181.61 149.6 183.23V220H89.5996V183.23C86.1897 181.611 82.9403 179.72 79.8604 177.59L48 195.98L18 144.02L49.8496 125.63C49.6996 123.77 49.6104 121.9 49.6104 120C49.6104 118.1 49.6996 116.23 49.8496 114.37L18 95.9805L48.0098 44.0195L79.8701 62.4102C82.9501 60.2802 86.2003 58.3895 89.6104 56.7695V20H149.61V56.7695ZM120 90C103.431 90 90 103.431 90 120C90 136.569 103.431 150 120 150C136.569 150 150 136.569 150 120C150 103.431 136.569 90 120 90Z" fill="black"/>
</svg>
