<svg width="240" height="240" viewBox="0 0 240 240" fill="none" xmlns="http://www.w3.org/2000/svg">
<path fill-rule="evenodd" clip-rule="evenodd" d="M80 20C80 42.0914 97.9086 60 120 60C142.091 60 160 42.0914 160 20H180C180 41.6131 168.571 60.5559 151.429 71.1182C162.755 80.2854 170 94.2969 170 110C170 134.185 152.82 154.365 130 158.999V170H160V190H130V220H110V190H80V170H110V158.999C87.1803 154.365 70 134.185 70 110C70 94.2972 77.2444 80.2854 88.5703 71.1182C71.4279 60.5558 60 41.6128 60 20H80ZM120 80C103.43 80 90 93.43 90 110C90 126.57 103.43 140 120 140C136.57 140 150 126.57 150 110C150 93.43 136.57 80 120 80Z" fill="black"/>
</svg>
