<svg width="240" height="240" viewBox="0 0 240 240" fill="none" xmlns="http://www.w3.org/2000/svg">
<path fill-rule="evenodd" clip-rule="evenodd" d="M120 60C153.137 60 180 86.8629 180 120C180 153.137 153.137 180 120 180C86.8629 180 60 153.137 60 120C60 86.8629 86.8629 60 120 60ZM81.2607 130C84.8785 144.056 95.944 155.121 110 158.739V130H81.2607ZM130 130V158.739C144.056 155.121 155.121 144.056 158.739 130H130ZM110 81.2598C95.9439 84.8775 84.8786 95.944 81.2607 110H110V81.2598ZM130 110H158.739C155.121 95.944 144.056 84.8775 130 81.2598V110Z" fill="black"/>
</svg>
