<svg width="240" height="240" viewBox="0 0 240 240" fill="none" xmlns="http://www.w3.org/2000/svg">
<path fill-rule="evenodd" clip-rule="evenodd" d="M200 90H180V64L161.655 82.3428C166.926 90.2645 170 99.7735 170 110C170 134.185 152.82 154.365 130 158.999V170H160V190H130V220H110V190H80V170H110V158.999C87.1803 154.365 70 134.185 70 110C70 82.39 92.39 60 120 60C130.226 60 139.734 63.0728 147.655 68.3428L166 50H140V30H200V90ZM120 80C103.43 80 90 93.43 90 110C90 126.57 103.43 140 120 140C136.57 140 150 126.57 150 110C150 93.43 136.57 80 120 80Z" fill="black"/>
</svg>
