<svg width="240" height="240" viewBox="0 0 240 240" fill="none" xmlns="http://www.w3.org/2000/svg">
<path fill-rule="evenodd" clip-rule="evenodd" d="M150 150H90V90H150V150ZM110 130H130V110H110V130Z" fill="black"/>
<path fill-rule="evenodd" clip-rule="evenodd" d="M90 50H110V30H130V50H150V30H170V50H190V70H210V90H190V110H210V130H190V150H210V170H190V190H170V210H150V190H130V210H110V190H90V210H70V190H50V170H30V150H50V130H30V110H50V90H30V70H50V50H70V30H90V50ZM70 170H170V70H70V170Z" fill="black"/>
</svg>
