<svg width="240" height="240" viewBox="0 0 240 240" fill="none" xmlns="http://www.w3.org/2000/svg">
<path d="M90 105C98.2843 105 105 98.2843 105 90C105 81.7157 98.2843 75 90 75C81.7157 75 75 81.7157 75 90C75 98.2843 81.7157 105 90 105Z" fill="black"/>
<path d="M150 164C158.284 164 165 157.284 165 149C165 140.716 158.284 134 150 134C141.716 134 135 140.716 135 149C135 157.284 141.716 164 150 164Z" fill="black"/>
<path fill-rule="evenodd" clip-rule="evenodd" d="M180 40C191.046 40 200 48.9543 200 60V180C200 191.046 191.046 200 180 200H60C48.9543 200 40 191.046 40 180V60C40 48.9543 48.9543 40 60 40H180ZM60 60V180H180V60H60Z" fill="black"/>
</svg>
