<svg width="240" height="240" viewBox="0 0 240 240" fill="none" xmlns="http://www.w3.org/2000/svg">
<path d="M90.5 134.5C98.7843 134.5 105.5 141.216 105.5 149.5C105.5 157.784 98.7843 164.5 90.5 164.5C82.2157 164.5 75.5 157.784 75.5 149.5C75.5 141.216 82.2157 134.5 90.5 134.5Z" fill="black"/>
<path d="M150 134C158.284 134 165 140.716 165 149C165 157.284 158.284 164 150 164C141.716 164 135 157.284 135 149C135 140.716 141.716 134 150 134Z" fill="black"/>
<path d="M120 105C128.284 105 135 111.716 135 120C135 128.284 128.284 135 120 135C111.716 135 105 128.284 105 120C105 111.716 111.716 105 120 105Z" fill="black"/>
<path d="M90 75C98.2843 75 105 81.7157 105 90C105 98.2843 98.2843 105 90 105C81.7157 105 75 98.2843 75 90C75 81.7157 81.7157 75 90 75Z" fill="black"/>
<path d="M149.5 74.5C157.784 74.5 164.5 81.2157 164.5 89.5C164.5 97.7843 157.784 104.5 149.5 104.5C141.216 104.5 134.5 97.7843 134.5 89.5C134.5 81.2157 141.216 74.5 149.5 74.5Z" fill="black"/>
<path fill-rule="evenodd" clip-rule="evenodd" d="M180 40C191.046 40 200 48.9543 200 60V180C200 191.046 191.046 200 180 200H60C48.9543 200 40 191.046 40 180V60C40 48.9543 48.9543 40 60 40H180ZM60 180H180V60H60V180Z" fill="black"/>
</svg>
