<svg width="240" height="240" viewBox="0 0 240 240" fill="none" xmlns="http://www.w3.org/2000/svg">
<path d="M160 60C193.137 60 220 86.8629 220 120C220 153.137 193.137 180 160 180H80C46.8629 180 20 153.137 20 120C20 86.8629 46.8629 60 80 60H160ZM80 80C57.9086 80 40 97.9086 40 120C40 142.091 57.9086 160 80 160H160C182.091 160 200 142.091 200 120C200 97.9086 182.091 80 160 80H80ZM160 100C171.046 100 180 108.954 180 120C180 131.046 171.046 140 160 140C148.954 140 140 131.046 140 120C140 108.954 148.954 100 160 100Z" fill="black"/>
</svg>
