<svg width="240" height="240" viewBox="0 0 240 240" fill="none" xmlns="http://www.w3.org/2000/svg">
<path fill-rule="evenodd" clip-rule="evenodd" d="M120 40C164.183 40 200 75.8172 200 120C200 164.183 164.183 200 120 200C75.8172 200 40 164.183 40 120C40 75.8172 75.8172 40 120 40ZM60.8301 130C65.5909 158.377 90.2701 180 120 180C149.73 180 174.409 158.377 179.17 130H148.291C144.172 141.652 133.062 150 120 150C106.938 150 95.8275 141.652 91.709 130H60.8301ZM120 109C113.925 109 109 113.925 109 120C109 126.075 113.925 131 120 131C126.075 131 131 126.075 131 120C131 113.925 126.075 109 120 109ZM120 60C90.2701 60 65.5909 81.6229 60.8301 110H91.709C95.8275 98.3484 106.938 90 120 90C133.062 90 144.172 98.3484 148.291 110H179.17C174.409 81.6229 149.73 60 120 60Z" fill="black"/>
</svg>
