<svg width="240" height="240" viewBox="0 0 240 240" fill="none" xmlns="http://www.w3.org/2000/svg">
<path d="M130 57.0195L158.302 40.6797L168.301 58L139.998 74.3389L168.301 90.6797L158.301 108L130 91.6602V111C152.822 115.633 170 135.81 170 160C170 187.614 147.614 210 120 210C92.3858 210 70 187.614 70 160C70 135.81 87.1776 115.633 110 111V91.6602L81.6992 108L71.6992 90.6797L100 74.3389L71.6992 58L81.6982 40.6797L110 57.0195V30H130V57.0195ZM120 130C103.431 130 90 143.431 90 160C90 176.569 103.431 190 120 190C136.569 190 150 176.569 150 160C150 143.431 136.569 130 120 130Z" fill="black"/>
</svg>
