<svg width="240" height="240" viewBox="0 0 240 240" fill="none" xmlns="http://www.w3.org/2000/svg">
<path d="M90 140.5C98.2843 140.5 105 147.216 105 155.5C105 163.784 98.2843 170.5 90 170.5C81.7157 170.5 75 163.784 75 155.5C75 147.216 81.7157 140.5 90 140.5Z" fill="black"/>
<path d="M149.5 140C157.784 140 164.5 146.716 164.5 155C164.5 163.284 157.784 170 149.5 170C141.216 170 134.5 163.284 134.5 155C134.5 146.716 141.216 140 149.5 140Z" fill="black"/>
<path d="M90 105.5C98.2843 105.5 105 112.216 105 120.5C105 128.784 98.2843 135.5 90 135.5C81.7157 135.5 75 128.784 75 120.5C75 112.216 81.7157 105.5 90 105.5Z" fill="black"/>
<path d="M149.5 105C157.784 105 164.5 111.716 164.5 120C164.5 128.284 157.784 135 149.5 135C141.216 135 134.5 128.284 134.5 120C134.5 111.716 141.216 105 149.5 105Z" fill="black"/>
<path d="M90 70.5C98.2843 70.5 105 77.2157 105 85.5C105 93.7843 98.2843 100.5 90 100.5C81.7157 100.5 75 93.7843 75 85.5C75 77.2157 81.7157 70.5 90 70.5Z" fill="black"/>
<path d="M149.5 70C157.784 70 164.5 76.7157 164.5 85C164.5 93.2843 157.784 100 149.5 100C141.216 100 134.5 93.2843 134.5 85C134.5 76.7157 141.216 70 149.5 70Z" fill="black"/>
<path fill-rule="evenodd" clip-rule="evenodd" d="M180 40C191.046 40 200 48.9543 200 60V180C200 191.046 191.046 200 180 200H60C48.9543 200 40 191.046 40 180V60C40 48.9543 48.9543 40 60 40H180ZM60 180H180V60H60V180Z" fill="black"/>
</svg>
