<svg width="240" height="240" viewBox="0 0 240 240" fill="none" xmlns="http://www.w3.org/2000/svg">
<path d="M90 135.5C98.2843 135.5 105 128.784 105 120.5C105 112.216 98.2843 105.5 90 105.5C81.7157 105.5 75 112.216 75 120.5C75 128.784 81.7157 135.5 90 135.5Z" fill="black"/>
<path d="M164.5 120C164.5 111.716 157.784 105 149.5 105C141.216 105 134.5 111.716 134.5 120C134.5 128.284 141.216 135 149.5 135C157.784 135 164.5 128.284 164.5 120Z" fill="black"/>
<path d="M90 100.5C98.2843 100.5 105 93.7843 105 85.5C105 77.2157 98.2843 70.5 90 70.5C81.7157 70.5 75 77.2157 75 85.5C75 93.7843 81.7157 100.5 90 100.5Z" fill="black"/>
<path d="M90 170.5C98.2843 170.5 105 163.784 105 155.5C105 147.216 98.2843 140.5 90 140.5C81.7157 140.5 75 147.216 75 155.5C75 163.784 81.7157 170.5 90 170.5Z" fill="black"/>
<path d="M164.5 85C164.5 76.7157 157.784 70 149.5 70C141.216 70 134.5 76.7157 134.5 85C134.5 93.2843 141.216 100 149.5 100C157.784 100 164.5 93.2843 164.5 85Z" fill="black"/>
<path d="M164.5 155C164.5 146.716 157.784 140 149.5 140C141.216 140 134.5 146.716 134.5 155C134.5 163.284 141.216 170 149.5 170C157.784 170 164.5 163.284 164.5 155Z" fill="black"/>
<path fill-rule="evenodd" clip-rule="evenodd" d="M180 40C191.046 40 200 48.9543 200 60V180C200 191.046 191.046 200 180 200H60C48.9543 200 40 191.046 40 180V60C40 48.9543 48.9543 40 60 40H180ZM60 60V180H180V60H60Z" fill="black"/>
</svg>
