<svg width="240" height="240" viewBox="0 0 240 240" fill="none" xmlns="http://www.w3.org/2000/svg">
<path fill-rule="evenodd" clip-rule="evenodd" d="M200 93.0195C200 107.699 196.08 122.66 188.36 137.47C182.56 148.58 174.6 159.65 164.69 170.38C148.252 188.168 131.764 199.207 131.07 199.67L119.98 207.04L108.9 199.65C108.21 199.18 91.7298 188.12 75.2998 170.32C65.3898 159.59 57.4296 148.51 51.6396 137.41C43.9197 122.6 40 107.66 40 93V30H200V93.0195ZM60 93C60 143 120 183 120 183C120 183 180 143.12 180 93V50H60V93Z" fill="black"/>
</svg>
