<svg width="240" height="240" viewBox="0 0 240 240" fill="none" xmlns="http://www.w3.org/2000/svg">
<path fill-rule="evenodd" clip-rule="evenodd" d="M140 150C140 136.938 148.348 125.828 160 121.709L160 40L180 40L180 121.709C191.652 125.828 200 136.938 200 150C200 163.062 191.652 174.172 180 178.291L180 200L160 200L160 178.291C148.348 174.172 140 163.062 140 150ZM160 150C160 155.523 164.477 160 170 160C175.523 160 180 155.523 180 150C180 144.477 175.523 140 170 140C164.477 140 160 144.477 160 150Z" fill="black"/>
<path fill-rule="evenodd" clip-rule="evenodd" d="M40 90C40 76.938 48.3484 65.8275 60 61.709L60 40L80 40L80 61.709C91.6516 65.8275 100 76.938 100 90C100 103.062 91.6516 114.172 80 118.291L80 200L60 200L60 118.291C48.3484 114.172 40 103.062 40 90ZM60 90C60 95.5228 64.4771 100 70 100C75.5228 100 80 95.5228 80 90C80 84.4772 75.5228 80 70 80C64.4771 80 60 84.4771 60 90Z" fill="black"/>
</svg>
