<svg width="240" height="240" viewBox="0 0 240 240" fill="none" xmlns="http://www.w3.org/2000/svg">
<path d="M70.2598 139.746C75.6497 139.746 80.0194 144.116 80.0195 149.506C80.0195 154.896 75.6498 159.266 70.2598 159.266C64.8699 159.266 60.5 154.896 60.5 149.506C60.5001 144.116 64.8699 139.746 70.2598 139.746Z" fill="black"/>
<path fill-rule="evenodd" clip-rule="evenodd" d="M120 37.7744L134.478 25L200 100L110.09 179.883C110.061 179.922 110.031 179.961 110.002 180H140V200H70C42.3858 200 20 177.614 20 150V20H120V37.7744ZM40 150C40 166.569 53.4315 180 70 180C86.5685 180 100 166.569 100 150V40H40V150ZM120 64.4473V144.466L172.412 98.2188L132.714 53.2295L120 64.4473Z" fill="black"/>
<path d="M200 180V160H180V180H160V200H180V220H200V200H220V180H200Z" fill="black"/>
</svg>
