<svg width="240" height="240" viewBox="0 0 240 240" fill="none" xmlns="http://www.w3.org/2000/svg">
<path d="M170 100L170 40L190 40L190 100L210 100L210 120L150 120L150 100L170 100Z" fill="black"/>
<path d="M190 140L190 200L170 200L170 140L190 140Z" fill="black"/>
<path d="M150 140L150 160L130 160L130 200L110 200L110 160L90 160L90 140L150 140Z" fill="black"/>
<path d="M110 40L130 40L130 120L110 120L110 40Z" fill="black"/>
<path d="M50 80L50 40L70 40L70 80L90 80L90 100L30 100L30 80L50 80Z" fill="black"/>
<path d="M70 120L70 200L50 200L50 120L70 120Z" fill="black"/>
</svg>
