<svg width="240" height="240" viewBox="0 0 240 240" fill="none" xmlns="http://www.w3.org/2000/svg">
<path fill-rule="evenodd" clip-rule="evenodd" d="M123.634 40C145.727 40 163.634 57.9092 163.634 80C163.634 102.091 145.727 120 123.634 120H196.366C198.373 120 200 121.627 200 123.634C200 145.727 182.091 163.634 160 163.634C137.909 163.634 120 145.727 120 123.634V196.366C120 198.373 118.373 200 116.366 200C94.2727 200 76.3662 182.091 76.3662 160C76.3662 138.254 93.7175 120.56 115.334 120.013L116.366 120H43.6338C41.6271 120 40 118.373 40 116.366C40 94.2727 57.9092 76.3662 80 76.3662C102.091 76.3662 120 94.2727 120 116.366V43.6338C120 41.6271 121.627 40.0001 123.634 40Z" fill="black"/>
</svg>
