<svg width="240" height="240" viewBox="0 0 240 240" fill="none" xmlns="http://www.w3.org/2000/svg">
<path fill-rule="evenodd" clip-rule="evenodd" d="M120.001 182.913C117.509 185.18 114.739 187.216 111.703 188.969C88.8554 202.16 59.5961 194.32 46.4048 171.472C33.2135 148.624 41.0541 119.365 63.9022 106.173C66.9375 104.421 70.0854 103.04 73.2943 102.015C72.5771 98.7242 72.1988 95.3066 72.1988 91.8021C72.1988 65.4194 93.6182 44 120.001 44C146.384 44 167.803 65.4194 167.803 91.8021C167.803 95.3066 167.425 98.7242 166.707 102.015C169.916 103.04 173.064 104.421 176.1 106.173C198.948 119.365 206.788 148.624 193.597 171.472C180.406 194.32 151.146 202.16 128.298 188.969C125.263 187.216 122.493 185.18 120.001 182.913ZM81.7312 120.435C69.3022 123.208 60.0011 134.312 60.0011 147.571C60.0011 162.915 72.4585 175.373 87.8025 175.373C95.8928 175.373 103.18 171.91 108.262 166.387C112.82 161.434 115.605 154.825 115.605 147.571C115.605 144.681 115.163 141.893 114.343 139.272C111.295 138.912 108.336 138.265 105.491 137.358C95.9086 134.305 87.6338 128.309 81.7312 120.435ZM131.748 128.748C132.957 131.564 133.874 134.446 134.511 137.358C136.657 147.179 135.604 157.339 131.74 166.385C136.822 171.908 144.109 175.371 152.199 175.371C167.542 175.371 179.999 162.914 179.999 147.571C179.999 134.313 170.698 123.21 158.27 120.437C156.315 120.001 154.283 119.771 152.199 119.771C144.113 119.771 136.829 123.231 131.748 128.748ZM146.536 100.112C147.358 97.4876 147.801 94.6962 147.801 91.8021C147.801 76.459 135.344 64.0024 120.001 64.0024C104.658 64.0024 92.2012 76.459 92.2012 91.8021C92.2012 94.6962 92.6438 97.4876 93.4663 100.112C96.4096 109.507 104.209 116.764 113.92 118.934C115.755 116.475 117.794 114.237 120.001 112.227C127.436 105.455 136.765 101.287 146.536 100.112Z" fill="black"/>
</svg>
