<svg width="240" height="240" viewBox="0 0 240 240" fill="none" xmlns="http://www.w3.org/2000/svg">
<path fill-rule="evenodd" clip-rule="evenodd" d="M175 30C194.33 30 210 45.67 210 65C210 84.33 194.33 100 175 100H160V140H175L175.903 140.012C194.816 140.491 210 155.972 210 175C210 194.33 194.33 210 175 210C155.972 210 140.491 194.816 140.012 175.903L140 175V160H100V175L99.9883 175.903C99.5091 194.816 84.0279 210 65 210C45.67 210 30 194.33 30 175C30 155.67 45.67 140 65 140H80V100H65C45.67 100 30 84.33 30 65C30 45.67 45.67 30 65 30C84.33 30 100 45.67 100 65V80H140V65C140 45.67 155.67 30 175 30ZM65 160C56.7157 160 50 166.716 50 175C50 183.284 56.7157 190 65 190C73.155 190 79.79 183.492 79.9951 175.387L80 175V160H65ZM160 160V175L160.005 175.387C160.21 183.492 166.845 190 175 190C183.284 190 190 183.284 190 175C190 166.845 183.492 160.21 175.387 160.005L175 160H160ZM100 140H140V100H100V140ZM65 50C56.7157 50 50 56.7157 50 65C50 73.2843 56.7157 80 65 80H80V65C80 56.7157 73.2843 50 65 50ZM175 50C166.716 50 160 56.7157 160 65V80H175L175.387 79.9951C183.492 79.79 190 73.155 190 65C190 56.7157 183.284 50 175 50Z" fill="black"/>
</svg>
