<svg width="240" height="240" viewBox="0 0 240 240" fill="none" xmlns="http://www.w3.org/2000/svg">
<path d="M84.2598 149.746C89.6497 149.746 94.0194 154.116 94.0195 159.506C94.0195 164.896 89.6498 169.266 84.2598 169.266C78.8699 169.266 74.5 164.896 74.5 159.506C74.5001 154.116 78.8699 149.746 84.2598 149.746Z" fill="black"/>
<path fill-rule="evenodd" clip-rule="evenodd" d="M134 47.7744L148.478 35L214 110L194 130V210C157.355 210 120.532 210 84 210C56.3858 210 34 187.614 34 160V30H134V47.7744ZM124.09 189.883C124.061 189.922 124.031 189.961 124.002 190H174V145.703L124.09 189.883ZM54 160C54 176.569 67.4315 190 84 190C100.569 190 114 176.569 114 160V50H54V160ZM134 74.4473V154.466L186.412 108.219L146.714 63.2295L134 74.4473Z" fill="black"/>
</svg>
