<svg width="240" height="240" viewBox="0 0 240 240" fill="none" xmlns="http://www.w3.org/2000/svg">
<path fill-rule="evenodd" clip-rule="evenodd" d="M150 90C136.938 90 125.828 98.3484 121.709 110L40 110L40 130L121.709 130C125.828 141.652 136.938 150 150 150C163.062 150 174.172 141.652 178.291 130L200 130L200 110L178.291 110C174.172 98.3484 163.062 90 150 90ZM150 110C155.523 110 160 114.477 160 120C160 125.523 155.523 130 150 130C144.477 130 140 125.523 140 120C140 114.477 144.477 110 150 110Z" fill="black"/>
</svg>
