<svg width="240" height="240" viewBox="0 0 240 240" fill="none" xmlns="http://www.w3.org/2000/svg">
<path fill-rule="evenodd" clip-rule="evenodd" d="M120 23C164.11 23 200 58.8897 200 103.02C200 117.699 196.08 132.66 188.36 147.47C182.56 158.58 174.6 169.65 164.69 180.38C148.252 198.168 131.764 209.207 131.07 209.67L119.98 217.04L108.9 209.65C108.21 209.18 91.7298 198.12 75.2998 180.32C65.3898 169.59 57.4296 158.51 51.6396 147.41C43.9197 132.6 40 117.66 40 103C40 58.89 75.89 23 120 23ZM120 80C108.954 80 100 88.9543 100 100C100 111.046 108.954 120 120 120C131.046 120 140 111.046 140 100C140 88.9543 131.046 80 120 80Z" fill="black"/>
</svg>
