<svg width="240" height="240" viewBox="0 0 240 240" fill="none" xmlns="http://www.w3.org/2000/svg">
<path fill-rule="evenodd" clip-rule="evenodd" d="M105.955 39.9072C110.831 26.7291 129.845 26.9419 134.266 40.5449L149.492 87.4072H198.766C213.297 87.4078 219.338 106.002 207.583 114.543L167.719 143.505L182.946 190.367C187.436 204.187 171.619 215.678 159.863 207.138L120 178.175L80.1366 207.138C68.3809 215.679 52.5636 204.187 57.0536 190.367L72.2802 143.505L32.4169 114.543C20.6616 106.002 26.7029 87.4076 41.2333 87.4072H90.5077L105.734 40.5449L105.955 39.9072ZM104.957 107.296H56.2792L95.661 135.908L80.618 182.204L120 153.592L159.382 182.204L144.339 135.908L183.721 107.296H135.042L120 60.9999L104.957 107.296Z" fill="black"/>
</svg>
