<svg width="240" height="240" viewBox="0 0 240 240" fill="none" xmlns="http://www.w3.org/2000/svg">
<path fill-rule="evenodd" clip-rule="evenodd" d="M105.955 39.9072C110.831 26.7291 129.845 26.9419 134.266 40.5449L149.492 87.4072H198.766C213.297 87.4077 219.338 106.002 207.583 114.543L167.719 143.505L182.946 190.367C187.436 204.187 171.619 215.678 159.863 207.138L120 178.175L80.1366 207.138C68.381 215.679 52.5637 204.187 57.0536 190.367L72.2802 143.505L32.4169 114.543C20.6616 106.002 26.7029 87.4076 41.2333 87.4072H90.5077L105.734 40.5449L105.955 39.9072ZM80.83 181.911L95.6815 171.12C92.3663 169.246 89.2884 167.003 86.5048 164.443L80.83 181.911ZM153.493 164.443C150.709 167.003 147.632 169.247 144.316 171.121L159.169 181.911L153.493 164.443ZM71.4716 118.196C72.2288 114.427 73.4149 110.814 74.9755 107.407H56.622L71.4716 118.196ZM165.023 107.407C166.584 110.814 167.77 114.427 168.527 118.196L183.378 107.407H165.023ZM114.326 78.8212C116.188 78.6088 118.081 78.5 120 78.5C121.918 78.5 123.811 78.6089 125.673 78.8212L120 61.3593L114.326 78.8212Z" fill="black"/>
<path d="M120 61L135.042 107.296H183.721L144.339 135.908L159.382 182.204L120 153.592L80.6184 182.204L95.6608 135.908L56.2792 107.296H104.958L120 61Z" fill="black"/>
</svg>
