<svg width="240" height="240" viewBox="0 0 240 240" fill="none" xmlns="http://www.w3.org/2000/svg">
<path fill-rule="evenodd" clip-rule="evenodd" d="M70 80C47.9086 80 30 97.9086 30 120C30 142.091 47.9086 160 70 160H170C192.091 160 210 142.091 210 120C210 97.9086 192.091 80 170 80C147.909 80 130 97.9086 130 120C130 127.286 131.949 134.116 135.353 140H104.647C108.051 134.116 110 127.286 110 120C110 97.9086 92.0914 80 70 80ZM170 100C181.046 100 190 108.954 190 120C190 131.046 181.046 140 170 140C158.954 140 150 131.046 150 120C150 108.954 158.954 100 170 100ZM70 100C81.0457 100 90 108.954 90 120C90 131.046 81.0457 140 70 140C58.9543 140 50 131.046 50 120C50 108.954 58.9543 100 70 100Z" fill="black"/>
</svg>
