<svg width="240" height="240" viewBox="0 0 240 240" fill="none" xmlns="http://www.w3.org/2000/svg">
<path d="M187.713 106.078C191.3 95.2507 190.065 83.3901 184.329 73.5418C175.703 58.4365 158.361 50.6652 141.425 54.3222C133.89 45.7857 123.065 40.9312 111.717 41.0007C94.405 40.961 79.0447 52.1707 73.7187 68.7369C62.5974 71.0275 52.9979 78.0287 47.3804 87.9515C38.6899 103.017 40.6711 122.008 52.2815 134.927C48.6946 145.754 49.9298 157.615 55.6658 167.463C64.2921 182.568 81.6336 190.34 98.5699 186.683C106.099 195.219 116.929 200.074 128.278 199.999C145.599 200.044 160.965 188.824 166.291 172.243C177.412 169.952 187.012 162.951 192.629 153.029C201.31 137.963 199.324 118.987 187.718 106.068L187.713 106.078ZM128.288 189.609C121.356 189.619 114.642 187.18 109.321 182.713C109.563 182.583 109.983 182.35 110.254 182.181L141.736 163.895C143.347 162.976 144.335 161.252 144.325 159.389V114.753L157.63 122.48C157.773 122.55 157.867 122.689 157.887 122.848V159.811C157.867 176.248 144.631 189.575 128.288 189.609ZM64.633 162.266C61.1597 156.233 59.9098 149.163 61.1004 142.301C61.3327 142.44 61.7427 142.693 62.0342 142.862L93.5157 161.148C95.1115 162.087 97.0877 162.087 98.6885 161.148L137.121 138.828V154.281C137.131 154.44 137.057 154.594 136.934 154.693L105.111 173.172C90.9367 181.381 72.8344 176.501 64.6379 162.266H64.633ZM56.3476 93.1539C59.806 87.1117 65.2654 82.4907 71.7672 80.0907C71.7672 80.364 71.7524 80.846 71.7524 81.1839V117.76C71.7425 119.618 72.7306 121.342 74.3363 122.261L112.769 144.577L99.4642 152.303C99.3308 152.393 99.1628 152.407 99.0146 152.343L67.1873 133.849C53.0423 125.61 48.1907 107.41 56.3427 93.1588L56.3476 93.1539ZM165.663 118.738L127.23 96.4184L140.535 88.6968C140.669 88.6073 140.837 88.5924 140.985 88.657L172.812 107.136C186.982 115.37 191.839 133.6 183.652 147.851C180.189 153.883 174.734 158.504 168.237 160.909V123.24C168.252 121.382 167.269 119.663 165.668 118.738H165.663ZM178.904 98.6941C178.672 98.55 178.262 98.3016 177.97 98.1326L146.489 79.8473C144.893 78.9081 142.917 78.9081 141.316 79.8473L102.883 102.167V86.7142C102.873 86.5552 102.947 86.4012 103.071 86.3018L134.893 67.8375C149.068 59.6141 167.19 64.5084 175.362 78.769C178.815 84.7913 180.065 91.8421 178.894 98.6941H178.904ZM95.65 126.236L82.3401 118.51C82.1968 118.44 82.1029 118.301 82.0832 118.142V81.1789C82.093 64.7221 95.3684 51.3856 111.732 51.3956C118.653 51.3956 125.353 53.8403 130.674 58.2924C130.432 58.4215 130.017 58.6551 129.74 58.824L98.2587 77.1094C96.648 78.0287 95.6599 79.7479 95.6698 81.6112L95.65 126.227V126.236ZM102.878 110.565L119.997 100.622L137.116 110.56V130.44L119.997 140.378L102.878 130.44V110.565Z" fill="black"/>
</svg>
