<svg width="240" height="240" viewBox="0 0 240 240" fill="none" xmlns="http://www.w3.org/2000/svg">
<path fill-rule="evenodd" clip-rule="evenodd" d="M120 60C136.569 60 150 73.4315 150 90C150 106.569 136.569 120 120 120C103.431 120 90 106.569 90 90C90 73.4315 103.431 60 120 60ZM120 80C114.477 80 110 84.4771 110 90C110 95.5229 114.477 100 120 100C125.523 100 130 95.5229 130 90C130 84.4771 125.523 80 120 80Z" fill="black"/>
<path fill-rule="evenodd" clip-rule="evenodd" d="M120 20C175.228 20 220 64.7715 220 120C220 175.228 175.228 220 120 220C64.7715 220 20 175.228 20 120C20 64.7715 64.7715 20 120 20ZM120 160C101.358 160 85.6981 172.753 81.2617 190.011C92.7393 196.375 105.946 200 120 200C134.053 200 147.259 196.375 158.736 190.012C154.3 172.754 138.642 160 120 160ZM120 40C75.8172 40 40 75.8172 40 120C40 142.563 49.342 162.943 64.3672 177.486C73.2713 155.505 94.8249 140 120 140C145.175 140 166.728 155.505 175.632 177.486C190.657 162.943 200 142.563 200 120C200 75.8172 164.183 40 120 40Z" fill="black"/>
</svg>
