<svg width="240" height="240" viewBox="0 0 240 240" fill="none" xmlns="http://www.w3.org/2000/svg">
<path d="M120 110C125.523 110 130 114.477 130 120C130 125.523 125.523 130 120 130C114.477 130 110 125.523 110 120C110 114.477 114.477 110 120 110Z" fill="black"/>
<path fill-rule="evenodd" clip-rule="evenodd" d="M160 60H200V180H40V60H80L100 40H140L160 60ZM120 90C103.431 90 90 103.431 90 120C90 136.569 103.431 150 120 150C136.569 150 150 136.569 150 120C150 103.431 136.569 90 120 90ZM70 90.001C56.6667 89.8085 56.6667 110.181 70 109.999C83.3333 110.191 83.3333 89.8186 70 90.001Z" fill="black"/>
</svg>
