<svg width="240" height="240" viewBox="0 0 240 240" fill="none" xmlns="http://www.w3.org/2000/svg">
<path d="M110 130L110 70L130 70L130 130L110 130Z" fill="black"/>
<path d="M120 170C114.477 170 110 165.523 110 160C110 154.477 114.477 150 120 150C125.523 150 130 154.477 130 160C130 165.523 125.523 170 120 170Z" fill="black"/>
<path fill-rule="evenodd" clip-rule="evenodd" d="M120 220C64.77 220 20 175.23 20 120C20 64.77 64.77 20 120 20C175.23 20 220 64.77 220 120C220 175.23 175.23 220 120 220ZM120 200C164.18 200 200 164.18 200 120C200 75.82 164.18 40 120 40C75.82 40 40 75.82 40 120C40 164.18 75.82 200 120 200Z" fill="black"/>
</svg>
