<svg width="240" height="240" viewBox="0 0 240 240" fill="none" xmlns="http://www.w3.org/2000/svg">
<path d="M109.246 147.886C115.104 142.028 124.601 142.028 130.459 147.886C136.317 153.744 136.317 163.241 130.459 169.099C124.601 174.957 115.104 174.957 109.246 169.099C103.388 163.241 103.388 153.744 109.246 147.886Z" fill="black"/>
<path d="M63.2842 123.137C94.526 91.8952 145.179 91.8953 176.421 123.137L162.279 137.28C138.848 113.848 100.858 113.848 77.4268 137.28L63.2842 123.137Z" fill="black"/>
<path d="M35 94.8529C81.8629 47.99 157.843 47.99 204.706 94.8529L190.563 108.994C151.511 69.9424 88.195 69.9426 49.1426 108.994L35 94.8529Z" fill="black"/>
</svg>
