<svg width="240" height="240" viewBox="0 0 240 240" fill="none" xmlns="http://www.w3.org/2000/svg">
<path d="M200.035 54.1074L54.1064 200.035L39.9639 185.894L185.893 39.9648L200.035 54.1074Z" fill="black"/>
<path fill-rule="evenodd" clip-rule="evenodd" d="M165 130C184.33 130 200 145.67 200 165C200 184.33 184.33 200 165 200C145.67 200 130 184.33 130 165C130 145.67 145.67 130 165 130ZM165 150C156.716 150 150 156.716 150 165C150 173.284 156.716 180 165 180C173.284 180 180 173.284 180 165C180 156.716 173.284 150 165 150Z" fill="black"/>
<path fill-rule="evenodd" clip-rule="evenodd" d="M75 40C94.33 40 110 55.67 110 75C110 94.33 94.33 110 75 110C55.67 110 40 94.33 40 75C40 55.67 55.67 40 75 40ZM75 60C66.7157 60 60 66.7157 60 75C60 83.2843 66.7157 90 75 90C83.2843 90 90 83.2843 90 75C90 66.7157 83.2843 60 75 60Z" fill="black"/>
</svg>
