<svg width="240" height="240" viewBox="0 0 240 240" fill="none" xmlns="http://www.w3.org/2000/svg">
<path d="M72.9375 190C67.4147 190 62.9375 194.477 62.9375 200C62.9375 205.523 67.4147 210 72.9375 210C78.4603 210 82.9375 205.523 82.9375 200C82.9375 194.477 78.4603 190 72.9375 190Z" fill="black"/>
<path d="M136.875 148.08L158.796 169.999L137.582 191.213L151.725 205.355L172.938 184.142L194.858 206.062L209 191.92L187.08 170L208.293 148.787L194.15 134.645L172.938 155.857L151.018 133.938L136.875 148.08Z" fill="black"/>
<path d="M33.9375 180H111.938V160H33.9375V180Z" fill="black"/>
<path d="M72.9375 130C67.4147 130 62.9375 134.477 62.9375 140C62.9375 145.523 67.4147 150 72.9375 150C78.4603 150 82.9375 145.523 82.9375 140C82.9375 134.477 78.4603 130 72.9375 130Z" fill="black"/>
<path d="M80 60H110V80H80V110H60V80H30V60H60V30H80V60Z" fill="black"/>
<path d="M210 80H130V60H210V80Z" fill="black"/>
</svg>
