<svg width="240" height="240" viewBox="0 0 240 240" fill="none" xmlns="http://www.w3.org/2000/svg">
<path d="M140 40H120C86.86 40 60 66.86 60 100C60 150 120 190 120 190C120 190 180 150.12 180 100H200C200 100.007 200 100.013 200 100.02C200 114.699 196.08 129.66 188.36 144.47C182.56 155.58 174.6 166.65 164.69 177.38C148.252 195.168 131.764 206.207 131.07 206.67L119.98 214.04L108.9 206.65C108.21 206.18 91.7298 195.12 75.2998 177.32C65.3898 166.59 57.4296 155.51 51.6396 144.41C43.9197 129.6 40 114.66 40 100C40 55.89 75.89 20 120 20H140V40Z" fill="black"/>
<path fill-rule="evenodd" clip-rule="evenodd" d="M120 70C136.57 70 150 83.43 150 100C150 116.57 136.57 130 120 130C103.43 130 90 116.57 90 100C90 83.43 103.43 70 120 70ZM120 90C114.48 90 110 94.48 110 100C110 105.52 114.48 110 120 110C125.52 110 130 105.52 130 100C130 94.48 125.52 90 120 90Z" fill="black"/>
<path d="M200 40H220V60H200V80H180V60H160V40H180V20H200V40Z" fill="black"/>
</svg>
