<svg width="240" height="240" viewBox="0 0 240 240" fill="none" xmlns="http://www.w3.org/2000/svg">
<path fill-rule="evenodd" clip-rule="evenodd" d="M180 80H220V140H200V100H40V160H60V140H142V160H80V200H140V220H60V180H20V80H60V20H180V80ZM80 80H160V40H80V80Z" fill="black"/>
<path d="M200 160V180H220V200H200V220H180V200H160V180H180V160H200Z" fill="black"/>
<path d="M170 110C175.523 110 180 114.477 180 120C180 125.523 175.523 130 170 130C164.477 130 160 125.523 160 120C160 114.478 164.478 110 170 110Z" fill="black"/>
</svg>
