<svg width="240" height="240" viewBox="0 0 240 240" fill="none" xmlns="http://www.w3.org/2000/svg">
<path d="M92.0059 91.4316C84.5979 98.6916 80 108.808 80 120C80 142.091 97.9086 160 120 160C142.091 160 160 142.091 160 120C160 109.025 155.579 99.0837 148.422 91.8564L162.565 77.7129C173.342 88.5596 180 103.502 180 120C180 153.137 153.137 180 120 180C86.8629 180 60 153.137 60 120C60 103.285 66.8343 88.1668 77.8613 77.2871L92.0059 91.4316Z" fill="black"/>
<path d="M130 120H110V60H130V120Z" fill="black"/>
<path fill-rule="evenodd" clip-rule="evenodd" d="M120 20C175.228 20 220 64.7715 220 120C220 175.228 175.228 220 120 220C64.7715 220 20 175.228 20 120C20 64.7715 64.7715 20 120 20ZM120 40C75.8172 40 40 75.8172 40 120C40 164.183 75.8172 200 120 200C164.183 200 200 164.183 200 120C200 75.8172 164.183 40 120 40Z" fill="black"/>
</svg>
