<svg width="240" height="240" viewBox="0 0 240 240" fill="none" xmlns="http://www.w3.org/2000/svg">
<path d="M148.568 92.0059C141.308 84.5979 131.192 80 120 80C97.9086 80 80 97.9086 80 120C80 142.091 97.9086 160 120 160C130.975 160 140.916 155.579 148.144 148.422L162.287 162.565C151.44 173.342 136.498 180 120 180C86.8629 180 60 153.137 60 120C60 86.8629 86.8629 60 120 60C136.715 60 151.833 66.8343 162.713 77.8613L148.568 92.0059Z" fill="black"/>
<path fill-rule="evenodd" clip-rule="evenodd" d="M220 120C220 175.228 175.228 220 120 220C64.7715 220 20 175.228 20 120C20 64.7715 64.7715 20 120 20C175.228 20 220 64.7715 220 120ZM200 120C200 75.8172 164.183 40 120 40C75.8172 40 40 75.8172 40 120C40 164.183 75.8172 200 120 200C164.183 200 200 164.183 200 120Z" fill="black"/>
</svg>
