<svg width="240" height="240" viewBox="0 0 240 240" fill="none" xmlns="http://www.w3.org/2000/svg">
<path d="M35 170C43.2843 170 50 176.716 50 185C50 193.284 43.2843 200 35 200C26.7157 200 20 193.284 20 185C20 176.716 26.7157 170 35 170Z" fill="black"/>
<path d="M20 120C64.1828 120 100 155.817 100 200H80C80 166.863 53.1371 140 20 140V120Z" fill="black"/>
<path d="M20 80C86.2742 80 140 133.726 140 200H120C120 144.772 75.2285 100 20 100V80Z" fill="black"/>
<path d="M220 200H160V180H201V60H20V40H220V200Z" fill="black"/>
</svg>
