<svg width="240" height="240" viewBox="0 0 240 240" fill="none" xmlns="http://www.w3.org/2000/svg">
<path fill-rule="evenodd" clip-rule="evenodd" d="M120 20C175.228 20 220 64.7715 220 120C220 175.228 175.228 220 120 220C64.7715 220 20 175.228 20 120C20 64.7715 64.7715 20 120 20ZM145 140C136.716 140 130 146.716 130 155C130 163.284 136.716 170 145 170C153.284 170 160 163.284 160 155C160 146.716 153.284 140 145 140ZM72.75 153.109L86.8916 167.251L167.253 86.8906L153.11 72.749L72.75 153.109ZM95 70C86.7157 70 80 76.7157 80 85C80 93.2843 86.7157 100 95 100C103.284 100 110 93.2843 110 85C110 76.7157 103.284 70 95 70Z" fill="black"/>
</svg>
