<svg width="240" height="240" viewBox="0 0 240 240" fill="none" xmlns="http://www.w3.org/2000/svg">
<path d="M145 140C153.284 140 160 146.716 160 155C160 163.284 153.284 170 145 170C136.716 170 130 163.284 130 155C130 146.716 136.716 140 145 140Z" fill="black"/>
<path d="M167.253 86.8906L86.8916 167.251L72.75 153.109L153.11 72.749L167.253 86.8906Z" fill="black"/>
<path d="M95 70C103.284 70 110 76.7157 110 85C110 93.2843 103.284 100 95 100C86.7157 100 80 93.2843 80 85C80 76.7157 86.7157 70 95 70Z" fill="black"/>
<path fill-rule="evenodd" clip-rule="evenodd" d="M120 20C175.228 20 220 64.7715 220 120C220 175.228 175.228 220 120 220C64.7715 220 20 175.228 20 120C20 64.7715 64.7715 20 120 20ZM120 40C75.8172 40 40 75.8172 40 120C40 164.183 75.8172 200 120 200C164.183 200 200 164.183 200 120C200 75.8172 164.183 40 120 40Z" fill="black"/>
</svg>
