<svg width="240" height="240" viewBox="0 0 240 240" fill="none" xmlns="http://www.w3.org/2000/svg">
<path fill-rule="evenodd" clip-rule="evenodd" d="M119.5 19C175.005 19 220 63.9954 220 119.5C220 175.005 175.005 220 119.5 220C63.9954 220 19 175.005 19 119.5C19 63.9954 63.9954 19 119.5 19ZM77.8613 77.2871C66.8343 88.1668 60 103.285 60 120C60 153.137 86.8629 180 120 180C153.137 180 180 153.137 180 120C180 103.502 173.342 88.5596 162.565 77.7129L148.422 91.8564C155.579 99.0837 160 109.025 160 120C160 142.091 142.091 160 120 160C97.9086 160 80 142.091 80 120C80 108.808 84.5979 98.6916 92.0059 91.4316L77.8613 77.2871ZM110 60V120H130V60H110Z" fill="black"/>
</svg>
