<svg width="240" height="240" viewBox="0 0 240 240" fill="none" xmlns="http://www.w3.org/2000/svg">
<path d="M80 180C46.8629 180 20 153.137 20 120C20 86.8629 46.8629 60 80 60L160 60C193.137 60 220 86.8629 220 120C220 153.137 193.137 180 160 180L80 180ZM160 160C182.091 160 200 142.091 200 120C200 97.9086 182.091 80 160 80L80 80C57.9086 80 40 97.9086 40 120C40 142.091 57.9086 160 80 160L160 160ZM80 140C68.9543 140 60 131.046 60 120C60 108.954 68.9543 100 80 100C91.0457 100 100 108.954 100 120C100 131.046 91.0457 140 80 140Z" fill="black"/>
</svg>
