<svg width="240" height="240" viewBox="0 0 240 240" fill="none" xmlns="http://www.w3.org/2000/svg">
<path fill-rule="evenodd" clip-rule="evenodd" d="M120 60C153.265 60 173.558 74.0642 185.309 88.7529C191.058 95.9401 194.636 103.101 196.785 108.474C196.995 108.999 197.191 109.508 197.375 110H220V130H197.375C197.191 130.492 196.995 131.001 196.785 131.526C194.636 136.899 191.058 144.06 185.309 151.247C173.741 165.706 153.897 179.561 121.55 179.99L120 180H60C69.2343 171.85 76.5713 161.601 81.2676 150H20V130H86.4658C86.8744 126.724 87.085 123.387 87.085 120C87.085 116.613 86.8744 113.276 86.4658 110H20V90H81.2676C76.5713 78.3992 69.2343 68.1502 60 60H120ZM98.7627 80C104.115 92.2493 107.085 105.778 107.085 120C107.085 134.222 104.115 147.751 98.7627 160H120C146.735 160 161.442 149.064 169.691 138.753C173.942 133.44 176.614 128.101 178.215 124.099C178.875 122.448 179.341 121.046 179.658 120C179.341 118.954 178.875 117.552 178.215 115.901C176.614 111.899 173.942 106.56 169.691 101.247C161.571 91.0969 147.193 80.3414 121.244 80.0078L120 80H98.7627Z" fill="black"/>
</svg>
