<svg width="240" height="240" viewBox="0 0 240 240" fill="none" xmlns="http://www.w3.org/2000/svg">
<path fill-rule="evenodd" clip-rule="evenodd" d="M146.689 101.116C152.19 94.335 160.588 90 170 90C183.062 90 194.172 98.3484 198.291 110H220V130H198.291C194.172 141.652 183.062 150 170 150C160.588 150 152.19 145.664 146.689 138.883L60 189.354V150H20V130H60V110H20V90H60V50.6455L146.689 101.116ZM80 154.568L139.376 120L80 85.4316V154.568ZM170 110C164.477 110 160 114.477 160 120C160 125.523 164.477 130 170 130C175.523 130 180 125.523 180 120C180 114.477 175.523 110 170 110Z" fill="black"/>
</svg>
