<svg width="240" height="240" viewBox="0 0 240 240" fill="none" xmlns="http://www.w3.org/2000/svg">
<path d="M162.933 62.9229L148.793 77.0625L130.005 58.2754L130 110H181.72L162.931 91.2109L177.07 77.0703L220 120L177.07 162.929L162.931 148.789L181.72 130H130L129.995 181.715L148.783 162.927L162.923 177.066L119.995 219.995L77.0703 177.07L91.21 162.931L109.995 181.715L110 130L58.2803 129.99L77.0732 148.783L62.9336 162.924L20 119.99L62.9238 77.0664L77.0635 91.2061L58.2803 109.99L110 110L110.005 58.2754L91.2109 77.0693L77.0703 62.9287L120.005 19.9951L162.933 62.9229Z" fill="black"/>
</svg>
