<svg width="240" height="240" viewBox="0 0 240 240" fill="none" xmlns="http://www.w3.org/2000/svg">
<path fill-rule="evenodd" clip-rule="evenodd" d="M120.007 60C153.268 60.0019 173.558 74.0652 185.309 88.7529C191.058 95.9401 194.636 103.101 196.785 108.474C196.995 108.999 197.191 109.508 197.375 110H220V130H197.375C197.191 130.492 196.995 131.001 196.785 131.526C194.636 136.899 191.058 144.06 185.309 151.247C173.558 165.935 153.268 179.997 120.007 179.999L92.915 180C102.149 171.85 109.486 161.601 114.183 150H91.9717C81.5973 167.934 62.2082 180 40 180V160C50.1433 160 59.4031 156.222 66.4541 150H20V130H78.7393C79.5619 126.804 80 123.453 80 120C80 116.547 79.5619 113.196 78.7393 110H20V90H66.4541C59.4031 83.7776 50.1433 80 40 80V60C62.2082 60 81.5973 72.0663 91.9717 90H114.183C109.486 78.3992 102.149 68.1502 92.915 60H120.007ZM132.025 80.8066C137.158 92.8423 140 106.089 140 120C140 133.911 137.158 147.157 132.025 159.192C151.313 156.485 162.773 147.4 169.691 138.753C173.942 133.44 176.614 128.101 178.215 124.099C178.875 122.448 179.341 121.046 179.658 120C179.341 118.954 178.875 117.552 178.215 115.901C176.614 111.899 173.942 106.56 169.691 101.247C162.773 92.5996 151.313 83.5139 132.025 80.8066ZM99.1699 110C99.7155 113.252 100 116.593 100 120C100 123.407 99.7155 126.748 99.1699 130H119.381C119.789 126.724 120 123.387 120 120C120 116.613 119.789 113.276 119.381 110H99.1699Z" fill="black"/>
</svg>
