<svg width="240" height="240" viewBox="0 0 240 240" fill="none" xmlns="http://www.w3.org/2000/svg">
<path d="M160 40C187.614 40 210 62.3858 210 90V150C210 177.614 187.614 200 160 200C143.643 200 129.122 192.145 120 180.002C110.878 192.145 96.3568 200 80 200C52.3858 200 30 177.614 30 150V90C30 62.3858 52.3858 40 80 40C96.3565 40 110.878 47.8547 120 59.9971C129.122 47.8547 143.643 40 160 40ZM80 60C63.4315 60 50 73.4315 50 90V150C50 166.569 63.4315 180 80 180C93.5381 180 104.98 171.032 108.713 158.713C105.955 159.549 103.03 160 100 160C83.4315 160 70 146.569 70 130C70 113.431 83.4315 100 100 100C103.507 100 106.872 100.603 110 101.709V90C110 73.4315 96.5685 60 80 60ZM160 60C143.431 60 130 73.4315 130 90V150C130 166.569 143.431 180 160 180C173.538 180 184.98 171.032 188.713 158.713C185.955 159.549 183.03 160 180 160C163.431 160 150 146.569 150 130C150 113.431 163.431 100 180 100C183.507 100 186.872 100.603 190 101.709V90C190 73.4315 176.569 60 160 60ZM100 120C94.4771 120 90 124.477 90 130C90 135.523 94.4771 140 100 140C105.523 140 110 135.523 110 130C110 124.477 105.523 120 100 120ZM180 120C174.477 120 170 124.477 170 130C170 135.523 174.477 140 180 140C185.523 140 190 135.523 190 130C190 124.477 185.523 120 180 120Z" fill="black"/>
</svg>
