<svg width="240" height="240" viewBox="0 0 240 240" fill="none" xmlns="http://www.w3.org/2000/svg">
<path fill-rule="evenodd" clip-rule="evenodd" d="M196.3 96.0854C197.394 99.4708 198.238 102.933 198.825 106.442C198.24 102.932 197.396 99.4703 196.3 96.0854H196.339C197.418 99.4538 198.253 102.896 198.839 106.384V106.367C199.612 110.866 200.001 115.424 200 119.99C200 158.006 173.454 189.829 137.88 197.95C134.377 198.753 130.823 199.318 127.243 199.642C124.854 199.86 122.436 199.999 119.993 199.999C117.011 200.016 114.029 199.865 111.064 199.549V199.446L147.599 136.001C150.491 131.176 152.012 125.654 151.996 120.029C151.996 110.43 147.599 102.156 140.795 96.0854H196.3ZM55.7022 72.5355L92.3868 135.976C97.9908 145.575 107.992 151.97 119.993 151.97C123.548 151.923 127.066 151.247 130.384 149.971L102.635 198.036V198.053C89.6289 195.161 77.5509 189.067 67.4981 180.325C57.4454 171.582 49.7354 160.468 45.0684 147.992C40.4014 135.515 38.9254 122.07 40.7735 108.878C42.6216 95.6864 47.7354 83.1644 55.6514 72.4496L55.7022 72.5355ZM119.993 95.9965C124.74 95.9965 129.381 97.4036 133.328 100.04C137.275 102.677 140.353 106.426 142.169 110.811C143.985 115.196 144.46 120.022 143.533 124.677C142.607 129.332 140.319 133.608 136.962 136.963C133.605 140.319 129.327 142.604 124.671 143.529C120.015 144.454 115.188 143.978 110.803 142.161C106.417 140.343 102.669 137.267 100.032 133.32C97.3958 129.373 95.9899 124.732 95.9913 119.986C96.0101 113.628 98.5446 107.535 103.042 103.04C107.539 98.5455 113.634 96.0134 119.993 95.9965ZM89.6993 45.9604C100.575 41.5095 112.299 39.5088 124.036 40.102C135.773 40.6952 147.236 43.8672 157.607 49.392C167.979 54.9168 177.006 62.6593 184.045 72.0678C184.084 72.1021 184.126 72.1331 184.17 72.1605C187.761 77.0666 190.832 82.3321 193.335 87.8725H193.274C190.77 82.3486 187.699 77.0997 184.109 72.2104L184.066 72.182C187.67 77.0802 190.755 82.3384 193.274 87.8725H119.993C112.629 87.8826 105.495 90.4437 99.8057 95.1195C94.1171 99.7953 90.2243 106.297 88.7901 113.519L61.1631 65.9359L61.1592 65.9398L61.1094 65.8539C69.0618 57.2033 78.8232 50.4112 89.6993 45.9604Z" fill="black"/>
</svg>
