<svg width="240" height="240" viewBox="0 0 240 240" fill="none" xmlns="http://www.w3.org/2000/svg">
<path d="M120 40C155.044 40 174.516 40.0002 187.275 52.7012C199.999 65.4377 200 84.913 200 119.982C200 155.052 199.999 174.527 187.275 187.264C174.516 200 155.044 200 120 200C84.9561 200 65.4828 200 52.7236 187.299C39.9998 174.562 40 155.087 40 120.018C40 84.9483 39.9997 65.4728 52.7236 52.7363C65.4828 39.9998 84.9561 40 120 40ZM162.108 77.6807C138.734 54.2541 100.808 54.254 77.3984 77.6807C54.0246 101.107 54.0245 139.07 77.3984 162.461C100.773 185.888 138.699 185.887 162.108 162.461C185.518 139.034 185.518 101.072 162.108 77.6807ZM89.4902 90.0293C93.4972 89.8176 96.5902 91.687 98.6289 95.1797C101.406 99.9426 104.148 104.776 106.925 109.574C108.928 113.032 110.861 116.525 112.899 119.912C115.852 124.887 120.211 127.674 126.011 128.026C134.2 128.52 141.827 122.558 142.812 113.844C142.882 113.209 142.917 112.538 142.952 112.221C142.917 109.398 142.39 106.999 141.266 104.776C138.208 98.6375 141.476 91.7573 148.119 90.2754C153.532 89.0759 159.156 93.0628 159.859 98.5664C160.211 100.93 159.719 103.154 158.523 105.235C148.647 122.417 138.769 139.599 128.893 156.816C127.065 160.027 124.394 161.932 120.738 162.214C116.661 162.496 113.427 160.767 111.354 157.239C105.097 146.479 98.9099 135.648 92.7236 124.852C88.9627 118.289 85.1672 111.726 81.4062 105.129C77.6102 98.4961 81.898 90.4174 89.4902 90.0293Z" fill="black"/>
</svg>
