<svg width="240" height="240" viewBox="0 0 240 240" fill="none" xmlns="http://www.w3.org/2000/svg">
<path fill-rule="evenodd" clip-rule="evenodd" d="M176.687 63.2503C161.648 48.2646 141.647 40.0076 120.336 40C76.4227 40 40.6838 75.5636 40.6685 119.278C40.6608 133.252 44.3318 146.892 51.3031 158.913L40 200L82.2327 188.975C93.868 195.294 106.97 198.62 120.302 198.624H120.336C164.242 198.624 199.985 163.056 200 119.342C200.008 98.1564 191.73 78.2399 176.687 63.2541V63.2503ZM120.336 185.235H120.309C108.429 185.231 96.7751 182.053 86.6067 176.05L84.1885 174.621L59.1262 181.163L65.8148 156.845L64.241 154.351C57.6135 143.859 54.1107 131.731 54.1183 119.282C54.1336 82.95 83.8371 53.3891 120.363 53.3891C138.049 53.3967 154.673 60.2585 167.176 72.7162C179.678 85.1702 186.558 101.73 186.55 119.335C186.535 155.67 156.832 185.231 120.336 185.231V185.235ZM156.656 135.883C154.665 134.891 144.879 130.101 143.053 129.439C141.227 128.778 139.902 128.447 138.576 130.431C137.251 132.416 133.435 136.879 132.273 138.198C131.112 139.521 129.951 139.685 127.96 138.692C125.971 137.7 119.557 135.609 111.952 128.861C106.035 123.607 102.039 117.122 100.878 115.138C99.7164 113.153 100.756 112.081 101.748 111.097C102.642 110.207 103.739 108.782 104.736 107.626C105.733 106.47 106.061 105.642 106.726 104.322C107.391 102.999 107.058 101.844 106.562 100.851C106.065 99.8593 102.085 90.1081 100.423 86.1433C98.8071 82.281 97.1649 82.8056 95.9462 82.741C94.7849 82.6839 93.4596 82.6725 92.1302 82.6725C90.8009 82.6725 88.6462 83.1667 86.8204 85.1512C84.9947 87.1354 79.8529 91.9291 79.8529 101.676C79.8529 111.424 86.9849 120.848 87.9818 122.171C88.9787 123.494 102.02 143.501 121.986 152.085C126.735 154.127 130.444 155.347 133.335 156.259C138.103 157.769 142.442 157.556 145.872 157.046C149.696 156.476 157.649 152.252 159.307 147.626C160.964 142.999 160.964 139.03 160.468 138.206C159.972 137.381 158.642 136.883 156.652 135.89L156.656 135.883Z" fill="black"/>
</svg>
