<svg width="240" height="240" viewBox="0 0 240 240" fill="none" xmlns="http://www.w3.org/2000/svg">
<path d="M50.9091 180H76.3636V118.197L40 90.9315V169.094C40 175.129 44.8909 180 50.9091 180Z" fill="black"/>
<path d="M163.636 180H189.091C195.127 180 200 175.11 200 169.094V90.9315L163.636 118.197" fill="black"/>
<path d="M163.636 70.9373V118.197L200 90.9315V76.3905C200 62.9029 184.6 55.214 173.818 63.3028" fill="black"/>
<path d="M76.3636 118.197V70.9365L120 103.656L163.636 70.9373V118.197L120 150.916" fill="black"/>
<path d="M40 76.3905V90.9315L76.3636 118.197V70.9365L66.1818 63.3028C55.3818 55.214 40 62.9029 40 76.3905Z" fill="black"/>
</svg>
