<svg width="240" height="240" viewBox="0 0 240 240" fill="none" xmlns="http://www.w3.org/2000/svg">
<path d="M131.979 200.097C124.039 201.302 115.962 201.302 108.022 200.097L109.136 192.687C116.338 193.778 123.663 193.778 130.864 192.687L131.979 200.097Z" fill="black"/>
<path d="M82.9289 183.3C89.0302 186.959 95.6408 189.694 102.544 191.414L100.749 198.688C94.1173 197.062 87.7227 194.587 81.7248 191.323L73.838 193.164L72.133 185.846L82.8615 183.346L82.9289 183.3Z" fill="black"/>
<path d="M161.344 189.483C154.477 193.641 147.021 196.736 139.229 198.664L137.433 191.392C144.504 189.647 151.271 186.841 157.503 183.072L161.344 189.483Z" fill="black"/>
<path d="M53.6095 175.504L49.9953 190.983L65.4738 187.391L67.1779 194.733L51.6994 198.301C50.5768 198.551 49.4127 198.551 48.2902 198.301C47.3303 198.076 46.4238 197.664 45.6232 197.089C44.8226 196.514 44.1434 195.786 43.6242 194.948C43.1049 194.11 42.7555 193.178 42.5968 192.205C42.4381 191.232 42.4732 190.237 42.6994 189.278L46.3126 173.799L53.6095 175.504Z" fill="black"/>
<path d="M120 55.9954C132.28 55.992 144.312 59.4591 154.707 65.9963C185.073 85.134 194.165 125.273 175.05 155.639C155.935 186.005 115.795 195.119 85.4064 176.004L58.7462 182.254L64.9962 155.571C58.4958 145.218 55.0385 133.247 55.0187 121.023C55.0188 85.1339 84.0886 56.0181 120 55.9954Z" fill="black"/>
<path d="M184.414 168.503C179.633 174.944 173.918 180.636 167.458 185.391L163.003 179.345C168.868 175.034 174.048 169.861 178.368 164.003L184.414 168.503Z" fill="black"/>
<path d="M49.6085 138.388C51.3068 145.313 54.0268 151.946 57.6779 158.071L55.1769 168.799L47.8585 167.117L49.6994 159.207C46.446 153.205 43.9711 146.812 42.3351 140.184L49.6085 138.388Z" fill="black"/>
<path d="M197.665 140.184C195.755 148 192.666 155.48 188.505 162.366L182.072 158.503C185.842 152.255 188.647 145.473 190.392 138.388L197.665 140.184Z" fill="black"/>
<path d="M48.3136 110.136C47.7684 113.732 47.4947 117.363 47.4953 121C47.4956 124.637 47.7692 128.269 48.3136 131.864L40.9035 132.979C39.6988 125.031 39.6988 116.947 40.9035 108.999L48.3136 110.136Z" fill="black"/>
<path d="M199.097 108.999C200.301 116.947 200.301 125.031 199.097 132.979L191.687 131.864C192.231 128.269 192.505 124.637 192.505 121C192.506 117.363 192.232 113.732 191.687 110.136L199.097 108.999Z" fill="black"/>
<path d="M57.9279 83.4973C54.1625 89.7394 51.3576 96.5132 49.6085 103.59L42.3351 101.794C44.2494 93.9865 47.3384 86.5148 51.4953 79.634L57.9279 83.4973Z" fill="black"/>
<path d="M188.505 79.634C192.662 86.5068 195.751 93.9712 197.665 101.772L190.392 103.568C188.646 96.4966 185.841 89.7295 182.072 83.4973L188.505 79.634Z" fill="black"/>
<path d="M76.9972 62.6321C71.132 66.9517 65.9516 72.1321 61.632 77.9973L55.5861 73.4973C60.3506 67.051 66.0509 61.3506 72.4972 56.5862L76.9972 62.6321Z" fill="black"/>
<path d="M167.503 56.5862C173.949 61.3506 179.65 67.051 184.414 73.4973L178.368 77.9973C174.049 72.1321 168.868 66.9517 163.003 62.6321L167.503 56.5862Z" fill="black"/>
<path d="M102.59 50.6086C95.5131 52.3577 88.7393 55.1626 82.4972 58.928L78.6564 52.4954C85.5271 48.3346 92.9922 45.2463 100.794 43.3362L102.59 50.6086Z" fill="black"/>
<path d="M139.206 43.3362C147.021 45.2503 154.501 48.3382 161.39 52.4954L157.503 58.928C151.261 55.1626 144.487 52.3577 137.41 50.6086L139.206 43.3362Z" fill="black"/>
<path d="M108.022 41.9036C115.962 40.6988 124.039 40.6988 131.979 41.9036L130.864 49.3137C123.663 48.2226 116.338 48.2226 109.136 49.3137L108.022 41.9036Z" fill="black"/>
</svg>
