<svg width="240" height="240" viewBox="0 0 240 240" fill="none" xmlns="http://www.w3.org/2000/svg">
<path fill-rule="evenodd" clip-rule="evenodd" d="M157.305 40.001C158.739 40.0152 160.182 40.337 161.532 40.9863L194.559 56.8691C197.92 58.4859 200.096 61.8301 200.229 65.5381C200.231 65.6121 200.231 65.6864 200.232 65.7607C200.233 65.8065 200.235 65.8525 200.235 65.8984V173.562C200.235 173.687 200.233 173.811 200.229 173.935C200.1 177.647 197.923 180.997 194.558 182.615L161.532 198.497C160.093 199.189 158.549 199.51 157.022 199.482C155.821 199.469 154.629 199.24 153.507 198.803C152.245 198.311 151.071 197.558 150.071 196.558L86.8974 138.924L59.376 159.805C58.1728 160.717 56.7445 161.165 55.3213 161.161C55.1694 161.161 55.0177 161.155 54.8662 161.145C54.8268 161.142 54.7874 161.139 54.748 161.136C53.3333 161.012 51.9538 160.439 50.8389 159.425L42.0117 151.395C41.466 150.899 41.0219 150.335 40.6807 149.729C40.6236 149.627 40.5699 149.524 40.5185 149.421C40.4162 149.214 40.3257 149.003 40.2461 148.789C40.0867 148.361 39.9728 147.919 39.9043 147.472C39.87 147.248 39.8465 147.023 39.8349 146.797C39.8234 146.571 39.8237 146.345 39.8349 146.119C39.8462 145.893 39.8684 145.668 39.9023 145.444C39.9363 145.221 39.9814 144.998 40.0381 144.778C40.2363 144.008 40.5741 143.267 41.0508 142.595C41.119 142.499 41.1898 142.404 41.2637 142.311C41.485 142.031 41.7324 141.766 42.0049 141.518L65.8721 119.742L42.0049 97.9668C41.7323 97.7182 41.485 97.4522 41.2637 97.1728C40.5995 96.3351 40.1658 95.3734 39.9619 94.374C39.9166 94.1516 39.8829 93.9273 39.8603 93.7021C39.7701 92.8025 39.8614 91.8878 40.1348 91.0185C40.4764 89.9315 41.102 88.9154 42.0117 88.0879L50.8389 80.0586C52.2536 78.7717 54.0943 78.1922 55.8926 78.3437C57.1229 78.4456 58.3339 78.8891 59.376 79.6797L86.8984 100.558L150.071 42.9258C150.446 42.5507 150.845 42.2101 151.265 41.9053C153.035 40.6181 155.162 39.9644 157.305 40.001ZM112.186 119.742L160.085 156.078V83.4043L112.186 119.742Z" fill="black"/>
</svg>
