<svg width="240" height="240" viewBox="0 0 240 240" fill="none" xmlns="http://www.w3.org/2000/svg">
<path d="M57.0146 99C62.3224 99.0001 64.502 101.252 64.502 106.56V123.052L73.9102 104.663C76.0427 100.493 77.891 99.0001 82.2744 99C86.6583 99 89.0283 101.441 89.0283 106.394V123.052L99.0049 104.308C101.208 100.208 100.38 99 107.37 99C114.36 99.0002 116.611 103.052 113.436 108.407L98.957 132.862C95.6632 138.455 93.5309 140.469 87.6543 140.469C81.7775 140.469 77.9619 136.938 77.9619 131.062V121.085L71.6826 132.862C68.8391 138.17 65.0949 140.469 60.4268 140.469H60.4033C54.5741 140.469 50.593 136.962 50.5928 131.015V109.972H46.1611C42.1802 109.972 40.0001 107.957 40 104.427C40 100.896 42.0616 99 46.1611 99H57.0146ZM134.598 99C146.375 99.0002 155.427 107.815 155.427 119.758C155.356 131.653 146.351 140.469 134.598 140.469C122.844 140.469 113.721 131.701 113.721 119.758C113.721 107.815 122.773 99 134.598 99ZM179.171 99C190.948 99.0001 200 107.886 200 119.758C200 131.63 190.948 140.469 179.171 140.469C167.394 140.469 158.341 131.701 158.341 119.758C158.341 107.815 167.394 99 179.171 99ZM134.598 111.749C130.167 111.749 127.11 115.137 127.109 119.758C127.109 124.379 130.166 127.721 134.598 127.721C139.076 127.721 142.085 124.355 142.085 119.758C142.085 115.161 139.029 111.749 134.598 111.749ZM179.171 111.749C174.74 111.749 171.73 115.161 171.729 119.758C171.729 124.379 174.669 127.721 179.171 127.721C183.673 127.721 186.659 124.379 186.659 119.758C186.659 115.137 183.602 111.749 179.171 111.749Z" fill="black"/>
</svg>
