<svg width="240" height="240" viewBox="0 0 240 240" fill="none" xmlns="http://www.w3.org/2000/svg">
<path d="M77.8896 77.0059C96.1787 58.7092 123.115 54.0959 145.613 63.3652C150.591 65.2163 154.929 67.8508 158.313 70.2998L139.526 78.9854C122.034 71.6382 101.995 76.6355 89.7646 88.8809C73.3541 105.297 69.936 133.67 88.8174 152.22L89.2529 152.67L36.334 199.999C39.6902 195.372 43.8572 191.001 48.0098 186.63C59.7284 174.299 71.3621 162.082 64.2656 144.811C54.7655 121.701 60.2975 94.6191 77.8896 77.0059ZM201.764 41.7227C184.342 65.7433 175.838 77.4904 182.664 106.879L182.621 106.837C187.328 126.842 182.294 149.026 166.039 165.301C145.546 185.833 112.75 190.403 85.7432 171.922L104.572 163.193C121.809 169.971 140.667 166.994 154.22 153.426C167.773 139.856 170.817 120.093 164.005 103.647C162.71 100.529 158.828 99.7454 156.111 101.753L100.69 142.718L180.075 62.8818V62.9531L203.001 40C202.589 40.5837 202.176 41.1532 201.764 41.7227Z" fill="black"/>
</svg>
