<svg width="240" height="240" viewBox="0 0 240 240" fill="none" xmlns="http://www.w3.org/2000/svg">
<path fill-rule="evenodd" clip-rule="evenodd" d="M119.366 40.2538C119.705 39.9154 120.381 39.9155 121.058 40.2538L188.747 79.1747C189.085 79.5131 189.424 79.8515 189.424 80.5282C189.424 81.2051 189.086 81.5442 188.747 81.8827L156.257 102.527C155.918 102.866 155.241 102.866 154.564 102.527L120.043 82.2206L88.5674 101.513V136.348C88.5675 136.356 88.5684 136.364 88.5684 136.372V138.741L119.724 157.837C119.872 157.825 120.021 157.832 120.164 157.863C120.346 157.739 120.558 157.65 120.776 157.602L153.549 138.403C153.887 138.065 154.564 138.065 155.241 138.403L189.086 158.371C189.424 158.709 189.763 159.048 189.763 159.724C189.763 160.401 189.424 160.741 189.086 161.079L121.058 200H120.043C119.705 200 119.366 199.999 119.366 199.661L51.6768 160.401C51.3384 160.063 51 159.724 51 159.048V80.5282C51.0001 79.8515 51.3384 79.5131 51.6768 79.1747L118.391 40.8143C118.612 40.551 118.92 40.3704 119.294 40.2948L119.366 40.2538ZM121.396 196.172L151.184 178.95L121.396 161.013V196.172ZM89.6992 179.215L118.011 195.765V162.167L89.6992 179.215ZM55.0967 158.985L85.1836 176.574V142.061L55.0967 158.985ZM88.5684 176.374L116.52 159.543L88.5684 142.43V176.374ZM124.083 159.107L152.534 176.24V142.439L124.083 159.107ZM155.919 176.213L185.024 159.387L155.919 142.434V176.213ZM54.0459 156.107L82.9053 139.873L54.0469 122.496L54.0459 122.495V156.107ZM56.0166 120.158L85.1826 137.721V102.596L56.0166 120.158ZM54.0459 117.822L83.3271 100.19L54.0469 82.5604L54.0459 82.5594V117.822ZM155.919 98.7147L184.686 80.5282L155.919 63.9608V98.7147ZM55.8887 80.1454L85.1836 97.786V63.3192L55.8887 80.1454ZM123.053 80.2079L152.534 97.5506V62.4569L123.053 80.2079ZM88.5684 97.1727L116.773 80.1913L88.5684 63.3338V97.1727ZM121.396 77.6844L149.922 60.5067L121.396 44.078V77.6844ZM90.0713 60.5126L118.011 77.2127V44.4667L90.0713 60.5126Z" fill="black"/>
</svg>
