<svg width="240" height="240" viewBox="0 0 240 240" fill="none" xmlns="http://www.w3.org/2000/svg">
<path fill-rule="evenodd" clip-rule="evenodd" d="M115.016 41.7186C118.365 39.4679 121.398 39.4044 124.765 41.6666C148.375 57.5637 172.021 73.4169 195.701 89.2253C198.394 91.0248 199.989 93.2471 199.989 96.551L200 143.212C200 146.557 198.475 148.918 195.678 150.787C172.002 166.603 148.351 182.456 124.725 198.345C121.358 200.614 118.297 200.515 114.941 198.264C91.4725 182.448 67.948 166.695 44.3679 151.006C41.4273 149.045 40 146.632 40 143.062V96.9211C40.0001 93.3685 41.45 90.938 44.3848 88.9823C67.9284 73.2838 91.5415 57.527 115.016 41.7186ZM85.0036 129.331C83.8527 128.532 83.0295 128.474 81.8383 129.331L59.463 144.445C77.3994 156.45 113.024 180.38 113.1 180.431V149.306C113.099 148.6 112.208 147.696 111.511 147.228C102.695 141.233 93.8202 135.325 85.0036 129.331ZM158.259 129.452C156.936 128.521 156.02 128.544 154.679 129.458C146.013 135.376 137.305 141.228 128.558 147.014C127.171 147.928 126.894 148.929 126.912 150.596V180.303L180.433 144.428L158.259 129.452ZM119.844 104.381C119.371 104.398 118.907 104.526 118.492 104.756C115.718 106.492 113.042 108.343 110.337 110.166C105.601 113.357 95.8 119.968 95.7481 120.003L118.1 134.967C118.641 135.299 119.26 135.48 119.893 135.491C120.526 135.502 121.151 135.343 121.703 135.031L144.147 119.986C144.081 119.941 124.535 106.87 121.22 104.658C120.789 104.459 120.318 104.364 119.844 104.381ZM53.8232 131.484L70.8696 120.003L53.8232 108.563V131.484ZM168.584 120.026L185.613 131.454V108.529L168.584 120.026ZM126.912 90.4577C126.933 90.8535 127.039 91.2405 127.221 91.5918C127.404 91.943 127.66 92.2507 127.97 92.4943C137.067 98.6934 146.204 104.831 155.381 110.907C155.724 111.078 156.101 111.167 156.483 111.167C156.866 111.167 157.243 111.078 157.586 110.907L180.467 95.5903L126.912 59.5869V90.4577ZM113.1 59.7553C112.997 59.8235 77.393 83.566 59.4287 95.596C67.313 100.896 74.7775 105.96 82.3222 110.895C82.9093 111.277 84.2786 111.057 84.9519 110.617C93.8491 104.739 102.695 98.786 111.488 92.7604C111.954 92.3846 112.337 91.916 112.615 91.3845C112.892 90.8529 113.057 90.2692 113.1 89.6706V59.7553Z" fill="black"/>
</svg>
