<svg width="240" height="240" viewBox="0 0 240 240" fill="none" xmlns="http://www.w3.org/2000/svg">
<path d="M198.455 138.87L176.275 121.563C174.917 120.507 174.917 118.772 176.275 117.712L198.456 100.409C199.818 99.3508 200.387 97.5624 199.722 96.4374C199.056 95.3156 197.196 94.9163 195.594 95.5501L169.219 105.981C167.615 106.621 166.105 105.748 165.864 104.047L161.898 76.0909C161.653 74.3912 160.366 73 159.033 73C157.706 73 156.419 74.3912 156.181 76.0898L152.213 104.048C151.97 105.749 150.461 106.62 148.856 105.982L122.917 95.7244C121.308 95.0884 118.688 95.0884 117.083 95.7244L91.1402 105.982C89.5358 106.62 88.025 105.749 87.7845 104.048L83.8213 76.0898C83.5766 74.3912 82.2914 73 80.9636 73C79.6315 73 78.3431 74.3912 78.1037 76.0898L74.1352 104.048C73.8947 105.749 72.385 106.62 70.7806 105.982L44.4065 95.5532C42.8031 94.9163 40.9466 95.3177 40.2805 96.4385C39.6156 97.5645 40.1826 99.354 41.5402 100.41L63.7234 117.714C65.0821 118.773 65.0821 120.508 63.7234 121.565L41.5402 138.87C40.1784 139.929 39.6145 141.824 40.2784 143.079C40.9455 144.336 42.8021 144.841 44.4033 144.203L70.5412 133.781C72.1478 133.144 73.6415 134.011 73.866 135.712L77.6366 163.912C77.8643 165.61 79.3581 167 80.9561 167C82.552 167 84.0469 165.611 84.2756 163.912L88.0526 135.712C88.2761 134.011 89.7762 133.145 91.3743 133.781L117.083 144.025C118.686 144.665 121.307 144.665 122.911 144.025L148.615 133.781C150.216 133.144 151.712 134.011 151.94 135.712L155.717 163.912C155.943 165.61 157.438 167 159.031 167C160.629 167 162.124 165.611 162.351 163.912L166.128 135.712C166.358 134.011 167.852 133.145 169.452 133.781L195.593 144.203C197.189 144.841 199.051 144.335 199.717 143.08C200.384 141.827 199.817 139.932 198.456 138.873L198.455 138.87ZM142.023 121.783L122.489 136.714C121.122 137.76 118.879 137.76 117.516 136.714L97.976 121.783C96.6099 120.737 96.5993 119.015 97.9548 117.953L117.531 102.644C118.887 101.582 121.109 101.582 122.466 102.644L142.042 117.953C143.401 119.014 143.39 120.736 142.021 121.784L142.023 121.783Z" fill="black"/>
</svg>
