<svg width="240" height="240" viewBox="0 0 240 240" fill="none" xmlns="http://www.w3.org/2000/svg">
<path d="M120.223 40C121.879 40 123.223 41.3432 123.223 43V82.5645L159.001 46.8652C159.859 46.0087 161.149 45.7531 162.27 46.2178C163.389 46.6825 164.12 47.7758 164.12 48.9883V86.6934H178.627C180.284 86.6936 181.627 88.0367 181.627 89.6934V147.824C181.627 149.481 180.284 150.824 178.627 150.824H164.12V188.773C164.12 189.986 163.39 191.08 162.27 191.545C161.149 192.01 159.859 191.754 159.001 190.897L123.223 155.196V197.217C123.223 198.874 121.879 200.217 120.223 200.217C118.566 200.217 117.223 198.874 117.223 197.217V155.385L81.6299 190.897C80.7714 191.754 79.4814 192.01 78.3613 191.545C77.2412 191.08 76.5108 189.986 76.5107 188.773V150.824H62C60.3432 150.824 59 149.481 59 147.824V89.6934C59 88.0365 60.3432 86.6934 62 86.6934H76.5068V48.9883C76.507 47.7757 77.2374 46.6825 78.3574 46.2178C79.4776 45.7531 80.7675 46.0087 81.626 46.8652L117.223 82.3799V43C117.223 41.3433 118.566 40.0002 120.223 40ZM82.5107 131.651V181.542L117.223 146.909V97.0186L82.5107 131.651ZM123.317 146.815L158.12 181.542V147.923L158.115 147.824L158.119 131.65L123.317 96.9277V146.815ZM65 144.824H76.5078L76.5107 130.406C76.5109 129.709 76.7539 129.037 77.1924 128.503L77.3926 128.283L113.051 92.7021H79.5068C79.4336 92.7021 79.361 92.6985 79.2891 92.6934H65V144.824ZM161.12 92.7021H127.58L163.238 128.283C163.802 128.846 164.12 129.61 164.12 130.406V144.824H175.627V92.6934H161.338C161.266 92.6985 161.193 92.7021 161.12 92.7021ZM82.5068 86.6934H113.05L82.5068 56.2197V86.6934ZM127.579 86.6934H158.12V56.2188L127.579 86.6934Z" fill="black"/>
</svg>
