<svg width="240" height="240" viewBox="0 0 240 240" fill="none" xmlns="http://www.w3.org/2000/svg">
<path fill-rule="evenodd" clip-rule="evenodd" d="M112.108 40.0047C116.082 39.9101 119.394 41.235 122.043 44.0731C122.232 44.3569 122.422 44.547 122.611 44.7362C122.99 44.6416 123.462 44.6414 123.841 44.6414C129.896 44.6414 134.816 48.0477 138.223 54.576C139.263 56.5627 140.02 58.5497 140.493 60.158C143.494 59.2202 145.287 58.6542 145.318 58.6444C145.887 58.5021 147.045 58.3065 147.986 58.62C148.239 58.6924 148.482 58.8216 148.699 59.0077C148.74 59.0422 148.781 59.0785 148.819 59.117C149.763 60.061 159.279 69.2937 159.322 69.3358C159.393 69.3364 170.673 69.4309 171.243 69.5252C171.811 69.6198 172.568 69.9983 172.663 70.8495C172.758 71.6056 190.132 189.165 190.167 189.403L147.495 200L49 182.97C49.0243 182.781 60.7316 92.0477 61.2051 88.9217C61.7727 84.6644 61.9626 84.5694 66.4092 83.1502C66.5099 83.0539 72.7532 81.1613 81.6426 78.4188C82.5888 71.6065 85.8999 62.8069 90.3467 55.8055C96.6858 45.7766 104.35 40.1941 112.108 40.0047ZM123.841 91.4764C123.828 91.4701 119.57 89.3016 111.067 90.0575C89.4007 91.4769 79.5607 106.615 80.5068 121.564C81.6423 139.257 99.4301 138.69 100.093 149.475C100.282 152.125 98.6731 155.814 94.1318 156.098C87.2249 156.477 78.5195 149.949 78.5195 149.949L75.208 164.047C75.208 164.047 83.8183 173.224 99.5244 172.278C112.581 171.427 121.665 161.019 120.719 145.691C119.489 126.295 97.7269 124.497 97.1592 116.171C97.0646 114.562 97.1599 108.507 106.81 107.939C113.433 107.466 118.921 110.021 118.921 110.021L123.841 91.4764ZM112.203 45.2088C100.282 45.5875 89.8738 64.2265 87.0352 76.7157C91.2928 75.3911 95.8347 73.9718 100.565 72.5526C102.079 64.605 105.864 56.4681 110.784 51.1698C112.676 49.0883 114.758 47.48 116.84 46.4393C115.515 45.5878 114.001 45.2088 112.203 45.2088ZM120.246 50.6024C117.975 51.5485 116.082 53.1569 114.663 54.6707C110.973 58.6445 107.945 64.6997 106.337 70.7547C112.014 68.9571 117.596 67.2547 122.8 65.6463C122.8 61.3888 122.422 55.0492 120.246 50.6024ZM125.544 49.9393C127.342 54.67 127.815 60.1587 127.909 64.0379C130.748 63.1864 133.302 62.334 135.573 61.6717C134.343 57.6978 131.504 51.0746 125.544 49.9393Z" fill="black"/>
</svg>
