<svg width="240" height="240" viewBox="0 0 240 240" fill="none" xmlns="http://www.w3.org/2000/svg">
<path d="M151.009 20C151.381 20 151.754 20 152.147 20C153.06 31.2835 148.754 39.7146 143.519 45.82C138.383 51.8834 131.35 57.764 119.976 56.8717C119.217 45.7498 123.531 37.9441 128.758 31.8526C133.606 26.1757 142.494 21.1241 151.009 20Z" fill="black"/>
<path d="M185.442 137.824C185.442 137.936 185.442 138.035 185.442 138.14C182.245 147.822 177.686 156.119 172.121 163.819C167.041 170.81 160.817 180.218 149.702 180.218C140.097 180.218 133.718 174.042 123.875 173.873C113.462 173.705 107.736 179.037 98.2161 180.379C97.1271 180.379 96.0381 180.379 94.9701 180.379C87.9794 179.368 82.3376 173.831 78.2275 168.843C66.1079 154.103 56.7424 135.063 55 110.697C55 108.308 55 105.926 55 103.538C55.7377 86.0993 64.2109 71.9211 75.4734 65.0498C81.4172 61.3964 89.5883 58.2839 98.6868 59.6751C102.586 60.2793 106.57 61.6142 110.062 62.9351C113.371 64.2067 117.509 66.462 121.43 66.3426C124.085 66.2653 126.727 64.8812 129.404 63.9046C137.245 61.0732 144.931 57.8273 155.062 59.3519C167.238 61.1926 175.88 66.6026 181.22 74.9493C170.92 81.5044 162.777 91.3828 164.168 108.252C165.404 123.575 174.313 132.54 185.442 137.824Z" fill="black"/>
</svg>
