<svg width="240" height="240" viewBox="0 0 240 240" fill="none" xmlns="http://www.w3.org/2000/svg">
<path d="M62.751 139.734C62.751 160.528 79.5955 177.371 100.389 177.371H139.612C160.405 177.371 177.249 160.527 177.249 139.734V126.3H200V141.726C200 173.894 173.907 199.987 141.738 199.987H98.2617C66.0929 199.987 40 173.894 40 141.726V126.3H62.751V139.734ZM142.616 75.2949C155.814 77.4891 165.873 88.9325 165.806 102.738V138.249C165.806 153.608 153.35 166.063 137.991 166.063H136.033C132.287 166.063 128.675 165.287 125.4 163.937C123.476 163.126 121.653 162.114 119.966 160.933C118.278 162.114 116.455 163.126 114.531 163.937C111.257 165.32 107.679 166.063 103.898 166.063H101.94C86.582 166.063 74.126 153.608 74.126 138.249V102.738C74.126 88.9324 84.1855 77.489 97.3838 75.2949V138.283C97.384 141.287 99.8143 143.718 102.818 143.718C105.822 143.718 108.253 141.287 108.253 138.283V115.093H131.747V138.283C131.747 141.287 134.178 143.718 137.182 143.718C140.186 143.718 142.616 141.287 142.616 138.283V75.2949ZM141.738 41C173.907 41 200 67.0929 200 99.2617V115.093H177.249V101.253C177.249 80.4599 160.405 63.6165 139.612 63.6162H100.389C79.5955 63.6162 62.7511 80.4598 62.751 101.253V115.093H40V99.2617C40 67.0929 66.0929 41 98.2617 41H141.738Z" fill="black"/>
</svg>
