<svg width="240" height="240" viewBox="0 0 240 240" fill="none" xmlns="http://www.w3.org/2000/svg">
<path d="M158.778 55.8662C158.778 55.8662 158.973 55.8144 159.323 55.7324C160.375 55.4865 162.836 54.9826 165.709 54.8867C166.188 54.8707 166.678 54.8662 167.175 54.876C170.655 54.9442 174.468 55.7187 177.029 58.2559C182.882 64.0549 187.704 69.1719 187.704 69.1719L183.915 78.3818L188.737 92.0273C188.719 92.0951 174.557 145.232 172.897 151.725C169.626 164.517 167.387 169.463 158.09 175.944C148.793 182.427 131.92 193.683 129.165 195.389C126.41 197.094 122.967 200 119.868 200C116.769 200 113.326 197.094 110.571 195.389C107.817 193.683 90.9437 182.427 81.6465 175.944C72.3492 169.463 70.1111 164.517 66.8398 151.725C65.1802 145.235 51.0296 92.1384 51 92.0273L55.8203 78.3818L52.0332 69.1719C52.0332 69.1719 56.8542 64.055 62.708 58.2559C63.8056 57.1686 65.1327 56.4048 66.5654 55.8818C66.9238 55.751 67.2887 55.6352 67.6582 55.5332C69.0126 55.1594 70.429 54.9699 71.8115 54.9014C72.3143 54.8764 72.8126 54.8682 73.3018 54.8721C74.7692 54.8838 76.1546 55.0108 77.333 55.1709C77.7257 55.2243 78.0954 55.2814 78.4375 55.3389C79.9772 55.5977 80.958 55.8672 80.958 55.8672L95.0752 40H144.661L158.778 55.8662ZM119.87 139.571C118.926 139.571 112.879 141.686 108.026 144.174C106.926 144.738 105.895 145.264 104.944 145.749C101.702 147.404 99.4016 148.578 98.5322 149.117C97.4082 149.814 98.0941 151.129 99.1182 151.846C100.143 152.564 113.901 163.119 115.237 164.285C115.408 164.434 115.588 164.596 115.776 164.765C117.063 165.913 118.706 167.38 119.87 167.38C121.034 167.38 122.674 165.914 123.961 164.766C124.15 164.597 124.331 164.435 124.502 164.285C125.837 163.119 139.598 152.563 140.622 151.846C141.646 151.129 142.331 149.814 141.207 149.117C140.338 148.578 138.04 147.405 134.802 145.752C133.85 145.266 132.816 144.739 131.714 144.174C126.862 141.687 120.815 139.572 119.87 139.571ZM119.869 64.3867C119.827 64.3869 117.083 64.4067 112.982 65.7607C112.148 66.0364 111.299 66.3257 110.459 66.6123C107.141 67.7444 103.957 68.8309 102.309 68.8311C100.245 68.8311 84.9498 65.9375 84.9189 65.9316C84.8452 66.02 66.7598 87.6878 66.7598 92.3262C66.7598 96.1689 68.3212 97.673 70.1602 99.4443C70.5453 99.8153 70.943 100.199 71.3408 100.617C72.3093 101.636 74.6528 104.101 77.1357 106.713C80.5418 110.296 84.2107 114.156 84.9561 114.94C85.0909 115.082 85.2416 115.231 85.4004 115.39C86.7597 116.743 88.761 118.738 87.3486 122.049C87.2543 122.27 87.1571 122.495 87.0586 122.724C85.5107 126.311 83.5997 130.739 86.0322 135.226C88.6202 139.998 93.0537 143.185 95.8945 142.658C98.7353 142.131 105.407 138.676 107.86 137.099C110.314 135.521 118.09 129.168 118.09 126.737C118.09 124.71 112.496 121.336 109.779 119.697C109.24 119.372 108.814 119.115 108.567 118.95C108.287 118.763 107.816 118.474 107.238 118.118C104.758 116.592 100.283 113.837 100.17 112.615C100.031 111.109 100.084 110.667 102.083 106.944C102.508 106.152 103.006 105.303 103.521 104.427C105.424 101.183 107.555 97.5502 107.083 94.9482C106.55 92.0109 101.903 90.3271 97.9678 88.9004C97.4757 88.722 96.9946 88.5473 96.5342 88.375C95.3849 87.9449 93.9404 87.4085 92.4316 86.8486C88.5032 85.3909 84.1394 83.7723 83.4189 83.4434C82.4224 82.988 82.68 82.554 85.6982 82.2705C86.0979 82.233 86.5949 82.1811 87.165 82.1211C90.9022 81.7276 97.794 81.0015 101.145 81.9268C101.804 82.1087 102.543 82.3078 103.317 82.5156C107.082 83.5255 111.695 84.7631 112.139 85.4766C112.216 85.6012 112.292 85.7083 112.364 85.8096C112.788 86.4066 113.065 86.7962 112.596 89.333C112.457 90.0855 112.171 91.5634 111.817 93.3906C110.778 98.7701 109.151 107.183 108.946 109.071C108.918 109.335 108.887 109.59 108.856 109.835C108.596 111.938 108.423 113.338 110.889 113.896C111.093 113.943 111.308 113.991 111.53 114.042C114.312 114.675 118.394 115.602 119.869 115.603C121.343 115.603 125.423 114.675 128.205 114.043C128.429 113.992 128.644 113.943 128.85 113.896C131.315 113.338 131.143 111.938 130.883 109.835C130.853 109.59 130.821 109.335 130.792 109.071C130.588 107.186 128.966 98.7935 127.926 93.4131C127.571 91.5755 127.283 90.0885 127.144 89.333C126.674 86.7961 126.951 86.4067 127.375 85.8096C127.447 85.7084 127.523 85.6013 127.601 85.4766C128.044 84.7631 132.657 83.5245 136.422 82.5146C137.197 82.3068 137.936 82.1087 138.595 81.9268C141.945 81.0015 148.837 81.7276 152.574 82.1211C153.144 82.1811 153.641 82.233 154.04 82.2705C157.059 82.554 157.317 82.988 156.32 83.4434C155.6 83.7723 151.234 85.3924 147.305 86.8506C145.797 87.4101 144.353 87.9453 143.204 88.375C142.744 88.5471 142.263 88.7211 141.771 88.8994C137.836 90.3261 133.189 92.0107 132.656 94.9482C132.184 97.5507 134.316 101.184 136.22 104.429C136.734 105.305 137.231 106.153 137.656 106.944C139.655 110.667 139.708 111.109 139.569 112.615C139.456 113.837 134.979 116.593 132.499 118.119C131.922 118.474 131.452 118.763 131.172 118.95C130.926 119.115 130.498 119.372 129.958 119.698C127.241 121.337 121.649 124.71 121.649 126.737C121.649 129.168 129.426 135.521 131.879 137.099C134.332 138.676 141.004 142.131 143.845 142.658C146.686 143.184 151.119 139.998 153.707 135.226C156.14 130.738 154.228 126.31 152.68 122.723C152.581 122.495 152.484 122.27 152.39 122.049C150.978 118.738 152.979 116.744 154.338 115.391C154.497 115.232 154.647 115.082 154.782 114.94L168.398 100.617C168.796 100.199 169.194 99.8154 169.579 99.4443C171.418 97.673 172.979 96.1688 172.979 92.3262C172.979 87.6878 154.894 66.0201 154.82 65.9316C154.79 65.9374 139.495 68.8311 137.431 68.8311C135.782 68.8309 132.599 67.7445 129.28 66.6123C128.44 66.3257 127.592 66.0363 126.757 65.7607C122.625 64.3962 119.869 64.3867 119.869 64.3867Z" fill="black"/>
</svg>
