<svg width="240" height="240" viewBox="0 0 240 240" fill="none" xmlns="http://www.w3.org/2000/svg">
<path d="M93.5282 165.091C84.8 154.91 78.9813 139.49 78.6907 122.037V118.253C78.9813 100.8 84.8 85.3812 93.5282 74.9094C105.162 60.0718 122.328 50.4719 141.237 50.4719C152.872 50.4719 163.929 54.2532 173.238 60.3624C159.272 47.8531 140.653 40 120.291 40H120.001C75.7813 40 40 75.7813 40 120C40 163.053 73.7469 197.962 116.219 200H120.001C140.363 200 158.981 192.437 173.238 179.638C163.929 186.037 152.872 189.529 141.237 189.529C122.038 189.529 104.872 179.928 93.5282 165.091ZM173.238 60.3624C152.872 50.4719 133.672 57.4531 127.272 61.8187C147.638 66.1812 162.763 90.6187 162.763 120C162.763 149.381 147.347 173.819 127.272 178.182C133.672 182.547 152.582 189.529 173.238 179.638C189.819 165.091 200 143.563 200 120C200 96.4375 189.819 74.9094 173.238 60.3624Z" fill="black"/>
</svg>
