<svg width="240" height="240" viewBox="0 0 240 240" fill="none" xmlns="http://www.w3.org/2000/svg">
<path fill-rule="evenodd" clip-rule="evenodd" d="M178 157.73C181.144 156.915 188.431 155.608 191.527 156.289C195.887 156.677 198.511 157.4 199.382 158.453C201.23 161.193 198.463 170.797 197.199 173.926C196.087 176.682 190.879 185.523 188.183 185.523C187.359 185.523 186.735 184.922 187.159 183.797C197.055 160.758 192.631 161.366 178 162.625C176.112 162.855 169.184 164.241 170 162.625C170 160.716 176.088 158.222 178 157.73ZM109.06 115.828C109.06 119.574 110.004 122.575 111.892 124.824C117.3 131.271 127.171 127.819 131.315 120.152C133.595 116.24 135.963 108.595 135.963 98.6875C127.963 98.6875 125.419 99.0755 122.515 99.8438C113.98 102.244 109.06 107.576 109.06 115.828ZM84.0459 118.711C84.0459 105.215 91.3095 95.7591 102.517 91.0625C112.412 86.8888 126.067 85.7464 135.963 85.1524C135.963 73.2883 134.339 63.8399 121.86 63.8399C117.852 63.8399 110.692 68.2824 109.06 75.6875C108.668 77.6042 107.7 78.9845 106.149 79.2696L89.4216 77.3907C87.3977 76.9155 86.6137 75.8073 87.0937 73.8907C90.4695 56.4036 105.157 48.9346 121.86 48.0001C129.859 48.0001 141.954 47.899 151.386 56.5001C161.577 66.5979 159.961 79.3154 159.961 112.23C159.961 120.135 160.081 120.893 165.489 127.918C166.577 129.534 166.673 131.074 165.089 132.246C157.041 139.16 152.665 142.898 151.986 143.477C150.818 144.34 149.402 144.431 147.754 143.758C140.594 137.683 142.314 138.051 137.858 132.531C128.827 142.273 121.731 144.918 109.644 144.918C95.2772 144.918 84.0459 136.04 84.0459 118.711ZM42.5927 159.598C66.8311 173.521 93.2053 180.484 121.715 180.484C140.714 180.484 159.481 176.978 178 169.969C180.808 168.86 183.767 166.698 185.487 169.105C186.311 170.262 186.047 171.315 184.688 172.273C166.745 185.104 141.738 192 119.964 192C89.1576 192 61.7514 180.682 40.8488 162.047C38.9849 160.518 40.4728 158.267 42.5927 159.598Z" fill="black"/>
</svg>
