<svg width="240" height="240" viewBox="0 0 240 240" fill="none" xmlns="http://www.w3.org/2000/svg">
<path d="M130 90H150V110H130V130H110V110H90V90H110V70H130V90Z" fill="black"/>
<path fill-rule="evenodd" clip-rule="evenodd" d="M120 20C164.11 20 200 55.8897 200 100.02C200 114.699 196.08 129.66 188.36 144.47C182.56 155.58 174.6 166.65 164.69 177.38C148.252 195.168 131.764 206.207 131.07 206.67L119.98 214.04L108.9 206.65C108.21 206.18 91.7298 195.12 75.2998 177.32C65.3898 166.59 57.4296 155.51 51.6396 144.41C43.9197 129.6 40 114.66 40 100C40 55.89 75.89 20 120 20ZM120 40C86.86 40 60 66.86 60 100C60 150 120 190 120 190C120 190 180 150.12 180 100C180 66.86 153.14 40 120 40Z" fill="black"/>
</svg>
