<svg width="240" height="240" viewBox="0 0 240 240" fill="none" xmlns="http://www.w3.org/2000/svg">
<path d="M56.3604 56.3605C91.5079 21.2135 148.492 21.2137 183.64 56.3605C218.787 91.508 218.787 148.492 183.64 183.64H183.639L169.496 169.497C196.833 142.16 196.834 97.8401 169.497 70.5031C142.16 43.1665 97.8389 43.1664 70.502 70.5031C43.1665 97.8403 43.166 142.162 70.502 169.498L56.3604 183.64L55.5439 182.812C21.2165 147.603 21.4891 91.2335 56.3604 56.3605ZM85.1045 84.1906C104.665 65.1199 135.982 65.2714 155.355 84.6447C174.729 104.018 174.88 135.335 155.81 154.896L155.354 155.356L141.212 141.213C152.927 129.497 152.928 110.503 141.213 98.7873C129.497 87.0717 110.502 87.0709 98.7861 98.7863L98.7871 98.7873C87.0719 110.503 87.0718 129.497 98.7871 141.213L84.6445 155.356C65.1187 135.829 65.1194 104.171 84.6445 84.6447L85.1045 84.1906ZM109.246 109.394C115.104 103.536 124.601 103.536 130.459 109.394C136.317 115.252 136.317 124.749 130.459 130.607C124.601 136.464 115.104 136.464 109.246 130.607C103.388 124.749 103.388 115.252 109.246 109.394Z" fill="black"/>
</svg>
