<svg width="240" height="240" viewBox="0 0 240 240" fill="none" xmlns="http://www.w3.org/2000/svg">
<path d="M169.999 99.999L110 160L75 125L89.1416 110.858L109.999 131.716L155.857 85.8574L169.999 99.999Z" fill="black"/>
<path fill-rule="evenodd" clip-rule="evenodd" d="M120 20C175.228 20 220 64.7715 220 120C220 175.228 175.228 220 120 220C64.7715 220 20 175.228 20 120C20 64.7715 64.7715 20 120 20ZM120 40C75.8172 40 40 75.8172 40 120C40 164.183 75.8172 200 120 200C164.183 200 200 164.183 200 120C200 75.8172 164.183 40 120 40Z" fill="black"/>
</svg>
