<svg width="240" height="240" viewBox="0 0 240 240" fill="none" xmlns="http://www.w3.org/2000/svg">
<path d="M200 150H220V170H200V190H180V170H160V150H180V130H200V150Z" fill="black"/>
<path d="M100 90H70C53.4315 90 40 103.431 40 120C40 136.569 53.4315 150 70 150H100V170H70C42.3858 170 20 147.614 20 120C20 92.3858 42.3858 70 70 70H100V90Z" fill="black"/>
<path d="M140 170H120V150H140V170Z" fill="black"/>
<path d="M140 130H80V110H140V130Z" fill="black"/>
<path d="M150 70C174.19 70 194.367 87.1776 199 110H178.291C174.172 98.3484 163.062 90 150 90H120V70H150Z" fill="black"/>
</svg>
