<svg width="240" height="240" viewBox="0 0 240 240" fill="none" xmlns="http://www.w3.org/2000/svg">
<path d="M177.071 44.1426L130.076 91.1377V109.924H148.862L195.857 62.9287L210 77.0713L177 110H210V130H176.974L210 162.929L195.857 177.071L148.862 130.076H130.076V148.862L177.071 195.857L162.929 210L130 177V210H110V177L77.0713 210L62.9287 195.857L109.924 148.862V130.076H91.1377L44.1426 177.071L30 162.929L63 130H30V110H63L30 77.0713L44.1426 62.9287L91.1377 109.924H109.924V91.1377L62.9287 44.1426L77.0713 30L110 63V30H130V63L162.929 30L177.071 44.1426Z" fill="black"/>
</svg>
