<svg width="240" height="240" viewBox="0 0 240 240" fill="none" xmlns="http://www.w3.org/2000/svg">
<path d="M129.552 220.34H109.552V160.34H129.552V220.34Z" fill="black"/>
<path d="M169.552 220.34H149.552V160.34H169.552V220.34Z" fill="black"/>
<path d="M90 220H70V200H90V220Z" fill="black"/>
<path d="M90 180H70V160H90V180Z" fill="black"/>
<path fill-rule="evenodd" clip-rule="evenodd" d="M120 20C146.339 20 168.713 36.9715 176.785 60.5752C195.645 63.7979 210 80.2215 210 100C210 122.091 192.091 140 170 140H70C47.9086 140 30 122.091 30 100C30 80.2219 44.3547 63.7983 63.2139 60.5752C71.286 36.9713 93.6612 20 120 20ZM120 40C104.175 40 90.4965 49.1901 84.0098 62.5244C99.1909 68.2022 110 82.8379 110 100H90C90 92.6362 86.0197 86.2028 80.0938 82.7314C77.1308 80.9958 73.6819 80 70 80C67.0976 80 64.3398 80.6187 61.8506 81.7305C61.7743 81.7645 61.6988 81.8 61.623 81.835C61.1383 82.0588 60.664 82.3009 60.2012 82.5615C54.1126 85.9901 50 92.5146 50 100C50 111.046 58.9543 120 70 120H170C181.046 120 190 111.046 190 100C190 88.9543 181.046 80 170 80C166.318 80 162.868 80.9956 159.905 82.7314C159.966 81.8288 160 80.9181 160 80C160 57.9086 142.091 40 120 40Z" fill="black"/>
</svg>
