<svg width="240" height="240" viewBox="0 0 240 240" fill="none" xmlns="http://www.w3.org/2000/svg">
<path fill-rule="evenodd" clip-rule="evenodd" d="M120 20C175.228 20 220 64.7715 220 120C220 175.228 175.228 220 120 220C64.7715 220 20 175.228 20 120C20 64.7715 64.7715 20 120 20ZM130 80H110V40.6191C73.8129 45.1316 45.1327 73.8129 40.6201 110H80V130H40.6201C45.1326 166.187 73.8129 194.867 110 199.38V160H130V199.38C166.187 194.867 194.867 166.187 199.38 130H160V110H199.38C194.867 73.8129 166.187 45.1316 130 40.6191V80Z" fill="black"/>
</svg>
