<svg width="240" height="240" viewBox="0 0 240 240" fill="none" xmlns="http://www.w3.org/2000/svg">
<path d="M80 40C98.6383 40 114.299 52.7478 118.739 70H150C161.046 70 170 78.9543 170 90V121.26C187.252 125.7 200 141.362 200 160C200 182.091 182.091 200 160 200C137.909 200 120 182.091 120 160C120 141.362 132.748 125.7 150 121.26V90H118.738C115.12 104.056 104.056 115.121 90 118.739V200H70V118.739C52.7478 114.299 40 98.6383 40 80C40 57.9086 57.9086 40 80 40ZM160 140C148.954 140 140 148.954 140 160C140 171.046 148.954 180 160 180C171.046 180 180 171.046 180 160C180 148.954 171.046 140 160 140ZM80 60C68.9543 60 60 68.9543 60 80C60 91.0457 68.9543 100 80 100C91.0457 100 100 91.0457 100 80C100 68.9543 91.0457 60 80 60Z" fill="black"/>
</svg>
