<svg width="240" height="240" viewBox="0 0 240 240" fill="none" xmlns="http://www.w3.org/2000/svg">
<path d="M80 120C80 142.091 97.9086 160 120 160C142.091 160 160 142.091 160 120H180C180 153.137 153.137 180 120 180C86.8629 180 60 153.137 60 120H80Z" fill="black"/>
<path d="M90 80C95.5229 80 100 84.4771 100 90C100 95.5229 95.5229 100 90 100C84.4771 100 80 95.5229 80 90C80 84.4771 84.4771 80 90 80Z" fill="black"/>
<path d="M150 80C155.523 80 160 84.4771 160 90C160 95.5229 155.523 100 150 100C144.477 100 140 95.5229 140 90C140 84.4771 144.477 80 150 80Z" fill="black"/>
<path fill-rule="evenodd" clip-rule="evenodd" d="M120 20C175.228 20 220 64.7715 220 120C220 175.228 175.228 220 120 220C64.7715 220 20 175.228 20 120C20 64.7715 64.7715 20 120 20ZM120 40C75.8172 40 40 75.8172 40 120C40 164.183 75.8172 200 120 200C164.183 200 200 164.183 200 120C200 75.8172 164.183 40 120 40Z" fill="black"/>
</svg>
