<svg width="240" height="240" viewBox="0 0 240 240" fill="none" xmlns="http://www.w3.org/2000/svg">
<path d="M84.9941 59.3682C64.0743 71.4723 50 94.0925 50 120C50 145.908 64.0751 168.527 84.9951 180.631L74.9932 197.954C48.0962 182.392 30 153.31 30 120C30 86.6902 48.096 57.6074 74.9932 42.0449L84.9941 59.3682Z" fill="black"/>
<path d="M165.007 42.0449C191.904 57.6074 210 86.6902 210 120C210 153.309 191.904 182.391 165.007 197.953L155.005 180.63C175.925 168.526 190 145.907 190 120C190 94.0924 175.925 71.4733 155.005 59.3691L165.007 42.0449Z" fill="black"/>
<path d="M104.998 94.0146C96.0321 99.2021 90 108.897 90 120C90 131.103 96.0323 140.797 104.998 145.984L94.9961 163.308C80.0535 154.662 70 138.505 70 120C70 101.495 80.0535 85.3382 94.9961 76.6924L104.998 94.0146Z" fill="black"/>
<path d="M145.003 76.6924C159.946 85.3381 170 101.494 170 120C170 138.505 159.946 154.661 145.004 163.307L135.002 145.983C143.967 140.796 150 131.103 150 120C150 108.897 143.968 99.2031 135.002 94.0156L145.003 76.6924Z" fill="black"/>
<path d="M120 110C125.523 110 130 114.477 130 120C130 125.523 125.523 130 120 130C114.477 130 110 125.523 110 120C110 114.477 114.477 110 120 110Z" fill="black"/>
</svg>
