<svg width="240" height="240" viewBox="0 0 240 240" fill="none" xmlns="http://www.w3.org/2000/svg">
<path fill-rule="evenodd" clip-rule="evenodd" d="M49.2893 49.2887C88.3417 10.2368 151.658 10.2367 190.71 49.2887C229.763 88.3411 229.763 151.658 190.71 190.711C151.658 229.763 88.3418 229.763 49.2893 190.711C10.2369 151.658 10.2369 88.3411 49.2893 49.2887ZM147.571 161.713C139.666 166.948 130.19 170 119.999 170C109.809 170 100.332 166.948 92.428 161.713L70.9407 183.201C99.7196 205.598 140.28 205.598 169.059 183.201L147.571 161.713ZM56.7981 70.9411C34.401 99.72 34.4009 140.28 56.7981 169.059L78.2854 147.571C73.0507 139.667 69.9993 130.19 69.9993 120C69.9993 109.809 73.0506 100.332 78.2854 92.4284L56.7981 70.9411ZM161.712 92.4284C166.947 100.333 169.999 109.809 169.999 120C169.999 130.19 166.947 139.667 161.712 147.571L183.2 169.059C205.598 140.28 205.599 99.719 183.201 70.9401L161.712 92.4284ZM119.999 89.9997C103.431 89.9998 89.9994 103.431 89.9993 120C89.9993 136.568 103.431 150 119.999 150C136.568 150 149.999 136.568 149.999 120C149.999 103.431 136.568 89.9997 119.999 89.9997ZM169.059 56.7985C140.28 34.4012 99.7197 34.4014 70.9407 56.7985L92.428 78.2858C100.332 73.0509 109.809 69.9997 119.999 69.9997C130.19 69.9997 139.666 73.051 147.571 78.2858L169.059 56.7985Z" fill="black"/>
</svg>
