<svg width="240" height="240" viewBox="0 0 240 240" fill="none" xmlns="http://www.w3.org/2000/svg">
<path d="M160 120H130.68L149.43 170H128.07L120 148.48L111.93 170H90.5703L109.32 120H80V100H160V120ZM120 60C128.284 60 135 66.7157 135 75C135 83.2843 128.284 90 120 90C111.716 90 105 83.2843 105 75C105 66.7157 111.716 60 120 60Z" fill="black"/>
<path d="M120 20C175.228 20 220 64.7715 220 120C220 175.228 175.228 220 120 220C64.7715 220 20 175.228 20 120C20 64.7715 64.7715 20 120 20ZM120 40C75.8172 40 40 75.8172 40 120C40 164.183 75.8172 200 120 200C164.183 200 200 164.183 200 120C200 75.8172 164.183 40 120 40Z" fill="black"/>
</svg>
