<svg width="240" height="240" viewBox="0 0 240 240" fill="none" xmlns="http://www.w3.org/2000/svg">
<path d="M120 170C125.523 170 130 174.477 130 180C130 185.523 125.523 190 120 190C114.477 190 110 185.523 110 180C110 174.477 114.477 170 120 170Z" fill="black"/>
<path d="M120 110C125.523 110 130 114.477 130 120C130 125.523 125.523 130 120 130C114.477 130 110 125.523 110 120C110 114.477 114.477 110 120 110Z" fill="black"/>
<path d="M120 50C125.523 50 130 54.4772 130 60C130 65.5228 125.523 70 120 70C114.477 70 110 65.5228 110 60C110 54.4772 114.477 50 120 50Z" fill="black"/>
<path fill-rule="evenodd" clip-rule="evenodd" d="M200 220H40V20H200V220ZM60 200H180V160H60V200ZM60 140H180V100H60V140ZM60 80H180V40H60V80Z" fill="black"/>
</svg>
