<svg width="240" height="240" viewBox="0 0 240 240" fill="none" xmlns="http://www.w3.org/2000/svg">
<path d="M90 121.26C104.056 124.878 115.121 135.944 118.739 150H120C136.569 150 150 136.569 150 120V118.739C132.748 114.299 120 98.6383 120 80C120 57.9086 137.909 40 160 40C182.091 40 200 57.9086 200 80C200 98.6383 187.252 114.299 170 118.739V120C170 147.614 147.614 170 120 170H118.739C114.299 187.252 98.6383 200 80 200C57.9086 200 40 182.091 40 160C40 141.362 52.7477 125.7 70 121.26V40H90V121.26ZM80 140C68.9543 140 60 148.954 60 160C60 171.046 68.9543 180 80 180C91.0457 180 100 171.046 100 160C100 148.954 91.0457 140 80 140ZM160 60C148.954 60 140 68.9543 140 80C140 91.0457 148.954 100 160 100C171.046 100 180 91.0457 180 80C180 68.9543 171.046 60 160 60Z" fill="black"/>
</svg>
