<svg width="240" height="240" viewBox="0 0 240 240" fill="none" xmlns="http://www.w3.org/2000/svg">
<path d="M220 190C220 206.569 206.569 220 190 220H50C34.1036 220 21.0976 207.636 20.0684 192H20V110H60V20H220V190ZM40 192H40.2002C41.1267 196.564 45.1621 200 50 200C54.8379 200 58.8733 196.564 59.7998 192H60V130H40V192ZM80 192H79.9316C79.7481 194.788 79.1847 197.472 78.291 200H190C195.523 200 200 195.523 200 190V40H80V192ZM120 160H100V100H120V160ZM180 160H140V140H180V160ZM180 120H140V100H180V120ZM180 80H100V60H180V80Z" fill="black"/>
</svg>
