<svg width="240" height="240" viewBox="0 0 240 240" fill="none" xmlns="http://www.w3.org/2000/svg">
<path fill-rule="evenodd" clip-rule="evenodd" d="M120 39.9999C160 40.5 200 65.0732 200 65.0732V86.9999H220V180H180V200H160V180H80V200H60V180H20V86.9999H40V65.0732C40 65.0732 80.0031 39.4999 120 39.9999ZM40 110V160H60V110H40ZM80 160H160V130H80V160ZM180 160H200V110H180V160ZM120 59.9999C99.1856 59.9999 78.1368 65.9032 60 76.0233V86.9999H80V110H160V86.9999H180V76.0233C161.863 65.9032 140.814 59.9999 120 59.9999Z" fill="black"/>
</svg>
