<svg width="240" height="240" viewBox="0 0 240 240" fill="none" xmlns="http://www.w3.org/2000/svg">
<path fill-rule="evenodd" clip-rule="evenodd" d="M120 100C142.091 100 160 117.909 160 140C160 162.091 142.091 180 120 180C97.9086 180 80 162.091 80 140C80 117.909 97.9086 100 120 100ZM120 120C108.954 120 100 128.954 100 140C100 151.046 108.954 160 120 160C131.046 160 140 151.046 140 140C140 128.954 131.046 120 120 120Z" fill="black"/>
<path d="M120 60C125.523 60 130 64.4772 130 70C130 75.5228 125.523 80 120 80C114.477 80 110 75.5228 110 70C110 64.4772 114.477 60 120 60Z" fill="black"/>
<path fill-rule="evenodd" clip-rule="evenodd" d="M180 20C191.046 20 200 28.9543 200 40V200C200 210.873 191.324 219.719 180.517 219.993L180 220H60C48.9543 220 40 211.046 40 200V40C40 28.9543 48.9543 20 60 20H180ZM60 200H180V40H60V200Z" fill="black"/>
</svg>
