<svg width="240" height="240" viewBox="0 0 240 240" fill="none" xmlns="http://www.w3.org/2000/svg">
<path fill-rule="evenodd" clip-rule="evenodd" d="M190 40H170V80C170 96.3568 162.145 110.878 150.002 120C162.145 129.122 170 143.643 170 160V200H190V220H50V200H70V160C70 143.643 77.8547 129.122 89.9971 120C77.8547 110.878 70 96.3565 70 80V40H50V20H190V40ZM120 130C103.431 130 90 143.431 90 160H150C150 143.431 136.569 130 120 130ZM90 80C90 96.5685 103.431 110 120 110C136.569 110 150 96.5685 150 80V40H90V80Z" fill="black"/>
</svg>
