<svg width="240" height="240" viewBox="0 0 240 240" fill="none" xmlns="http://www.w3.org/2000/svg">
<path d="M80 40C102.091 40 120 57.9086 120 80C120 98.6383 107.252 114.299 90 118.739V120C90 136.569 103.431 150 120 150H121.261C125.701 132.748 141.362 120 160 120C182.091 120 200 137.909 200 160C200 182.091 182.091 200 160 200C141.362 200 125.701 187.252 121.261 170H120C108.744 170 98.3567 166.279 90 160.002V200H70V118.739C52.7478 114.299 40 98.6383 40 80C40 57.9086 57.9086 40 80 40ZM160 140C148.954 140 140 148.954 140 160C140 171.046 148.954 180 160 180C171.046 180 180 171.046 180 160C180 148.954 171.046 140 160 140ZM80 60C68.9543 60 60 68.9543 60 80C60 91.0457 68.9543 100 80 100C91.0457 100 100 91.0457 100 80C100 68.9543 91.0457 60 80 60Z" fill="black"/>
</svg>
