<svg width="240" height="240" viewBox="0 0 240 240" fill="none" xmlns="http://www.w3.org/2000/svg">
<path d="M120 60C125.523 60 130 64.4772 130 70C130 75.5228 125.523 80 120 80C114.477 80 110 75.5228 110 70C110 64.4772 114.477 60 120 60Z" fill="black"/>
<path fill-rule="evenodd" clip-rule="evenodd" d="M120 20C153.137 20 180 46.8629 180 80V160C180 193.137 153.137 220 120 220C86.8629 220 60 193.137 60 160V80C60 46.8629 86.8629 20 120 20ZM120 40C97.9086 40 80 57.9086 80 80V160C80 182.091 97.9086 200 120 200C142.091 200 160 182.091 160 160V80C160 57.9086 142.091 40 120 40Z" fill="black"/>
</svg>
