<svg width="240" height="240" viewBox="0 0 240 240" fill="none" xmlns="http://www.w3.org/2000/svg">
<path fill-rule="evenodd" clip-rule="evenodd" d="M120 100C142.091 100 160 117.909 160 140C160 162.091 142.091 180 120 180C97.9086 180 80 162.091 80 140C80 117.909 97.9086 100 120 100ZM120 120C108.954 120 100 128.954 100 140C100 151.046 108.954 160 120 160C131.046 160 140 151.046 140 140C140 128.954 131.046 120 120 120Z" fill="black"/>
<path d="M90 60C95.5228 60 100 64.4772 100 70C100 75.5228 95.5228 80 90 80C84.4772 80 80 75.5228 80 70C80 64.4772 84.4772 60 90 60Z" fill="black"/>
<path d="M160 60C165.523 60 170 64.4772 170 70C170 75.5228 165.523 80 160 80H140C134.477 80 130 75.5228 130 70C130 64.4772 134.477 60 140 60H160Z" fill="black"/>
<path fill-rule="evenodd" clip-rule="evenodd" d="M180 20C191.046 20 200 28.9543 200 40V200C200 211.046 191.046 220 180 220H60L59.4834 219.993C48.6765 219.719 40 210.873 40 200V40C40 28.9543 48.9543 20 60 20H180ZM60 200H180V40H60V200Z" fill="black"/>
</svg>
