<svg width="240" height="240" viewBox="0 0 240 240" fill="none" xmlns="http://www.w3.org/2000/svg">
<path d="M80 190C85.5228 190 90 194.477 90 200C90 205.523 85.5228 210 80 210C74.4772 210 70 205.523 70 200C70 194.477 74.4772 190 80 190Z" fill="black"/>
<path d="M120 190C125.523 190 130 194.477 130 200C130 205.523 125.523 210 120 210C114.477 210 110 205.523 110 200C110 194.477 114.477 190 120 190Z" fill="black"/>
<path d="M160 190C165.523 190 170 194.477 170 200C170 205.523 165.523 210 160 210C154.477 210 150 205.523 150 200C150 194.477 154.477 190 160 190Z" fill="black"/>
<path d="M80 150C85.5228 150 90 154.477 90 160C90 165.523 85.5228 170 80 170C74.4772 170 70 165.523 70 160C70 154.477 74.4772 150 80 150Z" fill="black"/>
<path d="M120 150C125.523 150 130 154.477 130 160C130 165.523 125.523 170 120 170C114.477 170 110 165.523 110 160C110 154.477 114.477 150 120 150Z" fill="black"/>
<path d="M160 150C165.523 150 170 154.477 170 160C170 165.523 165.523 170 160 170C154.477 170 150 165.523 150 160C150 154.477 154.477 150 160 150Z" fill="black"/>
<path fill-rule="evenodd" clip-rule="evenodd" d="M190 130H50V110C50 74.7353 76.0771 45.5613 110 40.709V20H130V40.709C163.923 45.5613 190 74.7353 190 110V130ZM170 110C170 82.3858 147.614 60 120 60C92.3858 60 70 82.3858 70 110H170Z" fill="black"/>
</svg>
