<svg width="240" height="240" viewBox="0 0 240 240" fill="none" xmlns="http://www.w3.org/2000/svg">
<path d="M170 120C170 92.3858 147.614 70 120 70L120 90C136.569 90 150 103.431 150 120L170 120Z" fill="black"/>
<path fill-rule="evenodd" clip-rule="evenodd" d="M210 120C210 70.2944 169.706 30 120 30C70.2944 30 30 70.2944 30 120C30 169.706 70.2944 210 120 210C169.706 210 210 169.706 210 120ZM190 120C190 158.66 158.66 190 120 190C81.3401 190 50 158.66 50 120C50 81.3401 81.3401 50 120 50C158.66 50 190 81.3401 190 120Z" fill="black"/>
</svg>
