<svg width="240" height="240" viewBox="0 0 240 240" fill="none" xmlns="http://www.w3.org/2000/svg">
<path fill-rule="evenodd" clip-rule="evenodd" d="M120 20C153.137 20 180 46.8629 180 80V160C180 193.137 153.137 220 120 220C86.8629 220 60 193.137 60 160V80C60 46.8629 86.8629 20 120 20ZM80 160C80 182.091 97.9086 200 120 200C142.091 200 160 182.091 160 160V110H80V160ZM130 90H160V80C160 61.3616 147.252 45.7002 130 41.2598V90ZM110 41.2598C92.7477 45.7002 80 61.3616 80 80V90H110V41.2598Z" fill="black"/>
</svg>
