<svg width="240" height="240" viewBox="0 0 240 240" fill="none" xmlns="http://www.w3.org/2000/svg">
<path fill-rule="evenodd" clip-rule="evenodd" d="M130 40.8301C158.377 45.5909 180 70.2701 180 100V160H200V180H150C150 196.57 136.57 210 120 210C103.43 210 90 196.57 90 180H40V160H60V100C60 70.2701 81.6229 45.5909 110 40.8301V30H130V40.8301ZM110 180C110 185.52 114.48 190 120 190C125.52 190 130 185.52 130 180H110ZM120 60C97.9086 60 80 77.9086 80 100V160H160V100C160 77.9086 142.091 60 120 60Z" fill="black"/>
<path d="M63.4316 43.4307C48.9542 57.9079 40 77.9084 40 100H20C20 72.3855 31.1923 47.3846 49.2891 29.2881L63.4316 43.4307Z" fill="black"/>
<path d="M190.711 29.2891C208.807 47.3855 220 72.3858 220 100H200C200 77.9086 191.046 57.9088 176.568 43.4316L190.711 29.2891Z" fill="black"/>
</svg>
