<svg width="240" height="240" viewBox="0 0 240 240" fill="none" xmlns="http://www.w3.org/2000/svg">
<path d="M60 170C65.5228 170 70 174.477 70 180C70 185.523 65.5228 190 60 190C54.4772 190 50 185.523 50 180C50 174.477 54.4772 170 60 170Z" fill="black"/>
<path d="M180 170C185.523 170 190 174.477 190 180C190 185.523 185.523 190 180 190H130C124.477 190 120 185.523 120 180C120 174.477 124.477 170 130 170H180Z" fill="black"/>
<path fill-rule="evenodd" clip-rule="evenodd" d="M200 130.017C210.873 130.017 219.719 138.693 219.993 149.5L220 150.017V200C220 211.046 211.046 220 200 220H40C28.9544 220 20 211.046 20 200V150.017C20 138.971 28.9543 130.017 40 130.017H200ZM40 200H200V150.017H40V200Z" fill="black"/>
<path d="M180 60C185.523 60 190 64.4772 190 70C190 75.5228 185.523 80 180 80H130C124.477 80 120 75.5228 120 70C120 64.4772 124.477 60 130 60H180Z" fill="black"/>
<path d="M60 59.9834C65.5228 59.9834 70 64.4606 70 69.9834C70 75.5062 65.5228 79.9834 60 79.9834C54.4772 79.9833 50 75.5062 50 69.9834C50 64.4606 54.4772 59.9835 60 59.9834Z" fill="black"/>
<path fill-rule="evenodd" clip-rule="evenodd" d="M200 20C210.873 20 219.719 28.6765 219.993 39.4834L220 40V89.9834C220 101.029 211.046 109.983 200 109.983H40C28.9544 109.983 20 101.029 20 89.9834V40C20 28.9543 28.9543 20 40 20H200ZM40 89.9834H200V40H40V89.9834Z" fill="black"/>
</svg>
