<svg width="240" height="240" viewBox="0 0 240 240" fill="none" xmlns="http://www.w3.org/2000/svg">
<path d="M100 40C144.18 40 180 75.82 180 120C180 164.18 144.18 200 100 200C55.82 200 20 164.18 20 120C20 75.82 55.82 40 100 40ZM193.71 45.0312C228.76 88.7334 228.761 151.266 193.711 194.969L178.092 182.474C207.3 146.055 207.301 93.9438 178.092 57.5254L193.71 45.0312ZM100 60C66.86 60 40 86.86 40 120C40 153.14 66.86 180 100 180C133.14 180 160 153.14 160 120C160 86.86 133.14 60 100 60ZM140 120H100V160H80V100H140V120Z" fill="black"/>
</svg>
