<svg width="240" height="240" viewBox="0 0 240 240" fill="none" xmlns="http://www.w3.org/2000/svg">
<path fill-rule="evenodd" clip-rule="evenodd" d="M120 40C140.605 40 155.711 55.8963 165.006 72.7422C174.564 90.0647 180 111.725 180 130C180 151.557 174.61 169.202 163.775 181.585C152.787 194.143 137.325 200 120 200C102.675 200 87.2126 194.143 76.2246 181.585C65.3895 169.202 60 151.557 60 130C60 111.725 65.436 90.0647 74.9941 72.7422C84.2894 55.8963 99.3954 40 120 40ZM120 60C110.605 60 100.711 67.5348 92.5059 82.4043C84.564 96.7975 80 115.138 80 130C80 148.443 84.6106 160.798 91.2754 168.415C97.7874 175.857 107.325 180 120 180C132.675 180 142.213 175.857 148.725 168.415C155.389 160.798 160 148.443 160 130C160 115.138 155.436 96.7975 147.494 82.4043C139.289 67.5348 129.395 60 120 60Z" fill="black"/>
</svg>
