<svg width="240" height="240" viewBox="0 0 240 240" fill="none" xmlns="http://www.w3.org/2000/svg">
<path fill-rule="evenodd" clip-rule="evenodd" d="M200.881 192.904L186.738 207.047L157.476 177.783C143.738 191.187 131.662 199.275 131.07 199.67L119.98 207.04L108.9 199.65C108.21 199.18 91.7298 188.12 75.2998 170.32C65.3898 159.59 57.4296 148.51 51.6396 137.41C43.9197 122.6 40 107.66 40 93V60.3076L19.9766 40.2842L34.1182 26.1426L200.881 192.904ZM60 93C60 143 120 183 120 183C120 183 130.853 175.784 143.328 163.636L60 80.3076V93Z" fill="black"/>
<path d="M200 93.0195C200 107.699 196.08 122.66 188.36 137.47C186.743 140.568 184.956 143.661 183.007 146.746L168.439 132.179C175.257 120.367 180 107.089 180 93V50H86.2607L66.2607 30H200V93.0195Z" fill="black"/>
</svg>
