<svg width="240" height="240" viewBox="0 0 240 240" fill="none" xmlns="http://www.w3.org/2000/svg">
<path d="M160 20C171.046 20 180 28.9543 180 40V200C180 211.046 171.046 220 160 220H80C68.9543 220 60 211.046 60 200V180H80V200H160V40H80V60H60V40C60 29.127 68.6765 20.2808 79.4834 20.0068L80 20H160Z" fill="black"/>
<path d="M120 170C125.523 170 130 174.477 130 180C130 185.523 125.523 190 120 190C114.477 190 110 185.523 110 180C110 174.477 114.477 170 120 170Z" fill="black"/>
<path d="M140 120L95 165L80.8604 150.859L101.72 130H40.5V110H101.72L80.8604 89.1396L95 75L140 120Z" fill="black"/>
</svg>
