<svg width="240" height="240" viewBox="0 0 240 240" fill="none" xmlns="http://www.w3.org/2000/svg">
<rect x="60" y="150" width="120" height="40" fill="white"/>
<path d="M140 190C140 201.046 131.046 210 120 210C108.954 210 100 201.046 100 190H140Z" fill="black"/>
<path d="M160 180H80V160H160V180Z" fill="black"/>
<path fill-rule="evenodd" clip-rule="evenodd" d="M120 30C158.66 30 190 61.3401 190 100C190 119.587 181.955 137.295 168.989 150H71.0107C58.0451 137.295 50 119.587 50 100C50 61.3401 81.3401 30 120 30ZM120 50C92.3858 50 70 72.3858 70 100C70 111.257 73.7217 121.645 80 130.002V130H160V130.002C166.278 121.645 170 111.257 170 100C170 72.3858 147.614 50 120 50Z" fill="black"/>
</svg>
