<svg width="240" height="240" viewBox="0 0 240 240" fill="none" xmlns="http://www.w3.org/2000/svg">
<path fill-rule="evenodd" clip-rule="evenodd" d="M130 60.6192C169.463 65.5402 200 99.2039 200 140V160H160C160 182.091 142.091 200 120 200C98.2537 200 80.5602 182.647 80.0127 161.032L80 160H40V140C40 99.2039 70.5369 65.5402 110 60.6192V20H130V60.6192ZM100 160C100 171.046 108.954 180 120 180C131.046 180 140 171.046 140 160H100ZM120 80C86.8629 80 60 106.863 60 140H180C180 106.863 153.137 80 120 80Z" fill="black"/>
</svg>
