<svg width="240" height="240" viewBox="0 0 240 240" fill="none" xmlns="http://www.w3.org/2000/svg">
<path d="M130 120H160V140H130V170H110V140H80V120H110V90H130V120Z" fill="black"/>
<path fill-rule="evenodd" clip-rule="evenodd" d="M120 50C164.18 50.0003 200 85.8202 200 130C200 150.869 192.006 169.872 178.915 184.116L195.579 203.477L180.421 216.523L163.656 197.046C151.102 205.237 136.108 210 120.001 210C103.893 210 88.897 205.238 76.3428 197.046L59.5791 216.523L44.4209 203.477L61.084 184.115C47.9937 169.871 40 150.869 40 130C40 85.8202 75.8202 50.0003 120 50ZM120 70C86.8602 70.0003 60 96.8602 60 130C60 144.805 65.3622 158.357 74.249 168.82C78.5809 173.92 83.7513 178.287 89.5459 181.707L89.5439 181.708C98.4711 186.977 108.882 190 120 190C131.117 190 141.527 186.976 150.454 181.708L150.453 181.707C156.248 178.287 161.417 173.92 165.749 168.82L165.75 168.822C174.638 158.358 180 144.806 180 130C180 96.8602 153.14 70.0003 120 70Z" fill="black"/>
<path d="M173.679 23C184.924 28.6249 195.472 36.1254 204.852 45.5049C210.664 51.3175 215.754 57.5794 220.125 64.1768L203.508 75.3125C199.85 69.7758 195.584 64.5224 190.709 59.6475C182.893 51.8312 174.103 45.581 164.731 40.8936L173.679 23Z" fill="black"/>
<path d="M75.2656 40.8926C65.8941 45.5801 57.1046 51.8309 49.2881 59.6475C44.475 64.4606 40.2556 69.6431 36.6289 75.1025L19.9482 64.0615C24.3018 57.5064 29.3668 51.2837 35.1455 45.5049C44.5253 36.1251 55.0726 28.624 66.3184 22.999L75.2656 40.8926Z" fill="black"/>
</svg>
