<?xml version="1.0" standalone="no"?>
<!DOCTYPE svg PUBLIC "-//W3C//DTD SVG 1.1//EN" "http://www.w3.org/Graphics/SVG/1.1/DTD/svg11.dtd" >
<svg xmlns="http://www.w3.org/2000/svg">
<defs>
  <font id="CRC Monico" horiz-adv-x="10240">
    <font-face font-family="CRC Monico"
      units-per-em="1024" ascent="1024"
      descent="0"
      font-weight="400"
      font-style="normal" />
    <missing-glyph horiz-adv-x="0" />
    <glyph glyph-name="ico__cart"
      unicode="&#xE900;"
      horiz-adv-x="10240" d="M5370.879999999999 819.2C5347.1232 936.0384 5243.8528 1024 5120 1024C4996.147199999999 1024 4892.8768 936.0384 4869.12 819.2H4710.4V0H5529.599999999999V819.2H5370.879999999999zM5120 921.6C5186.8672 921.6 5243.7504 878.848 5264.8448 819.2H4975.2064C4996.3008 878.848 5053.183999999999 921.6 5120.0512 921.6H5120zM5427.2 102.4H4812.799999999999V716.8H5427.2V102.4z" />
    <glyph glyph-name="ico__cart-1"
      unicode="&#x69;&#x63;&#x6F;&#x5F;&#x5F;&#x63;&#x61;&#x72;&#x74;"
      horiz-adv-x="10240" d="M5370.879999999999 819.2C5347.1232 936.0384 5243.8528 1024 5120 1024C4996.147199999999 1024 4892.8768 936.0384 4869.12 819.2H4710.4V0H5529.599999999999V819.2H5370.879999999999zM5120 921.6C5186.8672 921.6 5243.7504 878.848 5264.8448 819.2H4975.2064C4996.3008 878.848 5053.183999999999 921.6 5120.0512 921.6H5120zM5427.2 102.4H4812.799999999999V716.8H5427.2V102.4z" />
    <glyph glyph-name="ico__filter"
      unicode="&#xE901;"
      horiz-adv-x="10240" d="M5632 307.2000000000001H5469.6448C5448.5504 366.8480000000001 5391.6672 409.6 5324.8 409.6C5257.9328000000005 409.6 5201.0496 366.8480000000001 5179.9552 307.2000000000001H4608V204.8H5179.9552C5201.0496 145.1519999999999 5257.9328000000005 102.4 5324.8 102.4C5391.6672 102.4 5448.5504 145.1519999999999 5469.6448 204.8H5632V307.2000000000001zM5324.8 204.8C5296.5376 204.8 5273.6 227.7376 5273.6 256C5273.6 284.2624 5296.5376 307.2000000000001 5324.8 307.2000000000001C5353.0624 307.2000000000001 5376 284.2624 5376 256C5376 227.7376 5353.0624 204.8 5324.8 204.8zM4608 716.8000000000001H4770.3552C4791.4496 657.152 4848.3328 614.4 4915.2 614.4C4982.0672 614.4 5038.9504 657.152 5060.0448 716.8000000000001H5632V819.2H5060.0448C5038.9504 878.8480000000001 4982.0672 921.6 4915.2 921.6C4848.3328 921.6 4791.4496 878.8480000000001 4770.3552 819.2H4608V716.8000000000001zM4915.2 819.2C4943.4624 819.2 4966.4 796.2624 4966.4 768C4966.4 739.7376 4943.4624 716.8000000000001 4915.2 716.8000000000001C4886.9376 716.8000000000001 4864 739.7376 4864 768C4864 796.2624 4886.9376 819.2 4915.2 819.2z" />
    <glyph glyph-name="ico__filter-1"
      unicode="&#x69;&#x63;&#x6F;&#x5F;&#x5F;&#x66;&#x69;&#x6C;&#x74;&#x65;&#x72;"
      horiz-adv-x="10240" d="M5632 307.2000000000001H5469.6448C5448.5504 366.8480000000001 5391.6672 409.6 5324.8 409.6C5257.9328000000005 409.6 5201.0496 366.8480000000001 5179.9552 307.2000000000001H4608V204.8H5179.9552C5201.0496 145.1519999999999 5257.9328000000005 102.4 5324.8 102.4C5391.6672 102.4 5448.5504 145.1519999999999 5469.6448 204.8H5632V307.2000000000001zM5324.8 204.8C5296.5376 204.8 5273.6 227.7376 5273.6 256C5273.6 284.2624 5296.5376 307.2000000000001 5324.8 307.2000000000001C5353.0624 307.2000000000001 5376 284.2624 5376 256C5376 227.7376 5353.0624 204.8 5324.8 204.8zM4608 716.8000000000001H4770.3552C4791.4496 657.152 4848.3328 614.4 4915.2 614.4C4982.0672 614.4 5038.9504 657.152 5060.0448 716.8000000000001H5632V819.2H5060.0448C5038.9504 878.8480000000001 4982.0672 921.6 4915.2 921.6C4848.3328 921.6 4791.4496 878.8480000000001 4770.3552 819.2H4608V716.8000000000001zM4915.2 819.2C4943.4624 819.2 4966.4 796.2624 4966.4 768C4966.4 739.7376 4943.4624 716.8000000000001 4915.2 716.8000000000001C4886.9376 716.8000000000001 4864 739.7376 4864 768C4864 796.2624 4886.9376 819.2 4915.2 819.2z" />
    <glyph glyph-name="ico__close"
      unicode="&#xE902;"
      horiz-adv-x="10240" d="M5631.9744 951.5776L5559.5776 1023.9744L5120.0256 584.4224000000002L4680.4224 1023.9744L4608.0256 951.5776L5047.5776 511.9744000000001L4608.0256 72.4224L4680.4224 0.0255999999999L5120.0256 439.5776000000001L5559.5776 0.0255999999999L5631.9744 72.4224L5192.4223999999995 511.9744000000001L5631.9744 951.5776z" />
    <glyph glyph-name="ico__close-1"
      unicode="&#x69;&#x63;&#x6F;&#x5F;&#x5F;&#x63;&#x6C;&#x6F;&#x73;&#x65;"
      horiz-adv-x="10240" d="M5631.9744 951.5776L5559.5776 1023.9744L5120.0256 584.4224000000002L4680.4224 1023.9744L4608.0256 951.5776L5047.5776 511.9744000000001L4608.0256 72.4224L4680.4224 0.0255999999999L5120.0256 439.5776000000001L5559.5776 0.0255999999999L5631.9744 72.4224L5192.4223999999995 511.9744000000001L5631.9744 951.5776z" />
    <glyph glyph-name="ico__delete"
      unicode="&#xE903;"
      horiz-adv-x="10240" d="M5068.8 614.4H4966.4V205.4656H5068.8V614.4zM5273.6 613.7344H5171.2V204.8H5273.6V613.7344zM5632 819.2H5370.88C5347.1232 936.0384 5243.8528 1024 5120 1024C4996.1472 1024 4892.8768 936.0384 4869.12 819.2H4608V716.8H4761.6V0H5478.4V716.8H5632V819.2zM5120 921.6C5186.8672 921.6 5243.7504 878.848 5264.8448 819.2H4975.2064C4996.3008 878.848 5053.184 921.6 5120.0512 921.6H5120zM5376 102.4H4864V716.8H5376V102.4z" />
    <glyph glyph-name="ico__delete-1"
      unicode="&#x69;&#x63;&#x6F;&#x5F;&#x5F;&#x64;&#x65;&#x6C;&#x65;&#x74;&#x65;"
      horiz-adv-x="10240" d="M5068.8 614.4H4966.4V205.4656H5068.8V614.4zM5273.6 613.7344H5171.2V204.8H5273.6V613.7344zM5632 819.2H5370.88C5347.1232 936.0384 5243.8528 1024 5120 1024C4996.1472 1024 4892.8768 936.0384 4869.12 819.2H4608V716.8H4761.6V0H5478.4V716.8H5632V819.2zM5120 921.6C5186.8672 921.6 5243.7504 878.848 5264.8448 819.2H4975.2064C4996.3008 878.848 5053.184 921.6 5120.0512 921.6H5120zM5376 102.4H4864V716.8H5376V102.4z" />
    <glyph glyph-name="ico__bug"
      unicode="&#xE904;"
      horiz-adv-x="10240" d="M5324.8 256.0000000000001H5222.4V153.6H5324.8V256.0000000000001zM5632 460.8H5529.6V256.0000000000001H5632V460.8zM4710.4 460.8H4608V256.0000000000001H4710.4V460.8zM5017.6 256.0000000000001H4915.2V153.6H5017.6V256.0000000000001zM5324.8 665.5999999999999H4915.2V768H4812.8V563.2H4710.4V460.8H4812.8V256.0000000000001H4915.2V358.4000000000001H5324.8V256.0000000000001H5427.2V460.8H5529.6V563.2H5427.2V768H5324.8V665.5999999999999zM4915.2 460.8V563.2H5017.6V460.8H4915.2zM5324.8 460.8H5222.4V563.2H5324.8V460.8zM5529.6 870.4000000000001H5427.2V768H5529.6V870.4000000000001zM5632 768H5529.6V665.5999999999999H5632V768zM4812.8 870.4000000000001H4710.4V768H4812.8V870.4000000000001zM4710.4 768H4608V665.5999999999999H4710.4V768z" />
    <glyph glyph-name="ico__bug-1"
      unicode="&#x69;&#x63;&#x6F;&#x5F;&#x5F;&#x62;&#x75;&#x67;"
      horiz-adv-x="10240" d="M5324.8 256.0000000000001H5222.4V153.6H5324.8V256.0000000000001zM5632 460.8H5529.6V256.0000000000001H5632V460.8zM4710.4 460.8H4608V256.0000000000001H4710.4V460.8zM5017.6 256.0000000000001H4915.2V153.6H5017.6V256.0000000000001zM5324.8 665.5999999999999H4915.2V768H4812.8V563.2H4710.4V460.8H4812.8V256.0000000000001H4915.2V358.4000000000001H5324.8V256.0000000000001H5427.2V460.8H5529.6V563.2H5427.2V768H5324.8V665.5999999999999zM4915.2 460.8V563.2H5017.6V460.8H4915.2zM5324.8 460.8H5222.4V563.2H5324.8V460.8zM5529.6 870.4000000000001H5427.2V768H5529.6V870.4000000000001zM5632 768H5529.6V665.5999999999999H5632V768zM4812.8 870.4000000000001H4710.4V768H4812.8V870.4000000000001zM4710.4 768H4608V665.5999999999999H4710.4V768z" />
    <glyph glyph-name="ico__user"
      unicode="&#xE905;"
      horiz-adv-x="10240" d="M4710.4 0.5119999999999C4710.4 226.7136000000001 4893.7984 410.1120000000001 5120 410.1120000000001C5346.201599999999 410.1120000000001 5529.599999999999 226.7136000000001 5529.599999999999 0.5119999999999H5427.2C5427.2 170.1888 5289.676799999999 307.712 5120 307.712C4950.3232 307.712 4812.799999999999 170.1888 4812.799999999999 0.5119999999999H4710.4zM5120 1023.488C4978.636799999999 1023.488 4864 908.8512 4864 767.488C4864 626.1248 4978.636799999999 511.4880000000001 5120 511.4880000000001C5261.3632 511.4880000000001 5376 626.1248 5376 767.488C5376 908.8512 5261.3632 1023.488 5120 1023.488zM5120 613.888C5035.161599999999 613.888 4966.4 682.6496000000001 4966.4 767.488C4966.4 852.3264 5035.161599999999 921.088 5120 921.088C5204.8384 921.088 5273.599999999999 852.3264 5273.599999999999 767.488C5273.599999999999 682.6496000000001 5204.8384 613.888 5120 613.888z" />
    <glyph glyph-name="ico__user-1"
      unicode="&#x69;&#x63;&#x6F;&#x5F;&#x5F;&#x75;&#x73;&#x65;&#x72;"
      horiz-adv-x="10240" d="M4710.4 0.5119999999999C4710.4 226.7136000000001 4893.7984 410.1120000000001 5120 410.1120000000001C5346.201599999999 410.1120000000001 5529.599999999999 226.7136000000001 5529.599999999999 0.5119999999999H5427.2C5427.2 170.1888 5289.676799999999 307.712 5120 307.712C4950.3232 307.712 4812.799999999999 170.1888 4812.799999999999 0.5119999999999H4710.4zM5120 1023.488C4978.636799999999 1023.488 4864 908.8512 4864 767.488C4864 626.1248 4978.636799999999 511.4880000000001 5120 511.4880000000001C5261.3632 511.4880000000001 5376 626.1248 5376 767.488C5376 908.8512 5261.3632 1023.488 5120 1023.488zM5120 613.888C5035.161599999999 613.888 4966.4 682.6496000000001 4966.4 767.488C4966.4 852.3264 5035.161599999999 921.088 5120 921.088C5204.8384 921.088 5273.599999999999 852.3264 5273.599999999999 767.488C5273.599999999999 682.6496000000001 5204.8384 613.888 5120 613.888z" />
    <glyph glyph-name="ico__page"
      unicode="&#xE906;"
      horiz-adv-x="10240" d="M4712.437810945274 1021.5036815920398V2.4963184079602H5527.562189054726V1021.5036815920398H4712.437810945274zM4814.328358208955 104.3868656716418V919.6131343283582H5425.671641791045V104.3868656716418H4814.328358208955zM5323.781094527363 512H4916.218905472637V410.1094527363184H5323.781094527363V512zM5323.781094527363 715.7301492537313H4916.218905472637V613.8396019900498H5323.781094527363V715.7301492537313zM5120 308.1170149253732H4916.218905472637V206.2264676616916H5120V308.1170149253732z" />
    <glyph glyph-name="ico__page-1"
      unicode="&#x69;&#x63;&#x6F;&#x5F;&#x5F;&#x70;&#x61;&#x67;&#x65;"
      horiz-adv-x="10240" d="M4712.437810945274 1021.5036815920398V2.4963184079602H5527.562189054726V1021.5036815920398H4712.437810945274zM4814.328358208955 104.3868656716418V919.6131343283582H5425.671641791045V104.3868656716418H4814.328358208955zM5323.781094527363 512H4916.218905472637V410.1094527363184H5323.781094527363V512zM5323.781094527363 715.7301492537313H4916.218905472637V613.8396019900498H5323.781094527363V715.7301492537313zM5120 308.1170149253732H4916.218905472637V206.2264676616916H5120V308.1170149253732z" />
    <glyph glyph-name="ico__download"
      unicode="&#xE907;"
      horiz-adv-x="10240" d="M5119.9488 367.2064000000001L5376 623.2064L5303.552 695.6544L5171.1488 563.2V1024H5068.7488V563.2L4936.448 695.5519999999999L4864.0512 623.1551999999999L5119.9488 367.2064000000001zM5632 307.2H5529.6V102.4H4710.4V307.2H4608V0H5632V307.2z" />
    <glyph glyph-name="ico__download-1"
      unicode="&#x69;&#x63;&#x6F;&#x5F;&#x5F;&#x64;&#x6F;&#x77;&#x6E;&#x6C;&#x6F;&#x61;&#x64;"
      horiz-adv-x="10240" d="M5119.9488 367.2064000000001L5376 623.2064L5303.552 695.6544L5171.1488 563.2V1024H5068.7488V563.2L4936.448 695.5519999999999L4864.0512 623.1551999999999L5119.9488 367.2064000000001zM5632 307.2H5529.6V102.4H4710.4V307.2H4608V0H5632V307.2z" />
    <glyph glyph-name="ico__laptop"
      unicode="&#xE908;"
      horiz-adv-x="10240" d="M5478.4 307.2V819.2H4761.6V307.2H4608V204.8H5632V307.2H5478.4zM4864 716.8H5376V307.2H4864V716.8z" />
    <glyph glyph-name="ico__laptop-1"
      unicode="&#x69;&#x63;&#x6F;&#x5F;&#x5F;&#x6C;&#x61;&#x70;&#x74;&#x6F;&#x70;"
      horiz-adv-x="10240" d="M5478.4 307.2V819.2H4761.6V307.2H4608V204.8H5632V307.2H5478.4zM4864 716.8H5376V307.2H4864V716.8z" />
    <glyph glyph-name="ico__arrow_left"
      unicode="&#xE909;"
      horiz-adv-x="10240" d="M5227.06329882873 941.769204685083L4854.449499933702 569.1559715359117H5601.202348552486V456.0045372817679H4853.615590541437L5227.391431425414 82.2275649060774L5147.383086674034 2.2197859005525L4638.8473748508295 510.7523295469613L4640.206466121547 512.1174742983426L4638.797651447514 513.5261814806629L5147.051559602211 1021.7802140994474L5227.06329882873 941.769204685083z" />
    <glyph glyph-name="ico__arrow_left-1"
      unicode="&#x69;&#x63;&#x6F;&#x5F;&#x5F;&#x61;&#x72;&#x72;&#x6F;&#x77;&#x5F;&#x6C;&#x65;&#x66;&#x74;"
      horiz-adv-x="10240" d="M5227.06329882873 941.769204685083L4854.449499933702 569.1559715359117H5601.202348552486V456.0045372817679H4853.615590541437L5227.391431425414 82.2275649060774L5147.383086674034 2.2197859005525L4638.8473748508295 510.7523295469613L4640.206466121547 512.1174742983426L4638.797651447514 513.5261814806629L5147.051559602211 1021.7802140994474L5227.06329882873 941.769204685083z" />
    <glyph glyph-name="ico__world"
      unicode="&#xE90A;"
      horiz-adv-x="10240" d="M5199.296 1017.856C5173.44 1021.888 5146.9439999999995 1024 5120 1024C5093.0560000000005 1024 5066.56 1021.888 5040.704 1017.856C4795.904 979.584 4608 767.3599999999999 4608 512C4608 256.6399999999999 4795.904 44.4159999999999 5040.704 6.144C5066.56 2.1120000000001 5093.0560000000005 0 5120 0C5146.9439999999995 0 5173.44 2.1120000000001 5199.296 6.144C5444.096 44.352 5632 256.6399999999999 5632 512C5632 767.3599999999999 5444.096 979.584 5199.296 1017.856zM5120 894.336C5144 845.312 5171.392 779.712 5190.72 704H5049.28C5068.608 779.712 5096 845.312 5120 894.336zM4966.528 863.872C4948.032 816.704 4930.56 762.816 4917.632 704H4787.7119999999995C4828.608 774.528 4891.328 830.912 4966.592 863.872H4966.528zM4741.44 448C4737.92 468.8 4736 490.176 4736 512C4736 533.824 4737.92 555.2 4741.44 576H4898.56C4896.96 555.008 4896 533.6959999999999 4896 512C4896 490.304 4896.96 468.992 4898.56 448H4741.44zM4917.568 320C4930.496 261.1199999999999 4947.968 207.232 4966.464 160.1280000000001C4891.2 193.0879999999999 4828.544 249.472 4787.584 320H4917.568zM5120 129.6639999999999C5096 178.6879999999999 5068.608 244.288 5049.28 320H5190.72C5171.392 244.288 5144 178.6879999999999 5120 129.6639999999999zM5212.992 448H5027.072C5025.152 468.992 5024.064 490.304 5024.064 512C5024.064 533.6959999999999 5025.216 555.008 5027.072 576H5212.992C5214.912 555.008 5216 533.6959999999999 5216 512C5216 490.304 5214.848 468.992 5212.992 448zM5322.432 704C5309.504 762.88 5292.032 816.768 5273.536 863.872C5348.8 830.912 5411.456 774.528 5452.416 704H5322.432zM5273.472 160.1280000000001C5291.968 207.2959999999999 5309.4400000000005 261.184 5322.368 320H5452.2880000000005C5411.392 249.472 5348.6720000000005 193.0879999999999 5273.408 160.1280000000001H5273.472zM5341.4400000000005 448C5343.04 468.992 5344 490.304 5344 512C5344 533.6959999999999 5343.04 555.008 5341.4400000000005 576H5498.56C5502.08 555.2 5504 533.824 5504 512C5504 490.176 5502.08 468.8 5498.56 448H5341.4400000000005z" />
    <glyph glyph-name="ico__world-1"
      unicode="&#x69;&#x63;&#x6F;&#x5F;&#x5F;&#x77;&#x6F;&#x72;&#x6C;&#x64;"
      horiz-adv-x="10240" d="M5199.296 1017.856C5173.44 1021.888 5146.9439999999995 1024 5120 1024C5093.0560000000005 1024 5066.56 1021.888 5040.704 1017.856C4795.904 979.584 4608 767.3599999999999 4608 512C4608 256.6399999999999 4795.904 44.4159999999999 5040.704 6.144C5066.56 2.1120000000001 5093.0560000000005 0 5120 0C5146.9439999999995 0 5173.44 2.1120000000001 5199.296 6.144C5444.096 44.352 5632 256.6399999999999 5632 512C5632 767.3599999999999 5444.096 979.584 5199.296 1017.856zM5120 894.336C5144 845.312 5171.392 779.712 5190.72 704H5049.28C5068.608 779.712 5096 845.312 5120 894.336zM4966.528 863.872C4948.032 816.704 4930.56 762.816 4917.632 704H4787.7119999999995C4828.608 774.528 4891.328 830.912 4966.592 863.872H4966.528zM4741.44 448C4737.92 468.8 4736 490.176 4736 512C4736 533.824 4737.92 555.2 4741.44 576H4898.56C4896.96 555.008 4896 533.6959999999999 4896 512C4896 490.304 4896.96 468.992 4898.56 448H4741.44zM4917.568 320C4930.496 261.1199999999999 4947.968 207.232 4966.464 160.1280000000001C4891.2 193.0879999999999 4828.544 249.472 4787.584 320H4917.568zM5120 129.6639999999999C5096 178.6879999999999 5068.608 244.288 5049.28 320H5190.72C5171.392 244.288 5144 178.6879999999999 5120 129.6639999999999zM5212.992 448H5027.072C5025.152 468.992 5024.064 490.304 5024.064 512C5024.064 533.6959999999999 5025.216 555.008 5027.072 576H5212.992C5214.912 555.008 5216 533.6959999999999 5216 512C5216 490.304 5214.848 468.992 5212.992 448zM5322.432 704C5309.504 762.88 5292.032 816.768 5273.536 863.872C5348.8 830.912 5411.456 774.528 5452.416 704H5322.432zM5273.472 160.1280000000001C5291.968 207.2959999999999 5309.4400000000005 261.184 5322.368 320H5452.2880000000005C5411.392 249.472 5348.6720000000005 193.0879999999999 5273.408 160.1280000000001H5273.472zM5341.4400000000005 448C5343.04 468.992 5344 490.304 5344 512C5344 533.6959999999999 5343.04 555.008 5341.4400000000005 576H5498.56C5502.08 555.2 5504 533.824 5504 512C5504 490.176 5502.08 468.8 5498.56 448H5341.4400000000005z" />
    <glyph glyph-name="ico__arrow_right"
      unicode="&#xE90B;"
      horiz-adv-x="10240" d="M5012.937908840663 941.7682740331492L5385.549444752265 569.1550408839778H4638.799549722873V456.0053038674034H5386.386748619669L5012.611473481546 82.2283314917127L5092.616989503646 2.2205524861878L5601.155190608619 510.751964640884L5599.791743094806 512.1165436464089L5601.200450277127 513.5252508287292L5092.9485165754695 1021.7794475138122L5012.937908840663 941.7682740331492z" />
    <glyph glyph-name="ico__arrow_right-1"
      unicode="&#x69;&#x63;&#x6F;&#x5F;&#x5F;&#x61;&#x72;&#x72;&#x6F;&#x77;&#x5F;&#x72;&#x69;&#x67;&#x68;&#x74;"
      horiz-adv-x="10240" d="M5012.937908840663 941.7682740331492L5385.549444752265 569.1550408839778H4638.799549722873V456.0053038674034H5386.386748619669L5012.611473481546 82.2283314917127L5092.616989503646 2.2205524861878L5601.155190608619 510.751964640884L5599.791743094806 512.1165436464089L5601.200450277127 513.5252508287292L5092.9485165754695 1021.7794475138122L5012.937908840663 941.7682740331492z" />
    <glyph glyph-name="ico__settings"
      unicode="&#xE90C;"
      horiz-adv-x="10240" d="M5119.974901960784 662.5882352941176C5036.8 662.5882352941176 4969.386666666666 595.1749019607842 4969.386666666666 512C4969.386666666666 428.8250980392157 5036.8 361.4117647058824 5119.974901960784 361.4117647058824C5203.1498039215685 361.4117647058824 5270.563137254901 428.8250980392157 5270.563137254901 512C5270.563137254901 595.1749019607842 5203.1498039215685 662.5882352941176 5119.974901960784 662.5882352941176zM5119.974901960784 461.8039215686275C5092.266666666666 461.8039215686275 5069.778823529412 484.2917647058824 5069.778823529412 512C5069.778823529412 539.7082352941177 5092.266666666666 562.1960784313726 5119.974901960784 562.1960784313726C5147.683137254902 562.1960784313726 5170.170980392157 539.7082352941177 5170.170980392157 512C5170.170980392157 484.2917647058824 5147.683137254902 461.8039215686275 5119.974901960784 461.8039215686275zM5630.017254901961 391.4290196078432L5470.142745098039 483.7396078431372C5470.89568627451 493.0760784313725 5471.347450980392 502.4627450980392 5471.347450980392 512C5471.347450980392 521.5372549019608 5470.89568627451 530.9239215686273 5470.142745098039 540.2603921568627L5630.017254901961 632.5709803921568L5479.429019607844 893.3898039215685L5319.504313725491 801.0792156862744C5304.043921568627 811.7709803921568 5287.730196078432 821.2580392156863 5270.613333333334 829.3898039215685V1013.9607843137256H4969.436862745098V829.3898039215685C4952.32 821.2580392156863 4936.006274509804 811.7709803921568 4920.545882352942 801.0792156862744L4760.621176470589 893.3898039215685L4609.982745098039 632.5709803921568L4769.857254901961 540.2603921568627C4769.10431372549 530.9239215686273 4768.652549019608 521.5372549019608 4768.652549019608 512C4768.652549019608 502.4627450980392 4769.10431372549 493.0760784313725 4769.857254901961 483.7396078431372L4609.982745098039 391.4290196078432L4760.570980392157 130.6101960784315L4920.495686274509 222.9207843137255C4935.956078431373 212.2290196078431 4952.269803921568 202.7419607843137 4969.386666666666 194.6101960784315V10.0392156862745H5270.563137254901V194.6101960784315C5287.68 202.7419607843137 5304.043921568627 212.2290196078431 5319.454117647059 222.9207843137255L5479.378823529411 130.6101960784315L5629.967058823529 391.4290196078432H5630.017254901961zM5442.635294117647 267.7458823529413L5307.758431372549 345.6C5272.370196078431 305.6439215686274 5224.43294117647 277.0823529411765 5170.120784313725 266.0392156862746V110.4313725490196H5069.728627450981V266.0392156862746C5015.416470588235 277.0823529411765 4967.529411764706 305.6439215686274 4932.090980392157 345.6L4797.214117647059 267.7458823529413L4747.018039215686 354.6854901960785L4877.427450980392 429.9796078431372L4881.844705882353 432.5396078431373C4873.5121568627455 457.5372549019608 4868.94431372549 484.2415686274509 4868.94431372549 512C4868.94431372549 539.758431372549 4873.5121568627455 566.5129411764706 4881.844705882353 591.4603921568628L4747.068235294118 669.3145098039215L4797.26431372549 756.2541176470588L4927.673725490196 680.96L4932.090980392157 678.4000000000001C4967.479215686275 718.3560784313725 5015.416470588235 746.9176470588234 5069.728627450981 757.9607843137255V913.5686274509804H5170.120784313725V757.9607843137255C5224.43294117647 746.9176470588234 5272.32 718.3560784313725 5307.758431372549 678.4000000000001L5442.585098039216 756.2541176470588L5492.781176470588 669.3145098039215L5357.954509803922 591.4603921568628C5366.287058823529 566.4627450980392 5370.854901960784 539.758431372549 5370.854901960784 512C5370.854901960784 484.2415686274509 5366.287058823529 457.4870588235294 5357.954509803922 432.5396078431373L5362.371764705882 429.9796078431372L5492.781176470588 354.6854901960785L5442.585098039216 267.7458823529413H5442.635294117647z" />
    <glyph glyph-name="ico__settings-1"
      unicode="&#x69;&#x63;&#x6F;&#x5F;&#x5F;&#x73;&#x65;&#x74;&#x74;&#x69;&#x6E;&#x67;&#x73;"
      horiz-adv-x="10240" d="M5119.974901960784 662.5882352941176C5036.8 662.5882352941176 4969.386666666666 595.1749019607842 4969.386666666666 512C4969.386666666666 428.8250980392157 5036.8 361.4117647058824 5119.974901960784 361.4117647058824C5203.1498039215685 361.4117647058824 5270.563137254901 428.8250980392157 5270.563137254901 512C5270.563137254901 595.1749019607842 5203.1498039215685 662.5882352941176 5119.974901960784 662.5882352941176zM5119.974901960784 461.8039215686275C5092.266666666666 461.8039215686275 5069.778823529412 484.2917647058824 5069.778823529412 512C5069.778823529412 539.7082352941177 5092.266666666666 562.1960784313726 5119.974901960784 562.1960784313726C5147.683137254902 562.1960784313726 5170.170980392157 539.7082352941177 5170.170980392157 512C5170.170980392157 484.2917647058824 5147.683137254902 461.8039215686275 5119.974901960784 461.8039215686275zM5630.017254901961 391.4290196078432L5470.142745098039 483.7396078431372C5470.89568627451 493.0760784313725 5471.347450980392 502.4627450980392 5471.347450980392 512C5471.347450980392 521.5372549019608 5470.89568627451 530.9239215686273 5470.142745098039 540.2603921568627L5630.017254901961 632.5709803921568L5479.429019607844 893.3898039215685L5319.504313725491 801.0792156862744C5304.043921568627 811.7709803921568 5287.730196078432 821.2580392156863 5270.613333333334 829.3898039215685V1013.9607843137256H4969.436862745098V829.3898039215685C4952.32 821.2580392156863 4936.006274509804 811.7709803921568 4920.545882352942 801.0792156862744L4760.621176470589 893.3898039215685L4609.982745098039 632.5709803921568L4769.857254901961 540.2603921568627C4769.10431372549 530.9239215686273 4768.652549019608 521.5372549019608 4768.652549019608 512C4768.652549019608 502.4627450980392 4769.10431372549 493.0760784313725 4769.857254901961 483.7396078431372L4609.982745098039 391.4290196078432L4760.570980392157 130.6101960784315L4920.495686274509 222.9207843137255C4935.956078431373 212.2290196078431 4952.269803921568 202.7419607843137 4969.386666666666 194.6101960784315V10.0392156862745H5270.563137254901V194.6101960784315C5287.68 202.7419607843137 5304.043921568627 212.2290196078431 5319.454117647059 222.9207843137255L5479.378823529411 130.6101960784315L5629.967058823529 391.4290196078432H5630.017254901961zM5442.635294117647 267.7458823529413L5307.758431372549 345.6C5272.370196078431 305.6439215686274 5224.43294117647 277.0823529411765 5170.120784313725 266.0392156862746V110.4313725490196H5069.728627450981V266.0392156862746C5015.416470588235 277.0823529411765 4967.529411764706 305.6439215686274 4932.090980392157 345.6L4797.214117647059 267.7458823529413L4747.018039215686 354.6854901960785L4877.427450980392 429.9796078431372L4881.844705882353 432.5396078431373C4873.5121568627455 457.5372549019608 4868.94431372549 484.2415686274509 4868.94431372549 512C4868.94431372549 539.758431372549 4873.5121568627455 566.5129411764706 4881.844705882353 591.4603921568628L4747.068235294118 669.3145098039215L4797.26431372549 756.2541176470588L4927.673725490196 680.96L4932.090980392157 678.4000000000001C4967.479215686275 718.3560784313725 5015.416470588235 746.9176470588234 5069.728627450981 757.9607843137255V913.5686274509804H5170.120784313725V757.9607843137255C5224.43294117647 746.9176470588234 5272.32 718.3560784313725 5307.758431372549 678.4000000000001L5442.585098039216 756.2541176470588L5492.781176470588 669.3145098039215L5357.954509803922 591.4603921568628C5366.287058823529 566.4627450980392 5370.854901960784 539.758431372549 5370.854901960784 512C5370.854901960784 484.2415686274509 5366.287058823529 457.4870588235294 5357.954509803922 432.5396078431373L5362.371764705882 429.9796078431372L5492.781176470588 354.6854901960785L5442.585098039216 267.7458823529413H5442.635294117647z" />
    <glyph glyph-name="ico__menu"
      unicode="&#xE90D;"
      horiz-adv-x="10240" d="M5632 565.8947368421052H4608V458.1052631578947H5632V565.8947368421052zM5632 835.3684210526316H4608V727.578947368421H5632V835.3684210526316zM5632 296.421052631579H4608V188.6315789473685H5632V296.421052631579z" />
    <glyph glyph-name="ico__menu-1"
      unicode="&#x69;&#x63;&#x6F;&#x5F;&#x5F;&#x6D;&#x65;&#x6E;&#x75;"
      horiz-adv-x="10240" d="M5632 565.8947368421052H4608V458.1052631578947H5632V565.8947368421052zM5632 835.3684210526316H4608V727.578947368421H5632V835.3684210526316zM5632 296.421052631579H4608V188.6315789473685H5632V296.421052631579z" />
    <glyph glyph-name="ico__favorite"
      unicode="&#xE90E;"
      horiz-adv-x="10240" d="M5332.048008573006 979.743352505285C5249.202051126198 979.743352505285 5174.199497934708 946.1365651064766 5120.003753253857 891.7776340426468C5065.7535404879 946.0820970213701 4990.805455381516 979.743352505285 4907.959497934708 979.743352505285C4641.39279836024 980.5059050213702 4508.926306445346 652.7716765958384 4696.3509872964105 468.1248680852L4696.133114955985 467.9069957447745L5119.785880913431 44.2553191490298L5543.438646870878 467.9069957447745C5731.190136232581 652.5538042554127 5598.66928516875 980.5059050213702 5332.048008573006 979.743352505285zM5522.686306445346 680.169123404349C5522.686306445346 627.2806127660511 5501.171412828326 579.4576340426469 5466.366306445347 544.9248680851999C5358.465029849602 436.9691234043489 5227.959497934708 306.5191489362639 5119.949285168751 198.5089361703064C5011.884604317687 306.5736170213702 4881.324604317687 437.1325276596681 4773.314391551729 545.1427404256256C4653.974926019815 662.6848680852 4738.182476658112 871.2976340426468 4907.905029849602 870.8074212766894C5012.973966019815 871.6244425532851 5099.251412828326 783.3861446809448 5098.543327721942 680.169123404349H5141.4097107006655C5141.300774530453 730.4976340426468 5161.889710700666 779.5733787234979 5196.803753253857 814.4874212766894C5314.182476658112 934.1535863830724 5523.230987296411 849.9461446809447 5522.686306445346 680.169123404349z" />
    <glyph glyph-name="ico__favorite-1"
      unicode="&#x69;&#x63;&#x6F;&#x5F;&#x5F;&#x66;&#x61;&#x76;&#x6F;&#x72;&#x69;&#x74;&#x65;"
      horiz-adv-x="10240" d="M5332.048008573006 979.743352505285C5249.202051126198 979.743352505285 5174.199497934708 946.1365651064766 5120.003753253857 891.7776340426468C5065.7535404879 946.0820970213701 4990.805455381516 979.743352505285 4907.959497934708 979.743352505285C4641.39279836024 980.5059050213702 4508.926306445346 652.7716765958384 4696.3509872964105 468.1248680852L4696.133114955985 467.9069957447745L5119.785880913431 44.2553191490298L5543.438646870878 467.9069957447745C5731.190136232581 652.5538042554127 5598.66928516875 980.5059050213702 5332.048008573006 979.743352505285zM5522.686306445346 680.169123404349C5522.686306445346 627.2806127660511 5501.171412828326 579.4576340426469 5466.366306445347 544.9248680851999C5358.465029849602 436.9691234043489 5227.959497934708 306.5191489362639 5119.949285168751 198.5089361703064C5011.884604317687 306.5736170213702 4881.324604317687 437.1325276596681 4773.314391551729 545.1427404256256C4653.974926019815 662.6848680852 4738.182476658112 871.2976340426468 4907.905029849602 870.8074212766894C5012.973966019815 871.6244425532851 5099.251412828326 783.3861446809448 5098.543327721942 680.169123404349H5141.4097107006655C5141.300774530453 730.4976340426468 5161.889710700666 779.5733787234979 5196.803753253857 814.4874212766894C5314.182476658112 934.1535863830724 5523.230987296411 849.9461446809447 5522.686306445346 680.169123404349z" />
    <glyph glyph-name="ico__cup"
      unicode="&#xE90F;"
      horiz-adv-x="10240" d="M5632 512C5632 666.816 5522.048 795.904 5376 825.6V1024H4608V127.552C4608 57.0879999999999 4665.152 0 4735.552 0H5248.384C5318.848 0 5375.936 57.152 5375.936 127.552V198.4C5521.984 228.032 5631.936 357.184 5631.936 512H5632zM5248 128H4736V896H5248V128zM5376 692.992C5450.56 666.624 5504 595.5840000000001 5504 511.9359999999999C5504 428.288 5450.56 357.248 5376 330.88V692.992z" />
    <glyph glyph-name="ico__cup-1"
      unicode="&#x69;&#x63;&#x6F;&#x5F;&#x5F;&#x63;&#x75;&#x70;"
      horiz-adv-x="10240" d="M5632 512C5632 666.816 5522.048 795.904 5376 825.6V1024H4608V127.552C4608 57.0879999999999 4665.152 0 4735.552 0H5248.384C5318.848 0 5375.936 57.152 5375.936 127.552V198.4C5521.984 228.032 5631.936 357.184 5631.936 512H5632zM5248 128H4736V896H5248V128zM5376 692.992C5450.56 666.624 5504 595.5840000000001 5504 511.9359999999999C5504 428.288 5450.56 357.248 5376 330.88V692.992z" />
    <glyph glyph-name="ico__search"
      unicode="&#xE910;"
      horiz-adv-x="10240" d="M5422.535111111111 289.9057777777778C5482.439111111111 366.9902222222222 5518.222222222223 463.7013333333333 5518.222222222223 568.8888888888889C5518.222222222223 820.2239999999999 5314.446222222223 1024 5063.111111111111 1024C4811.776 1024 4608 820.2239999999999 4608 568.8888888888889C4608 317.5537777777777 4811.776 113.7777777777777 5063.111111111111 113.7777777777777C5168.298666666667 113.7777777777777 5265.009777777777 149.5608888888888 5342.094222222222 209.4648888888888L5551.559111111112 0L5632 80.4408888888888L5422.535111111111 289.9057777777778zM5063.111111111111 227.5555555555556C4874.5813333333335 227.5555555555556 4721.777777777777 380.3591111111112 4721.777777777777 568.8888888888889C4721.777777777777 757.4186666666667 4874.5813333333335 910.2222222222222 5063.111111111111 910.2222222222222C5251.640888888889 910.2222222222222 5404.444444444444 757.4186666666667 5404.444444444444 568.8888888888889C5404.444444444444 380.3591111111112 5251.640888888889 227.5555555555556 5063.111111111111 227.5555555555556z" />
    <glyph glyph-name="ico__search-1"
      unicode="&#x69;&#x63;&#x6F;&#x5F;&#x5F;&#x73;&#x65;&#x61;&#x72;&#x63;&#x68;"
      horiz-adv-x="10240" d="M5422.535111111111 289.9057777777778C5482.439111111111 366.9902222222222 5518.222222222223 463.7013333333333 5518.222222222223 568.8888888888889C5518.222222222223 820.2239999999999 5314.446222222223 1024 5063.111111111111 1024C4811.776 1024 4608 820.2239999999999 4608 568.8888888888889C4608 317.5537777777777 4811.776 113.7777777777777 5063.111111111111 113.7777777777777C5168.298666666667 113.7777777777777 5265.009777777777 149.5608888888888 5342.094222222222 209.4648888888888L5551.559111111112 0L5632 80.4408888888888L5422.535111111111 289.9057777777778zM5063.111111111111 227.5555555555556C4874.5813333333335 227.5555555555556 4721.777777777777 380.3591111111112 4721.777777777777 568.8888888888889C4721.777777777777 757.4186666666667 4874.5813333333335 910.2222222222222 5063.111111111111 910.2222222222222C5251.640888888889 910.2222222222222 5404.444444444444 757.4186666666667 5404.444444444444 568.8888888888889C5404.444444444444 380.3591111111112 5251.640888888889 227.5555555555556 5063.111111111111 227.5555555555556z" />
    <glyph glyph-name="ico__arrow_top_left"
      unicode="&#xE911;"
      horiz-adv-x="10240" d="M5628.868760330578 122.6261157024793L4899.797685950412 851.7818181818182H5628.0224793388425V1021.0380165289256H4614.008595041322V1018.1606611570248H4611.131239669421V3.8928925619834H4780.387438016529V731.779173553719L5509.2046280991735 2.9619834710744L5628.868760330578 122.6261157024793z" />
    <glyph glyph-name="ico__arrow_top_left-1"
      unicode="&#x69;&#x63;&#x6F;&#x5F;&#x5F;&#x61;&#x72;&#x72;&#x6F;&#x77;&#x5F;&#x74;&#x6F;&#x70;&#x5F;&#x6C;&#x65;&#x66;&#x74;"
      horiz-adv-x="10240" d="M5628.868760330578 122.6261157024793L4899.797685950412 851.7818181818182H5628.0224793388425V1021.0380165289256H4614.008595041322V1018.1606611570248H4611.131239669421V3.8928925619834H4780.387438016529V731.779173553719L5509.2046280991735 2.9619834710744L5628.868760330578 122.6261157024793z" />
    <glyph glyph-name="ico__arrow_top_right"
      unicode="&#xE912;"
      horiz-adv-x="10240" d="M5626.160661157025 1017.9914049586775V1020.8687603305787H4611.80826446281V851.6125619834711H5339.779173553719L4610.961983471075 122.7953719008264L4730.62611570248 3.1312396694215L5459.781818181818 732.2869421487603V3.9775206611571H5629.038016528926V1017.9914049586775H5626.160661157025z" />
    <glyph glyph-name="ico__arrow_top_right-1"
      unicode="&#x69;&#x63;&#x6F;&#x5F;&#x5F;&#x61;&#x72;&#x72;&#x6F;&#x77;&#x5F;&#x74;&#x6F;&#x70;&#x5F;&#x72;&#x69;&#x67;&#x68;&#x74;"
      horiz-adv-x="10240" d="M5626.160661157025 1017.9914049586775V1020.8687603305787H4611.80826446281V851.6125619834711H5339.779173553719L4610.961983471075 122.7953719008264L4730.62611570248 3.1312396694215L5459.781818181818 732.2869421487603V3.9775206611571H5629.038016528926V1017.9914049586775H5626.160661157025z" />
    <glyph glyph-name="ico__arrow_top"
      unicode="&#xE913;"
      horiz-adv-x="10240" d="M5629.765303867403 484.900773480663L5121.5558011049725 993.1668508287293L5120.141436464089 991.8090607734806L5118.78364640884 993.1668508287293L4610.234696132597 484.6179005524862L4690.231160220995 404.6214364640884L5064.019447513812 778.409723756906V30.8331491712708H5177.16861878453V777.5045303867404L5549.768839779005 404.9043093922652L5629.765303867403 484.900773480663z" />
    <glyph glyph-name="ico__arrow_top-1"
      unicode="&#x69;&#x63;&#x6F;&#x5F;&#x5F;&#x61;&#x72;&#x72;&#x6F;&#x77;&#x5F;&#x74;&#x6F;&#x70;"
      horiz-adv-x="10240" d="M5629.765303867403 484.900773480663L5121.5558011049725 993.1668508287293L5120.141436464089 991.8090607734806L5118.78364640884 993.1668508287293L4610.234696132597 484.6179005524862L4690.231160220995 404.6214364640884L5064.019447513812 778.409723756906V30.8331491712708H5177.16861878453V777.5045303867404L5549.768839779005 404.9043093922652L5629.765303867403 484.900773480663z" />
    <glyph glyph-name="ico__hide"
      unicode="&#xE914;"
      horiz-adv-x="10240" d="M5413.2991999999995 597.0176C5446.272 569.984 5474.4832 542.6432 5496.6016 519.4496C5474.5856 496.4096 5446.528 469.2224 5413.8112 442.3424L5486.5152 369.6384C5576.5248 445.1584 5631.9744 519.4496 5631.9744 519.4496C5631.9744 519.4496 5402.752 826.6496 5119.9744 826.6496C5092.0704 826.6496 5064.6272 823.6288 5037.952 818.2016000000001L5132.2112 723.9424000000001C5241.8816 719.2832000000001 5345.0496 652.9792 5413.2991999999995 596.9664V597.0176zM5403.9295999999995 307.9424L4813.0304 898.8928000000001L4725.632 811.4944L4818.2016 718.9248C4690.816 630.3488 4608.0256 519.5008 4608.0256 519.5008C4608.0256 519.5008 4837.248 212.3008000000001 5120.0256 212.3008000000001C5179.52 212.3008000000001 5236.608 225.92 5289.7024 247.4240000000001L5412.0192 125.1072L5499.4176 212.5056L5403.9295999999995 307.9936000000001V307.9424zM5120.0256 314.7008C5005.7984 314.7008 4897.5104 383.872 4826.752 441.9328C4793.7792 468.9664 4765.568 496.3072 4743.4496 519.5008C4765.568 542.6944000000001 4793.7792 570.0352 4826.752 597.0688C4845.952 612.7872 4867.9168 629.376 4892.032 645.1456000000001L4973.1328 564.0448C4968.7807999999995 549.8624 4966.4768 534.8096 4966.4768 519.1936000000001C4966.4768 434.3552 5035.2384 365.5936 5120.0768 365.5936C5135.6928 365.5936 5150.7456 367.9488 5164.928 372.2496000000001L5209.2672 327.9104000000001C5180.3392 319.6672000000001 5150.4384 314.7008 5120.0768 314.7008H5120.0256z" />
    <glyph glyph-name="ico__hide-1"
      unicode="&#x69;&#x63;&#x6F;&#x5F;&#x5F;&#x68;&#x69;&#x64;&#x65;"
      horiz-adv-x="10240" d="M5413.2991999999995 597.0176C5446.272 569.984 5474.4832 542.6432 5496.6016 519.4496C5474.5856 496.4096 5446.528 469.2224 5413.8112 442.3424L5486.5152 369.6384C5576.5248 445.1584 5631.9744 519.4496 5631.9744 519.4496C5631.9744 519.4496 5402.752 826.6496 5119.9744 826.6496C5092.0704 826.6496 5064.6272 823.6288 5037.952 818.2016000000001L5132.2112 723.9424000000001C5241.8816 719.2832000000001 5345.0496 652.9792 5413.2991999999995 596.9664V597.0176zM5403.9295999999995 307.9424L4813.0304 898.8928000000001L4725.632 811.4944L4818.2016 718.9248C4690.816 630.3488 4608.0256 519.5008 4608.0256 519.5008C4608.0256 519.5008 4837.248 212.3008000000001 5120.0256 212.3008000000001C5179.52 212.3008000000001 5236.608 225.92 5289.7024 247.4240000000001L5412.0192 125.1072L5499.4176 212.5056L5403.9295999999995 307.9936000000001V307.9424zM5120.0256 314.7008C5005.7984 314.7008 4897.5104 383.872 4826.752 441.9328C4793.7792 468.9664 4765.568 496.3072 4743.4496 519.5008C4765.568 542.6944000000001 4793.7792 570.0352 4826.752 597.0688C4845.952 612.7872 4867.9168 629.376 4892.032 645.1456000000001L4973.1328 564.0448C4968.7807999999995 549.8624 4966.4768 534.8096 4966.4768 519.1936000000001C4966.4768 434.3552 5035.2384 365.5936 5120.0768 365.5936C5135.6928 365.5936 5150.7456 367.9488 5164.928 372.2496000000001L5209.2672 327.9104000000001C5180.3392 319.6672000000001 5150.4384 314.7008 5120.0768 314.7008H5120.0256z" />
    <glyph glyph-name="ico__eye"
      unicode="&#xE915;"
      horiz-adv-x="10240" d="M5120 716.8C5234.2272 716.8 5342.5152 647.6288 5413.2736 589.568C5446.2464 562.5344 5474.4576 535.1936000000001 5496.576 512C5474.4576 488.8064 5446.2464 461.4655999999999 5413.2736 434.432C5342.5152 376.3712 5234.176 307.2 5120 307.2C5005.824 307.2 4897.4848 376.3712 4826.7264 434.432C4793.7536 461.4655999999999 4765.5424 488.8064 4743.424 512C4765.5424 535.1936000000001 4793.7536 562.5344 4826.7264 589.568C4897.4848 647.6288 5005.824 716.8 5120 716.8zM5120 819.2C4837.2224 819.2 4608 512 4608 512C4608 512 4837.2224 204.8 5120 204.8C5402.7776 204.8 5632 512 5632 512C5632 512 5402.7776 819.2 5120 819.2zM5119.6416 665.2421119999999C5034.8032 665.2421119999999 4966.0416000000005 596.4805120000001 4966.0416000000005 511.642112C4966.0416000000005 426.803712 5034.8032 358.042112 5119.6416 358.042112C5204.48 358.042112 5273.2416 426.803712 5273.2416 511.642112C5273.2416 596.4805120000001 5204.48 665.2421119999999 5119.6416 665.2421119999999zM5119.6416 460.442112C5091.3792 460.442112 5068.4416 483.379712 5068.4416 511.642112C5068.4416 539.904512 5091.3792 562.842112 5119.6416 562.842112C5147.904 562.842112 5170.8416 539.904512 5170.8416 511.642112C5170.8416 483.379712 5147.904 460.442112 5119.6416 460.442112z" />
    <glyph glyph-name="ico__eye-1"
      unicode="&#x69;&#x63;&#x6F;&#x5F;&#x5F;&#x65;&#x79;&#x65;"
      horiz-adv-x="10240" d="M5120 716.8C5234.2272 716.8 5342.5152 647.6288 5413.2736 589.568C5446.2464 562.5344 5474.4576 535.1936000000001 5496.576 512C5474.4576 488.8064 5446.2464 461.4655999999999 5413.2736 434.432C5342.5152 376.3712 5234.176 307.2 5120 307.2C5005.824 307.2 4897.4848 376.3712 4826.7264 434.432C4793.7536 461.4655999999999 4765.5424 488.8064 4743.424 512C4765.5424 535.1936000000001 4793.7536 562.5344 4826.7264 589.568C4897.4848 647.6288 5005.824 716.8 5120 716.8zM5120 819.2C4837.2224 819.2 4608 512 4608 512C4608 512 4837.2224 204.8 5120 204.8C5402.7776 204.8 5632 512 5632 512C5632 512 5402.7776 819.2 5120 819.2zM5119.6416 665.2421119999999C5034.8032 665.2421119999999 4966.0416000000005 596.4805120000001 4966.0416000000005 511.642112C4966.0416000000005 426.803712 5034.8032 358.042112 5119.6416 358.042112C5204.48 358.042112 5273.2416 426.803712 5273.2416 511.642112C5273.2416 596.4805120000001 5204.48 665.2421119999999 5119.6416 665.2421119999999zM5119.6416 460.442112C5091.3792 460.442112 5068.4416 483.379712 5068.4416 511.642112C5068.4416 539.904512 5091.3792 562.842112 5119.6416 562.842112C5147.904 562.842112 5170.8416 539.904512 5170.8416 511.642112C5170.8416 483.379712 5147.904 460.442112 5119.6416 460.442112z" />
    <glyph glyph-name="ico__step01"
      unicode="&#xE916;"
      horiz-adv-x="10240" d="M5176.888888888889 796.4444444444445H5063.111111111111V227.5555555555556H5176.888888888889V796.4444444444445zM5632 1024H4608V0H5632V1024zM4721.777777777777 113.7777777777777V910.2222222222222H5518.222222222223V113.7777777777777H4721.777777777777z" />
    <glyph glyph-name="ico__step01-1"
      unicode="&#x69;&#x63;&#x6F;&#x5F;&#x5F;&#x73;&#x74;&#x65;&#x70;&#x30;&#x31;"
      horiz-adv-x="10240" d="M5176.888888888889 796.4444444444445H5063.111111111111V227.5555555555556H5176.888888888889V796.4444444444445zM5632 1024H4608V0H5632V1024zM4721.777777777777 113.7777777777777V910.2222222222222H5518.222222222223V113.7777777777777H4721.777777777777z" />
    <glyph glyph-name="ico__home"
      unicode="&#xE917;"
      horiz-adv-x="10240" d="M5629.256132596684 455.2274033149172L5459.645524861879 624.8380110497237V851.3626519337017H5346.49635359116V738.0437569060773L5119.801988950276 964.681546961326L4610.743867403315 455.6234254143646L4690.740331491713 375.6269613259669L4780.750497237569 465.6371270718233V59.318453038674H5459.645524861879V464.9016574585635L5549.259668508287 375.2875138121547L5629.256132596684 455.2839779005525V455.2274033149172zM5176.772596685083 172.4676243093923V285.6167955801105H5063.623425414365V172.4676243093923H4893.899668508287V578.7862983425416L5119.858563535911 804.6886187845305L5346.552928176795 577.9942541436465V172.4676243093923H5176.772596685083z" />
    <glyph glyph-name="ico__home-1"
      unicode="&#x69;&#x63;&#x6F;&#x5F;&#x5F;&#x68;&#x6F;&#x6D;&#x65;"
      horiz-adv-x="10240" d="M5629.256132596684 455.2274033149172L5459.645524861879 624.8380110497237V851.3626519337017H5346.49635359116V738.0437569060773L5119.801988950276 964.681546961326L4610.743867403315 455.6234254143646L4690.740331491713 375.6269613259669L4780.750497237569 465.6371270718233V59.318453038674H5459.645524861879V464.9016574585635L5549.259668508287 375.2875138121547L5629.256132596684 455.2839779005525V455.2274033149172zM5176.772596685083 172.4676243093923V285.6167955801105H5063.623425414365V172.4676243093923H4893.899668508287V578.7862983425416L5119.858563535911 804.6886187845305L5346.552928176795 577.9942541436465V172.4676243093923H5176.772596685083z" />
    <glyph glyph-name="ico__arrow_down_left"
      unicode="&#xE918;"
      horiz-adv-x="10240" d="M5628.868760330578 901.3738842975206L4899.797685950412 172.2181818181819L5628.0224793388425 172.2181818181819V2.9619834710744L4614.008688132231 2.9619834710744L4614.008679669421 5.8393388429752H4611.131328339358L4611.131239669421 1020.1070228099175L4780.387438016529 1020.1070397355372L4780.387438016529 292.2208264462809L5509.2046280991735 1021.0380165289256L5628.868760330578 901.3738842975206z" />
    <glyph glyph-name="ico__arrow_down_left-1"
      unicode="&#x69;&#x63;&#x6F;&#x5F;&#x5F;&#x61;&#x72;&#x72;&#x6F;&#x77;&#x5F;&#x64;&#x6F;&#x77;&#x6E;&#x5F;&#x6C;&#x65;&#x66;&#x74;"
      horiz-adv-x="10240" d="M5628.868760330578 901.3738842975206L4899.797685950412 172.2181818181819L5628.0224793388425 172.2181818181819V2.9619834710744L4614.008688132231 2.9619834710744L4614.008679669421 5.8393388429752H4611.131328339358L4611.131239669421 1020.1070228099175L4780.387438016529 1020.1070397355372L4780.387438016529 292.2208264462809L5509.2046280991735 1021.0380165289256L5628.868760330578 901.3738842975206z" />
    <glyph glyph-name="ico__arrow_down_right"
      unicode="&#xE919;"
      horiz-adv-x="10240" d="M5626.160661157025 6.0085950413223V3.1312396694215L4611.808340628099 3.1312396694215L4611.808332165289 172.3874380165289L5339.779173553719 172.3874380165289L4610.961983471075 901.2046280991736L4730.62611570248 1020.8687603305787L5459.781818181818 291.7130578512397L5459.781818181818 1020.0225563504132L5629.038016528926 1020.0225707371902L5629.038016528926 6.0085950413223H5626.160661157025z" />
    <glyph glyph-name="ico__arrow_down_right-1"
      unicode="&#x69;&#x63;&#x6F;&#x5F;&#x5F;&#x61;&#x72;&#x72;&#x6F;&#x77;&#x5F;&#x64;&#x6F;&#x77;&#x6E;&#x5F;&#x72;&#x69;&#x67;&#x68;&#x74;"
      horiz-adv-x="10240" d="M5626.160661157025 6.0085950413223V3.1312396694215L4611.808340628099 3.1312396694215L4611.808332165289 172.3874380165289L5339.779173553719 172.3874380165289L4610.961983471075 901.2046280991736L4730.62611570248 1020.8687603305787L5459.781818181818 291.7130578512397L5459.781818181818 1020.0225563504132L5629.038016528926 1020.0225707371902L5629.038016528926 6.0085950413223H5626.160661157025z" />
    <glyph glyph-name="ico__arrow_down"
      unicode="&#xE91A;"
      horiz-adv-x="10240" d="M4610.234696132597 539.099226519337L5118.4441988950275 30.8331491712708L5119.858563535911 32.1909392265193L5121.21635359116 30.8331491712708L5629.765303867403 539.3820994475138L5549.768839779005 619.3785635359117L5175.980552486188 245.590276243094L5175.980552486188 993.1668409368892L5062.831381215469 993.1668508287293L5062.831381215469 246.4954696132598L4690.231160220995 619.0956906077348L4610.234696132597 539.099226519337z" />
    <glyph glyph-name="ico__arrow_down-1"
      unicode="&#x69;&#x63;&#x6F;&#x5F;&#x5F;&#x61;&#x72;&#x72;&#x6F;&#x77;&#x5F;&#x64;&#x6F;&#x77;&#x6E;"
      horiz-adv-x="10240" d="M4610.234696132597 539.099226519337L5118.4441988950275 30.8331491712708L5119.858563535911 32.1909392265193L5121.21635359116 30.8331491712708L5629.765303867403 539.3820994475138L5549.768839779005 619.3785635359117L5175.980552486188 245.590276243094L5175.980552486188 993.1668409368892L5062.831381215469 993.1668508287293L5062.831381215469 246.4954696132598L4690.231160220995 619.0956906077348L4610.234696132597 539.099226519337z" />
    <glyph glyph-name="ico__darkmode_alt"
      unicode="&#xE91B;"
      horiz-adv-x="10240" d="M5554.446195452069 512.0136841240144C5434.48459545207 392.0525961240145 5239.97579545207 392.0525961240145 5120.01368345207 512.0136841240144C5000.052083452069 631.9752841240143 5000.052083452069 826.4840841240143 5120.01368345207 946.4456841240144C5149.96619545207 976.3978377240144 5184.57739545207 998.8746377240142 5221.4925954520695 1013.8762377240143C5059.085683452069 1046.5418377240144 4883.87928345207 999.9498377240146 4757.97848345207 874.0488841240144C4558.04268825207 674.1128841240143 4558.04268825207 349.9149961240144 4757.97848345207 149.9789961240145C4957.914483452069 -49.9570038759857 5282.113395452069 -49.9570038759857 5482.04939545207 149.9789961240145C5607.950195452069 275.8797961240144 5654.54219545207 451.0861961240144 5621.8765954520695 613.4920841240144C5606.87499545207 576.5768841240144 5584.39819545207 541.9656841240144 5554.446195452069 512.0136841240144z" />
    <glyph glyph-name="ico__darkmode_alt-1"
      unicode="&#x69;&#x63;&#x6F;&#x5F;&#x5F;&#x64;&#x61;&#x72;&#x6B;&#x6D;&#x6F;&#x64;&#x65;&#x5F;&#x61;&#x6C;&#x74;"
      horiz-adv-x="10240" d="M5554.446195452069 512.0136841240144C5434.48459545207 392.0525961240145 5239.97579545207 392.0525961240145 5120.01368345207 512.0136841240144C5000.052083452069 631.9752841240143 5000.052083452069 826.4840841240143 5120.01368345207 946.4456841240144C5149.96619545207 976.3978377240144 5184.57739545207 998.8746377240142 5221.4925954520695 1013.8762377240143C5059.085683452069 1046.5418377240144 4883.87928345207 999.9498377240146 4757.97848345207 874.0488841240144C4558.04268825207 674.1128841240143 4558.04268825207 349.9149961240144 4757.97848345207 149.9789961240145C4957.914483452069 -49.9570038759857 5282.113395452069 -49.9570038759857 5482.04939545207 149.9789961240145C5607.950195452069 275.8797961240144 5654.54219545207 451.0861961240144 5621.8765954520695 613.4920841240144C5606.87499545207 576.5768841240144 5584.39819545207 541.9656841240144 5554.446195452069 512.0136841240144z" />
    <glyph glyph-name="ico__step02"
      unicode="&#xE91C;"
      horiz-adv-x="10240" d="M5063.111111111111 796.4444444444445H4949.333333333333V227.5555555555556H5063.111111111111V796.4444444444445zM5290.666666666667 796.4444444444445H5176.888888888889V227.5555555555556H5290.666666666667V796.4444444444445zM5632 1024H4608V0H5632V1024zM5518.222222222223 910.2222222222222V113.7777777777777H4721.777777777777V910.2222222222222H5518.222222222223z" />
    <glyph glyph-name="ico__step02-1"
      unicode="&#x69;&#x63;&#x6F;&#x5F;&#x5F;&#x73;&#x74;&#x65;&#x70;&#x30;&#x32;"
      horiz-adv-x="10240" d="M5063.111111111111 796.4444444444445H4949.333333333333V227.5555555555556H5063.111111111111V796.4444444444445zM5290.666666666667 796.4444444444445H5176.888888888889V227.5555555555556H5290.666666666667V796.4444444444445zM5632 1024H4608V0H5632V1024zM5518.222222222223 910.2222222222222V113.7777777777777H4721.777777777777V910.2222222222222H5518.222222222223z" />
    <glyph glyph-name="ico__step03"
      unicode="&#xE91D;"
      horiz-adv-x="10240" d="M4949.333333333333 796.4444444444445H4835.555555555556V227.5555555555556H4949.333333333333V796.4444444444445zM5176.888888888889 796.4444444444445H5063.111111111111V227.5555555555556H5176.888888888889V796.4444444444445zM5404.444444444444 796.4444444444445H5290.666666666667V227.5555555555556H5404.444444444444V796.4444444444445zM5632 1024H4608V0H5632V1024zM5518.222222222223 910.2222222222222V113.7777777777777H4721.777777777777V910.2222222222222H5518.222222222223z" />
    <glyph glyph-name="ico__step03-1"
      unicode="&#x69;&#x63;&#x6F;&#x5F;&#x5F;&#x73;&#x74;&#x65;&#x70;&#x30;&#x33;"
      horiz-adv-x="10240" d="M4949.333333333333 796.4444444444445H4835.555555555556V227.5555555555556H4949.333333333333V796.4444444444445zM5176.888888888889 796.4444444444445H5063.111111111111V227.5555555555556H5176.888888888889V796.4444444444445zM5404.444444444444 796.4444444444445H5290.666666666667V227.5555555555556H5404.444444444444V796.4444444444445zM5632 1024H4608V0H5632V1024zM5518.222222222223 910.2222222222222V113.7777777777777H4721.777777777777V910.2222222222222H5518.222222222223z" />
    <glyph glyph-name="ico__login"
      unicode="&#xE91E;"
      horiz-adv-x="10240" d="M5632.0256 1024H5120.0256V921.6H5529.6256V102.4H5120.0256V0H5632.0256V1024zM4863.9744 768L4791.5776 695.6032L4923.9808 563.2H4607.9744V460.8H4923.9808L4791.6288 328.448L4864.0256 256.0511999999999L5119.9744 512L4863.9744 768z" />
    <glyph glyph-name="ico__login-1"
      unicode="&#x69;&#x63;&#x6F;&#x5F;&#x5F;&#x6C;&#x6F;&#x67;&#x69;&#x6E;"
      horiz-adv-x="10240" d="M5632.0256 1024H5120.0256V921.6H5529.6256V102.4H5120.0256V0H5632.0256V1024zM4863.9744 768L4791.5776 695.6032L4923.9808 563.2H4607.9744V460.8H4923.9808L4791.6288 328.448L4864.0256 256.0511999999999L5119.9744 512L4863.9744 768z" />
    <glyph glyph-name="ico__logout"
      unicode="&#xE91F;"
      horiz-adv-x="10240" d="M4710.4 921.6H5120V1024H4608V0H5120V102.4H4710.4V921.6zM5632 512L5376 768L5303.6032000000005 695.6032L5436.0064 563.2H5120V460.8H5436.0064L5303.6544 328.448L5376.0512 256.0511999999999L5632 512z" />
    <glyph glyph-name="ico__logout-1"
      unicode="&#x69;&#x63;&#x6F;&#x5F;&#x5F;&#x6C;&#x6F;&#x67;&#x6F;&#x75;&#x74;"
      horiz-adv-x="10240" d="M4710.4 921.6H5120V1024H4608V0H5120V102.4H4710.4V921.6zM5632 512L5376 768L5303.6032000000005 695.6032L5436.0064 563.2H5120V460.8H5436.0064L5303.6544 328.448L5376.0512 256.0511999999999L5632 512z" />
    <glyph glyph-name="ico__phone"
      unicode="&#xE920;"
      horiz-adv-x="10240" d="M5119.43960199005 155.5868656716418C5146.899104477612 155.5868656716418 5169.162189054726 177.8499502487563 5169.162189054726 205.3094527363185C5169.162189054726 232.7689552238807 5146.899104477612 255.032039800995 5119.43960199005 255.032039800995C5091.980099502487 255.032039800995 5069.7170149253725 232.7689552238807 5069.7170149253725 205.3094527363185C5069.7170149253725 177.8499502487563 5091.980099502487 155.5868656716418 5119.43960199005 155.5868656716418zM5425.82447761194 919.358407960199C5425.82447761194 976.0604975124378 5379.87184079602 1022.0131343283582 5323.169751243781 1022.0131343283582H4917.13592039801C4888.708457711443 1022.0131343283582 4862.9301492537315 1010.4485572139304 4844.386069651741 991.7516417910448C4825.689154228856 973.1566169154228 4814.124577114428 947.4292537313432 4814.124577114428 919.0017910447762V104.9982089552239C4814.124577114428 104.9982089552239 4814.124577114428 104.7434825870646 4814.124577114428 104.641592039801C4814.124577114428 47.9395024875622 4860.077213930348 1.9868656716418 4916.779303482587 1.9868656716418H5322.813134328358C5379.515223880597 1.9868656716418 5425.467860696517 47.9395024875622 5425.467860696517 104.641592039801C5425.467860696517 104.641592039801 5425.467860696517 104.8963184079602 5425.467860696517 104.9982089552239V919.0017910447762C5425.467860696517 919.0017910447762 5425.467860696517 919.2565174129352 5425.467860696517 919.358407960199H5425.875422885572H5425.82447761194zM5322.813134328358 104.641592039801H4916.779303482587V919.358407960199H5322.813134328358V104.5906467661691V104.641592039801z" />
    <glyph glyph-name="ico__phone-1"
      unicode="&#x69;&#x63;&#x6F;&#x5F;&#x5F;&#x70;&#x68;&#x6F;&#x6E;&#x65;"
      horiz-adv-x="10240" d="M5119.43960199005 155.5868656716418C5146.899104477612 155.5868656716418 5169.162189054726 177.8499502487563 5169.162189054726 205.3094527363185C5169.162189054726 232.7689552238807 5146.899104477612 255.032039800995 5119.43960199005 255.032039800995C5091.980099502487 255.032039800995 5069.7170149253725 232.7689552238807 5069.7170149253725 205.3094527363185C5069.7170149253725 177.8499502487563 5091.980099502487 155.5868656716418 5119.43960199005 155.5868656716418zM5425.82447761194 919.358407960199C5425.82447761194 976.0604975124378 5379.87184079602 1022.0131343283582 5323.169751243781 1022.0131343283582H4917.13592039801C4888.708457711443 1022.0131343283582 4862.9301492537315 1010.4485572139304 4844.386069651741 991.7516417910448C4825.689154228856 973.1566169154228 4814.124577114428 947.4292537313432 4814.124577114428 919.0017910447762V104.9982089552239C4814.124577114428 104.9982089552239 4814.124577114428 104.7434825870646 4814.124577114428 104.641592039801C4814.124577114428 47.9395024875622 4860.077213930348 1.9868656716418 4916.779303482587 1.9868656716418H5322.813134328358C5379.515223880597 1.9868656716418 5425.467860696517 47.9395024875622 5425.467860696517 104.641592039801C5425.467860696517 104.641592039801 5425.467860696517 104.8963184079602 5425.467860696517 104.9982089552239V919.0017910447762C5425.467860696517 919.0017910447762 5425.467860696517 919.2565174129352 5425.467860696517 919.358407960199H5425.875422885572H5425.82447761194zM5322.813134328358 104.641592039801H4916.779303482587V919.358407960199H5322.813134328358V104.5906467661691V104.641592039801z" />
    <glyph glyph-name="ico__media"
      unicode="&#xE921;"
      horiz-adv-x="10240" d="M5376 256H4864L5011.77472 448L5114.33152 314.8159999999999L5228.16256 512L5376 256zM5632 0.128H5568V0H4672V0.128H4608V1024H5632V0.128zM4736 128H5504V896H4736V128z" />
    <glyph glyph-name="ico__media-1"
      unicode="&#x69;&#x63;&#x6F;&#x5F;&#x5F;&#x6D;&#x65;&#x64;&#x69;&#x61;"
      horiz-adv-x="10240" d="M5376 256H4864L5011.77472 448L5114.33152 314.8159999999999L5228.16256 512L5376 256zM5632 0.128H5568V0H4672V0.128H4608V1024H5632V0.128zM4736 128H5504V896H4736V128z" />
    <glyph glyph-name="ico__calendar"
      unicode="&#xE922;"
      horiz-adv-x="10240" d="M5376 384H5248V256H5376V384zM5632 896H5504V1024H5376V896H4864V1024H4736V896H4608V0H5632V896zM5504 128H4736V512H5504V128zM5504 640H4736V768H5504V640z" />
    <glyph glyph-name="ico__calendar-1"
      unicode="&#x69;&#x63;&#x6F;&#x5F;&#x5F;&#x63;&#x61;&#x6C;&#x65;&#x6E;&#x64;&#x61;&#x72;"
      horiz-adv-x="10240" d="M5376 384H5248V256H5376V384zM5632 896H5504V1024H5376V896H4864V1024H4736V896H4608V0H5632V896zM5504 128H4736V512H5504V128zM5504 640H4736V768H5504V640z" />
    <glyph glyph-name="ico__book"
      unicode="&#xE923;"
      horiz-adv-x="10240" d="M5632 921.6H4608V102.4H5632V921.6zM4710.4 819.2H5068.8V204.8H4710.4V819.2zM5529.6 204.8H5171.2V819.2H5529.6V204.8zM5478.4 716.8000000000001H5222.4V614.4H5478.4V716.8000000000001zM5478.4 563.2H5222.4V460.8H5478.4V563.2zM5478.4 409.6H5222.4V307.2000000000001H5478.4V409.6z" />
    <glyph glyph-name="ico__book-1"
      unicode="&#x69;&#x63;&#x6F;&#x5F;&#x5F;&#x62;&#x6F;&#x6F;&#x6B;"
      horiz-adv-x="10240" d="M5632 921.6H4608V102.4H5632V921.6zM4710.4 819.2H5068.8V204.8H4710.4V819.2zM5529.6 204.8H5171.2V819.2H5529.6V204.8zM5478.4 716.8000000000001H5222.4V614.4H5478.4V716.8000000000001zM5478.4 563.2H5222.4V460.8H5478.4V563.2zM5478.4 409.6H5222.4V307.2000000000001H5478.4V409.6z" />
    <glyph glyph-name="ico__book_add"
      unicode="&#xE924;"
      horiz-adv-x="10240" d="M5323.781094527363 1021.5546268656716H4610.547263681592V104.33592039801H5221.890547263682V206.2264676616916H4916.218905472637V919.66407960199H5221.890547263682V308.1170149253732H5323.781094527363V1021.5546268656716zM4814.328358208955 206.2264676616916H4712.437810945274V919.66407960199H4814.328358208955V206.2264676616916zM5527.562189054726 206.2264676616916V308.1170149253732H5425.671641791045V206.2264676616916H5323.781094527363V104.33592039801H5425.671641791045V2.4453731343284H5527.562189054726V104.33592039801H5629.452736318408V206.2264676616916H5527.562189054726z" />
    <glyph glyph-name="ico__book_add-1"
      unicode="&#x69;&#x63;&#x6F;&#x5F;&#x5F;&#x62;&#x6F;&#x6F;&#x6B;&#x5F;&#x61;&#x64;&#x64;"
      horiz-adv-x="10240" d="M5323.781094527363 1021.5546268656716H4610.547263681592V104.33592039801H5221.890547263682V206.2264676616916H4916.218905472637V919.66407960199H5221.890547263682V308.1170149253732H5323.781094527363V1021.5546268656716zM4814.328358208955 206.2264676616916H4712.437810945274V919.66407960199H4814.328358208955V206.2264676616916zM5527.562189054726 206.2264676616916V308.1170149253732H5425.671641791045V206.2264676616916H5323.781094527363V104.33592039801H5425.671641791045V2.4453731343284H5527.562189054726V104.33592039801H5629.452736318408V206.2264676616916H5527.562189054726z" />
    <glyph glyph-name="ico__news"
      unicode="&#xE925;"
      horiz-adv-x="10240" d="M5427.2 768H5017.6V665.6000000000001H5427.2V768zM4915.2 768H4812.8V460.8H4915.2V768zM5427.2 563.2H5017.6V460.8H5427.2V563.2zM5427.2 358.4000000000001H5017.6V256H5427.2V358.4000000000001zM4915.2 358.4000000000001H4812.8V256H4915.2V358.4000000000001zM5632 972.8H4608V51.2H5632V972.8zM4710.4 870.4000000000001H5529.6V153.6H4710.4V870.4000000000001z" />
    <glyph glyph-name="ico__news-1"
      unicode="&#x69;&#x63;&#x6F;&#x5F;&#x5F;&#x6E;&#x65;&#x77;&#x73;"
      horiz-adv-x="10240" d="M5427.2 768H5017.6V665.6000000000001H5427.2V768zM4915.2 768H4812.8V460.8H4915.2V768zM5427.2 563.2H5017.6V460.8H5427.2V563.2zM5427.2 358.4000000000001H5017.6V256H5427.2V358.4000000000001zM4915.2 358.4000000000001H4812.8V256H4915.2V358.4000000000001zM5632 972.8H4608V51.2H5632V972.8zM4710.4 870.4000000000001H5529.6V153.6H4710.4V870.4000000000001z" />
    <glyph glyph-name="ico__clock"
      unicode="&#xE926;"
      horiz-adv-x="10240" d="M5120 1024C4837.248 1024 4608 794.752 4608 512C4608 229.248 4837.248 0 5120 0C5402.752 0 5632 229.248 5632 512C5632 794.752 5402.752 1024 5120 1024zM5120 128C4907.904 128 4736 299.904 4736 512C4736 724.096 4907.904 896 5120 896C5332.096 896 5504 724.096 5504 512C5504 299.904 5332.096 128 5120 128zM5376 640H4992V256H5120V512H5376V640z" />
    <glyph glyph-name="ico__clock-1"
      unicode="&#x69;&#x63;&#x6F;&#x5F;&#x5F;&#x63;&#x6C;&#x6F;&#x63;&#x6B;"
      horiz-adv-x="10240" d="M5120 1024C4837.248 1024 4608 794.752 4608 512C4608 229.248 4837.248 0 5120 0C5402.752 0 5632 229.248 5632 512C5632 794.752 5402.752 1024 5120 1024zM5120 128C4907.904 128 4736 299.904 4736 512C4736 724.096 4907.904 896 5120 896C5332.096 896 5504 724.096 5504 512C5504 299.904 5332.096 128 5120 128zM5376 640H4992V256H5120V512H5376V640z" />
    <glyph glyph-name="ico__update"
      unicode="&#xE927;"
      horiz-adv-x="10240" d="M5029.64705882353 752.9411764705882V487.0625882352941L5210.35294117647 306.3567058823529L5295.525647058824 391.5294117647059L5150.117647058823 536.9374117647059V752.9411764705882H5029.64705882353zM5511.529411764706 873.4117647058823V745.291294117647C5429.368470588235 893.5303529411765 5271.371294117647 993.8823529411764 5089.882352941177 993.8823529411764C4823.762823529411 993.8823529411764 4608 778.1195294117647 4608 512C4608 245.8804705882353 4823.762823529411 30.1176470588235 5089.882352941177 30.1176470588235C5314.439529411765 30.1176470588235 5503.096470588235 183.7176470588236 5556.585411764706 391.5294117647059H5430.633411764706C5380.999529411765 251.1811764705883 5247.216941176471 150.5882352941177 5089.882352941177 150.5882352941177C4890.262588235294 150.5882352941177 4728.470588235294 312.3802352941176 4728.470588235294 512C4728.470588235294 711.6197647058824 4890.262588235294 873.4117647058823 5089.882352941177 873.4117647058823C5247.216941176471 873.4117647058823 5380.999529411765 772.8188235294117 5430.633411764706 632.4705882352941H5270.588235294118V512H5632V873.4117647058823H5511.529411764706z" />
    <glyph glyph-name="ico__update-1"
      unicode="&#x69;&#x63;&#x6F;&#x5F;&#x5F;&#x75;&#x70;&#x64;&#x61;&#x74;&#x65;"
      horiz-adv-x="10240" d="M5029.64705882353 752.9411764705882V487.0625882352941L5210.35294117647 306.3567058823529L5295.525647058824 391.5294117647059L5150.117647058823 536.9374117647059V752.9411764705882H5029.64705882353zM5511.529411764706 873.4117647058823V745.291294117647C5429.368470588235 893.5303529411765 5271.371294117647 993.8823529411764 5089.882352941177 993.8823529411764C4823.762823529411 993.8823529411764 4608 778.1195294117647 4608 512C4608 245.8804705882353 4823.762823529411 30.1176470588235 5089.882352941177 30.1176470588235C5314.439529411765 30.1176470588235 5503.096470588235 183.7176470588236 5556.585411764706 391.5294117647059H5430.633411764706C5380.999529411765 251.1811764705883 5247.216941176471 150.5882352941177 5089.882352941177 150.5882352941177C4890.262588235294 150.5882352941177 4728.470588235294 312.3802352941176 4728.470588235294 512C4728.470588235294 711.6197647058824 4890.262588235294 873.4117647058823 5089.882352941177 873.4117647058823C5247.216941176471 873.4117647058823 5380.999529411765 772.8188235294117 5430.633411764706 632.4705882352941H5270.588235294118V512H5632V873.4117647058823H5511.529411764706z" />
    <glyph glyph-name="ico__slideleft"
      unicode="&#xE928;"
      horiz-adv-x="10240" d="M5018.464 741.44L4927.968 832L4608.032 512.0640000000001L4928.032 192L5018.528 282.56L4853.024 448.064H5375.968V576.0640000000001H4853.024L5018.464 741.44zM5631.968000000001 1024H5503.968000000001V0H5631.968000000001V1024z" />
    <glyph glyph-name="ico__slideleft-1"
      unicode="&#x69;&#x63;&#x6F;&#x5F;&#x5F;&#x73;&#x6C;&#x69;&#x64;&#x65;&#x6C;&#x65;&#x66;&#x74;"
      horiz-adv-x="10240" d="M5018.464 741.44L4927.968 832L4608.032 512.0640000000001L4928.032 192L5018.528 282.56L4853.024 448.064H5375.968V576.0640000000001H4853.024L5018.464 741.44zM5631.968000000001 1024H5503.968000000001V0H5631.968000000001V1024z" />
    <glyph glyph-name="ico__slideright"
      unicode="&#xE929;"
      horiz-adv-x="10240" d="M5631.968000000001 511.9359999999999L5311.968 832L5221.472 741.44L5386.976000000001 575.9359999999999H4864.032V447.9359999999999H5386.976000000001L5221.536 282.56L5312.0960000000005 192L5631.968000000001 511.9359999999999zM4736.032 1024H4608.032V0H4736.032V1024z" />
    <glyph glyph-name="ico__slideright-1"
      unicode="&#x69;&#x63;&#x6F;&#x5F;&#x5F;&#x73;&#x6C;&#x69;&#x64;&#x65;&#x72;&#x69;&#x67;&#x68;&#x74;"
      horiz-adv-x="10240" d="M5631.968000000001 511.9359999999999L5311.968 832L5221.472 741.44L5386.976000000001 575.9359999999999H4864.032V447.9359999999999H5386.976000000001L5221.536 282.56L5312.0960000000005 192L5631.968000000001 511.9359999999999zM4736.032 1024H4608.032V0H4736.032V1024z" />
    <glyph glyph-name="ico__location"
      unicode="&#xE92A;"
      horiz-adv-x="10240" d="M5120 758.915282051282C5032.986256410256 758.915282051282 4962.461538461538 688.390564102564 4962.461538461538 601.3768205128206C4962.461538461538 514.363076923077 5032.986256410256 443.838358974359 5120 443.838358974359C5207.013743589743 443.838358974359 5277.538461538461 514.363076923077 5277.538461538461 601.3768205128206C5277.538461538461 688.390564102564 5207.013743589743 758.915282051282 5120 758.915282051282zM5120 548.864C5091.012923076923 548.864 5067.487179487179 572.3897435897436 5067.487179487179 601.3768205128206C5067.487179487179 630.3638974358973 5091.012923076923 653.8896410256409 5120 653.8896410256409C5148.9870769230765 653.8896410256409 5172.51282051282 630.3638974358973 5172.51282051282 601.3768205128206C5172.51282051282 572.3897435897436 5148.9870769230765 548.864 5120 548.864zM5120 916.4537435897436C5294.027487179487 916.4537435897436 5435.076923076923 775.4043076923076 5435.076923076923 601.3768205128206C5435.076923076923 338.1825641025641 5120 128.7614358974359 5120 128.7614358974359C5120 128.7614358974359 4804.923076923076 338.812717948718 4804.923076923076 601.3768205128206C4804.923076923076 775.4043076923076 4945.972512820513 916.4537435897436 5120 916.4537435897436zM5120 1021.4793846153846C4888.365948717948 1021.4793846153846 4699.897435897436 833.0108717948717 4699.897435897436 601.3768205128206C4699.897435897436 524.3930256410256 4720.482461538461 445.9388717948718 4761.022358974358 368.1673846153846C4791.4272820512815 309.8781538461539 4833.227487179487 251.6939487179487 4885.267692307692 195.3476923076924C4971.546256410256 101.8748717948718 5058.0873846153845 43.7956923076923 5061.710769230769 41.3275897435897L5119.894974358974 2.5206153846154L5178.131692307692 41.2225641025642C5181.755076923077 43.6381538461538 5268.348717948717 101.6123076923078 5354.679794871795 195.0326153846155C5406.719999999999 251.3788717948717 5448.520205128205 309.5105641025641 5478.977641025641 367.8523076923077C5519.517538461538 445.623794871795 5540.1025641025635 524.1829743589742 5540.1025641025635 601.2717948717948C5540.1025641025635 833.0108717948717 5351.634051282051 1021.4793846153846 5120 1021.4793846153846z" />
    <glyph glyph-name="ico__location-1"
      unicode="&#x69;&#x63;&#x6F;&#x5F;&#x5F;&#x6C;&#x6F;&#x63;&#x61;&#x74;&#x69;&#x6F;&#x6E;"
      horiz-adv-x="10240" d="M5120 758.915282051282C5032.986256410256 758.915282051282 4962.461538461538 688.390564102564 4962.461538461538 601.3768205128206C4962.461538461538 514.363076923077 5032.986256410256 443.838358974359 5120 443.838358974359C5207.013743589743 443.838358974359 5277.538461538461 514.363076923077 5277.538461538461 601.3768205128206C5277.538461538461 688.390564102564 5207.013743589743 758.915282051282 5120 758.915282051282zM5120 548.864C5091.012923076923 548.864 5067.487179487179 572.3897435897436 5067.487179487179 601.3768205128206C5067.487179487179 630.3638974358973 5091.012923076923 653.8896410256409 5120 653.8896410256409C5148.9870769230765 653.8896410256409 5172.51282051282 630.3638974358973 5172.51282051282 601.3768205128206C5172.51282051282 572.3897435897436 5148.9870769230765 548.864 5120 548.864zM5120 916.4537435897436C5294.027487179487 916.4537435897436 5435.076923076923 775.4043076923076 5435.076923076923 601.3768205128206C5435.076923076923 338.1825641025641 5120 128.7614358974359 5120 128.7614358974359C5120 128.7614358974359 4804.923076923076 338.812717948718 4804.923076923076 601.3768205128206C4804.923076923076 775.4043076923076 4945.972512820513 916.4537435897436 5120 916.4537435897436zM5120 1021.4793846153846C4888.365948717948 1021.4793846153846 4699.897435897436 833.0108717948717 4699.897435897436 601.3768205128206C4699.897435897436 524.3930256410256 4720.482461538461 445.9388717948718 4761.022358974358 368.1673846153846C4791.4272820512815 309.8781538461539 4833.227487179487 251.6939487179487 4885.267692307692 195.3476923076924C4971.546256410256 101.8748717948718 5058.0873846153845 43.7956923076923 5061.710769230769 41.3275897435897L5119.894974358974 2.5206153846154L5178.131692307692 41.2225641025642C5181.755076923077 43.6381538461538 5268.348717948717 101.6123076923078 5354.679794871795 195.0326153846155C5406.719999999999 251.3788717948717 5448.520205128205 309.5105641025641 5478.977641025641 367.8523076923077C5519.517538461538 445.623794871795 5540.1025641025635 524.1829743589742 5540.1025641025635 601.2717948717948C5540.1025641025635 833.0108717948717 5351.634051282051 1021.4793846153846 5120 1021.4793846153846z" />
    <glyph glyph-name="ico__more_vert"
      unicode="&#xE92B;"
      horiz-adv-x="10240" d="M5120 384C5190.692693333333 384 5248 441.3073066666667 5248 512C5248 582.6926933333334 5190.692693333333 640 5120 640C5049.307562666667 640 4992 582.6926933333334 4992 512C4992 441.3073066666667 5049.307562666667 384 5120 384zM5120 768C5190.692693333333 768 5248 825.3073066666666 5248 896C5248 966.6924373333334 5190.692693333333 1024 5120 1024C5049.307562666667 1024 4992 966.6924373333334 4992 896C4992 825.3073066666666 5049.307562666667 768 5120 768zM5120 0C5190.692693333333 0 5248 57.3098666666666 5248 128C5248 198.6926933333334 5190.692693333333 256 5120 256C5049.307562666667 256 4992 198.6926933333334 4992 128C4992 57.3098666666666 5049.307562666667 0 5120 0z" />
    <glyph glyph-name="ico__more_vert-1"
      unicode="&#x69;&#x63;&#x6F;&#x5F;&#x5F;&#x6D;&#x6F;&#x72;&#x65;&#x5F;&#x76;&#x65;&#x72;&#x74;"
      horiz-adv-x="10240" d="M5120 384C5190.692693333333 384 5248 441.3073066666667 5248 512C5248 582.6926933333334 5190.692693333333 640 5120 640C5049.307562666667 640 4992 582.6926933333334 4992 512C4992 441.3073066666667 5049.307562666667 384 5120 384zM5120 768C5190.692693333333 768 5248 825.3073066666666 5248 896C5248 966.6924373333334 5190.692693333333 1024 5120 1024C5049.307562666667 1024 4992 966.6924373333334 4992 896C4992 825.3073066666666 5049.307562666667 768 5120 768zM5120 0C5190.692693333333 0 5248 57.3098666666666 5248 128C5248 198.6926933333334 5190.692693333333 256 5120 256C5049.307562666667 256 4992 198.6926933333334 4992 128C4992 57.3098666666666 5049.307562666667 0 5120 0z" />
    <glyph glyph-name="ico__more"
      unicode="&#xE92C;"
      horiz-adv-x="10240" d="M5632 563.2H5171.2V1024H5068.8V563.2H4608V460.8H5068.8V0H5171.2V460.8H5632V563.2z" />
    <glyph glyph-name="ico__more-1"
      unicode="&#x69;&#x63;&#x6F;&#x5F;&#x5F;&#x6D;&#x6F;&#x72;&#x65;"
      horiz-adv-x="10240" d="M5632 563.2H5171.2V1024H5068.8V563.2H4608V460.8H5068.8V0H5171.2V460.8H5632V563.2z" />
    <glyph glyph-name="ico__less"
      unicode="&#xE92D;"
      horiz-adv-x="10240" d="M5632 563.2H4608V460.8H5632V563.2z" />
    <glyph glyph-name="ico__less-1"
      unicode="&#x69;&#x63;&#x6F;&#x5F;&#x5F;&#x6C;&#x65;&#x73;&#x73;"
      horiz-adv-x="10240" d="M5632 563.2H4608V460.8H5632V563.2z" />
    <glyph glyph-name="ico__up"
      unicode="&#xE92E;"
      horiz-adv-x="10240" d="M5120.0256 804.1984L4608.0256 292.1984L4680.4224 219.8016L5120.0256 659.4048L5559.5776 219.8016L5631.9744 292.1984L5120.0256 804.1984z" />
    <glyph glyph-name="ico__up-1"
      unicode="&#x69;&#x63;&#x6F;&#x5F;&#x5F;&#x75;&#x70;"
      horiz-adv-x="10240" d="M5120.0256 804.1984L4608.0256 292.1984L4680.4224 219.8016L5120.0256 659.4048L5559.5776 219.8016L5631.9744 292.1984L5120.0256 804.1984z" />
    <glyph glyph-name="ico__down"
      unicode="&#xE92F;"
      horiz-adv-x="10240" d="M5119.9744 219.8016L5631.9744 731.8016L5559.5776 804.198323141632L5119.9744 364.5952L4680.4224 804.1984L4608.0256 731.8016L5119.9744 219.8016z" />
    <glyph glyph-name="ico__down-1"
      unicode="&#x69;&#x63;&#x6F;&#x5F;&#x5F;&#x64;&#x6F;&#x77;&#x6E;"
      horiz-adv-x="10240" d="M5119.9744 219.8016L5631.9744 731.8016L5559.5776 804.198323141632L5119.9744 364.5952L4680.4224 804.1984L4608.0256 731.8016L5119.9744 219.8016z" />
    <glyph glyph-name="ico__left"
      unicode="&#xE930;"
      horiz-adv-x="10240" d="M4827.8016 511.9744000000001L5339.8016 0.0255999999999L5412.198399999999 72.4224L4972.5952 511.9744000000001L5412.198399999999 951.5776L5339.8016 1023.9744L4827.8016 511.9744000000001z" />
    <glyph glyph-name="ico__left-1"
      unicode="&#x69;&#x63;&#x6F;&#x5F;&#x5F;&#x6C;&#x65;&#x66;&#x74;"
      horiz-adv-x="10240" d="M4827.8016 511.9744000000001L5339.8016 0.0255999999999L5412.198399999999 72.4224L4972.5952 511.9744000000001L5412.198399999999 951.5776L5339.8016 1023.9744L4827.8016 511.9744000000001z" />
    <glyph glyph-name="ico__right"
      unicode="&#xE931;"
      horiz-adv-x="10240" d="M5412.198399999999 512.0256L4900.1984 1023.9744L4827.8016768583675 951.5776L5267.4048 512.0256L4827.8016 72.4224L4900.1984 0.0255999999999L5412.198399999999 512.0256z" />
    <glyph glyph-name="ico__right-1"
      unicode="&#x69;&#x63;&#x6F;&#x5F;&#x5F;&#x72;&#x69;&#x67;&#x68;&#x74;"
      horiz-adv-x="10240" d="M5412.198399999999 512.0256L4900.1984 1023.9744L4827.8016768583675 951.5776L5267.4048 512.0256L4827.8016 72.4224L4900.1984 0.0255999999999L5412.198399999999 512.0256z" />
    <glyph glyph-name="ico__expand"
      unicode="&#xE932;"
      horiz-adv-x="10240" d="M5632 1024H5120V853.3333333333334H5461.333333333333V512H5632V1024zM4778.666666666667 512H4608V0H5120V170.6666666666666H4778.666666666667V512z" />
    <glyph glyph-name="ico__expand-1"
      unicode="&#x69;&#x63;&#x6F;&#x5F;&#x5F;&#x65;&#x78;&#x70;&#x61;&#x6E;&#x64;"
      horiz-adv-x="10240" d="M5632 1024H5120V853.3333333333334H5461.333333333333V512H5632V1024zM4778.666666666667 512H4608V0H5120V170.6666666666666H4778.666666666667V512z" />
    <glyph glyph-name="ico__collapse"
      unicode="&#xE933;"
      horiz-adv-x="10240" d="M5339.428571428572 731.4285714285714V1024H5193.142857142857V585.1428571428571H5632V731.4285714285714H5339.428571428572zM5046.857142857143 438.8571428571429H4608V292.5714285714286H4900.571428571428V0H5046.857142857143V438.8571428571429z" />
    <glyph glyph-name="ico__collapse-1"
      unicode="&#x69;&#x63;&#x6F;&#x5F;&#x5F;&#x63;&#x6F;&#x6C;&#x6C;&#x61;&#x70;&#x73;&#x65;"
      horiz-adv-x="10240" d="M5339.428571428572 731.4285714285714V1024H5193.142857142857V585.1428571428571H5632V731.4285714285714H5339.428571428572zM5046.857142857143 438.8571428571429H4608V292.5714285714286H4900.571428571428V0H5046.857142857143V438.8571428571429z" />
    <glyph glyph-name="ico__darkmode"
      unicode="&#xE934;"
      horiz-adv-x="10240" d="M5609.408 662.848C5587.072 613.3119999999999 5549.4400000000005 572.2239999999999 5502.464 545.472C5465.152 524.2239999999999 5422.016 512 5376 512C5234.624 512 5120 626.624 5120 768C5120 814.016 5132.224 857.152 5153.472 894.4639999999999C5180.224 941.376 5221.312 979.008 5270.848 1001.408C5223.168 1016.064 5172.544 1024 5120 1024C5109.568 1024 5099.264 1023.616 5088.96 1022.976C4820.672 1006.912 4608 784.3199999999999 4608 512C4608 239.68 4837.248 0 5120 0C5402.752 0 5614.912 212.672 5630.976000000001 480.96C5631.616 491.264 5632 501.568 5632 512C5632 564.48 5624.064 615.1679999999999 5609.408 662.848zM5120 128C4907.904 128 4736 299.904 4736 512C4736 685.3119999999999 4850.816 831.744 5008.512 879.488C4997.824 844.2239999999999 4992 806.784 4992 768C4992 555.904 5163.904 384 5376 384C5414.784 384 5452.224 389.824 5487.488 400.512C5439.68 242.8159999999999 5293.248 128 5120 128z" />
    <glyph glyph-name="ico__darkmode-1"
      unicode="&#x69;&#x63;&#x6F;&#x5F;&#x5F;&#x64;&#x61;&#x72;&#x6B;&#x6D;&#x6F;&#x64;&#x65;"
      horiz-adv-x="10240" d="M5609.408 662.848C5587.072 613.3119999999999 5549.4400000000005 572.2239999999999 5502.464 545.472C5465.152 524.2239999999999 5422.016 512 5376 512C5234.624 512 5120 626.624 5120 768C5120 814.016 5132.224 857.152 5153.472 894.4639999999999C5180.224 941.376 5221.312 979.008 5270.848 1001.408C5223.168 1016.064 5172.544 1024 5120 1024C5109.568 1024 5099.264 1023.616 5088.96 1022.976C4820.672 1006.912 4608 784.3199999999999 4608 512C4608 239.68 4837.248 0 5120 0C5402.752 0 5614.912 212.672 5630.976000000001 480.96C5631.616 491.264 5632 501.568 5632 512C5632 564.48 5624.064 615.1679999999999 5609.408 662.848zM5120 128C4907.904 128 4736 299.904 4736 512C4736 685.3119999999999 4850.816 831.744 5008.512 879.488C4997.824 844.2239999999999 4992 806.784 4992 768C4992 555.904 5163.904 384 5376 384C5414.784 384 5452.224 389.824 5487.488 400.512C5439.68 242.8159999999999 5293.248 128 5120 128z" />
    <glyph glyph-name="ico__lightmode"
      unicode="&#xE935;"
      horiz-adv-x="10240" d="M5120 768C4978.6368 768 4864 653.3632 4864 512C4864 370.6368 4978.6368 256 5120 256C5261.3632 256 5376 370.6368 5376 512C5376 653.3632 5261.3632 768 5120 768zM5120 358.4C5035.1616 358.4 4966.4 427.1616 4966.4 512C4966.4 596.8384 5035.1616 665.5999999999999 5120 665.5999999999999C5204.8384 665.5999999999999 5273.6 596.8384 5273.6 512C5273.6 427.1616 5204.8384 358.4 5120 358.4zM5171.2 1024H5068.8V870.4H5171.2V1024zM4794.171392 910.221312L4721.76384 837.81376L4830.375424 729.202176L4902.782976 801.609728L4794.171392 910.221312zM4608 563.2V460.8H4761.6V563.2H4608zM4721.748992 186.14272L4794.156544 113.73568L4902.768128 222.34624L4830.360576 294.7532799999999L4721.748992 186.14272zM5068.8 0H5171.2V153.6H5068.8V0zM5445.888 113.7766400000001L5518.29504 186.1888L5409.68448 294.79936L5337.27744 222.3923200000001L5445.888 113.7766400000001zM5632 460.8V563.2H5478.4V460.8H5632zM5518.19264 837.857792L5445.7856 910.265856L5337.17504 801.654272L5409.58208 729.246208L5518.19264 837.857792z" />
    <glyph glyph-name="ico__lightmode-1"
      unicode="&#x69;&#x63;&#x6F;&#x5F;&#x5F;&#x6C;&#x69;&#x67;&#x68;&#x74;&#x6D;&#x6F;&#x64;&#x65;"
      horiz-adv-x="10240" d="M5120 768C4978.6368 768 4864 653.3632 4864 512C4864 370.6368 4978.6368 256 5120 256C5261.3632 256 5376 370.6368 5376 512C5376 653.3632 5261.3632 768 5120 768zM5120 358.4C5035.1616 358.4 4966.4 427.1616 4966.4 512C4966.4 596.8384 5035.1616 665.5999999999999 5120 665.5999999999999C5204.8384 665.5999999999999 5273.6 596.8384 5273.6 512C5273.6 427.1616 5204.8384 358.4 5120 358.4zM5171.2 1024H5068.8V870.4H5171.2V1024zM4794.171392 910.221312L4721.76384 837.81376L4830.375424 729.202176L4902.782976 801.609728L4794.171392 910.221312zM4608 563.2V460.8H4761.6V563.2H4608zM4721.748992 186.14272L4794.156544 113.73568L4902.768128 222.34624L4830.360576 294.7532799999999L4721.748992 186.14272zM5068.8 0H5171.2V153.6H5068.8V0zM5445.888 113.7766400000001L5518.29504 186.1888L5409.68448 294.79936L5337.27744 222.3923200000001L5445.888 113.7766400000001zM5632 460.8V563.2H5478.4V460.8H5632zM5518.19264 837.857792L5445.7856 910.265856L5337.17504 801.654272L5409.58208 729.246208L5518.19264 837.857792z" />
    <glyph glyph-name="ico__help"
      unicode="&#xE936;"
      horiz-adv-x="10240" d="M5120 0C5164.648016842105 0 5200.8421052631575 36.195705263158 5200.8421052631575 80.8421052631579C5200.8421052631575 125.4885052631579 5164.648016842105 161.6842105263158 5120 161.6842105263158C5075.351983157894 161.6842105263158 5039.157894736842 125.4885052631579 5039.157894736842 80.8421052631579C5039.157894736842 36.195705263158 5075.351983157894 0 5120 0zM5443.368421052632 700.6315789473684C5443.368421052632 879.2387368421053 5298.607157894737 1024 5120 1024C4941.392842105263 1024 4796.631578947368 879.2387368421053 4796.631578947368 700.6315789473684H4904.421052631579C4904.421052631579 819.685052631579 5000.946526315789 916.2105263157894 5120 916.2105263157894C5239.05347368421 916.2105263157894 5335.578947368421 819.685052631579 5335.578947368421 700.6315789473684C5335.578947368421 581.5781052631579 5239.05347368421 485.0526315789474 5120 485.0526315789474H5066.105263157895V269.4736842105264H5173.894736842105V381.8442105263158C5326.794105263158 407.4981052631579 5443.368421052632 540.4564210526316 5443.368421052632 700.6315789473684z" />
    <glyph glyph-name="ico__help-1"
      unicode="&#x69;&#x63;&#x6F;&#x5F;&#x5F;&#x68;&#x65;&#x6C;&#x70;"
      horiz-adv-x="10240" d="M5120 0C5164.648016842105 0 5200.8421052631575 36.195705263158 5200.8421052631575 80.8421052631579C5200.8421052631575 125.4885052631579 5164.648016842105 161.6842105263158 5120 161.6842105263158C5075.351983157894 161.6842105263158 5039.157894736842 125.4885052631579 5039.157894736842 80.8421052631579C5039.157894736842 36.195705263158 5075.351983157894 0 5120 0zM5443.368421052632 700.6315789473684C5443.368421052632 879.2387368421053 5298.607157894737 1024 5120 1024C4941.392842105263 1024 4796.631578947368 879.2387368421053 4796.631578947368 700.6315789473684H4904.421052631579C4904.421052631579 819.685052631579 5000.946526315789 916.2105263157894 5120 916.2105263157894C5239.05347368421 916.2105263157894 5335.578947368421 819.685052631579 5335.578947368421 700.6315789473684C5335.578947368421 581.5781052631579 5239.05347368421 485.0526315789474 5120 485.0526315789474H5066.105263157895V269.4736842105264H5173.894736842105V381.8442105263158C5326.794105263158 407.4981052631579 5443.368421052632 540.4564210526316 5443.368421052632 700.6315789473684z" />
    <glyph glyph-name="ico__lock"
      unicode="&#xE937;"
      horiz-adv-x="10240" d="M5120 398.2165333333333C5044.148337777778 399.3088 5044.148337777778 283.4147555555554 5120 284.4501333333334C5195.851662222221 283.3578666666666 5195.851662222221 399.2519111111111 5120 398.2165333333333zM5120 1024C5277.094115555556 1024 5404.444444444444 896.649671111111 5404.444444444444 739.5555555555555V625.7777777777778H5518.222222222222V0H4721.777777777777V625.7777777777778H4835.555555555555V745.2444444444444H4835.6164266666665C4838.646897777778 899.7125688888889 4964.806542222222 1023.9999935187058 5120 1024zM4835.555555555555 113.7777777777777H5404.444444444444V512H4835.555555555555V113.7777777777777zM5120 910.2222222222222C5025.743644444444 910.2222222222222 4949.333333333333 833.8119111111112 4949.333333333333 739.5555555555555V625.7777777777778H5290.666666666666V739.5555555555555C5290.666666666666 833.8119111111112 5214.256355555555 910.2222222222222 5120 910.2222222222222z" />
    <glyph glyph-name="ico__lock-1"
      unicode="&#x69;&#x63;&#x6F;&#x5F;&#x5F;&#x6C;&#x6F;&#x63;&#x6B;"
      horiz-adv-x="10240" d="M5120 398.2165333333333C5044.148337777778 399.3088 5044.148337777778 283.4147555555554 5120 284.4501333333334C5195.851662222221 283.3578666666666 5195.851662222221 399.2519111111111 5120 398.2165333333333zM5120 1024C5277.094115555556 1024 5404.444444444444 896.649671111111 5404.444444444444 739.5555555555555V625.7777777777778H5518.222222222222V0H4721.777777777777V625.7777777777778H4835.555555555555V745.2444444444444H4835.6164266666665C4838.646897777778 899.7125688888889 4964.806542222222 1023.9999935187058 5120 1024zM4835.555555555555 113.7777777777777H5404.444444444444V512H4835.555555555555V113.7777777777777zM5120 910.2222222222222C5025.743644444444 910.2222222222222 4949.333333333333 833.8119111111112 4949.333333333333 739.5555555555555V625.7777777777778H5290.666666666666V739.5555555555555C5290.666666666666 833.8119111111112 5214.256355555555 910.2222222222222 5120 910.2222222222222z" />
    <glyph glyph-name="ico__edit"
      unicode="&#xE938;"
      horiz-adv-x="10240" d="M5629.63104477612 104.2340298507463H5120.178308457712V2.3434825870646H5629.63104477612V104.2340298507463zM5558.001990049752 643.6425870646766L5630.038606965174 715.6792039800995L5323.704676616915 1022.0131343283582L4609.961393034826 308.2698507462688L4611.031243781094 307.2000000000001V2.3944278606966H4915.836815920398L4916.244378109453 1.9868656716418L5557.9510447761195 643.6935323383085L5558.001990049752 643.6425870646766zM4712.921791044776 267.1570149253733L5323.704676616915 877.9399004975124L5485.965373134329 715.6792039800995L4874.520199004975 104.2340298507463H4712.921791044776V267.1570149253733z" />
    <glyph glyph-name="ico__edit-1"
      unicode="&#x69;&#x63;&#x6F;&#x5F;&#x5F;&#x65;&#x64;&#x69;&#x74;"
      horiz-adv-x="10240" d="M5629.63104477612 104.2340298507463H5120.178308457712V2.3434825870646H5629.63104477612V104.2340298507463zM5558.001990049752 643.6425870646766L5630.038606965174 715.6792039800995L5323.704676616915 1022.0131343283582L4609.961393034826 308.2698507462688L4611.031243781094 307.2000000000001V2.3944278606966H4915.836815920398L4916.244378109453 1.9868656716418L5557.9510447761195 643.6935323383085L5558.001990049752 643.6425870646766zM4712.921791044776 267.1570149253733L5323.704676616915 877.9399004975124L5485.965373134329 715.6792039800995L4874.520199004975 104.2340298507463H4712.921791044776V267.1570149253733z" />
    <glyph glyph-name="ico__check"
      unicode="&#xE939;"
      horiz-adv-x="10240" d="M4896.737543664672 235.4165698682635L5539.930952047905 878.6095858203594L5626.645970011977 791.8937339401198L4983.453174802396 148.7015519041916L4896.737543664672 235.4165698682635zM4980.143876598803 145.3904141796407L4613.354029988024 512.1816956167665L4700.07006582036 598.8973267544911L5066.859507736528 232.1054321437126L4980.143876598803 145.3904141796407z" />
    <glyph glyph-name="ico__check-1"
      unicode="&#x69;&#x63;&#x6F;&#x5F;&#x5F;&#x63;&#x68;&#x65;&#x63;&#x6B;"
      horiz-adv-x="10240" d="M4896.737543664672 235.4165698682635L5539.930952047905 878.6095858203594L5626.645970011977 791.8937339401198L4983.453174802396 148.7015519041916L4896.737543664672 235.4165698682635zM4980.143876598803 145.3904141796407L4613.354029988024 512.1816956167665L4700.07006582036 598.8973267544911L5066.859507736528 232.1054321437126L4980.143876598803 145.3904141796407z" />
    <glyph glyph-name="ico__rs_instagram"
      unicode="&#xE93A;"
      horiz-adv-x="10240" d="M5120.028444444444 791.2681244444444C4965.8026666666665 791.2681244444444 4840.760888888889 666.2263466666666 4840.760888888889 512.0005688888889C4840.760888888889 357.7742222222222 4965.8026666666665 232.7324444444444 5120.028444444444 232.7324444444444C5274.254222222222 232.7324444444444 5399.296 357.7742222222222 5399.296 512.0005688888889C5399.296 666.2263466666666 5274.254222222222 791.2681244444444 5120.028444444444 791.2681244444444zM5120.028444444444 325.8026666666666C5017.230222222222 325.8026666666666 4933.831111111111 409.1448888888889 4933.831111111111 512.0005688888889C4933.831111111111 614.85568 5017.173333333333 698.1979022222222 5120.028444444444 698.1979022222222C5222.883555555555 698.1979022222222 5306.225777777778 614.85568 5306.225777777778 512.0005688888889C5306.225777777778 409.1448888888889 5222.883555555555 325.8026666666666 5120.028444444444 325.8026666666666zM5399.296 744.7324444444444C5424.9983999999995 744.7324444444444 5445.831111111111 765.5668622222222 5445.831111111111 791.2675555555555C5445.831111111111 816.9682488888889 5424.9983999999995 837.8026666666667 5399.296 837.8026666666667C5373.5936 837.8026666666667 5352.760888888889 816.9682488888889 5352.760888888889 791.2675555555555C5352.760888888889 765.5668622222222 5373.5936 744.7324444444444 5399.296 744.7324444444444zM5601.592888888888 871.5377777777778C5574.798222222222 924.1031111111112 5532.074666666666 966.8266666666668 5479.566222222222 993.5644444444443C5419.776 1024 5341.6106666666665 1024 5185.166222222222 1024H5054.833777777778C4898.446222222222 1024 4820.224 1024 4760.490666666667 993.5644444444443C4707.925333333333 966.7697777777778 4665.201777777777 924.0462222222222 4638.464 871.5377777777778C4608.028444444444 811.7475555555556 4608.028444444444 733.5822222222223 4608.028444444444 577.1377777777777V446.8053333333334C4608.028444444444 290.4177777777778 4608.028444444444 212.1955555555557 4638.464 152.4622222222223C4665.258666666667 99.8968888888888 4707.982222222222 57.1733333333334 4760.490666666667 30.4355555555555C4820.224 0 4898.446222222222 0 5054.833777777778 0H5185.166222222222C5341.553777777777 0 5419.776 0 5479.509333333333 30.4355555555555C5532.074666666666 57.2302222222222 5574.798222222222 99.9537777777778 5601.536 152.4622222222223C5631.971555555556 212.1955555555557 5631.971555555556 290.4177777777778 5631.971555555556 446.8053333333334V577.1377777777777C5631.971555555556 733.5253333333333 5631.971555555556 811.7475555555556 5601.536 871.4808888888889L5601.592888888888 871.5377777777778zM5538.958222222222 446.8622222222222L5538.958222222222 577.1946666666665C5538.958222222222 656.9528888888889 5538.901333333333 711.1111111111111 5535.487999999999 753.0382222222222C5532.188444444444 793.8275555555556 5526.101333333333 814.7057777777777 5518.705777777777 829.2693333333334C5500.842666666666 864.3128888888889 5472.398222222222 892.7573333333333 5437.354666666666 910.6204444444446C5422.791111111111 918.016 5401.912888888889 924.0462222222222 5361.123555555555 927.4026666666666C5319.196444444444 930.816 5265.0382222222215 930.8728888888888 5185.28 930.8728888888888L5054.9475555555555 930.8728888888888C4975.189333333333 930.8728888888888 4920.974222222222 930.816 4879.103999999999 927.4026666666666C4838.314666666666 924.1031111111112 4817.4364444444445 918.016 4802.872888888889 910.6204444444446C4767.829333333333 892.8142222222223 4739.384888888889 864.3128888888889 4721.521777777778 829.2693333333334C4714.126222222222 814.7057777777777 4708.096 793.8275555555556 4704.739555555555 753.0382222222222C4701.326222222222 711.1111111111111 4701.269333333333 656.9528888888889 4701.269333333333 577.1946666666665L4701.269333333333 446.8622222222222C4701.269333333333 367.104 4701.326222222222 312.9457777777779 4704.739555555555 271.0186666666666C4708.039111111111 230.2293333333334 4714.126222222222 209.3511111111111 4721.521777777778 194.7875555555556C4739.384888888889 159.744 4767.829333333333 131.2995555555556 4802.872888888889 113.4364444444444C4817.4364444444445 106.0408888888887 4838.314666666666 100.0106666666667 4879.103999999999 96.6542222222222C4920.974222222222 93.2408888888888 4975.189333333333 93.184 5054.9475555555555 93.184L5185.28 93.184C5265.0382222222215 93.184 5319.196444444444 93.2408888888888 5361.123555555555 96.6542222222222C5401.912888888889 99.9537777777778 5422.791111111111 106.0408888888887 5437.354666666666 113.4364444444444C5472.398222222222 131.2995555555556 5500.842666666666 159.744 5518.705777777777 194.7875555555556C5526.101333333333 209.3511111111111 5532.131555555556 230.2293333333334 5535.487999999999 271.0186666666666C5538.901333333333 312.9457777777779 5538.958222222222 367.104 5538.958222222222 446.8622222222222z" />
    <glyph glyph-name="ico__rs_instagram-1"
      unicode="&#x69;&#x63;&#x6F;&#x5F;&#x5F;&#x72;&#x73;&#x5F;&#x69;&#x6E;&#x73;&#x74;&#x61;&#x67;&#x72;&#x61;&#x6D;"
      horiz-adv-x="10240" d="M5120.028444444444 791.2681244444444C4965.8026666666665 791.2681244444444 4840.760888888889 666.2263466666666 4840.760888888889 512.0005688888889C4840.760888888889 357.7742222222222 4965.8026666666665 232.7324444444444 5120.028444444444 232.7324444444444C5274.254222222222 232.7324444444444 5399.296 357.7742222222222 5399.296 512.0005688888889C5399.296 666.2263466666666 5274.254222222222 791.2681244444444 5120.028444444444 791.2681244444444zM5120.028444444444 325.8026666666666C5017.230222222222 325.8026666666666 4933.831111111111 409.1448888888889 4933.831111111111 512.0005688888889C4933.831111111111 614.85568 5017.173333333333 698.1979022222222 5120.028444444444 698.1979022222222C5222.883555555555 698.1979022222222 5306.225777777778 614.85568 5306.225777777778 512.0005688888889C5306.225777777778 409.1448888888889 5222.883555555555 325.8026666666666 5120.028444444444 325.8026666666666zM5399.296 744.7324444444444C5424.9983999999995 744.7324444444444 5445.831111111111 765.5668622222222 5445.831111111111 791.2675555555555C5445.831111111111 816.9682488888889 5424.9983999999995 837.8026666666667 5399.296 837.8026666666667C5373.5936 837.8026666666667 5352.760888888889 816.9682488888889 5352.760888888889 791.2675555555555C5352.760888888889 765.5668622222222 5373.5936 744.7324444444444 5399.296 744.7324444444444zM5601.592888888888 871.5377777777778C5574.798222222222 924.1031111111112 5532.074666666666 966.8266666666668 5479.566222222222 993.5644444444443C5419.776 1024 5341.6106666666665 1024 5185.166222222222 1024H5054.833777777778C4898.446222222222 1024 4820.224 1024 4760.490666666667 993.5644444444443C4707.925333333333 966.7697777777778 4665.201777777777 924.0462222222222 4638.464 871.5377777777778C4608.028444444444 811.7475555555556 4608.028444444444 733.5822222222223 4608.028444444444 577.1377777777777V446.8053333333334C4608.028444444444 290.4177777777778 4608.028444444444 212.1955555555557 4638.464 152.4622222222223C4665.258666666667 99.8968888888888 4707.982222222222 57.1733333333334 4760.490666666667 30.4355555555555C4820.224 0 4898.446222222222 0 5054.833777777778 0H5185.166222222222C5341.553777777777 0 5419.776 0 5479.509333333333 30.4355555555555C5532.074666666666 57.2302222222222 5574.798222222222 99.9537777777778 5601.536 152.4622222222223C5631.971555555556 212.1955555555557 5631.971555555556 290.4177777777778 5631.971555555556 446.8053333333334V577.1377777777777C5631.971555555556 733.5253333333333 5631.971555555556 811.7475555555556 5601.536 871.4808888888889L5601.592888888888 871.5377777777778zM5538.958222222222 446.8622222222222L5538.958222222222 577.1946666666665C5538.958222222222 656.9528888888889 5538.901333333333 711.1111111111111 5535.487999999999 753.0382222222222C5532.188444444444 793.8275555555556 5526.101333333333 814.7057777777777 5518.705777777777 829.2693333333334C5500.842666666666 864.3128888888889 5472.398222222222 892.7573333333333 5437.354666666666 910.6204444444446C5422.791111111111 918.016 5401.912888888889 924.0462222222222 5361.123555555555 927.4026666666666C5319.196444444444 930.816 5265.0382222222215 930.8728888888888 5185.28 930.8728888888888L5054.9475555555555 930.8728888888888C4975.189333333333 930.8728888888888 4920.974222222222 930.816 4879.103999999999 927.4026666666666C4838.314666666666 924.1031111111112 4817.4364444444445 918.016 4802.872888888889 910.6204444444446C4767.829333333333 892.8142222222223 4739.384888888889 864.3128888888889 4721.521777777778 829.2693333333334C4714.126222222222 814.7057777777777 4708.096 793.8275555555556 4704.739555555555 753.0382222222222C4701.326222222222 711.1111111111111 4701.269333333333 656.9528888888889 4701.269333333333 577.1946666666665L4701.269333333333 446.8622222222222C4701.269333333333 367.104 4701.326222222222 312.9457777777779 4704.739555555555 271.0186666666666C4708.039111111111 230.2293333333334 4714.126222222222 209.3511111111111 4721.521777777778 194.7875555555556C4739.384888888889 159.744 4767.829333333333 131.2995555555556 4802.872888888889 113.4364444444444C4817.4364444444445 106.0408888888887 4838.314666666666 100.0106666666667 4879.103999999999 96.6542222222222C4920.974222222222 93.2408888888888 4975.189333333333 93.184 5054.9475555555555 93.184L5185.28 93.184C5265.0382222222215 93.184 5319.196444444444 93.2408888888888 5361.123555555555 96.6542222222222C5401.912888888889 99.9537777777778 5422.791111111111 106.0408888888887 5437.354666666666 113.4364444444444C5472.398222222222 131.2995555555556 5500.842666666666 159.744 5518.705777777777 194.7875555555556C5526.101333333333 209.3511111111111 5532.131555555556 230.2293333333334 5535.487999999999 271.0186666666666C5538.901333333333 312.9457777777779 5538.958222222222 367.104 5538.958222222222 446.8622222222222z" />
    <glyph glyph-name="ico__rs_facebook"
      unicode="&#xE93B;"
      horiz-adv-x="10240" d="M5628.88347826087 510.0919254658385C5628.88347826087 791.151304347826 5401.059378881988 1018.975403726708 5120 1018.975403726708C4838.940621118013 1018.975403726708 4611.116521739131 791.151304347826 4611.116521739131 510.0919254658385C4611.116521739131 271.4554037267081 4775.401739130435 71.1711801242235 4997.056397515528 16.2186335403727V354.5838509316771H4892.112298136646V510.0919254658385H4997.056397515528V577.1289440993788C4997.056397515528 750.3185093167701 5075.414658385093 830.6484472049689 5245.487701863354 830.6484472049689C5277.734161490684 830.6484472049689 5333.386335403727 824.351801242236 5356.092422360249 817.991552795031V677.0484472049689C5344.0715527950315 678.3204968944099 5323.209937888199 678.9565217391304 5297.323726708075 678.9565217391304C5213.877267080746 678.9565217391304 5181.630807453416 647.3460869565217 5181.630807453416 565.1716770186335V510.1555279503106H5347.824099378882L5319.266583850932 354.647453416149H5181.630807453416V5.024596273292C5433.623850931677 35.4265838509318 5628.88347826087 250.0213664596273 5628.88347826087 510.1555279503106" />
    <glyph glyph-name="ico__rs_facebook-1"
      unicode="&#x69;&#x63;&#x6F;&#x5F;&#x5F;&#x72;&#x73;&#x5F;&#x66;&#x61;&#x63;&#x65;&#x62;&#x6F;&#x6F;&#x6B;"
      horiz-adv-x="10240" d="M5628.88347826087 510.0919254658385C5628.88347826087 791.151304347826 5401.059378881988 1018.975403726708 5120 1018.975403726708C4838.940621118013 1018.975403726708 4611.116521739131 791.151304347826 4611.116521739131 510.0919254658385C4611.116521739131 271.4554037267081 4775.401739130435 71.1711801242235 4997.056397515528 16.2186335403727V354.5838509316771H4892.112298136646V510.0919254658385H4997.056397515528V577.1289440993788C4997.056397515528 750.3185093167701 5075.414658385093 830.6484472049689 5245.487701863354 830.6484472049689C5277.734161490684 830.6484472049689 5333.386335403727 824.351801242236 5356.092422360249 817.991552795031V677.0484472049689C5344.0715527950315 678.3204968944099 5323.209937888199 678.9565217391304 5297.323726708075 678.9565217391304C5213.877267080746 678.9565217391304 5181.630807453416 647.3460869565217 5181.630807453416 565.1716770186335V510.1555279503106H5347.824099378882L5319.266583850932 354.647453416149H5181.630807453416V5.024596273292C5433.623850931677 35.4265838509318 5628.88347826087 250.0213664596273 5628.88347826087 510.1555279503106" />
    </font>
</defs>
</svg>
