<svg width="160" height="42" viewBox="0 0 160 42" fill="none" xmlns="http://www.w3.org/2000/svg">
<path d="M17.0146 0C22.3224 0.000123338 24.502 2.25166 24.502 7.55957V24.0518L33.9102 5.66309C36.0427 1.49293 37.891 0.000103133 42.2744 0C46.6583 0 49.0283 2.44095 49.0283 7.39355V24.0518L59.0049 5.30762C61.2084 1.20842 60.3798 0 67.3701 0C74.3602 0.000181822 76.6108 4.05193 73.4355 9.40723L58.957 33.8623C55.6632 39.4546 53.5309 41.4687 47.6543 41.4688C41.7775 41.4688 37.9619 37.9383 37.9619 32.0615V22.085L31.6826 33.8623C28.8391 39.1703 25.0949 41.4687 20.4268 41.4688H20.4033C14.5741 41.4688 10.593 37.9622 10.5928 32.0146V10.9717H6.16113C2.18017 10.9717 8.94071e-05 8.95743 0 5.42676C0 1.89595 2.06161 9.00389e-07 6.16113 0H17.0146Z" fill="black"/>
<path fill-rule="nonzero" clip-rule="evenodd" d="M94.5977 0C106.375 0.000196334 115.427 8.81506 115.427 20.7578C115.356 32.6534 106.351 41.4686 94.5977 41.4688C82.8441 41.4688 73.7207 32.7009 73.7207 20.7578C73.7209 8.81493 82.7732 0 94.5977 0Z M94.5977 12.749C90.1665 12.749 87.1096 16.1372 87.1094 20.7578C87.1094 25.3787 90.1664 28.7207 94.5977 28.7207C99.0761 28.7205 102.085 25.3548 102.085 20.7578C102.085 16.161 99.0286 12.7492 94.5977 12.749Z" fill="black"/>
<path fill-rule="nonzero" clip-rule="evenodd" d="M139.171 0C150.948 0.000111268 160 8.88609 160 20.7578C160 32.6298 150.948 41.4686 139.171 41.4688C127.394 41.4688 118.341 32.7009 118.341 20.7578C118.341 8.81493 127.394 0 139.171 0Z M139.171 12.749C134.74 12.749 131.73 16.1609 131.729 20.7578C131.729 25.3787 134.669 28.7207 139.171 28.7207C143.673 28.7206 146.659 25.3786 146.659 20.7578C146.659 16.1373 143.602 12.7491 139.171 12.749Z" fill="black"/>
</svg>