<svg width="180" height="120" viewBox="0 0 180 120" fill="none" xmlns="http://www.w3.org/2000/svg">
<path fill-rule="nonzero" clip-rule="evenodd" d="M90 0C116.339 0 138.713 16.9715 146.785 40.5752C165.645 43.7979 180 60.2215 180 80C180 102.091 162.091 120 140 120H40C17.9086 120 0 102.091 0 80C0 60.2219 14.3547 43.7983 33.2139 40.5752C41.286 16.9713 63.6612 0 90 0Z M90 20C74.1748 20 60.4965 29.1901 54.0098 42.5244C69.1909 48.2022 80 62.8379 80 80H60C60 72.6362 56.0197 66.2028 50.0938 62.7314C47.1308 60.9958 43.6819 60 40 60C37.0976 60 34.3398 60.6187 31.8506 61.7305C31.7743 61.7645 31.6988 61.8 31.623 61.835C31.1383 62.0588 30.664 62.3009 30.2012 62.5615C24.1126 65.9901 20 72.5146 20 80C20 91.0457 28.9543 100 40 100H140C151.046 100 160 91.0457 160 80C160 68.9543 151.046 60 140 60C136.318 60 132.868 60.9956 129.905 62.7314C129.966 61.8288 130 60.9181 130 60C130 37.9086 112.091 20 90 20Z" fill="black"/>
</svg>