<svg width="200" height="200" viewBox="0 0 200 200" fill="none" xmlns="http://www.w3.org/2000/svg">
<path d="M100 0C155.23 0 200 44.77 200 100C200 155.23 155.23 200 100 200C44.77 200 0 155.23 0 100C0 44.77 44.77 0 100 0ZM100 180C144.18 180 180 144.18 180 100C180 55.82 144.18 20 100 20C55.82 20 20 55.82 20 100C20 144.18 55.82 180 100 180Z" fill="black"/>
<path d="M78.7868 135.355L64.6447 121.213L121.213 64.6447L135.355 78.7868L78.7868 135.355Z" fill="black"/>
<path d="M64.6447 78.7868L78.7868 64.6447L135.355 121.213L121.213 135.355L64.6447 78.7868Z" fill="black"/>
</svg>