<svg width="150" height="100" viewBox="0 0 150 100" fill="none" xmlns="http://www.w3.org/2000/svg">
<path fill-rule="nonzero" clip-rule="evenodd" d="M40 0C51.0457 9.65645e-07 60 8.95431 60 20V80H70V100C58.9543 100 50 91.0457 50 80C50 91.0457 41.0457 100 30 100H20C8.95431 100 0 91.0457 0 80V60C-2.82388e-09 48.9543 8.95431 40 20 40H40V20H20V30H0V20C-2.82388e-09 8.95431 8.95431 1.31719e-07 20 0H40Z M20 80L20 60 40 60 40 80 20 80Z" fill="black"/>
<path fill-rule="nonzero" clip-rule="evenodd" d="M140 80H150V100C138.954 100 130 91.0457 130 80C130 91.0457 121.046 100 110 100H100C88.9543 100 80 91.0457 80 80V60C80 48.9543 88.9543 40 100 40H120V20H100V30H80V20C80 8.95431 88.9543 1.31719e-07 100 0H120C131.046 9.65645e-07 140 8.95431 140 20V80Z M100 80L100 60 120 60 120 80 100 80Z" fill="black"/>
</svg>