<svg width="160" height="160" viewBox="0 0 160 160" fill="none" xmlns="http://www.w3.org/2000/svg">
<path d="M50.5 94.5C58.7843 94.5 65.5 101.216 65.5 109.5C65.5 117.784 58.7843 124.5 50.5 124.5C42.2157 124.5 35.5 117.784 35.5 109.5C35.5 101.216 42.2157 94.5 50.5 94.5Z" fill="black"/>
<path d="M110 94C118.284 94 125 100.716 125 109C125 117.284 118.284 124 110 124C101.716 124 95 117.284 95 109C95 100.716 101.716 94 110 94Z" fill="black"/>
<path d="M80 65C88.2843 65 95 71.7157 95 80C95 88.2843 88.2843 95 80 95C71.7157 95 65 88.2843 65 80C65 71.7157 71.7157 65 80 65Z" fill="black"/>
<path d="M50 35C58.2843 35 65 41.7157 65 50C65 58.2843 58.2843 65 50 65C41.7157 65 35 58.2843 35 50C35 41.7157 41.7157 35 50 35Z" fill="black"/>
<path d="M109.5 34.5C117.784 34.5 124.5 41.2157 124.5 49.5C124.5 57.7843 117.784 64.5 109.5 64.5C101.216 64.5 94.5 57.7843 94.5 49.5C94.5 41.2157 101.216 34.5 109.5 34.5Z" fill="black"/>
<path fill-rule="nonzero" clip-rule="evenodd" d="M140 0C151.046 0 160 8.95431 160 20V140C160 151.046 151.046 160 140 160H20C8.95431 160 0 151.046 0 140V20C0 8.95431 8.95431 0 20 0H140Z M20 140L20 20 140 20 140 140 20 140Z" fill="black"/>
</svg>