<svg width="201" height="200" viewBox="0 0 201 200" fill="none" xmlns="http://www.w3.org/2000/svg">
<path d="M167.559 46.5645C186.973 56.5 200.262 76.703 200.262 100.01C200.262 133.147 173.399 160.01 140.262 160.01H102.542L128.392 185.859L114.252 200L64.2617 150.01L114.262 100.01L128.401 114.149L102.542 140.01H140.262C162.353 140.01 180.262 122.101 180.262 100.01C180.262 82.1045 168.496 66.9493 152.275 61.8477L167.559 46.5645Z" fill="black"/>
<path d="M136.12 49.7188L86.1201 99.7188L72.2617 85.8594L98.1221 60H80.2617V60.0098H60.2617C38.1703 60.0098 20.2617 77.9184 20.2617 100.01C20.2617 117.753 31.8151 132.795 47.8086 138.03L32.583 153.256C13.3771 143.252 0.261717 123.163 0.261719 100.01C0.261727 66.8727 27.1246 40.0098 60.2617 40.0098H66.2617V40H98.1221L72.2715 14.1494L86.4121 0.00976562L136.12 49.7188Z" fill="black"/>
</svg>