<svg width="200" height="139" viewBox="0 0 200 139" fill="none" xmlns="http://www.w3.org/2000/svg">
<path fill-rule="nonzero" clip-rule="evenodd" d="M126.689 50.4707C132.19 43.6894 140.588 39.3545 150 39.3545C163.062 39.3545 174.172 47.7029 178.291 59.3545H200V79.3545H178.291C174.172 91.0061 163.062 99.3545 150 99.3545C140.588 99.3545 132.19 95.0189 126.689 88.2373L40 138.709V99.3545H0V79.3545H40V59.3545H0V39.3545H40V0L126.689 50.4707Z M60 103.923L60 34.7861 119.376 69.3545 60 103.923Z M150 59.3545C155.523 59.3545 160 63.8316 160 69.3545 160 74.8773 155.523 79.3545 150 79.3545 144.477 79.3545 140 74.8773 140 69.3545 140 63.8316 144.477 59.3545 150 59.3545Z" fill="black"/>
</svg>