<svg width="204" height="200" viewBox="0 0 204 200" fill="none" xmlns="http://www.w3.org/2000/svg">
<path fill-rule="nonzero" clip-rule="evenodd" d="M131.61 36.7695C135.02 38.3895 138.27 40.2802 141.35 42.4102L173.21 24.0195L203.21 75.9805L171.36 94.3701C171.51 96.2301 171.6 98.1 171.6 100C171.6 101.9 171.51 103.77 171.36 105.63L203.21 124.02H203.2L173.2 175.98L141.34 157.59C138.27 159.72 135.01 161.61 131.6 163.23V200H71.5996V163.23C68.1897 161.611 64.9403 159.72 61.8604 157.59L30 175.98L0 124.02L31.8496 105.63C31.6996 103.77 31.6104 101.9 31.6104 100C31.6104 98.1 31.6996 96.2301 31.8496 94.3701L0 75.9805L30.0098 24.0195L61.8701 42.4102C64.9501 40.2802 68.2003 38.3895 71.6104 36.7695V0H131.61V36.7695Z M102 70C118.569 70 132 83.4315 132 100 132 116.569 118.569 130 102 130 85.4315 130 72 116.569 72 100 72 83.4315 85.4315 70 102 70Z" fill="black"/>
</svg>