<svg width="130" height="130" viewBox="0 0 130 130" fill="none" xmlns="http://www.w3.org/2000/svg">
<path fill-rule="nonzero" clip-rule="evenodd" d="M130 60H110V34L91.6553 52.3428C96.9262 60.2645 100 69.7735 100 80C100 107.61 77.61 130 50 130C22.39 130 0 107.61 0 80C0 52.39 22.39 30 50 30C60.2257 30 69.7339 33.0736 77.6553 38.3438L96 20H70V0H130V60Z M50 50C54.6691 50 59.089 51.0672 63.0293 52.9697 63.5544 53.2233 64.0706 53.4926 64.5781 53.7754 65.2314 54.1393 65.8691 54.5274 66.4912 54.9375 67.0834 55.3279 67.6608 55.7387 68.2227 56.1689 68.8102 56.6189 69.3805 57.0898 69.9326 57.5811 70.811 58.3626 71.6435 59.1946 72.4248 60.0732 72.7434 60.4315 73.0531 60.7976 73.3545 61.1709 73.97 61.9334 74.5492 62.7265 75.0889 63.5479 75.4704 64.1286 75.8324 64.7232 76.1738 65.3311 76.475 65.8674 76.7607 66.4127 77.0293 66.9688 78.9325 70.9096 80 75.3299 80 80 80 96.57 66.57 110 50 110 33.43 110 20 96.57 20 80 20 63.43 33.43 50 50 50Z" fill="black"/>
</svg>