<svg width="140" height="180" viewBox="0 0 140 180" fill="none" xmlns="http://www.w3.org/2000/svg">
<path d="M30 100H110V120H30V100Z" fill="black"/>
<path d="M10 120H130V160H10V120Z" fill="white"/>
<path d="M90 160C90 171.046 81.0457 180 70 180C58.9543 180 50 171.046 50 160H90Z" fill="black"/>
<path d="M110 150H30V130H110V150Z" fill="black"/>
<path d="M70 0C108.66 0 140 31.3401 140 70C140 89.587 131.955 107.295 118.989 120H21.0107C8.04507 107.295 0 89.587 0 70C0 31.3401 31.3401 0 70 0Z" fill="black"/>
</svg>