<svg width="201" height="201" viewBox="0 0 201 201" fill="none" xmlns="http://www.w3.org/2000/svg">
<path fill-rule="nonzero" clip-rule="evenodd" d="M100.5 0C156.005 0 201 44.9954 201 100.5C201 156.005 156.005 201 100.5 201C44.9954 201 0 156.005 0 100.5C0 44.9954 44.9954 0 100.5 0Z M58.8613 58.2871C47.8343 69.1668 41 84.2854 41 101C41 134.137 67.8629 161 101 161C134.137 161 161 134.137 161 101C161 84.5022 154.342 69.5596 143.565 58.7129L129.422 72.8564C136.579 80.0837 141 90.0251 141 101C141 123.091 123.091 141 101 141C78.9086 141 61 123.091 61 101C61 89.8083 65.5979 79.6916 73.0059 72.4316L58.8613 58.2871Z M91 41V101H111V41H91Z" fill="black"/>
</svg>