<svg width="225" height="194" viewBox="0 0 225 194" fill="none" xmlns="http://www.w3.org/2000/svg">
<path d="M150 136.562C125.485 136.562 103.075 122.712 92.1115 100.785L87.8885 92.3392C76.9253 70.4126 54.5146 56.5621 30 56.5621M70 156.562L130 36.5621M210 136.562L170.006 96.568L155.864 110.71L195.858 150.704L210 136.562ZM210 136.562L195.858 122.42L153.431 164.846L167.574 178.989L210 136.562ZM150 56.5621C125.485 56.5621 103.075 70.4127 92.1115 92.3392L87.8885 100.785C76.9253 122.712 54.5146 136.562 30 136.562M10 46.5621H30V66.5621H10V46.5621ZM150 46.5621H191V66.5621H150V46.5621ZM150 126.562H191V146.562H150V126.562ZM153.431 28.2842L167.574 14.1421L210 56.5685L195.858 70.7106L153.431 28.2842ZM169.999 96.5621L155.857 82.42L195.196 43.0809L209.338 57.223L169.999 96.5621ZM10 126.562H30V146.562H10V126.562Z" stroke="black" stroke-width="20"/>
</svg>