<svg width="200" height="160" viewBox="0 0 200 160" fill="none" xmlns="http://www.w3.org/2000/svg">
<path d="M15 130C23.2843 130 30 136.716 30 145C30 153.284 23.2843 160 15 160C6.71573 160 0 153.284 0 145C0 136.716 6.71573 130 15 130Z" fill="black"/>
<path d="M0 80C44.1828 80 80 115.817 80 160H60C60 126.863 33.1371 100 0 100V80Z" fill="black"/>
<path d="M0 40C66.2742 40 120 93.7258 120 160H100C100 104.772 55.2285 60 0 60V40Z" fill="black"/>
<path d="M200 160H140V140H181V20H0V0H200V160Z" fill="black"/>
</svg>