<svg width="160" height="141" viewBox="0 0 160 141" fill="none" xmlns="http://www.w3.org/2000/svg">
<path d="M125.314 9.46527C106.971 23.2615 87.2571 51.196 80 66.1895C72.7429 51.196 53.0286 23.2615 34.6857 9.46527C21.4286 -0.454345 0 -8.1506 0 16.3634C0 21.2662 2.8 57.4671 4.45714 63.339C10.1714 83.7483 30.9714 88.9932 49.4857 85.8007C17.1429 91.3306 8.91429 109.574 26.6857 127.817C60.4571 162.478 75.2 119.094 78.9714 107.977C79.6571 105.925 80 104.956 80 105.811C80 104.956 80.3429 105.925 81.0286 107.977C84.8 119.094 99.6 162.478 133.314 127.817C151.086 109.574 142.857 91.2736 110.514 85.8007C129.029 88.9362 149.829 83.7483 155.543 63.339C157.2 57.4671 160 21.2662 160 16.3634C160 -8.1506 138.571 -0.454345 125.314 9.52228V9.46527Z" fill="black"/>
</svg>