<svg width="120" height="200" viewBox="0 0 120 200" fill="none" xmlns="http://www.w3.org/2000/svg">
<path fill-rule="nonzero" clip-rule="evenodd" d="M20 0C20 22.0914 37.9086 40 60 40C82.0914 40 100 22.0914 100 0H120C120 21.6131 108.571 40.5559 91.4287 51.1182C102.755 60.2854 110 74.2969 110 90C110 114.185 92.8197 134.365 70 138.999V150H100V170H70V200H50V170H20V150H50V138.999C27.1803 134.365 10 114.185 10 90C10 74.2972 17.2444 60.2854 28.5703 51.1182C11.4279 40.5558 0 21.6128 0 0H20Z M60 60C76.57 60 90 73.43 90 90 90 106.57 76.57 120 60 120 43.43 120 30 106.57 30 90 30 73.43 43.43 60 60 60Z" fill="black"/>
</svg>