<svg width="188" height="180" viewBox="0 0 188 180" fill="none" xmlns="http://www.w3.org/2000/svg">
<path fill-rule="nonzero" clip-rule="evenodd" d="M79.7499 9.72657C84.6262 -3.45149 103.64 -3.23871 108.06 10.3643L123.287 57.2266H172.561C187.092 57.2271 193.133 75.8214 181.378 84.3623L141.514 113.324L156.741 160.187C161.231 174.006 145.414 185.498 133.658 176.957L93.7948 147.994L53.9315 176.957C42.1759 185.498 26.3586 174.006 30.8485 160.187L46.0751 113.324L6.2118 84.3623C-5.54352 75.8213 0.497814 57.227 15.0282 57.2266H64.3026L79.5292 10.3643L79.7499 9.72657Z M93.7948 123.411L93.7948 30.8193 108.837 77.1152 157.516 77.1152 118.134 105.728 133.177 152.023 93.7948 123.411Z" fill="black"/>
</svg>