<svg width="180" height="160" viewBox="0 0 180 160" fill="none" xmlns="http://www.w3.org/2000/svg">
<path fill-rule="nonzero" clip-rule="evenodd" d="M130 0C157.614 0 180 22.3858 180 50V110C180 137.614 157.614 160 130 160C113.643 160 99.1222 152.145 90 140.002C80.8778 152.145 66.3568 160 50 160C22.3858 160 0 137.614 0 110V50C0 22.3858 22.3858 0 50 0C66.3565 0 80.8778 7.85467 90 19.9971C99.1222 7.85467 113.643 0 130 0Z M50 20C66.5685 20 80 33.4315 80 50L80 61.709C76.872 60.6033 73.5066 60 70 60 53.4315 60 40 73.4315 40 90 40 106.569 53.4315 120 70 120 73.0305 120 75.9553 119.549 78.7129 118.713 74.9796 131.032 63.5381 140 50 140 33.4315 140 20 126.569 20 110L20 50C20 33.4315 33.4315 20 50 20Z M130 20C146.569 20 160 33.4315 160 50L160 61.709C156.872 60.6033 153.507 60 150 60 133.431 60 120 73.4315 120 90 120 106.569 133.431 120 150 120 153.03 120 155.955 119.549 158.713 118.713 154.98 131.032 143.538 140 130 140 113.431 140 100 126.569 100 110L100 50C100 33.4315 113.431 20 130 20Z M70 80C75.5228 80 80 84.4772 80 90 80 95.5228 75.5228 100 70 100 64.4772 100 60 95.5228 60 90 60 84.4772 64.4772 80 70 80Z M150 80C155.523 80 160 84.4772 160 90 160 95.5228 155.523 100 150 100 144.477 100 140 95.5228 140 90 140 84.4772 144.477 80 150 80Z" fill="black"/>
</svg>