<svg width="200" height="200" viewBox="0 0 200 200" fill="none" xmlns="http://www.w3.org/2000/svg">
<path d="M100 140H80V80H100V140Z" fill="black"/>
<path d="M160 140H120V120H160V140Z" fill="black"/>
<path d="M160 100H120V80H160V100Z" fill="black"/>
<path d="M160 60H80V40H160V60Z" fill="black"/>
<path fill-rule="nonzero" clip-rule="evenodd" d="M200 170C200 186.569 186.569 200 170 200H30C14.1036 200 1.09762 187.636 0.0683594 172H0V90H40V0H200V170Z M20 172L20 110 40 110 40 172 39.7998 172C38.8733 176.564 34.8379 180 30 180 25.1621 180 21.1267 176.564 20.2002 172L20 172Z M60 172L60 20 180 20 180 170C180 175.523 175.523 180 170 180L58.291 180C59.1847 177.472 59.7481 174.788 59.9316 172L60 172Z" fill="black"/>
</svg>