<svg width="160" height="160" viewBox="0 0 160 160" fill="none" xmlns="http://www.w3.org/2000/svg">
<path d="M50 95.5C58.2843 95.5 65 88.7843 65 80.5C65 72.2157 58.2843 65.5 50 65.5C41.7157 65.5 35 72.2157 35 80.5C35 88.7843 41.7157 95.5 50 95.5Z" fill="black"/>
<path d="M124.5 80C124.5 71.7157 117.784 65 109.5 65C101.216 65 94.5 71.7157 94.5 80C94.5 88.2843 101.216 95 109.5 95C117.784 95 124.5 88.2843 124.5 80Z" fill="black"/>
<path d="M50 60.5C58.2843 60.5 65 53.7843 65 45.5C65 37.2157 58.2843 30.5 50 30.5C41.7157 30.5 35 37.2157 35 45.5C35 53.7843 41.7157 60.5 50 60.5Z" fill="black"/>
<path d="M50 130.5C58.2843 130.5 65 123.784 65 115.5C65 107.216 58.2843 100.5 50 100.5C41.7157 100.5 35 107.216 35 115.5C35 123.784 41.7157 130.5 50 130.5Z" fill="black"/>
<path d="M124.5 45C124.5 36.7157 117.784 30 109.5 30C101.216 30 94.5 36.7157 94.5 45C94.5 53.2843 101.216 60 109.5 60C117.784 60 124.5 53.2843 124.5 45Z" fill="black"/>
<path d="M124.5 115C124.5 106.716 117.784 100 109.5 100C101.216 100 94.5 106.716 94.5 115C94.5 123.284 101.216 130 109.5 130C117.784 130 124.5 123.284 124.5 115Z" fill="black"/>
<path fill-rule="nonzero" clip-rule="evenodd" d="M140 0C151.046 0 160 8.95431 160 20V140C160 151.046 151.046 160 140 160H20C8.95431 160 0 151.046 0 140V20C0 8.95431 8.95431 0 20 0H140Z M20 20L140 20 140 140 20 140 20 20Z" fill="black"/>
</svg>