<svg width="160" height="200" viewBox="0 0 160 200" fill="none" xmlns="http://www.w3.org/2000/svg">
<path fill-rule="nonzero" clip-rule="evenodd" d="M80 0C102.091 0 120 17.9086 120 40H160V200H0V40H40C40 17.9086 57.9086 0 80 0Z M20 60V180H140V60H20Z M80 20C68.9543 20 60 28.9543 60 40H100C100 28.9543 91.0457 20 80 20Z" fill="black"/>
<path d="M120 80C120 102.091 102.091 120 80 120C57.9086 120 40 102.091 40 80H60C60 91.0457 68.9543 100 80 100C91.0457 100 100 91.0457 100 80H120Z" fill="black"/>
</svg>