<svg width="200" height="200" viewBox="0 0 200 200" fill="none" xmlns="http://www.w3.org/2000/svg">
<path d="M125 120C133.284 120 140 126.716 140 135C140 143.284 133.284 150 125 150C116.716 150 110 143.284 110 135C110 126.716 116.716 120 125 120Z" fill="black"/>
<path d="M147.253 66.8906L66.8916 147.251L52.75 133.109L133.11 52.749L147.253 66.8906Z" fill="black"/>
<path d="M75 50C83.2843 50 90 56.7157 90 65C90 73.2843 83.2843 80 75 80C66.7157 80 60 73.2843 60 65C60 56.7157 66.7157 50 75 50Z" fill="black"/>
<path fill-rule="nonzero" clip-rule="evenodd" d="M100 0C155.228 2.41411e-06 200 44.7715 200 100C200 155.228 155.228 200 100 200C44.7715 200 2.31122e-06 155.228 0 100C2.41411e-06 44.7715 44.7715 -2.41411e-06 100 0Z M100 20C55.8172 20 20 55.8172 20 100C20 144.183 55.8172 180 100 180C144.183 180 180 144.183 180 100C180 55.8172 144.183 20 100 20Z" fill="black"/>
</svg>