<svg width="200" height="152" viewBox="0 0 200 152" fill="none" xmlns="http://www.w3.org/2000/svg">
<path fill-rule="nonzero" clip-rule="evenodd" d="M155.45 115.42V115.41L174.1 134.06L157.03 151.13L133.14 127.24C122.77 131.44 111.62 134.1 100 134.1C44.77 134.1 0 74.0996 0 74.0996C0.063277 74.0149 16.2188 52.4164 41.0498 35.1504L22.9697 17.0703L40.04 0L155.45 115.42Z M55.4697 49.5596L71.3096 65.4004C70.4597 68.1702 70.0098 71.1103 70.0098 74.1602 70.0098 90.73 83.4399 104.16 100.01 104.16 103.06 104.16 106 103.7 108.77 102.86L117.43 111.52C111.78 113.13 105.94 114.1 100.01 114.1L100 114.1C77.69 114.1 56.5397 100.59 42.7197 89.25 36.2798 83.97 30.7702 78.6296 26.4502 74.0996 30.7701 69.5697 36.28 64.23 42.7197 58.9502 46.4697 55.8802 50.7597 52.6396 55.4697 49.5596Z" fill="black"/>
<path d="M99.9902 14.1104C155.22 14.1104 199.99 74.1104 199.99 74.1104C199.941 74.1765 189.12 88.6539 171.58 103.37L157.38 89.1699C163.77 83.9201 169.25 78.6103 173.55 74.1104C169.23 69.5804 163.72 64.2399 157.28 58.96V58.9697C143.95 48.0297 123.8 35.0799 102.38 34.1699L83.9707 15.7598C89.1805 14.6998 94.5404 14.1104 99.9902 14.1104Z" fill="black"/>
</svg>