<svg width="160" height="159" viewBox="0 0 160 159" fill="none" xmlns="http://www.w3.org/2000/svg">
<path d="M22.751 98.7344C22.751 119.528 39.5955 136.371 60.3887 136.371H99.6123C120.405 136.371 137.249 119.527 137.249 98.7344V85.2998H160V100.726C160 132.894 133.907 158.987 101.738 158.987H58.2617C26.0929 158.987 0 132.894 0 100.726V85.2998H22.751V98.7344Z" fill="black"/>
<path d="M102.616 34.2949C115.814 36.4891 125.873 47.9325 125.806 61.7383V97.249C125.806 112.608 113.35 125.063 97.9912 125.063H96.0332C92.2865 125.063 88.6745 124.287 85.4004 122.937C83.4765 122.126 81.6535 121.114 79.9658 119.933C78.2781 121.114 76.4552 122.126 74.5312 122.937C71.257 124.32 67.679 125.063 63.8984 125.063H61.9404C46.582 125.063 34.126 112.608 34.126 97.249V61.7383C34.126 47.9324 44.1855 36.489 57.3838 34.2949V97.2832C57.384 100.287 59.8143 102.718 62.8184 102.718C65.8224 102.718 68.2527 100.287 68.2529 97.2832V74.0928H91.7471V97.2832C91.7473 100.287 94.1776 102.718 97.1816 102.718C100.186 102.718 102.616 100.287 102.616 97.2832V34.2949Z" fill="black"/>
<path d="M101.738 0C133.907 0 160 26.0929 160 58.2617V74.0928H137.249V60.2529C137.249 39.46 120.405 22.6165 99.6123 22.6162H60.3887C39.5955 22.6162 22.7511 39.4598 22.751 60.2529V74.0928H0V58.2617C0 26.0929 26.0929 0 58.2617 0H101.738Z" fill="black"/>
</svg>