<svg width="159" height="159" viewBox="0 0 159 159" fill="none" xmlns="http://www.w3.org/2000/svg">
<path d="M82.6539 0.0639243C38.7793 -1.68001 1.80058 32.472 0.0639118 76.3464C-1.68003 120.221 32.4794 157.192 76.3466 158.936C120.221 160.68 157.193 126.528 158.937 82.6536C160.673 38.7792 126.521 1.80059 82.6539 0.0639243ZM116.21 116.522C115.222 118.266 113.296 119.138 111.422 118.877C110.848 118.797 110.273 118.608 109.736 118.302C99.2286 112.322 87.7767 108.427 75.6999 106.727C63.6232 105.027 51.5391 105.615 39.7894 108.471C37.2388 109.089 34.6738 107.526 34.0562 104.976C33.4385 102.425 35.0008 99.8604 37.5513 99.2428C50.471 96.1037 63.754 95.457 77.0224 97.3244C90.2909 99.1919 102.876 103.472 114.437 110.048C116.712 111.349 117.511 114.241 116.217 116.522H116.21ZM126.659 95.6532C125.039 98.6469 121.289 99.7659 118.296 98.1455C106.001 91.4968 92.6888 87.1297 78.73 85.1678C64.7713 83.2058 50.7762 83.7363 37.1226 86.7373C36.3814 86.8972 35.6475 86.9262 34.9354 86.8245C32.4575 86.4757 30.3358 84.6301 29.769 82.036C29.0351 78.708 31.1423 75.4163 34.4703 74.6824C49.5627 71.3617 65.0329 70.7731 80.4522 72.9385C95.8642 75.1038 110.579 79.9287 124.167 87.2823C127.168 88.9027 128.28 92.6449 126.659 95.6459V95.6532ZM138.242 72.1319C136.716 75.0675 133.541 76.5862 130.445 76.1502C129.609 76.0339 128.788 75.7723 127.996 75.3654C113.681 67.9174 98.2621 62.998 82.167 60.7382C66.0719 58.4784 49.8897 58.9579 34.078 62.1697C29.9652 63.0053 25.9614 60.3458 25.1257 56.2403C24.2901 52.1275 26.9496 48.1238 31.0551 47.2881C48.5672 43.7349 66.4716 43.2044 84.2816 45.7041C102.092 48.2037 119.153 53.6535 135.008 61.9008C138.729 63.8337 140.175 68.4188 138.242 72.1392V72.1319Z" fill="black"/>
</svg>