<svg width="160" height="141" viewBox="0 0 160 141" fill="none" xmlns="http://www.w3.org/2000/svg">
<path d="M5.1854 0.00045278C4.441 -0.009391 3.70327 0.141379 3.02272 0.442435C2.34218 0.743492 1.73492 1.18772 1.24252 1.74469C0.755577 2.29558 0.397382 2.94748 0.193808 3.65329C-0.00976604 4.3591 -0.0536356 5.1012 0.0653679 5.82599L21.8255 135.299C22.3855 138.571 25.2541 140.976 28.637 140.999H133.038C134.257 141.023 135.444 140.61 136.385 139.837C137.327 139.063 137.959 137.979 138.169 136.781L159.929 5.86019C160.053 5.13794 160.014 4.39733 159.817 3.69164C159.619 2.98596 159.267 2.33272 158.786 1.7789C158.301 1.22008 157.7 0.772014 157.026 0.465146C156.352 0.158278 155.619 -0.000207458 154.878 0.00045278H5.1854ZM96.8202 93.5739H63.5057L54.4771 47.4028H104.9L96.8202 93.5739Z" fill="black"/>
</svg>