<svg width="240" height="240" viewBox="0 0 240 240" fill="none" xmlns="http://www.w3.org/2000/svg">
<path d="M176.832 62.9944C191.746 77.6057 201 97.9723 201 120.5C201 164.959 164.959 201 120.5 201C76.0412 201 40.0001 164.959 40 120.5C40 98.0866 49.1604 77.8123 63.9414 63.217L78.084 77.3596C66.9221 88.3352 60 103.609 60 120.5C60.0001 153.913 87.0868 181 120.5 181C153.913 181 181 153.913 181 120.5C181 103.495 173.983 88.1291 162.688 77.1379L176.832 62.9944Z" fill="black"/>
<rect width="20" height="80" transform="matrix(-1 0 0 1 130 40)" fill="black"/>
</svg>
