<svg width="200" height="200" viewBox="0 0 200 200" fill="none" xmlns="http://www.w3.org/2000/svg">
<path d="M40 150C45.5228 150 50 154.477 50 160C50 165.523 45.5228 170 40 170C34.4772 170 30 165.523 30 160C30 154.477 34.4772 150 40 150Z" fill="black"/>
<path d="M160 150C165.523 150 170 154.477 170 160C170 165.523 165.523 170 160 170H110C104.477 170 100 165.523 100 160C100 154.477 104.477 150 110 150H160Z" fill="black"/>
<path fill-rule="nonzero" clip-rule="evenodd" d="M180 110.017C190.873 110.017 199.719 118.693 199.993 129.5L200 130.017V180C200 191.046 191.046 200 180 200H20C8.95439 200 -1.44845e-06 191.046 0 180V130.017C0 118.971 8.95431 110.017 20 110.017H180Z M20 180L20 130.017 180 130.017 180 180 20 180Z" fill="black"/>
<path d="M160 40C165.523 40 170 44.4772 170 50C170 55.5228 165.523 60 160 60H110C104.477 60 100 55.5228 100 50C100 44.4772 104.477 40 110 40H160Z" fill="black"/>
<path d="M40 39.9834C45.5228 39.9834 50 44.4606 50 49.9834C50 55.5062 45.5228 59.9834 40 59.9834C34.4772 59.9833 30 55.5062 30 49.9834C30 44.4606 34.4772 39.9835 40 39.9834Z" fill="black"/>
<path fill-rule="nonzero" clip-rule="evenodd" d="M180 0C190.873 4.75273e-07 199.719 8.67646 199.993 19.4834L200 20V69.9834C200 81.0291 191.046 89.9834 180 89.9834H20C8.95439 89.9833 -1.44845e-06 81.029 0 69.9834V20C0 8.95431 8.95431 0 20 0H180Z M20 69.9834L20 20 180 20 180 69.9834 20 69.9834Z" fill="black"/>
</svg>