<svg width="204" height="200" viewBox="0 0 204 200" fill="none" xmlns="http://www.w3.org/2000/svg">
<path d="M101.6 70C85.03 70 71.6 83.43 71.6 100C71.6 116.57 85.03 130 101.6 130C118.17 130 131.6 116.57 131.6 100C131.6 83.43 118.17 70 101.6 70ZM101.6 110C96.08 110 91.6 105.52 91.6 100C91.6 94.48 96.08 90 101.6 90C107.12 90 111.6 94.48 111.6 100C111.6 105.52 107.12 110 101.6 110Z" fill="black"/>
<path d="M203.21 124.02L171.36 105.63C171.51 103.77 171.6 101.9 171.6 100C171.6 98.1 171.51 96.23 171.36 94.37L203.21 75.98L173.21 24.02L141.35 42.41C138.27 40.28 135.02 38.39 131.61 36.77V0H71.61V36.77C68.2 38.39 64.95 40.28 61.87 42.41L30.01 24.02L0 75.98L31.85 94.37C31.7 96.23 31.61 98.1 31.61 100C31.61 101.9 31.7 103.77 31.85 105.63L0 124.02L30 175.98L61.86 157.59C64.94 159.72 68.19 161.61 71.6 163.23V200H131.6V163.23C135.01 161.61 138.27 159.72 141.34 157.59L173.2 175.98L203.2 124.02H203.21ZM165.88 148.66L139.01 133.15C131.96 141.11 122.41 146.8 111.59 149V180H91.59V149C80.77 146.8 71.23 141.11 64.17 133.15L37.3 148.66L27.3 131.34L53.28 116.34L54.16 115.83C52.5 110.85 51.59 105.53 51.59 100C51.59 94.47 52.5 89.14 54.16 84.17L27.31 68.66L37.31 51.34L63.29 66.34L64.17 66.85C71.22 58.89 80.77 53.2 91.59 51V20H111.59V51C122.41 53.2 131.95 58.89 139.01 66.85L165.87 51.34L175.87 68.66L149.01 84.17C150.67 89.15 151.58 94.47 151.58 100C151.58 105.53 150.67 110.86 149.01 115.83L149.89 116.34L175.87 131.34L165.87 148.66H165.88Z" fill="black"/>
</svg>