<svg width="180" height="160" viewBox="0 0 180 160" fill="none" xmlns="http://www.w3.org/2000/svg">
<path d="M140 60V8.74228e-07L160 0V60H180V80H120V60H140Z" fill="black"/>
<path d="M160 100V160H140V100H160Z" fill="black"/>
<path d="M120 100V120H100L100 160H80L80 120L60 120V100L120 100Z" fill="black"/>
<path d="M80 3.49691e-06L100 2.62268e-06V80H80V3.49691e-06Z" fill="black"/>
<path d="M20 40L20 6.11959e-06L40 5.24537e-06V40H60V60L8.74228e-07 60L0 40H20Z" fill="black"/>
<path d="M40 80L40 160H20L20 80H40Z" fill="black"/>
</svg>