<svg width="160" height="160" viewBox="0 0 160 160" fill="none" xmlns="http://www.w3.org/2000/svg">
<path fill-rule="nonzero" clip-rule="evenodd" d="M109.954 4.80259e-08C111.865 4.80443e-08 113.776 -9.96096e-05 115.688 0.00878911C117.296 0.0176777 118.905 0.0356431 120.514 0.0800782C124.02 0.173414 127.559 0.38265 131.025 1.00488C134.541 1.64046 137.817 2.67114 141.013 4.29785C144.155 5.89786 147.03 7.98715 149.523 10.4805C152.017 12.9739 154.106 15.845 155.706 18.9873C157.333 22.1874 158.369 25.4633 159 28.9834C159.622 32.45 159.83 35.9836 159.924 39.4902C159.968 41.099 159.986 42.7077 159.995 44.3164C160.004 46.2274 160.004 48.1388 160.004 50.0498H160V112.816C159.999 113.772 159.998 114.727 159.991 115.683C159.982 117.292 159.964 118.901 159.92 120.51C159.827 124.012 159.617 127.55 158.995 131.017C158.364 134.537 157.329 137.813 155.702 141.013C154.102 144.155 152.013 147.026 149.52 149.52C147.026 152.013 144.15 154.102 141.008 155.702C137.812 157.329 134.541 158.364 131.021 158.995C127.555 159.617 124.016 159.827 120.51 159.92C118.901 159.964 117.292 159.982 115.683 159.991C113.772 160 111.86 160 109.949 160H47.1836C46.2279 159.999 45.2721 159.998 44.3164 159.991C42.7075 159.982 41.0981 159.964 39.4893 159.92C35.9827 159.827 32.4451 159.617 28.9785 158.995C25.4629 158.36 22.1869 157.329 18.9912 155.702C15.849 154.102 12.9738 152.013 10.4805 149.52C7.9871 147.026 5.89789 144.155 4.29785 141.013C2.67114 137.813 1.63503 134.537 1.00391 131.017C0.381706 127.55 0.173412 124.016 0.0800782 120.51C0.0356347 118.901 0.017678 117.292 0.00878911 115.683C-9.78662e-05 113.772 4.68888e-08 111.86 4.68888e-08 109.949V50.0498C4.69358e-08 48.1388 -9.88664e-05 46.2278 0.00878911 44.3213C0.0176782 42.7124 0.0356325 41.1031 0.0800782 39.4941C0.173417 35.9919 0.381682 32.454 1.00391 28.9873C1.63504 25.4672 2.67115 22.1913 4.29785 18.9912C5.89787 15.8491 7.98717 12.9777 10.4805 10.4844C12.9737 7.99122 15.8492 5.90268 18.9912 4.30273C22.1869 2.67602 25.4584 1.63992 28.9785 1.00879C32.4451 0.38216 35.9827 0.177862 39.4893 0.0800782C41.0981 0.0356337 42.7075 0.0176785 44.3164 0.00878911C46.2275 -9.96748e-05 48.1387 4.80389e-08 50.0498 4.80259e-08H109.954Z M117.123 28.6494L117.123 104.123C117.123 106.15 117.105 107.986 116.679 110.017 116.265 111.985 115.514 113.838 114.35 115.505 113.19 117.167 111.705 118.532 109.972 119.555 108.221 120.59 106.38 121.181 104.416 121.576 100.727 122.318 98.202 122.487 95.833 122.012 93.5487 121.549 91.6106 120.501 90.0596 119.079 87.7618 116.977 86.3306 114.132 86.0195 111.158 85.6552 107.674 86.8111 103.954 89.4287 101.212 90.7487 99.8252 92.4068 98.7318 94.6201 97.874 96.9356 96.9763 99.4912 96.4385 103.42 95.6475 104.456 95.4386 105.492 95.2294 106.527 95.0205 107.892 94.745 109.056 94.398 109.998 93.2471 110.949 92.0915 110.963 90.6778 110.963 89.2822L110.963 54.041C110.963 51.3435 109.749 50.6102 107.176 51.1035 105.331 51.4637 65.8823 59.4213 65.8018 59.4375 63.5706 59.9797 62.7881 60.7083 62.7881 63.4727L62.7881 115.097C62.7881 117.123 62.6854 118.959 62.2588 120.99 61.8455 122.959 61.0949 124.812 59.9307 126.479 58.7706 128.141 57.2861 129.506 55.5527 130.528 53.8017 131.564 51.9615 132.182 49.9971 132.577 46.3081 133.324 43.783 133.488 41.4141 133.013 39.1297 132.555 37.1917 131.475 35.6406 130.053 33.3428 127.95 32.0055 125.105 31.6943 122.132 31.33 118.647 32.3921 114.928 35.0098 112.186 36.3298 110.799 37.9878 109.705 40.2012 108.848 42.5167 107.95 45.0721 107.411 49.001 106.62 50.0364 106.411 51.072 106.203 52.1074 105.994 53.4719 105.719 54.6369 105.372 55.5791 104.221 56.5213 103.07 56.6328 101.718 56.6328 100.327L56.6328 40.8057C56.6328 40.0056 56.6993 39.463 56.7393 39.1963 56.9304 37.9431 57.4323 36.8674 58.3389 36.1074 59.09 35.4763 60.0637 35.0366 61.3037 34.7744L61.3213 34.7695 108.878 25.1738C109.291 25.0894 112.728 24.4809 113.114 24.4453 115.687 24.2233 117.132 25.9118 117.123 28.6494Z" fill="black"/>
</svg>