<svg width="180" height="180" viewBox="0 0 180 180" fill="none" xmlns="http://www.w3.org/2000/svg">
<path d="M147.071 14.1426L100.076 61.1377V79.9238H118.862L165.857 32.9287L180 47.0713L147 80H180V100H146.974L180 132.929L165.857 147.071L118.862 100.076H100.076V118.862L147.071 165.857L132.929 180L100 147V180H80V147L47.0713 180L32.9287 165.857L79.9238 118.862V100.076H61.1377L14.1426 147.071L0 132.929L33 100H0V80H33L0 47.0713L14.1426 32.9287L61.1377 79.9238H79.9238V61.1377L32.9287 14.1426L47.0713 0L80 33V0H100V33L132.929 0L147.071 14.1426Z" fill="black"/>
</svg>