<svg width="120" height="30" viewBox="0 0 120 30" fill="none" xmlns="http://www.w3.org/2000/svg">
<path d="M75 15C75 6.71573 68.2843 1.6049e-06 60 1.96701e-06C51.7157 2.32913e-06 45 6.71573 45 15C45 23.2843 51.7157 30 60 30C68.2843 30 75 23.2843 75 15Z" fill="black"/>
<path d="M30 15C30 6.71573 23.2843 3.57191e-06 15 3.93402e-06C6.71573 4.29614e-06 -3.62117e-07 6.71573 0 15C3.62117e-07 23.2843 6.71573 30 15 30C23.2843 30 30 23.2843 30 15Z" fill="black"/>
<path d="M120 15C120 6.71573 113.284 -3.62117e-07 105 0C96.7157 3.62117e-07 90 6.71573 90 15C90 23.2843 96.7157 30 105 30C113.284 30 120 23.2843 120 15Z" fill="black"/>
</svg>