<svg width="200" height="120" viewBox="0 0 200 120" fill="none" xmlns="http://www.w3.org/2000/svg">
<path d="M180 80H200V100H180V120H160V100H140V80H160V60H180V80Z" fill="black"/>
<path d="M80 20H50C33.4315 20 20 33.4315 20 50C20 66.5685 33.4315 80 50 80H80V100H50C22.3858 100 0 77.6142 0 50C0 22.3858 22.3858 0 50 0H80V20Z" fill="black"/>
<path d="M120 100H100V80H120V100Z" fill="black"/>
<path d="M120 60H60V40H120V60Z" fill="black"/>
<path d="M130 0C154.19 2.11472e-06 174.367 17.1776 179 40H158.291C154.172 28.3484 143.062 20 130 20H100V0H130Z" fill="black"/>
</svg>