<svg width="160" height="144" viewBox="0 0 160 144" fill="none" xmlns="http://www.w3.org/2000/svg">
<path fill-rule="nonzero" clip-rule="evenodd" d="M138 109.73C141.144 108.915 148.431 107.608 151.527 108.289C155.887 108.677 158.511 109.4 159.382 110.453C161.23 113.193 158.463 122.797 157.199 125.926C156.087 128.682 150.879 137.523 148.183 137.523C147.359 137.523 146.735 136.922 147.159 135.797C157.055 112.758 152.631 113.366 138 114.625C136.112 114.855 129.184 116.241 130 114.625C130 112.716 136.088 110.222 138 109.73Z M69.0603 67.8282C69.0603 71.5742 70.0043 74.575 71.8922 76.8242C77.2998 83.271 87.1711 79.8189 91.3148 72.1524C93.5947 68.24 95.9626 60.5954 95.9626 50.6875C87.9631 50.6875 85.4193 51.0755 82.5155 51.8438C73.98 54.2435 69.0603 59.5756 69.0603 67.8282Z M44.0459 70.711C44.0459 57.2154 51.3095 47.7591 62.5168 43.0625C72.4121 38.8888 86.0673 37.7464 95.9626 37.1524C95.9626 25.2883 94.3387 15.8399 81.8595 15.8399C77.8518 15.8399 70.6922 20.2824 69.0603 27.6875C68.6683 29.6042 67.7004 30.9845 66.1485 31.2696L49.4216 29.3907C47.3977 28.9155 46.6137 27.8073 47.0937 25.8907C50.4695 8.40355 65.1566 0.934613 81.8595 5.32431e-05C89.859 5.32431e-05 101.954 -0.100986 111.386 8.50005C121.577 18.5979 119.961 31.3154 119.961 64.2305C119.961 72.1346 120.081 72.893 125.489 79.918C126.577 81.5337 126.673 83.074 125.089 84.2461C117.041 91.1602 112.665 94.8984 111.986 95.4766C110.818 96.3399 109.402 96.431 107.754 95.7578C100.594 89.6833 102.314 90.0514 97.8585 84.5313C88.8271 94.2727 81.7315 96.918 69.6443 96.918C55.2772 96.918 44.0459 88.0397 44.0459 70.711Z M2.59268 111.598C26.8311 125.521 53.2053 132.484 81.7155 132.484C100.714 132.484 119.481 128.978 138 121.969C140.808 120.86 143.767 118.698 145.487 121.105C146.311 122.262 146.047 123.315 144.688 124.273C126.745 137.104 101.738 144 79.9637 144C49.1577 144 21.7514 132.682 0.848777 114.047C-1.0151 112.518 0.472821 110.267 2.59268 111.598Z" fill="black"/>
</svg>