<svg width="185" height="181" viewBox="0 0 185 181" fill="none" xmlns="http://www.w3.org/2000/svg">
<path d="M184.343 132.43C183.06 128.954 180.623 127.096 177.849 125.558C177.32 125.253 176.855 125.013 176.454 124.821C175.62 124.404 174.787 123.988 173.937 123.539C165.295 118.958 158.545 113.175 153.863 106.335C152.276 104.028 151.185 101.93 150.416 100.232C150.015 99.0943 150.031 98.4375 150.32 97.8448C150.544 97.3962 151.121 96.9317 151.426 96.6914C152.917 95.7142 154.44 94.721 155.482 94.0482C157.342 92.8468 158.801 91.9017 159.747 91.2449C163.291 88.7619 165.776 86.1348 167.331 83.1873C169.512 79.0383 169.8 74.2967 168.101 69.8433C165.76 63.66 159.908 59.8154 152.821 59.8154C151.346 59.8154 149.855 59.9756 148.38 60.296C147.995 60.3761 147.61 60.4722 147.225 60.5683C147.289 56.3713 147.193 51.8859 146.824 47.4967C145.494 32.0543 140.09 23.9646 134.431 17.5089C132.074 14.8177 127.985 10.877 121.844 7.36879C113.282 2.48296 103.582 0 93 0C82.418 0 72.7498 2.48296 64.1719 7.36879C57.999 10.893 53.8944 14.8337 51.5536 17.5089C45.9098 23.9646 40.5065 32.0543 39.1597 47.4967C38.7749 51.8859 38.6947 56.3713 38.7589 60.5683C38.374 60.4722 37.9892 60.3761 37.6044 60.296C36.1294 59.9756 34.6383 59.8154 33.1632 59.8154C26.0764 59.8154 20.2242 63.66 17.8833 69.8433C16.1998 74.2967 16.4723 79.0383 18.6529 83.1873C20.2081 86.1348 22.6933 88.7619 26.2367 91.2449C27.1827 91.9017 28.6417 92.8468 30.5016 94.0482C31.4957 94.689 32.9708 95.6501 34.3978 96.5953C34.6222 96.7394 35.3918 97.3161 35.6484 97.8448C35.937 98.4535 35.953 99.1263 35.5041 100.344C34.7505 102.026 33.6602 104.06 32.121 106.319C27.5354 113.015 20.9938 118.686 12.6243 123.219C8.19908 125.574 3.58144 127.128 1.64139 132.414C0.166313 136.403 1.12832 140.936 4.86412 144.765C6.09869 146.078 7.63791 147.248 9.57795 148.321C14.1475 150.836 18.0276 152.069 21.0739 152.918C21.6031 153.079 22.8537 153.479 23.3988 153.96C24.7616 155.145 24.5692 156.939 26.381 159.55C27.4713 161.184 28.7379 162.29 29.7801 163.011C33.58 165.638 37.8449 165.798 42.3664 165.974C46.4549 166.134 51.0886 166.31 56.3636 168.057C58.5602 168.777 60.8369 170.171 63.4664 171.789C69.7996 175.682 78.4737 181 92.984 181C107.494 181 116.216 175.65 122.598 171.741C125.211 170.139 127.472 168.745 129.604 168.041C134.895 166.294 139.529 166.118 143.602 165.958C148.123 165.782 152.388 165.622 156.188 162.995C157.39 162.178 158.882 160.832 160.068 158.781C161.367 156.571 161.335 155.017 162.553 153.944C163.05 153.511 164.141 153.127 164.734 152.951C167.812 152.102 171.74 150.868 176.39 148.305C178.442 147.168 180.062 145.934 181.328 144.508C181.344 144.492 181.36 144.476 181.376 144.46C184.872 140.696 185.754 136.291 184.311 132.414M171.452 139.318C163.595 143.659 158.352 143.195 154.296 145.806C150.849 148.033 152.885 152.822 150.384 154.552C147.305 156.683 138.182 154.408 126.414 158.285C116.698 161.489 110.509 170.716 93.0321 170.716C75.5556 170.716 69.495 161.537 59.6505 158.285C47.8819 154.408 38.7588 156.683 35.6804 154.552C33.1792 152.822 35.2155 148.033 31.7683 145.806C27.6958 143.195 22.4689 143.659 14.6125 139.318C9.61002 136.563 12.4479 134.849 14.1154 134.032C42.6069 120.256 47.1443 98.9821 47.3528 97.3802C47.5933 95.4739 47.8659 93.9681 45.7655 92.0138C43.7292 90.1396 34.7024 84.5489 32.2012 82.8028C28.0485 79.9034 26.2367 77.0199 27.5675 73.4637C28.4974 71.0127 30.7902 70.0836 33.2273 70.0836C33.9809 70.0836 34.7505 70.1798 35.488 70.3399C40.0415 71.3331 44.4668 73.6078 47.0161 74.2166C47.3688 74.2967 47.6735 74.3447 47.9621 74.3447C49.3249 74.3447 49.8059 73.6559 49.7097 72.102C49.4211 67.1361 48.7156 57.4285 49.5013 48.3777C50.5755 35.9149 54.5999 29.7315 59.3779 24.269C61.6707 21.6418 72.4452 10.2683 93.0642 10.2683C113.683 10.2683 124.458 21.6418 126.75 24.269C131.528 29.7315 135.553 35.9149 136.627 48.3777C137.413 57.4446 136.739 67.1361 136.419 72.102C136.306 73.736 136.803 74.3447 138.166 74.3447C138.439 74.3447 138.76 74.3127 139.112 74.2166C141.662 73.5918 146.087 71.3171 150.64 70.3399C151.378 70.1798 152.147 70.0836 152.901 70.0836C155.322 70.0836 157.631 71.0127 158.561 73.4637C159.908 77.0199 158.08 79.9034 153.927 82.8028C151.426 84.5489 142.399 90.1235 140.363 92.0138C138.263 93.9681 138.535 95.4579 138.776 97.3802C138.984 98.9821 143.521 120.256 172.013 134.032C173.68 134.833 176.518 136.547 171.516 139.318" fill="black"/>
</svg>