<svg width="225" height="194" viewBox="0 0 225 194" fill="none" xmlns="http://www.w3.org/2000/svg">
<path d="M150 137C125.485 137 103.075 123.149 92.1115 101.223L87.8885 92.7771C76.9253 70.8505 54.5146 57 30 57M70 157L130 37M210 137L170.006 97.0058L155.864 111.148L195.858 151.142L210 137ZM210 137L195.858 122.858L153.431 165.284L167.574 179.426L210 137ZM150 57C125.485 57 103.075 70.8505 92.1115 92.7771L87.8885 101.223C76.9253 123.149 54.5146 137 30 137M10 47H30V67H10V47ZM150 47H191V67H150V47ZM150 127H191V147H150V127ZM153.431 28.7221L167.574 14.58L210 57.0064L195.858 71.1485L153.431 28.7221ZM169.999 97L155.857 82.8578L195.196 43.5187L209.338 57.6608L169.999 97ZM10 127H30V147H10V127Z" stroke="black" stroke-width="20"/>
</svg>