<svg width="161" height="120" viewBox="0 0 161 120" fill="none" xmlns="http://www.w3.org/2000/svg">
<path fill-rule="nonzero" clip-rule="evenodd" d="M80.5 120H60.375V100H0V20H60.375V0H80.5V120Z M20.125 80H60.375V40H20.125V80Z" fill="black"/>
<path d="M100.625 0C133.969 0 161 26.8629 161 60C161 93.1371 133.969 120 100.625 120V100C122.854 100 140.875 82.0914 140.875 60C140.875 37.9086 122.854 20 100.625 20V0Z" fill="black"/>
<path d="M100.625 40C111.74 40 120.75 48.9543 120.75 60C120.75 71.0457 111.74 80 100.625 80V40Z" fill="black"/>
</svg>