<svg width="160" height="160" viewBox="0 0 160 160" fill="none" xmlns="http://www.w3.org/2000/svg">
<path d="M40 160L160 160V140L40 140L40 160Z" fill="black"/>
<path d="M40 60L160 60V40L40 40L40 60Z" fill="black"/>
<path d="M9.0403e-06 20L120 20V1.35107e-05L1.07888e-05 3.01992e-06L9.0403e-06 20Z" fill="black"/>
<path d="M160 160H140V40L160 40V160Z" fill="black"/>
<path d="M60 160L40 160L40 40L60 40L60 160Z" fill="black"/>
<path d="M20 120L0 120L1.07888e-05 3.01992e-06L20 0L20 120Z" fill="black"/>
</svg>