<svg width="160" height="109" viewBox="0 0 160 109" fill="none" xmlns="http://www.w3.org/2000/svg">
<path d="M17.0819 71.3351C17.0819 45.0838 30.1779 17.6911 45.5516 17.6911C54.0925 17.6911 60.9253 22.8272 71.7438 38.2356C61.4947 54.2147 55.2313 63.9162 55.2313 63.9162C41.5658 85.6021 37.0107 90.1675 29.6085 90.1675C22.2064 90.7382 17.0819 83.89 17.0819 71.3351ZM106.477 61.6335L96.7971 45.6544C94.5196 41.6597 91.6726 37.6649 89.395 34.2408C97.9359 21.1152 104.769 14.267 113.31 14.267C130.391 14.267 144.057 39.9476 144.057 71.9058C144.057 83.8901 140.071 90.7382 132.1 90.7382C124.128 90.7382 121.281 85.6021 106.477 61.6335ZM81.9929 22.8272C69.4662 6.27749 58.6477 0 46.121 0C19.9288 0 0 34.8115 0 71.3351C0 94.1623 10.8185 108.429 29.0391 108.429C42.1352 108.429 51.2456 102.152 68.3274 72.4764C68.3274 72.4764 75.1601 59.9215 80.2847 51.3613C81.9929 54.2147 83.7011 57.0681 85.4093 60.4921L93.3808 74.1885C108.754 100.44 117.295 109 132.669 109C150.32 109 160 94.1623 160 70.7644C159.431 31.9581 138.932 0 114.448 0C101.352 0 91.1032 10.2723 81.9929 22.8272Z" fill="black"/>
</svg>