<svg width="170" height="114" viewBox="0 0 170 114" fill="none" xmlns="http://www.w3.org/2000/svg">
<path d="M74.2461 88.1804C80.1039 82.3225 89.6011 82.3226 95.459 88.1804C101.317 94.0383 101.317 103.535 95.459 109.393C89.6011 115.251 80.1039 115.251 74.2461 109.393C68.3884 103.535 68.3885 94.0382 74.2461 88.1804Z" fill="black"/>
<path d="M28.2842 63.4314C59.526 32.1895 110.179 32.1896 141.421 63.4314L127.279 77.5739C103.848 54.1425 65.8582 54.1425 42.4268 77.5739L28.2842 63.4314Z" fill="black"/>
<path d="M0 35.1472C46.8629 -11.7157 122.843 -11.7157 169.706 35.1472L155.563 49.2888C116.511 10.2367 53.195 10.2369 14.1426 49.2888L0 35.1472Z" fill="black"/>
</svg>