<svg width="120" height="165" viewBox="0 0 120 165" fill="none" xmlns="http://www.w3.org/2000/svg">
<path d="M60 135C68.2843 135 75 141.716 75 150C75 158.284 68.2843 165 60 165C51.7157 165 45 158.284 45 150C45 141.716 51.7157 135 60 135Z" fill="black"/>
<path d="M15 90C23.2843 90 30 96.7157 30 105C30 113.284 23.2843 120 15 120C6.71573 120 0 113.284 0 105C0 96.7157 6.71573 90 15 90Z" fill="black"/>
<path d="M60 90C68.2843 90 75 96.7157 75 105C75 113.284 68.2843 120 60 120C51.7157 120 45 113.284 45 105C45 96.7157 51.7157 90 60 90Z" fill="black"/>
<path d="M105 90C113.284 90 120 96.7157 120 105C120 113.284 113.284 120 105 120C96.7157 120 90 113.284 90 105C90 96.7157 96.7157 90 105 90Z" fill="black"/>
<path d="M15 45C23.2843 45 30 51.7157 30 60C30 68.2843 23.2843 75 15 75C6.71573 75 0 68.2843 0 60C0 51.7157 6.71573 45 15 45Z" fill="black"/>
<path d="M60 45C68.2843 45 75 51.7157 75 60C75 68.2843 68.2843 75 60 75C51.7157 75 45 68.2843 45 60C45 51.7157 51.7157 45 60 45Z" fill="black"/>
<path d="M105 45C113.284 45 120 51.7157 120 60C120 68.2843 113.284 75 105 75C96.7157 75 90 68.2843 90 60C90 51.7157 96.7157 45 105 45Z" fill="black"/>
<path d="M15 0C23.2843 0 30 6.71573 30 15C30 23.2843 23.2843 30 15 30C6.71573 30 0 23.2843 0 15C0 6.71573 6.71573 0 15 0Z" fill="black"/>
<path d="M60 0C68.2843 0 75 6.71573 75 15C75 23.2843 68.2843 30 60 30C51.7157 30 45 23.2843 45 15C45 6.71573 51.7157 0 60 0Z" fill="black"/>
<path d="M105 0C113.284 0 120 6.71573 120 15C120 23.2843 113.284 30 105 30C96.7157 30 90 23.2843 90 15C90 6.71573 96.7157 0 105 0Z" fill="black"/>
</svg>