<svg width="180" height="154" viewBox="0 0 180 154" fill="none" xmlns="http://www.w3.org/2000/svg">
<path fill-rule="nonzero" clip-rule="evenodd" d="M154.05 140.05L140 154L100 114V134H80V114H20V34L-0.000976562 14.1426L14.0713 0.0703125C60.9161 46.9151 106.694 92.6939 154.05 140.05Z M40 94L40 54.1426 79.8574 94 40 94Z" fill="black"/>
<path d="M120 14C153.137 14 180 40.8629 180 74C180 90.5798 173.272 105.586 162.401 116.445L148.26 102.304C155.512 95.0642 160 85.0573 160 74C160 51.9086 142.091 34 120 34V14Z" fill="black"/>
<path d="M120 54C131.046 54 140 62.9543 140 74C140 79.534 137.752 84.5431 134.12 88.1641L120 74.043V54Z" fill="black"/>
<path d="M100 54.043L80 34V14H100V54.043Z" fill="black"/>
</svg>