<svg width="140" height="200" viewBox="0 0 140 200" fill="none" xmlns="http://www.w3.org/2000/svg">
<path d="M119.5 0C130.546 -4.82822e-07 139.5 8.9543 139.5 20V180C139.5 191.046 130.546 200 119.5 200H39.5C28.4543 200 19.5 191.046 19.5 180V160H39.5V180H119.5V20H39.5V40H19.5V20C19.5 9.12703 28.1765 0.280838 38.9834 0.00683594L39.5 0H119.5Z" fill="black"/>
<path d="M79.5 150C85.0229 150 89.5 154.477 89.5 160C89.5 165.523 85.0229 170 79.5 170C73.9772 170 69.5 165.523 69.5 160C69.5 154.477 73.9772 150 79.5 150Z" fill="black"/>
<path d="M99.5 100L54.5 145L40.3604 130.859L61.2197 110H0V90H61.2197L40.3604 69.1396L54.5 55L99.5 100Z" fill="black"/>
</svg>