<svg width="161" height="161" viewBox="0 0 161 161" fill="none" xmlns="http://www.w3.org/2000/svg">
<path fill-rule="nonzero" clip-rule="evenodd" d="M161 80.5C161 124.959 124.959 161 80.5 161C36.0411 161 0 124.959 0 80.5C0 36.0411 36.0411 0 80.5 0C124.959 0 161 36.0411 161 80.5Z M114.717 45.1726C108.655 41.2191 104.278 34.8951 102.913 27.5211C102.618 25.926 102.456 24.2864 102.456 22.6105H83.1047L83.0724 100.163C82.7453 108.849 75.6015 115.819 66.8383 115.819C64.1165 115.819 61.5521 115.137 59.2947 113.949C54.1176 111.224 50.5719 105.796 50.5719 99.5527C50.5719 90.5836 57.8692 83.2864 66.8383 83.2864C68.5142 83.2864 70.1174 83.561 71.6399 84.0375V64.282C70.069 64.068 68.4698 63.9347 66.8383 63.9347C47.1999 63.9347 31.2203 79.9144 31.2203 99.5527C31.2203 111.603 37.2414 122.268 46.4246 128.714C52.2115 132.776 59.2463 135.167 66.8383 135.167C86.4767 135.167 102.456 119.191 102.456 99.5487V60.2235C110.044 65.6712 119.345 68.8817 129.38 68.8817V49.53C123.977 49.53 118.937 47.9268 114.717 45.1726Z" fill="black"/>
</svg>