<svg width="140" height="180" viewBox="0 0 140 180" fill="none" xmlns="http://www.w3.org/2000/svg">
<path d="M10 120H130V160H10V120Z" fill="white"/>
<path d="M90 160C90 171.046 81.0457 180 70 180C58.9543 180 50 171.046 50 160H90Z" fill="black"/>
<path d="M110 150H30V130H110V150Z" fill="black"/>
<path fill-rule="nonzero" clip-rule="evenodd" d="M70 0C108.66 0 140 31.3401 140 70C140 89.587 131.955 107.295 118.989 120H21.0107C8.04507 107.295 0 89.587 0 70C0 31.3401 31.3401 0 70 0Z M70 20C97.6142 20 120 42.3858 120 70 120 81.2574 116.278 91.6448 110 100.002L110 100 30 100 30 100.002C23.7217 91.6448 20 81.2574 20 70 20 42.3858 42.3858 20 70 20Z" fill="black"/>
</svg>