<svg width="200" height="200" viewBox="0 0 200 200" fill="none" xmlns="http://www.w3.org/2000/svg">
<path fill-rule="nonzero" clip-rule="evenodd" d="M100 40C116.569 40 130 53.4315 130 70C130 86.5685 116.569 100 100 100C83.4315 100 70 86.5685 70 70C70 53.4315 83.4315 40 100 40Z M100 60C94.4772 60 90 64.4772 90 70C90 75.5228 94.4772 80 100 80C105.523 80 110 75.5228 110 70C110 64.4772 105.523 60 100 60Z" fill="black"/>
<path fill-rule="nonzero" clip-rule="evenodd" d="M100 0C155.228 0 200 44.7715 200 100C200 155.228 155.228 200 100 200C44.7715 200 0 155.228 0 100C0 44.7715 44.7715 0 100 0Z M100 140C81.3579 140 65.6981 152.753 61.2617 170.011C72.7393 176.375 85.9461 180 100 180C114.053 180 127.259 176.375 138.736 170.012C134.3 152.754 118.642 140 100 140Z M100 20C55.8172 20 20 55.8172 20 100C20 122.563 29.342 142.943 44.3672 157.486C53.2713 135.505 74.8249 120 100 120C125.175 120 146.728 135.505 155.632 157.486C170.657 142.943 180 122.563 180 100C180 55.8172 144.183 20 100 20Z" fill="black"/>
</svg>