<svg width="160" height="178" viewBox="0 0 160 178" fill="none" xmlns="http://www.w3.org/2000/svg">
<path fill-rule="nonzero" clip-rule="evenodd" d="M160 63.0195C160 77.6994 156.08 92.6598 148.36 107.47C142.56 118.58 134.6 129.65 124.69 140.38C108.252 158.168 91.7641 169.207 91.0703 169.67L79.9805 177.04L68.9004 169.65C68.2104 169.18 51.7298 158.12 35.2998 140.32C25.3898 129.59 17.4296 118.51 11.6396 107.41C3.91966 92.6002 0 77.66 0 63V0H160V63.0195Z M20 63L20 20 140 20 140 63C140 113.12 80 153 80 153 80 153 20 113 20 63Z" fill="black"/>
</svg>