<svg width="200" height="200" viewBox="0 0 200 200" fill="none" xmlns="http://www.w3.org/2000/svg">
<path d="M142.933 42.9277L128.793 57.0674L110.005 38.2803L110 90.0049H161.72L142.931 71.2158L157.07 57.0752L200 100.005L157.07 142.934L142.931 128.794L161.72 110.005H110L109.995 161.72L128.783 142.932L142.923 157.071L99.9951 200L57.0703 157.075L71.21 142.936L89.9951 161.72L90 110.005L38.2803 109.995L57.0732 128.788L42.9336 142.929L0 99.9951L42.9238 57.0713L57.0635 71.2109L38.2803 89.9951L90 90.0049L90.0049 38.2803L71.2109 57.0742L57.0703 42.9336L100.005 0L142.933 42.9277Z" fill="black"/>
</svg>