<svg width="142" height="160" viewBox="0 0 142 160" fill="none" xmlns="http://www.w3.org/2000/svg">
<path fill-rule="nonzero" clip-rule="evenodd" d="M63.1084 0.00472597C67.082 -0.0898834 70.3938 1.23496 73.043 4.07309C73.2322 4.3569 73.4221 4.54696 73.6113 4.73617C73.9897 4.64163 74.4625 4.64144 74.8408 4.64144C80.8962 4.64144 85.8165 8.0476 89.2227 14.576C90.2633 16.5628 91.0201 18.5497 91.4932 20.158C94.4943 19.2202 96.2872 18.6542 96.3184 18.6444C96.8874 18.5021 98.0449 18.3065 98.9863 18.62C99.2392 18.6924 99.4818 18.8216 99.6992 19.0077C99.7405 19.0422 99.7808 19.0785 99.8193 19.117C100.764 20.0617 110.292 29.3068 110.322 29.3358C110.393 29.3364 121.673 29.4309 122.243 29.5252C122.811 29.6198 123.568 29.9982 123.663 30.8495C123.758 31.6058 141.14 149.223 141.167 149.403L98.4951 160L0 142.97C0.0166874 142.84 11.7314 52.0488 12.2051 48.9217C12.7727 44.6642 12.9625 44.5694 17.4092 43.1502C17.5068 43.0548 23.7509 41.162 32.6426 38.4188C33.5888 31.6065 36.8998 22.8069 41.3467 15.8055C47.6858 5.77648 55.3501 0.194082 63.1084 0.00472597Z M74.8408 51.4764C74.8408 51.4764 70.5828 49.2996 62.0674 50.0565C40.4006 51.4759 30.5607 66.6151 31.5068 81.5643C32.6424 99.257 50.4303 98.6895 51.0928 109.475C51.282 112.125 49.6732 115.814 45.1318 116.098C38.2249 116.477 29.5195 109.949 29.5195 109.949L26.208 124.047C26.208 124.047 34.8184 133.224 50.5244 132.278C63.5813 131.427 72.6648 121.019 71.7188 105.691C70.4887 86.295 48.7269 84.4969 48.1592 76.1707C48.0646 74.562 48.1596 68.5071 57.8096 67.9393C64.4327 67.4662 69.9209 70.0213 69.9209 70.0213L74.8408 51.4764Z M63.2031 5.20883C51.2817 5.58747 40.8737 24.2265 38.0352 36.7157C42.2928 35.3911 46.8347 33.9718 51.5654 32.5526C53.0793 24.605 56.8642 16.4682 61.7842 11.1698C63.6765 9.08827 65.7583 7.48005 67.8398 6.4393C66.5152 5.58778 65.0008 5.20883 63.2031 5.20883Z M71.2461 10.6024C68.9754 11.5485 67.0823 13.1569 65.6631 14.6707C61.9733 18.6445 58.9454 24.6996 57.3369 30.7547C63.0136 28.9571 68.5961 27.2547 73.7998 25.6463C73.7998 21.3888 73.422 15.0492 71.2461 10.6024Z M76.5439 9.9393C78.3416 14.67 78.8146 20.1587 78.9092 24.0379C81.7476 23.1864 84.3025 22.334 86.5732 21.6717C85.3432 17.6978 82.5045 11.0746 76.5439 9.9393Z" fill="black"/>
</svg>