<svg width="160" height="180" viewBox="0 0 160 180" fill="none" xmlns="http://www.w3.org/2000/svg">
<path fill-rule="nonzero" clip-rule="evenodd" d="M90 40.6192C129.463 45.5402 160 79.2039 160 120V140H120C120 162.091 102.091 180 80 180C58.2537 180 40.5602 162.647 40.0127 141.032L40 140H0V120C0 79.2039 30.5369 45.5402 70 40.6192V0H90V40.6192Z M60 140L100 140C100 151.046 91.0457 160 80 160 68.9543 160 60 151.046 60 140Z M80 60C46.8629 60 20 86.863 20 120H140C140 86.863 113.137 60 80 60Z" fill="black"/>
</svg>