<svg width="160" height="200" viewBox="0 0 160 200" fill="none" xmlns="http://www.w3.org/2000/svg">
<path d="M0 199.8C0 155.62 35.82 119.8 80 119.8C124.18 119.8 160 155.62 160 199.8H140C140 166.66 113.14 139.8 80 139.8C46.86 139.8 20 166.66 20 199.8H0Z" fill="black"/>
<path d="M80 0C52.39 0 30 22.39 30 50C30 77.61 52.39 100 80 100C107.61 100 130 77.61 130 50C130 22.39 107.61 0 80 0ZM80 80C63.43 80 50 66.57 50 50C50 33.43 63.43 20 80 20C96.57 20 110 33.43 110 50C110 66.57 96.57 80 80 80Z" fill="black"/>
</svg>