<svg width="155" height="180" viewBox="0 0 155 180" fill="none" xmlns="http://www.w3.org/2000/svg">
<path d="M120.5 83.43C119.72 83.06 118.94 82.7 118.14 82.36C116.75 56.76 102.76 42.1 79.27 41.95C79.16 41.95 79.06 41.95 78.95 41.95C64.9 41.95 53.22 47.95 46.03 58.86L58.95 67.72C64.32 59.57 72.75 57.83 78.96 57.83C79.03 57.83 79.1 57.83 79.17 57.83C86.9 57.88 92.74 60.13 96.52 64.51C99.27 67.7 101.11 72.11 102.02 77.68C95.16 76.51 87.75 76.16 79.82 76.61C57.49 77.9 43.13 90.92 44.1 109.02C44.59 118.2 49.16 126.1 56.98 131.26C63.59 135.62 72.1 137.75 80.94 137.27C92.62 136.63 101.78 132.17 108.17 124.03C113.02 117.84 116.09 109.82 117.45 99.72C123.02 103.08 127.14 107.5 129.42 112.81C133.29 121.84 133.52 136.69 121.41 148.79C110.8 159.39 98.04 163.98 78.77 164.12C57.39 163.96 41.21 157.1 30.7 143.74C20.85 131.22 15.77 113.14 15.58 90.01C15.77 66.87 20.86 48.79 30.7 36.28C41.21 22.91 57.39 16.06 78.77 15.9C100.31 16.06 116.76 22.95 127.68 36.38C133.03 42.97 137.07 51.25 139.73 60.91L154.87 56.87C151.64 44.98 146.57 34.74 139.66 26.24C125.66 9.01 105.19 0.18 78.82 0H78.71C52.39 0.18 32.15 9.04 18.55 26.32C6.45 41.71 0.21 63.11 0 89.94V90.06C0.21 116.89 6.45 138.29 18.55 153.67C32.15 170.95 52.39 179.81 78.71 179.99H78.82C102.22 179.83 118.71 173.7 132.3 160.13C150.08 142.37 149.54 120.11 143.68 106.44C139.48 96.64 131.46 88.68 120.5 83.42V83.43ZM80.1 121.41C70.31 121.96 60.14 117.57 59.64 108.16C59.27 101.18 64.61 93.4 80.7 92.47C82.54 92.36 84.35 92.31 86.13 92.31C91.98 92.31 97.44 92.88 102.42 93.96C100.57 117.12 89.69 120.88 80.11 121.4L80.1 121.41Z" fill="black"/>
</svg>