<svg width="180" height="180" viewBox="0 0 180 180" fill="none" xmlns="http://www.w3.org/2000/svg">
<path fill-rule="nonzero" clip-rule="evenodd" d="M90 0C139.71 0 180 40.29 180 90C180 139.71 139.71 180 90 180C40.29 180 0 139.71 0 90C0 40.29 40.29 0 90 0Z M60 70V90H80V120H60V140H120V120H100V70H60Z M90.2402 42C84.8502 42 80.4805 46.3698 80.4805 51.7598C80.4806 57.1497 84.8503 61.5195 90.2402 61.5195C95.63 61.5194 99.9999 57.1496 100 51.7598C100 46.3698 95.6301 42.0001 90.2402 42Z" fill="black"/>
</svg>