<svg width="160" height="94" viewBox="0 0 160 94" fill="none" xmlns="http://www.w3.org/2000/svg">
<path d="M158.455 65.8702L136.275 48.5629C134.917 47.5065 134.917 45.772 136.275 44.7125L158.456 27.4093C159.818 26.3508 160.387 24.5624 159.722 23.4374C159.056 22.3156 157.196 21.9163 155.594 22.5501L129.219 32.9805C127.615 33.6207 126.105 32.7482 125.864 31.0474L121.898 3.0909C121.653 1.39122 120.366 0 119.033 0C117.706 0 116.419 1.39122 116.181 3.08985L112.213 31.0485C111.97 32.7492 110.461 33.6196 108.856 32.9816L82.917 22.7244C81.3083 22.0884 78.6878 22.0884 77.0834 22.7244L51.1402 32.9816C49.5358 33.6196 48.025 32.7492 47.7845 31.0485L43.8213 3.08985C43.5766 1.39122 42.2914 0 40.9636 0C39.6315 0 38.3431 1.39122 38.1037 3.08985L34.1352 31.0485C33.8947 32.7492 32.385 33.6196 30.7806 32.9816L4.4065 22.5532C2.80314 21.9163 0.94656 22.3177 0.280532 23.4385C-0.384432 24.5645 0.182649 26.354 1.54024 27.4104L23.7234 44.7135C25.0821 45.773 25.0821 47.5076 23.7234 48.565L1.54024 65.8702C0.178393 66.9287 -0.385496 68.8238 0.278404 70.0788C0.945496 71.3358 2.80208 71.8408 4.40331 71.2027L30.5412 60.7807C32.1478 60.1437 33.6415 61.011 33.866 62.7117L37.6366 90.9123C37.8643 92.6098 39.3581 94 40.9561 94C42.552 94 44.0469 92.6109 44.2756 90.9123L48.0526 62.7117C48.2761 61.011 49.7762 60.1448 51.3743 60.7807L77.0834 71.0253C78.6857 71.6654 81.3072 71.6654 82.9106 71.0253L108.615 60.7807C110.216 60.1437 111.712 61.011 111.94 62.7117L115.717 90.9123C115.943 92.6098 117.438 94 119.031 94C120.629 94 122.124 92.6109 122.351 90.9123L126.128 62.7117C126.358 61.011 127.852 60.1448 129.452 60.7807L155.593 71.2027C157.189 71.8408 159.051 71.3348 159.717 70.0798C160.384 68.827 159.817 66.9319 158.456 65.8734L158.455 65.8702ZM102.023 48.7826L82.4893 63.7142C81.1221 64.76 78.8793 64.76 77.5164 63.7142L57.976 48.7826C56.6099 47.7368 56.5993 46.0149 57.9548 44.9533L77.5313 29.6435C78.8868 28.5819 81.1093 28.5819 82.4659 29.6435L102.042 44.9533C103.401 46.0139 103.39 47.7358 102.021 48.7837L102.023 48.7826Z" fill="black"/>
</svg>