<svg width="180" height="160" viewBox="0 0 180 160" fill="none" xmlns="http://www.w3.org/2000/svg">
<path d="M160 120V100H140V120H120V140H140V160H160V140H180V120H160Z" fill="black"/>
<path d="M110 80C110 96.5685 96.5686 110 80 110C63.4315 110 50 96.5685 50 80C50 63.4315 63.4315 50 80 50C96.5686 50 110 63.4315 110 80Z" fill="black"/>
<path d="M90 80C90 85.5228 85.5229 90 80 90C74.4772 90 70 85.5228 70 80C70 74.4772 74.4772 70 80 70C85.5229 70 90 74.4772 90 80Z" fill="white"/>
<path d="M5.24537e-06 120H100V140H5.24537e-06V120Z" fill="black"/>
<path d="M5.24537e-06 140L0 20H20L20 140H5.24537e-06Z" fill="black"/>
<path d="M140 80V20H160L160 80H140Z" fill="black"/>
<path d="M80 20H68.1426L48 40H20V20H40L60 0H80V20Z" fill="black"/>
<path d="M80 20H91.8574L112 40H140V20H120L100 0H80V20Z" fill="black"/>
<path d="M40 50.0014C26.6667 49.8089 26.6667 70.181 40 69.9986C53.3333 70.1911 53.3333 49.819 40 50.0014Z" fill="black"/>
</svg>