<svg width="140" height="200" viewBox="0 0 140 200" fill="none" xmlns="http://www.w3.org/2000/svg">
<path fill-rule="nonzero" clip-rule="evenodd" d="M140 20H120V60C120 76.3568 112.145 90.8778 100.002 100C112.145 109.122 120 123.643 120 140V180H140V200H0V180H20V140C20 123.643 27.8547 109.122 39.9971 100C27.8547 90.8778 20 76.3565 20 60V20H0V0H140V20Z M70 110C86.5685 110 100 123.431 100 140L40 140C40 123.431 53.4315 110 70 110Z M40 60L40 20 100 20 100 60C100 76.5685 86.5685 90 70 90 53.4315 90 40 76.5685 40 60Z" fill="black"/>
</svg>