<svg width="180" height="154" viewBox="0 0 180 154" fill="none" xmlns="http://www.w3.org/2000/svg">
<path d="M26.3598 26.3604C61.5074 -8.78691 118.492 -8.78666 153.639 26.3604C188.786 61.5079 188.786 118.492 153.639 153.64L139.496 139.497C166.832 112.16 166.833 67.84 139.497 40.5029C112.159 13.1661 67.8384 13.166 40.5014 40.5029C13.1656 67.8402 13.1652 112.161 40.5014 139.498L26.3598 153.64L25.5424 152.812C-8.7848 117.603 -8.51164 61.2332 26.3598 26.3604Z" fill="black"/>
<path d="M55.1039 54.1904C74.6644 35.1195 105.981 35.2711 125.355 54.6445C144.729 74.0184 144.88 105.335 125.809 124.896L125.354 125.355L111.211 111.213C122.927 99.497 122.928 80.503 111.212 68.7871C99.4964 57.0713 80.5014 57.0705 68.7856 68.7861L68.7866 68.7871C57.0711 80.5032 57.0711 99.4972 68.7866 111.213L54.644 125.355C35.118 105.829 35.1185 74.1709 54.644 54.6445L55.1039 54.1904Z" fill="black"/>
<path d="M79.2455 79.3936C85.1034 73.5357 94.6006 73.5358 100.458 79.3936C106.316 85.2515 106.316 94.7487 100.458 100.606C94.6007 106.464 85.1034 106.464 79.2455 100.606C73.3878 94.7487 73.3879 85.2514 79.2455 79.3936Z" fill="black"/>
</svg>