<svg width="160" height="200" viewBox="0 0 160 200" fill="none" xmlns="http://www.w3.org/2000/svg">
<path fill-rule="nonzero" clip-rule="evenodd" d="M80 80C102.091 80 120 97.9086 120 120C120 142.091 102.091 160 80 160C57.9086 160 40 142.091 40 120C40 97.9086 57.9086 80 80 80Z M80 100C68.9543 100 60 108.954 60 120C60 131.046 68.9543 140 80 140C91.0457 140 100 131.046 100 120C100 108.954 91.0457 100 80 100Z" fill="black"/>
<path d="M80 40C85.5228 40 90 44.4772 90 50C90 55.5228 85.5228 60 80 60C74.4772 60 70 55.5228 70 50C70 44.4772 74.4772 40 80 40Z" fill="black"/>
<path fill-rule="nonzero" clip-rule="evenodd" d="M140 0C151.046 4.82823e-07 160 8.95431 160 20V180C160 190.873 151.324 199.719 140.517 199.993L140 200H20C8.95431 200 2.33154e-06 191.046 0 180V20C1.93129e-06 8.95431 8.95431 -1.93129e-06 20 0H140Z M20 180L20 20 140 20 140 180 20 180Z" fill="black"/>
</svg>