<svg width="160" height="160" viewBox="0 0 160 160" fill="none" xmlns="http://www.w3.org/2000/svg">
<path d="M50.3008 154.264C49.3024 145.165 50 136.47 52 128.072L60 93.5807C58.7008 89.3833 57.6992 84.5813 57.6992 79.7825C57.6992 68.5851 63.1008 60.5871 71.6 60.5871C77.5008 60.5871 81.8016 64.6853 81.8016 72.5842C81.8016 75.0828 81.3024 77.8821 80.3008 81.0813L76.8 92.5794C76.0992 94.7805 75.8016 96.8791 75.8016 98.6771C75.8016 106.675 81.9008 111.173 89.7024 111.173C103.603 111.173 113.504 96.7768 113.504 78.0805C113.504 57.2854 99.904 43.9894 79.8048 43.9894C57.4048 43.9894 43.2064 58.5875 43.2064 78.8803C43.2064 87.0767 45.7056 94.6749 50.608 99.8736C49.008 102.574 47.3088 103.073 44.7072 103.073C36.7072 103.073 29.1072 91.7764 29.1072 76.3785C29.1072 49.7833 50.4064 28.5915 80.3072 28.5915C111.706 28.5915 131.408 50.4871 131.408 77.479C131.408 104.471 112.208 125.068 91.5072 125.068C83.3056 125.068 76.1056 121.568 71.1072 115.268L67.008 131.866C64.8064 140.462 61.5072 148.563 56.208 156.359C63.7088 158.66 71.1072 159.958 80.0096 159.958C124.208 159.958 160.01 124.165 160.01 79.9776C160.01 35.7898 124.202 0 80 0C35.7984 0 0 35.793 0 79.9808C0 113.474 20.6016 142.366 50.3008 154.264Z" fill="black"/>
</svg>