<svg width="139" height="159" viewBox="0 0 139 159" fill="none" xmlns="http://www.w3.org/2000/svg">
<path d="M64.1096 126.214C53.4459 126.214 46.6613 119.768 46.6613 111.591C46.6613 76.6019 139 69.597 139 32.4385C139 9.77049 112.649 0 79.0107 0C58.5492 0 35.4128 3.77409 13.9266 10.5267V54.8547C45.591 31.8739 80.7726 22.0358 103.434 22.0358C117.683 22.0358 127.352 25.9977 127.352 33.096C127.352 62.3412 0.000768151 57.7072 0 120.901C0 145.122 16.7147 159 40.2306 159C75.8004 159 102.705 124.556 122.832 82.569L126.91 84.0284C116.31 109.686 94.3732 137.82 90.1005 155.905H135.894V62.3412H125.317C109.966 95.5829 87.4691 126.214 64.1096 126.214Z" fill="black"/>
</svg>