<svg width="140" height="190" viewBox="0 0 140 190" fill="none" xmlns="http://www.w3.org/2000/svg">
<path d="M30 170C35.5228 170 40 174.477 40 180C40 185.523 35.5228 190 30 190C24.4772 190 20 185.523 20 180C20 174.477 24.4772 170 30 170Z" fill="black"/>
<path d="M70 170C75.5228 170 80 174.477 80 180C80 185.523 75.5228 190 70 190C64.4772 190 60 185.523 60 180C60 174.477 64.4772 170 70 170Z" fill="black"/>
<path d="M110 170C115.523 170 120 174.477 120 180C120 185.523 115.523 190 110 190C104.477 190 100 185.523 100 180C100 174.477 104.477 170 110 170Z" fill="black"/>
<path d="M30 130C35.5228 130 40 134.477 40 140C40 145.523 35.5228 150 30 150C24.4772 150 20 145.523 20 140C20 134.477 24.4772 130 30 130Z" fill="black"/>
<path d="M70 130C75.5228 130 80 134.477 80 140C80 145.523 75.5228 150 70 150C64.4772 150 60 145.523 60 140C60 134.477 64.4772 130 70 130Z" fill="black"/>
<path d="M110 130C115.523 130 120 134.477 120 140C120 145.523 115.523 150 110 150C104.477 150 100 145.523 100 140C100 134.477 104.477 130 110 130Z" fill="black"/>
<path fill-rule="nonzero" clip-rule="evenodd" d="M140 110H0V90C0 54.7353 26.0771 25.5613 60 20.709V0H80V20.709C113.923 25.5613 140 54.7353 140 90V110Z M120 90C120 62.3858 97.6142 40 70 40C42.3858 40 20 62.3858 20 90H120Z" fill="black"/>
</svg>