<svg width="160" height="160" viewBox="0 0 160 160" fill="none" xmlns="http://www.w3.org/2000/svg">
<path d="M92.39 0.96C88.35 0.33 84.21 0 80 0C75.79 0 71.65 0.33 67.61 0.96C29.36 6.94 0 40.1 0 80C0 119.9 29.36 153.06 67.61 159.04C71.65 159.67 75.79 160 80 160C84.21 160 88.35 159.67 92.39 159.04C130.64 153.07 160 119.9 160 80C160 40.1 130.64 6.94 92.39 0.96ZM80 20.26C83.75 27.92 88.03 38.17 91.05 50H68.95C71.97 38.17 76.25 27.92 80 20.26ZM56.02 25.02C53.13 32.39 50.4 40.81 48.38 50H28.08C34.47 38.98 44.27 30.17 56.03 25.02H56.02ZM20.85 90C20.3 86.75 20 83.41 20 80C20 76.59 20.3 73.25 20.85 70H45.4C45.15 73.28 45 76.61 45 80C45 83.39 45.15 86.72 45.4 90H20.85ZM48.37 110C50.39 119.2 53.12 127.62 56.01 134.98C44.25 129.83 34.46 121.02 28.06 110H48.37ZM80 139.74C76.25 132.08 71.97 121.83 68.95 110H91.05C88.03 121.83 83.75 132.08 80 139.74ZM94.53 90H65.48C65.18 86.72 65.01 83.39 65.01 80C65.01 76.61 65.19 73.28 65.48 70H94.53C94.83 73.28 95 76.61 95 80C95 83.39 94.82 86.72 94.53 90ZM111.63 50C109.61 40.8 106.88 32.38 103.99 25.02C115.75 30.17 125.54 38.98 131.94 50H111.63ZM103.98 134.98C106.87 127.61 109.6 119.19 111.62 110H131.92C125.53 121.02 115.73 129.83 103.97 134.98H103.98ZM114.6 90C114.85 86.72 115 83.39 115 80C115 76.61 114.85 73.28 114.6 70H139.15C139.7 73.25 140 76.59 140 80C140 83.41 139.7 86.75 139.15 90H114.6Z" fill="black"/>
</svg>