<svg width="160" height="160" viewBox="0 0 160 160" fill="none" xmlns="http://www.w3.org/2000/svg">
<path fill-rule="nonzero" clip-rule="evenodd" d="M140 0C151.046 0 160 8.95431 160 20V140C160 151.046 151.046 160 140 160H20C8.95431 160 0 151.046 0 140V20C0 8.95431 8.95431 0 20 0H140Z M50 100.5C58.2843 100.5 65 107.216 65 115.5 65 123.784 58.2843 130.5 50 130.5 41.7157 130.5 35 123.784 35 115.5 35 107.216 41.7157 100.5 50 100.5Z M109.5 100C117.784 100 124.5 106.716 124.5 115 124.5 123.284 117.784 130 109.5 130 101.216 130 94.5 123.284 94.5 115 94.5 106.716 101.216 100 109.5 100Z M50 65.5C58.2843 65.5 65 72.2157 65 80.5 65 88.7843 58.2843 95.5 50 95.5 41.7157 95.5 35 88.7843 35 80.5 35 72.2157 41.7157 65.5 50 65.5Z M109.5 65C117.784 65 124.5 71.7157 124.5 80 124.5 88.2843 117.784 95 109.5 95 101.216 95 94.5 88.2843 94.5 80 94.5 71.7157 101.216 65 109.5 65Z M50 30.5C58.2843 30.5 65 37.2157 65 45.5 65 53.7843 58.2843 60.5 50 60.5 41.7157 60.5 35 53.7843 35 45.5 35 37.2157 41.7157 30.5 50 30.5Z M109.5 30C117.784 30 124.5 36.7157 124.5 45 124.5 53.2843 117.784 60 109.5 60 101.216 60 94.5 53.2843 94.5 45 94.5 36.7157 101.216 30 109.5 30Z" fill="black"/>
</svg>