<svg width="200" height="200" viewBox="0 0 200 200" fill="none" xmlns="http://www.w3.org/2000/svg">
<path d="M110 90V150H90V90H110Z" fill="black"/>
<path d="M100 50C105.523 50 110 54.4772 110 60C110 65.5228 105.523 70 100 70C94.4772 70 90 65.5228 90 60C90 54.4772 94.4772 50 100 50Z" fill="black"/>
<path fill-rule="nonzero" clip-rule="evenodd" d="M100 0C155.23 0 200 44.77 200 100C200 155.23 155.23 200 100 200C44.77 200 0 155.23 0 100C0 44.77 44.77 0 100 0Z M100 20C55.82 20 20 55.82 20 100C20 144.18 55.82 180 100 180C144.18 180 180 144.18 180 100C180 55.82 144.18 20 100 20Z" fill="black"/>
</svg>