<svg width="160" height="140" viewBox="0 0 160 140" fill="none" xmlns="http://www.w3.org/2000/svg">
<path d="M80 70C85.5228 70 90 74.4772 90 80C90 85.5228 85.5228 90 80 90C74.4772 90 70 85.5228 70 80C70 74.4772 74.4772 70 80 70Z" fill="black"/>
<path fill-rule="nonzero" clip-rule="evenodd" d="M120 20H160V140H0V20H40L60 0H100L120 20Z M80 50C63.4315 50 50 63.4315 50 80C50 96.5685 63.4315 110 80 110C96.5685 110 110 96.5685 110 80C110 63.4315 96.5685 50 80 50Z M30 50.001C16.6667 49.8085 16.6667 70.1814 30 69.999C43.3333 70.1915 43.3333 49.8186 30 50.001Z" fill="black"/>
</svg>