<svg width="200" height="200" viewBox="0 0 200 200" fill="none" xmlns="http://www.w3.org/2000/svg">
<path fill-rule="nonzero" clip-rule="evenodd" d="M100 0C155.228 2.41411e-06 200 44.7715 200 100C200 155.228 155.228 200 100 200C44.7715 200 2.31122e-06 155.228 0 100C2.41411e-06 44.7715 44.7715 -2.41411e-06 100 0Z M125 120C116.716 120 110 126.716 110 135C110 143.284 116.716 150 125 150C133.284 150 140 143.284 140 135C140 126.716 133.284 120 125 120Z M52.75 133.109L66.8916 147.251L147.253 66.8906L133.11 52.749L52.75 133.109Z M75 50C66.7157 50 60 56.7157 60 65C60 73.2843 66.7157 80 75 80C83.2843 80 90 73.2843 90 65C90 56.7157 83.2843 50 75 50Z" fill="black"/>
</svg>