<svg width="162" height="114" viewBox="0 0 162 114" fill="none" xmlns="http://www.w3.org/2000/svg">
<path fill-rule="nonzero" clip-rule="evenodd" d="M80.6396 0.700195C80.7892 0.700203 131.095 0.705128 143.648 4.07227C150.592 5.93103 156.049 11.3877 157.907 18.3311C161.266 30.9037 161.279 57.1504 161.279 57.1504C161.279 57.2069 161.276 83.4105 157.907 95.9697C156.049 102.913 150.592 108.37 143.648 110.229C131.095 113.596 80.7892 113.601 80.6396 113.601C80.6396 113.601 30.2037 113.601 17.6309 110.229C10.6875 108.37 5.23074 102.913 3.37207 95.9697C0.00365019 83.4105 3.92085e-06 57.2069 0 57.1504C0 57.1504 1.66893e-06 30.9037 3.37207 18.3311C5.23074 11.3876 10.6875 5.93093 17.6309 4.07227C30.2035 0.700134 80.6396 0.700195 80.6396 0.700195Z M64.4961 81.3418L106.396 57.1523L64.4961 32.9639V81.3418Z" fill="black"/>
</svg>