<svg width="200" height="200" viewBox="0 0 200 200" fill="none" xmlns="http://www.w3.org/2000/svg">
<path d="M100 50C72.39 50 50 72.39 50 100C50 127.61 72.39 150 100 150C127.61 150 150 127.61 150 100C150 72.39 127.61 50 100 50ZM100 130C83.43 130 70 116.57 70 100C70 83.43 83.43 70 100 70C116.57 70 130 83.43 130 100C130 116.57 116.57 130 100 130Z" fill="black"/>
<path d="M110 0H90V30H110V0Z" fill="black"/>
<path d="M36.3616 22.2224L22.2195 36.3645L43.4327 57.5777L57.5748 43.4356L36.3616 22.2224Z" fill="black"/>
<path d="M0 90V110H30V90H0Z" fill="black"/>
<path d="M22.2166 163.644L36.3587 177.786L57.5719 156.573L43.4298 142.431L22.2166 163.644Z" fill="black"/>
<path d="M90 200H110V170H90V200Z" fill="black"/>
<path d="M163.65 177.778L177.792 163.635L156.579 142.422L142.437 156.564L163.65 177.778Z" fill="black"/>
<path d="M200 110V90H170V110H200Z" fill="black"/>
<path d="M177.772 36.3559L163.63 22.2137L142.417 43.4269L156.559 57.5691L177.772 36.3559Z" fill="black"/>
</svg>