<svg width="179" height="200" viewBox="0 0 179 200" fill="none" xmlns="http://www.w3.org/2000/svg">
<path d="M159 50.5C159 89.4361 127.436 121 88.5 121C49.5639 121 18 89.4361 18 50.5C18 50.3332 18.0018 50.1665 18.0029 50H0.00292973C0.00201856 50.1666 1.45819e-08 50.3332 0 50.5C-4.01072e-06 96.3773 34.5184 134.19 79 139.389V150H49L49 170H79L79 200H99L99 170H129V150H99V139.5C143.963 134.756 179 96.7205 179 50.5C179 50.3332 178.998 50.1666 178.997 50H158.997C158.998 50.1665 159 50.3332 159 50.5Z" fill="black"/>
<path fill-rule="nonzero" clip-rule="evenodd" d="M89 0C61.39 -2.41374e-06 39 22.39 39 50C39 77.61 61.39 100 89 100C116.61 100 139 77.61 139 50C139 22.39 116.61 2.41374e-06 89 0Z M89 20C105.57 20 119 33.43 119 50C119 66.57 105.57 80 89 80C72.43 80 59 66.57 59 50C59 33.43 72.43 20 89 20Z" fill="black"/>
</svg>