<svg width="200" height="200" viewBox="0 0 200 200" fill="none" xmlns="http://www.w3.org/2000/svg">
<path fill-rule="nonzero" clip-rule="evenodd" d="M29.2893 29.289C68.3417 -9.76291 131.658 -9.76307 170.71 29.289C209.763 68.3414 209.763 131.658 170.71 170.711C131.658 209.763 68.3418 209.763 29.2893 170.711C-9.76311 131.658 -9.76311 68.3414 29.2893 29.289Z M127.571 141.713C119.666 146.948 110.19 150 99.9993 150C89.8086 150 80.3322 146.948 72.428 141.713L50.9407 163.201C79.7196 185.598 120.28 185.598 149.059 163.201L127.571 141.713Z M36.7981 50.9413C14.401 79.7202 14.4009 120.281 36.7981 149.059L58.2854 127.571C53.0507 119.667 49.9993 110.19 49.9993 99.9999C49.9993 89.8095 53.0506 80.3327 58.2854 72.4286L36.7981 50.9413Z M141.712 72.4286C146.947 80.3329 149.999 89.8092 149.999 99.9999C149.999 110.191 146.947 119.667 141.712 127.571L163.2 149.059C185.598 120.28 185.599 79.7193 163.201 50.9403L141.712 72.4286Z M99.9993 69.9999C83.4309 70 69.9994 83.4316 69.9993 99.9999C69.9993 116.568 83.4309 130 99.9993 130C116.568 130 129.999 116.568 129.999 99.9999C129.999 83.4315 116.568 69.9999 99.9993 69.9999Z M149.059 36.7987C120.28 14.4015 79.7197 14.4016 50.9407 36.7987L72.428 58.286C80.3321 53.0512 89.8089 50 99.9993 49.9999C110.19 49.9999 119.666 53.0513 127.571 58.286L149.059 36.7987Z" fill="black"/>
</svg>