<svg width="181" height="181" viewBox="0 0 181 181" fill="none" xmlns="http://www.w3.org/2000/svg">
<path fill-rule="nonzero" clip-rule="evenodd" d="M180.904 166.762L166.762 180.904L137.499 151.641C123.761 165.044 111.685 173.133 111.094 173.527L100.004 180.897L88.9238 173.508C88.2338 173.038 71.7532 161.978 55.3232 144.178C45.4132 133.448 37.4531 122.368 31.6631 111.268C23.9431 96.4576 20.0234 81.5174 20.0234 66.8574V34.165L0 14.1416L14.1416 0L180.904 166.762Z M40.0234 66.8574L40.0234 54.165 123.352 137.493C110.876 149.641 100.023 156.857 100.023 156.857 100.023 156.857 40.0234 116.857 40.0234 66.8574Z" fill="black"/>
<path d="M180.023 66.877C180.023 81.5568 176.104 96.5173 168.384 111.327C166.767 114.425 164.979 117.518 163.03 120.604L148.463 106.036C155.28 94.2244 160.023 80.9462 160.023 66.8574V23.8574H66.2842L46.2842 3.85742H180.023V66.877Z" fill="black"/>
</svg>