<svg width="161" height="161" viewBox="0 0 161 161" fill="none" xmlns="http://www.w3.org/2000/svg">
<path d="M160.071 14.1426L14.1426 160.07L0 145.929L145.929 0L160.071 14.1426Z" fill="black"/>
<path fill-rule="nonzero" clip-rule="evenodd" d="M125.036 90.0352C144.366 90.0352 160.036 105.705 160.036 125.035C160.036 144.365 144.366 160.035 125.036 160.035C105.706 160.035 90.0361 144.365 90.0361 125.035C90.0361 105.705 105.706 90.0352 125.036 90.0352Z M125.036 110.035C116.752 110.035 110.036 116.751 110.036 125.035C110.036 133.319 116.752 140.035 125.036 140.035C133.32 140.035 140.036 133.319 140.036 125.035C140.036 116.751 133.32 110.035 125.036 110.035Z" fill="black"/>
<path fill-rule="nonzero" clip-rule="evenodd" d="M35.0361 0.0351562C54.3661 0.0351562 70.0361 15.7052 70.0361 35.0352C70.0361 54.3651 54.3661 70.0352 35.0361 70.0352C15.7062 70.0352 0.0361328 54.3651 0.0361328 35.0352C0.0361328 15.7052 15.7062 0.0351562 35.0361 0.0351562Z M35.0361 20.0352C26.7519 20.0352 20.0361 26.7509 20.0361 35.0352C20.0361 43.3194 26.7519 50.0352 35.0361 50.0352C43.3204 50.0352 50.0361 43.3194 50.0361 35.0352C50.0361 26.7509 43.3204 20.0352 35.0361 20.0352Z" fill="black"/>
</svg>