<svg width="152" height="160" viewBox="0 0 152 160" fill="none" xmlns="http://www.w3.org/2000/svg">
<path d="M151.384 35.4256C149.042 18.2359 133.883 4.67692 115.89 2.05128C112.85 1.6 101.367 0 74.7468 0H74.5414C47.9004 0 42.1901 1.62051 39.1706 2.05128C21.6906 4.61538 5.73062 16.7795 1.84846 34.1744C-0.000189543 42.7487 -0.205595 52.2462 0.143594 60.9641C0.636567 73.4564 0.73927 85.9282 1.88954 98.3795C2.69062 106.646 4.06684 114.851 6.03873 122.913C9.71549 137.826 24.6279 150.236 39.2322 155.282C54.8636 160.554 71.6658 161.436 87.7901 157.805C89.5566 157.395 91.323 156.923 93.0485 156.39C96.9512 155.159 101.552 153.785 104.921 151.364C104.962 151.323 105.003 151.282 105.024 151.241C105.044 151.2 105.065 151.138 105.065 151.077V139.015C105.065 139.015 105.065 138.913 105.024 138.872C105.003 138.831 104.962 138.79 104.921 138.749C104.88 138.708 104.839 138.687 104.777 138.687C104.715 138.687 104.674 138.687 104.613 138.687C94.3014 141.128 83.7231 142.338 73.1036 142.318C54.8431 142.318 49.9339 133.764 48.5166 130.195C47.3868 127.118 46.6679 123.897 46.3803 120.636C46.3803 120.574 46.3803 120.533 46.4009 120.472C46.4214 120.431 46.4625 120.369 46.5036 120.349C46.5447 120.308 46.6063 120.287 46.6474 120.287C46.709 120.287 46.7501 120.287 46.8117 120.287C56.9587 122.708 67.3522 123.918 77.8074 123.918C80.3133 123.918 82.8193 123.918 85.3252 123.856C95.8214 123.569 106.893 123.036 117.225 121.046C117.492 121.005 117.738 120.944 117.964 120.882C134.253 117.785 149.761 108.082 151.343 83.5282C151.404 82.5641 151.548 73.3949 151.548 72.3897C151.548 68.9846 152.657 48.2051 151.384 35.4256ZM109.173 96.718V55.2615C109.173 46.5436 105.496 42.0923 97.9987 42.0923C89.762 42.0923 85.6539 47.3641 85.6539 57.7641V80.4513H68.6258V57.7641C68.6258 47.3641 64.4971 42.0923 56.2603 42.0923C48.8247 42.0923 45.1068 46.5436 45.0863 55.2615V96.718H27.976V54.0103C27.976 45.2923 30.2355 38.359 34.7339 33.2103C39.3966 28.0821 45.4971 25.4564 53.0766 25.4564C61.8474 25.4564 68.482 28.7795 72.8982 35.4462L77.1706 42.5231L81.4431 35.4462C85.8593 28.8 92.4939 25.4564 101.244 25.4564C108.803 25.4564 114.924 28.0821 119.587 33.2103C124.106 38.3385 126.345 45.2718 126.345 54.0103V96.718H109.173Z" fill="black"/>
</svg>