<svg width="159" height="120" viewBox="0 0 159 120" fill="none" xmlns="http://www.w3.org/2000/svg">
<path d="M134.688 10.0498C124.246 5.29265 113.216 1.90535 101.885 0C100.335 2.76463 98.9338 5.60399 97.6833 8.5056C85.6151 6.69988 73.3468 6.69988 61.2787 8.5056C60.0281 5.60399 58.6274 2.76463 57.0767 0C45.7464 1.93026 34.7037 5.31756 24.2488 10.0747C3.48902 40.66 -2.13862 70.4857 0.675197 99.8879C12.8309 108.829 26.4373 115.641 40.9066 120C44.1581 115.641 47.047 111.009 49.5231 106.164C44.8209 104.421 40.2813 102.254 35.9543 99.7136C37.0923 98.8917 38.2053 98.0448 39.2808 97.2229C64.7553 109.153 94.2441 109.153 119.719 97.2229C120.807 98.1071 121.92 98.9539 123.045 99.7136C118.718 102.266 114.166 104.421 109.451 106.177C111.927 111.021 114.804 115.641 118.068 120C132.55 115.654 146.169 108.854 158.324 99.9004C161.626 65.8032 152.684 36.2516 134.688 10.0498ZM53.0873 81.8057C45.2461 81.8057 38.7681 74.7198 38.7681 66.0025C38.7681 57.2852 45.021 50.137 53.0623 50.137C61.1036 50.137 67.5316 57.2852 67.394 66.0025C67.2565 74.7198 61.0786 81.8057 53.0873 81.8057ZM105.912 81.8057C98.0584 81.8057 91.6054 74.7198 91.6054 66.0025C91.6054 57.2852 97.8583 50.137 105.912 50.137C113.966 50.137 120.344 57.2852 120.206 66.0025C120.069 74.7198 113.903 81.8057 105.912 81.8057Z" fill="black"/>
</svg>