<svg width="120" height="120" viewBox="0 0 120 120" fill="none" xmlns="http://www.w3.org/2000/svg">
<path d="M60 75C68.2843 75 75 68.2843 75 60C75 51.7157 68.2843 45 60 45C51.7157 45 45 51.7157 45 60C45 68.2843 51.7157 75 60 75Z" fill="black"/>
<path d="M105 75C113.284 75 120 68.2843 120 60C120 51.7157 113.284 45 105 45C96.7157 45 90 51.7157 90 60C90 68.2843 96.7157 75 105 75Z" fill="black"/>
<path d="M15 75C23.2843 75 30 68.2843 30 60C30 51.7157 23.2843 45 15 45C6.71573 45 0 51.7157 0 60C0 68.2843 6.71573 75 15 75Z" fill="black"/>
<path d="M60 30C68.2843 30 75 23.2843 75 15C75 6.71573 68.2843 0 60 0C51.7157 0 45 6.71573 45 15C45 23.2843 51.7157 30 60 30Z" fill="black"/>
<path d="M105 30C113.284 30 120 23.2843 120 15C120 6.71573 113.284 0 105 0C96.7157 0 90 6.71573 90 15C90 23.2843 96.7157 30 105 30Z" fill="black"/>
<path d="M15 30C23.2843 30 30 23.2843 30 15C30 6.71573 23.2843 0 15 0C6.71573 0 0 6.71573 0 15C0 23.2843 6.71573 30 15 30Z" fill="black"/>
<path d="M60 120C68.2843 120 75 113.284 75 105C75 96.7157 68.2843 90 60 90C51.7157 90 45 96.7157 45 105C45 113.284 51.7157 120 60 120Z" fill="black"/>
<path d="M105 120C113.284 120 120 113.284 120 105C120 96.7157 113.284 90 105 90C96.7157 90 90 96.7157 90 105C90 113.284 96.7157 120 105 120Z" fill="black"/>
<path d="M15 120C23.2843 120 30 113.284 30 105C30 96.7157 23.2843 90 15 90C6.71573 90 0 96.7157 0 105C0 113.284 6.71573 120 15 120Z" fill="black"/>
</svg>