<svg width="160" height="195" viewBox="0 0 160 195" fill="none" xmlns="http://www.w3.org/2000/svg">
<path d="M80 50C63.43 50 50 63.43 50 80C50 96.57 63.43 110 80 110C96.57 110 110 96.57 110 80C110 63.43 96.57 50 80 50ZM80 90C74.48 90 70 85.52 70 80C70 74.48 74.48 70 80 70C85.52 70 90 74.48 90 80C90 85.52 85.52 90 80 90Z" fill="black"/>
<path d="M80 20C113.14 20 140 46.86 140 80C140 130.12 80 170 80 170C80 170 20 130 20 80C20 46.86 46.86 20 80 20ZM80 0C35.89 0 0 35.89 0 80C0 94.66 3.92 109.6 11.64 124.41C17.43 135.51 25.39 146.59 35.3 157.32C51.73 175.12 68.21 186.18 68.9 186.65L79.98 194.04L91.07 186.67C91.76 186.21 108.25 175.17 124.69 157.38C134.6 146.65 142.56 135.58 148.36 124.47C156.08 109.66 160 94.7 160 80.02C160 35.89 124.11 0 80 0Z" fill="black"/>
</svg>