<svg width="200" height="120" viewBox="0 0 200 120" fill="none" xmlns="http://www.w3.org/2000/svg">
<path fill-rule="nonzero" clip-rule="evenodd" d="M99.9297 30.0703C116.5 30.0703 129.93 43.5003 129.93 60.0703C129.929 76.6401 116.5 90.0703 99.9297 90.0703C83.36 90.0701 69.9299 76.64 69.9297 60.0703C69.9297 43.5004 83.3598 30.0705 99.9297 30.0703Z M99.9297 50.0703C94.4098 50.0705 89.9297 54.5504 89.9297 60.0703C89.9299 65.59 94.41 70.0701 99.9297 70.0703C105.45 70.0703 109.929 65.5901 109.93 60.0703C109.93 54.5503 105.45 50.0703 99.9297 50.0703Z" fill="black"/>
<path fill-rule="nonzero" clip-rule="evenodd" d="M100 0C155.23 0 200 60 200 60C200 60 155.23 120 100 120C44.77 120 0 60 0 60C0 60 44.77 0 100 0Z M100 20C77.7 20 56.5397 33.5096 42.7197 44.8496C36.2798 50.1296 30.7702 55.47 26.4502 60C30.7702 64.53 36.2798 69.8704 42.7197 75.1504C56.5397 86.4904 77.7 100 100 100C122.3 100 143.46 86.4904 157.28 75.1504C163.72 69.8704 169.23 64.53 173.55 60C169.23 55.47 163.72 50.1296 157.28 44.8496C143.46 33.5096 122.31 20 100 20Z" fill="black"/>
</svg>