<svg width="200" height="200" viewBox="0 0 200 200" fill="none" xmlns="http://www.w3.org/2000/svg">
<path d="M90 110L90 50H110L110 110H90Z" fill="black"/>
<path d="M100 150C94.4771 150 90 145.523 90 140C90 134.477 94.4772 130 100 130C105.523 130 110 134.477 110 140C110 145.523 105.523 150 100 150Z" fill="black"/>
<path fill-rule="nonzero" clip-rule="evenodd" d="M100 200C44.77 200 -4.82836e-06 155.23 0 100C4.82836e-06 44.77 44.77 -4.82836e-06 100 0C155.23 4.82836e-06 200 44.77 200 100C200 155.23 155.23 200 100 200Z M100 180C144.18 180 180 144.18 180 100C180 55.82 144.18 20 100 20C55.82 20 20 55.82 20 100C20 144.18 55.82 180 100 180Z" fill="black"/>
</svg>