<svg width="140" height="180" viewBox="0 0 140 180" fill="none" xmlns="http://www.w3.org/2000/svg">
<path d="M70 110.001C56.6667 109.809 56.6667 130.181 70 129.999C83.3333 130.191 83.3333 109.819 70 110.001Z" fill="black"/>
<path fill-rule="nonzero" clip-rule="evenodd" d="M70 0C97.6142 0 120 22.3858 120 50V70H140V180H0V70H20V49H20.0107C20.5434 21.8474 42.7199 1.13929e-06 70 0Z M20 160H120V90H20V160Z M70 20C53.4315 20 40 33.4315 40 50V70H100V50C100 33.4315 86.5685 20 70 20Z" fill="black"/>
</svg>