<svg width="180" height="156" viewBox="0 0 180 156" fill="none" xmlns="http://www.w3.org/2000/svg">
<path d="M54.9941 17.3232C34.0743 29.4274 20 52.0476 20 77.9551C20 103.863 34.0751 126.482 54.9951 138.586L44.9932 155.909C18.0962 140.347 0 111.265 0 77.9551C0 44.6453 18.096 15.5624 44.9932 0L54.9941 17.3232Z" fill="black"/>
<path d="M135.007 0C161.904 15.5624 180 44.6453 180 77.9551C180 111.265 161.904 140.346 135.007 155.908L125.005 138.585C145.925 126.481 160 103.862 160 77.9551C160 52.0475 145.925 29.4283 125.005 17.3242L135.007 0Z" fill="black"/>
<path d="M74.998 51.9697C66.0321 57.1571 60 66.8517 60 77.9551C60 89.0583 66.0323 98.752 74.998 103.939L64.9961 121.263C50.0535 112.617 40 96.4603 40 77.9551C40 59.4498 50.0535 43.2933 64.9961 34.6475L74.998 51.9697Z" fill="black"/>
<path d="M115.003 34.6475C129.946 43.2932 140 59.4495 140 77.9551C140 96.4602 129.946 112.616 115.004 121.262L105.002 103.938C113.967 98.7509 120 89.0581 120 77.9551C120 66.8518 113.968 57.1582 105.002 51.9707L115.003 34.6475Z" fill="black"/>
<path d="M90 67.9551C95.5228 67.9551 100 72.4322 100 77.9551C100 83.4779 95.5228 87.9551 90 87.9551C84.4772 87.9551 80 83.4779 80 77.9551C80 72.4322 84.4772 67.9551 90 67.9551Z" fill="black"/>
</svg>