<svg width="161" height="160" viewBox="0 0 161 160" fill="none" xmlns="http://www.w3.org/2000/svg">
<path fill-rule="nonzero" clip-rule="evenodd" d="M117.444 0.000473806C118.89 0.00993476 120.345 0.332272 121.706 0.986802L154.732 16.8686C158.202 18.5374 160.409 22.0474 160.409 25.8979V133.563C160.409 133.687 160.407 133.811 160.402 133.934C160.274 137.647 158.097 140.997 154.732 142.616L121.706 158.497C120.268 159.189 118.724 159.51 117.198 159.482C115.996 159.469 114.802 159.241 113.68 158.803C112.418 158.312 111.245 157.558 110.245 156.558L47.0723 98.9243L19.5499 119.804C18.3468 120.717 16.9183 121.166 15.4952 121.162C13.8837 121.159 12.278 120.576 11.0128 119.425L2.18563 111.396C1.63986 110.9 1.19589 110.335 0.854577 109.728C-0.0559833 108.11 -0.238817 106.189 0.305749 104.45C0.441716 104.015 0.622931 103.592 0.849694 103.187C0.906547 103.086 0.965848 102.985 1.02841 102.886C1.34045 102.393 1.72375 101.931 2.17782 101.517L26.046 79.7417L2.17782 57.9663C1.17884 57.0548 0.523573 55.9156 0.211999 54.7056C0.183639 54.5955 0.158494 54.4847 0.135827 54.3735C0.0905586 54.1514 0.0568254 53.9275 0.0342645 53.7026C0.0116891 53.4776 -7.8738e-05 53.2518 8.48225e-05 53.0259C0.000240061 52.7999 0.0123578 52.5741 0.0352411 52.3491C0.0696052 52.0116 0.129379 51.6762 0.214929 51.3462C0.328881 50.9062 0.487634 50.4755 0.692468 50.062C0.743668 49.9587 0.797702 49.8564 0.854577 49.7554C1.19588 49.1485 1.63989 48.5838 2.18563 48.0874L11.0128 40.0581C12.3384 38.8524 14.0376 38.2688 15.7257 38.3247C17.0719 38.3673 18.4118 38.8158 19.5499 39.6792L47.0723 60.5581L110.245 2.92528C110.62 2.55035 111.02 2.2105 111.439 1.90575C113.13 0.675896 115.147 0.0241622 117.192 0.000473806C117.213 9.12237e-05 117.233 0.000730302 117.254 0.000473806C117.317 0.000129969 117.381 -0.000393662 117.444 0.000473806Z M72.3585 79.7417L120.258 43.4038 120.258 116.079 72.3585 79.7417Z" fill="black"/>
</svg>