<svg width="160" height="160" viewBox="0 0 160 160" fill="none" xmlns="http://www.w3.org/2000/svg">
<path fill-rule="nonzero" clip-rule="evenodd" d="M80 60C96.57 60 110 73.43 110 90C110 106.57 96.57 120 80 120C63.43 120 50 106.57 50 90C50 73.43 63.43 60 80 60Z M80 80C74.48 80 70 84.48 70 90C70 95.52 74.48 100 80 100C85.52 100 90 95.52 90 90C90 84.48 85.52 80 80 80Z" fill="black"/>
<path fill-rule="nonzero" clip-rule="evenodd" d="M160 40V160H0V0H120L160 40Z M20 140H140V48.1426L111.857 20H80V40H50V20H20V140Z" fill="black"/>
</svg>