<svg width="160" height="160" viewBox="0 0 160 160" fill="none" xmlns="http://www.w3.org/2000/svg">
<path d="M83.6338 0C105.727 0 123.634 17.9092 123.634 40C123.634 62.0908 105.727 80 83.6338 80H156.366C158.373 80.0001 160 81.6271 160 83.6338C160 105.727 142.091 123.634 120 123.634C97.9092 123.634 80 105.727 80 83.6338V156.366C79.9999 158.373 78.3729 160 76.3662 160C54.2726 160 36.3662 142.091 36.3662 120C36.3662 98.2542 53.7175 80.5601 75.334 80.0127L76.3662 80H3.63379C1.62706 79.9999 0 78.373 0 76.3662C5.15373e-07 54.2727 17.9092 36.3662 40 36.3662C62.0908 36.3662 80 54.2726 80 76.3662V3.63379C80.0001 1.6271 81.6271 5.93186e-05 83.6338 0Z" fill="black"/>
</svg>