<svg width="160" height="160" viewBox="0 0 160 160" fill="none" xmlns="http://www.w3.org/2000/svg">
<path d="M53.5282 125.091C44.8 114.91 38.9814 99.49 38.6907 82.0374V78.2531C38.9814 60.8 44.8 45.3812 53.5282 34.9094C65.1624 20.0718 82.3285 10.4719 101.237 10.4719C112.872 10.4719 123.929 14.2532 133.238 20.3624C119.272 7.85315 100.653 0 80.2908 0H80.0006C35.7813 0 0 35.7813 0 79.9999C0 123.053 33.7469 157.962 76.2191 160H80.0006C100.363 160 118.981 152.437 133.238 139.638C123.929 146.037 112.872 149.529 101.237 149.529C82.0382 149.529 64.8722 139.928 53.5282 125.091ZM133.238 20.3624C112.872 10.4719 93.6719 17.4531 87.2722 21.8187C107.638 26.1812 122.763 50.6187 122.763 79.9999C122.763 109.381 107.347 133.819 87.2722 138.182C93.6719 142.547 112.582 149.529 133.238 139.638C149.819 125.091 160 103.563 160 79.9999C160 56.4375 149.819 34.9094 133.238 20.3624Z" fill="black"/>
</svg>