<svg width="161" height="161" viewBox="0 0 161 161" fill="none" xmlns="http://www.w3.org/2000/svg">
<path d="M136.832 22.9941C151.746 37.6055 161 57.9722 161 80.5C161 124.959 124.959 161 80.5 161C36.0412 161 0.000125776 124.959 0 80.5C6.65199e-05 58.0864 9.16046 37.812 23.9414 23.2168L38.084 37.3594C26.9221 48.335 20.0001 63.6093 20 80.5C20.0001 113.913 47.0868 141 80.5 141C113.913 141 141 113.913 141 80.5C141 63.495 133.983 48.1288 122.688 37.1377L136.832 22.9941Z" fill="black"/>
<path d="M90 0V80H70V0H90Z" fill="black"/>
</svg>