<svg width="201" height="194" viewBox="0 0 201 194" fill="none" xmlns="http://www.w3.org/2000/svg">
<path d="M100.051 107H140.051V127H80.0508V67H100.051V107Z" fill="black"/>
<path fill-rule="nonzero" clip-rule="evenodd" d="M100.051 27C144.231 27.0003 180.051 62.8202 180.051 107C180.051 127.869 172.057 146.872 158.966 161.116L175.63 180.477L160.472 193.523L143.707 174.046C131.153 182.237 116.158 187 100.052 187C83.9442 187 68.9478 182.238 56.3936 174.046L39.6299 193.523L24.4717 180.477L41.1348 161.115C28.0445 146.871 20.0508 127.869 20.0508 107C20.0508 62.8202 55.871 27.0003 100.051 27Z M100.051 47C66.911 47.0003 40.0508 73.8602 40.0508 107C40.0508 121.805 45.413 135.357 54.2998 145.82C58.6317 150.92 63.8021 155.287 69.5967 158.707L69.5947 158.708C78.5219 163.977 88.933 167 100.051 167C111.168 167 121.578 163.976 130.505 158.708L130.504 158.707C136.299 155.287 141.468 150.92 145.8 145.82L145.801 145.822C154.689 135.358 160.051 121.806 160.051 107C160.051 73.8602 133.191 47.0003 100.051 47Z" fill="black"/>
<path d="M153.729 0C164.975 5.62488 175.522 13.1254 184.901 22.5049C190.714 28.3175 195.804 34.5794 200.175 41.1768L183.559 52.3125C179.901 46.7756 175.635 41.5215 170.76 36.6465C162.944 28.8304 154.154 22.58 144.783 17.8926L153.729 0Z" fill="black"/>
<path d="M55.3164 17.8916C45.9447 22.5791 37.1545 28.8299 29.3379 36.6465C24.5247 41.4597 20.3064 46.643 16.6797 52.1025L0 41.0625C4.35358 34.5073 9.41749 28.2837 15.1963 22.5049C24.5761 13.1251 35.1243 5.62499 46.3701 0L55.3164 17.8916Z" fill="black"/>
</svg>