<svg width="164" height="180" viewBox="0 0 164 180" fill="none" xmlns="http://www.w3.org/2000/svg">
<path fill-rule="nonzero" clip-rule="evenodd" d="M164 165L150 180L119.996 150.28C119.846 166.721 106.476 180 90 180C73.43 180 60 166.57 60 150H10V130H30V60L0 30L14 16L164 165Z M80 150L100 150C100 155.52 95.52 160 90 160 84.48 160 80 155.52 80 150Z M50 130L50 80.2842 99.7158 130 50 130Z" fill="black"/>
<path d="M100 10.8301C128.377 15.5909 150 40.2701 150 70V123.716L130 103.716V70C130 47.9086 112.091 30 90 30C80.555 30 71.8756 33.2742 65.0332 38.749L50.834 24.5498C58.9515 17.5472 68.964 12.6816 80 10.8301V0H100V10.8301Z" fill="black"/>
</svg>