<svg width="165" height="160" viewBox="0 0 165 160" fill="none" xmlns="http://www.w3.org/2000/svg">
<path fill-rule="nonzero" clip-rule="evenodd" d="M82.02 0C36.71 0 0 36.71 0 82.02C0 118.32 23.48 148.97 56.08 159.84C60.18 160.56 61.72 158.1 61.72 155.94C61.72 153.99 61.62 147.53 61.62 140.66C41.01 144.45 35.68 135.64 34.04 131.02C33.12 128.66 29.12 121.38 25.63 119.43C22.76 117.89 18.66 114.1 25.53 114C31.99 113.9 36.6 119.95 38.14 122.41C45.52 134.82 57.31 131.33 62.03 129.18C62.75 123.85 64.9 120.26 67.26 118.21C49.01 116.16 29.94 109.08 29.94 77.71C29.94 68.79 33.12 61.41 38.35 55.67C37.53 53.62 34.66 45.21 39.17 33.93C39.17 33.93 46.04 31.78 61.73 42.34C68.29 40.49 75.26 39.57 82.24 39.57C89.22 39.57 96.18 40.49 102.75 42.34C118.44 31.68 125.31 33.93 125.31 33.93C129.82 45.21 126.95 53.62 126.13 55.67C131.36 61.41 134.54 68.69 134.54 77.71C134.54 109.19 115.37 116.16 97.12 118.21C100.09 120.77 102.66 125.69 102.66 133.38C102.66 144.35 102.56 153.17 102.56 155.94C102.56 158.09 104.1 160.66 108.2 159.84C140.6 148.97 164.08 118.21 164.08 82.02C164.05 36.71 127.34 0 82.02 0Z" fill="black"/>
</svg>