<svg width="200" height="160" viewBox="0 0 200 160" fill="none" xmlns="http://www.w3.org/2000/svg">
<path d="M200 120H168.29C164.17 108.35 153.06 100 140 100C126.94 100 115.83 108.35 111.71 120H0V140H111.71C115.83 151.65 126.94 160 140 160C153.06 160 164.17 151.65 168.29 140H200V120ZM140 140C134.48 140 130 135.52 130 130C130 124.48 134.48 120 140 120C145.52 120 150 124.48 150 130C150 135.52 145.52 140 140 140Z" fill="black"/>
<path d="M0 40H31.71C35.83 51.65 46.94 60 60 60C73.06 60 84.17 51.65 88.29 40H200V20H88.29C84.17 8.35 73.06 0 60 0C46.94 0 35.83 8.35 31.71 20H0V40ZM60 20C65.52 20 70 24.48 70 30C70 35.52 65.52 40 60 40C54.48 40 50 35.52 50 30C50 24.48 54.48 20 60 20Z" fill="black"/>
</svg>