<svg width="200" height="160" viewBox="0 0 200 160" fill="none" xmlns="http://www.w3.org/2000/svg">
<path d="M140 0C173.137 5.79387e-06 200 26.8629 200 60C200 93.0905 173.213 119.924 140.14 119.999L114.141 120L139.99 145.85L125.851 159.99L75.8604 110L125.86 60L140 74.1396L114.141 100H140C162.091 100 180 82.0914 180 60C180 38.2537 162.647 20.5602 141.032 20.0127L140 20H60C37.9086 20 20 37.9086 20 60C20 81.7463 37.3534 99.4398 58.9678 99.9873L60 100V120C26.8629 120 -7.01189e-07 93.1371 0 60C8.69081e-06 26.8629 26.8629 3.1645e-06 60 0H140Z" fill="black"/>
</svg>