<svg width="160" height="160" viewBox="0 0 160 160" fill="none" xmlns="http://www.w3.org/2000/svg">
<path fill-rule="nonzero" clip-rule="evenodd" d="M100 110C100 96.938 108.348 85.8275 120 81.709V8.74228e-07L140 0V81.709C151.652 85.8275 160 96.938 160 110C160 123.062 151.652 134.172 140 138.291V160H120V138.291C108.348 134.172 100 123.062 100 110Z M120 110C120 104.477 124.477 100 130 100 135.523 100 140 104.477 140 110 140 115.523 135.523 120 130 120 124.477 120 120 115.523 120 110Z" fill="black"/>
<path fill-rule="nonzero" clip-rule="evenodd" d="M0 50C5.70957e-07 36.938 8.34839 25.8275 20 21.709V5.24537e-06L40 4.37114e-06L40 21.709C51.6516 25.8275 60 36.938 60 50C60 63.062 51.6516 74.1725 40 78.291L40 160H20L20 78.291C8.3484 74.1725 1.66417e-06 63.062 0 50Z M20 50C20 44.4772 24.4772 40 30 40 35.5228 40 40 44.4772 40 50 40 55.5228 35.5228 60 30 60 24.4772 60 20 55.5228 20 50Z" fill="black"/>
</svg>