<svg width="100" height="180" viewBox="0 0 100 180" fill="none" xmlns="http://www.w3.org/2000/svg">
<path fill-rule="nonzero" clip-rule="evenodd" d="M60 27.0195L88.3018 10.6797L98.3008 28L69.998 44.3389L98.3008 60.6797L88.3008 78L60 61.6602V81C82.8224 85.6327 100 105.81 100 130C100 157.614 77.6142 180 50 180C22.3858 180 0 157.614 0 130C0 105.81 17.1776 85.6327 40 81V61.6602L11.6992 78L1.69922 60.6797L30 44.3389L1.69922 28L11.6982 10.6797L40 27.0195V0H60V27.0195Z M50 100C66.5685 100 80 113.431 80 130 80 146.569 66.5685 160 50 160 33.4315 160 20 146.569 20 130 20 113.431 33.4315 100 50 100Z" fill="black"/>
</svg>