<svg width="160" height="160" viewBox="0 0 160 160" fill="none" xmlns="http://www.w3.org/2000/svg">
<path d="M1.74846e-06 140L160 140V120L0 120L1.74846e-06 140Z" fill="black"/>
<path d="M1.74846e-06 90L160 90V70L0 70L1.74846e-06 90Z" fill="black"/>
<path d="M90 160L90 7.62939e-06L70 6.75517e-06L70 160H90Z" fill="black"/>
<path d="M1.74846e-06 40L160 40V20L0 20L1.74846e-06 40Z" fill="black"/>
<path d="M140 160L140 0L120 2.62269e-06L120 160H140Z" fill="black"/>
<path d="M40 160L40 3.8147e-06L20 6.43738e-06L20 160H40Z" fill="black"/>
</svg>