<svg width="120" height="80" viewBox="0 0 120 80" fill="none" xmlns="http://www.w3.org/2000/svg">
<path d="M75 15C75 6.71573 68.2843 -3.62117e-07 60 0C51.7157 3.62117e-07 45 6.71573 45 15C45 23.2843 51.7157 30 60 30C68.2843 30 75 23.2843 75 15Z" fill="black"/>
<path d="M75 65C75 56.7157 68.2843 50 60 50C51.7157 50 45 56.7157 45 65C45 73.2843 51.7157 80 60 80C68.2843 80 75 73.2843 75 65Z" fill="black"/>
<path d="M30 15C30 6.71573 23.2843 -3.62117e-07 15 0C6.71573 3.62117e-07 -3.62117e-07 6.71573 0 15C3.62117e-07 23.2843 6.71573 30 15 30C23.2843 30 30 23.2843 30 15Z" fill="black"/>
<path d="M30 65C30 56.7157 23.2843 50 15 50C6.71573 50 -3.62117e-07 56.7157 0 65C3.62117e-07 73.2843 6.71573 80 15 80C23.2843 80 30 73.2843 30 65Z" fill="black"/>
<path d="M120 15C120 6.71573 113.284 -3.62117e-07 105 0C96.7157 3.62117e-07 90 6.71573 90 15C90 23.2843 96.7157 30 105 30C113.284 30 120 23.2843 120 15Z" fill="black"/>
<path d="M120 65C120 56.7157 113.284 50 105 50C96.7157 50 90 56.7157 90 65C90 73.2843 96.7157 80 105 80C113.284 80 120 73.2843 120 65Z" fill="black"/>
</svg>