<svg width="160" height="160" viewBox="0 0 160 160" fill="none" xmlns="http://www.w3.org/2000/svg">
<path d="M156.47 56.43C152.98 64.17 147.1 70.59 139.76 74.77C133.93 78.09 127.19 80 120 80C97.91 80 80 62.09 80 40C80 32.81 81.91 26.07 85.23 20.24C89.41 12.91 95.83 7.03 103.57 3.53C96.12 1.24 88.21 0 80 0C78.37 0 76.76 0.06 75.15 0.16C33.23 2.67 0 37.45 0 80C0 122.55 35.82 160 80 160C124.18 160 157.33 126.77 159.84 84.85C159.94 83.24 160 81.63 160 80C160 71.8 158.76 63.88 156.47 56.43ZM80 140C46.86 140 20 113.14 20 80C20 52.92 37.94 30.04 62.58 22.58C60.91 28.09 60 33.94 60 40C60 73.14 86.86 100 120 100C126.06 100 131.91 99.09 137.42 97.42C129.95 122.06 107.07 140 80 140Z" fill="black"/>
</svg>