<svg width="200" height="165" viewBox="0 0 200 165" fill="none" xmlns="http://www.w3.org/2000/svg">
<path d="M0 32.4199H20V52.4199H0V32.4199Z" fill="black"/>
<path d="M0 112.42H20V132.42H0V112.42Z" fill="black"/>
<path d="M200 122.42L157.574 164.847L143.432 150.704L161.716 132.42H140C121.647 132.42 104.316 125.694 90.9473 114.063L100.299 95.3604C110.476 106.086 124.757 112.42 140 112.42H161.716L145.864 96.5684L160.006 82.4258L200 122.42Z" fill="black"/>
<path d="M200 42.4268L185.858 56.5684L185.854 56.5645L159.999 82.4199L145.856 68.2773L161.714 52.4199H140C119.273 52.4199 100.325 64.1303 91.0557 82.6689L86.833 91.1152C74.1758 116.43 48.3023 132.42 20 132.42V112.42C40.6335 112.42 59.5021 100.814 68.8164 82.4199C59.5021 64.0261 40.6335 52.4199 20 52.4199V32.4199C43.8961 32.4199 66.0569 43.8216 79.9971 62.6074C93.9374 43.8202 116.103 32.4199 140 32.4199H161.709L143.432 14.1426L157.574 0L200 42.4268Z" fill="black"/>
</svg>