<svg width="98" height="140" viewBox="0 0 98 140" fill="none" xmlns="http://www.w3.org/2000/svg">
<path fill-rule="nonzero" clip-rule="evenodd" d="M12.0026 48.0751C4.77689 43.4098 0 35.3327 0 26.1499C0 11.7077 11.8159 0 26.3914 0H71.6086C86.1841 0 98 11.7077 98 26.1499C98 35.3327 93.2234 43.4098 85.9974 48.0751C93.2234 52.7403 98 60.8176 98 70.0002C98 84.4424 86.1841 96.1501 71.6086 96.1501H71.1274C64.2375 96.1501 57.9641 93.534 53.264 89.2495V113.612C53.264 128.215 41.1896 140 26.5111 140C11.9654 140 0 128.322 0 113.85C0 104.668 4.77665 96.5904 12.0022 91.9252C4.77665 87.2599 0 79.1828 0 70.0002C0 60.8176 4.77689 52.7403 12.0026 48.0751Z M53.264 70.0002C53.264 60.2247 61.2619 52.3003 71.1274 52.3003L71.6086 52.3003C81.4744 52.3003 89.472 60.2247 89.472 70.0002 89.472 79.7757 81.4744 87.7002 71.6086 87.7002L71.1274 87.7002C61.2619 87.7002 53.264 79.7757 53.264 70.0002Z M44.736 52.3003L44.736 87.7002 26.3314 87.7002C16.4934 87.668 8.52798 79.7559 8.52798 70.0002 8.52798 60.2247 16.5257 52.3003 26.3914 52.3003L44.736 52.3003Z M26.3914 96.1501L44.736 96.1501 44.736 113.612C44.736 123.489 36.5396 131.55 26.5111 131.55 16.6154 131.55 8.52798 123.596 8.52798 113.85 8.52798 104.094 16.4934 96.1821 26.3314 96.1501 26.3514 96.1501 26.3714 96.1501 26.3914 96.1501Z M44.736 43.8499L44.736 8.44993 26.3914 8.44993C16.5257 8.44993 8.52798 16.3744 8.52798 26.1499 8.52798 35.9254 16.5257 43.8499 26.3914 43.8499L44.736 43.8499Z M71.6086 43.8499C81.4744 43.8499 89.472 35.9254 89.472 26.1499 89.472 16.3744 81.4744 8.44993 71.6086 8.44993L53.264 8.44993 53.264 43.8499 71.6086 43.8499Z" fill="black"/>
</svg>