<svg width="160" height="160" viewBox="0 0 160 160" fill="none" xmlns="http://www.w3.org/2000/svg">
<path fill-rule="nonzero" clip-rule="evenodd" d="M40 0C58.6383 0 74.2988 12.7478 78.7393 30H110C121.046 30 130 38.9543 130 50V81.2598C147.252 85.7002 160 101.362 160 120C160 142.091 142.091 160 120 160C97.9086 160 80 142.091 80 120C80 101.362 92.7477 85.7002 110 81.2598V50H78.7383C75.1204 64.0557 64.0559 75.1215 50 78.7393V160H30V78.7393C12.7478 74.2988 0 58.6383 0 40C0 17.9086 17.9086 0 40 0Z M120 100C131.046 100 140 108.954 140 120 140 131.046 131.046 140 120 140 108.954 140 100 131.046 100 120 100 108.954 108.954 100 120 100Z M40 20C51.0457 20 60 28.9543 60 40 60 51.0457 51.0457 60 40 60 28.9543 60 20 51.0457 20 40 20 28.9543 28.9543 20 40 20Z" fill="black"/>
</svg>