<svg width="186" height="200" viewBox="0 0 186 200" fill="none" xmlns="http://www.w3.org/2000/svg">
<path d="M185.779 185.818L171.638 199.961L126.992 155.315C121.563 157.264 115.862 158.644 109.961 159.38V180H139.961V200H59.9609V180H89.9609V159.38C50.4979 154.459 19.9609 120.796 19.9609 80H39.9609C39.9609 113.137 66.8239 140 99.9609 140C103.632 140 107.225 139.668 110.714 139.037L0 28.3232L14.1416 14.1816L185.779 185.818Z" fill="black"/>
<path d="M179.961 80C179.961 99.9832 172.633 118.253 160.519 132.273L146.325 118.08C154.844 107.721 159.961 94.459 159.961 80H179.961Z" fill="black"/>
<path d="M99.9609 0C122.052 0 139.961 17.9086 139.961 40V80C139.961 88.9326 137.032 97.1805 132.083 103.838L117.626 89.3809C119.115 86.5829 119.961 83.3906 119.961 80V40C119.961 28.9543 111.007 20 99.9609 20C88.9152 20 79.9609 28.9543 79.9609 40V51.7158L60.6787 32.4336C64.2157 13.9604 80.4566 0 99.9609 0Z" fill="black"/>
</svg>