<svg width="200" height="120" viewBox="0 0 200 120" fill="none" xmlns="http://www.w3.org/2000/svg">
<path fill-rule="nonzero" clip-rule="evenodd" d="M100 0C133.265 3.7098e-06 153.558 14.0642 165.309 28.7529C171.058 35.9401 174.636 43.1007 176.785 48.4736C176.995 48.9986 177.191 49.5082 177.375 50H200V70H177.375C177.191 70.4918 176.995 71.0014 176.785 71.5264C174.636 76.8993 171.058 84.0599 165.309 91.2471C153.741 105.706 133.897 119.561 101.55 119.99L100 120H40C49.2343 111.85 56.5713 101.601 61.2676 90H0V70H66.4658C66.8744 66.7241 67.085 63.3866 67.085 60C67.085 56.6134 66.8744 53.2759 66.4658 50H0V30H61.2676C56.5713 18.3992 49.2343 8.15016 40 0H100Z M78.7627 20L100 20 101.244 20.0078C127.193 20.3414 141.571 31.0969 149.691 41.2471 153.942 46.5598 156.614 51.8994 158.215 55.9014 158.875 57.5524 159.341 58.9541 159.658 60 159.341 61.0459 158.875 62.4476 158.215 64.0986 156.614 68.1006 153.942 73.4402 149.691 78.7529 141.442 89.0641 126.735 100 100 100L78.7627 100C84.1149 87.7507 87.085 74.2223 87.085 60 87.085 45.7777 84.1149 32.2493 78.7627 20Z" fill="black"/>
</svg>