<svg width="160" height="200" viewBox="0 0 160 200" fill="none" xmlns="http://www.w3.org/2000/svg">
<path d="M30.005 70L44.145 84.14L70.005 58.28V90H90.005V58.28L115.855 84.13L129.995 69.99L80.005 20L30.005 70Z" fill="black"/>
<path d="M129.995 130L115.855 115.86L89.995 141.72V110L69.995 110V141.72L44.145 115.87L30.005 130.01L79.995 180L129.995 130Z" fill="black"/>
<path d="M2.62268e-06 0L0 20L160 20V2.09815e-05L2.62268e-06 0Z" fill="black"/>
<path d="M2.62268e-06 180L0 200L160 200V180L2.62268e-06 180Z" fill="black"/>
<path d="M70.005 70H90.005V130H70.005V70Z" fill="black"/>
</svg>