<svg width="160" height="200" viewBox="0 0 160 200" fill="none" xmlns="http://www.w3.org/2000/svg">
<path d="M80 150C85.5228 150 90 154.477 90 160C90 165.523 85.5228 170 80 170C74.4772 170 70 165.523 70 160C70 154.477 74.4772 150 80 150Z" fill="black"/>
<path d="M80 90C85.5228 90 90 94.4772 90 100C90 105.523 85.5228 110 80 110C74.4772 110 70 105.523 70 100C70 94.4772 74.4772 90 80 90Z" fill="black"/>
<path d="M80 30C85.5228 30 90 34.4772 90 40C90 45.5228 85.5228 50 80 50C74.4772 50 70 45.5228 70 40C70 34.4772 74.4772 30 80 30Z" fill="black"/>
<path fill-rule="nonzero" clip-rule="evenodd" d="M160 200H0V0H160V200Z M20 180H140V140H20V180Z M20 120L20 80 140 80 140 120 20 120Z M20 60L20 20 140 20 140 60 20 60Z" fill="black"/>
</svg>