<svg width="184" height="181" viewBox="0 0 184 181" fill="none" xmlns="http://www.w3.org/2000/svg">
<path d="M183.362 132.43C182.079 128.954 179.642 127.096 176.868 125.558C176.339 125.253 175.874 125.013 175.473 124.821C174.64 124.404 173.806 123.988 172.956 123.539C164.314 118.958 157.564 113.175 152.882 106.335C151.295 104.028 150.205 101.93 149.435 100.232C149.034 99.0943 149.05 98.4375 149.339 97.8448C149.563 97.3962 150.141 96.9317 150.445 96.6914C151.936 95.7142 153.459 94.721 154.502 94.0482C156.361 92.8468 157.821 91.9017 158.767 91.2449C162.31 88.7619 164.795 86.1348 166.35 83.1873C168.531 79.0383 168.819 74.2967 167.12 69.8433C164.779 63.66 158.927 59.8154 151.84 59.8154C150.365 59.8154 148.874 59.9756 147.399 60.296C147.014 60.3761 146.629 60.4722 146.244 60.5683C146.309 56.3713 146.212 51.8859 145.844 47.4967C144.513 32.0543 139.109 23.9646 133.45 17.5089C131.093 14.8177 127.004 10.877 120.863 7.36879C112.302 2.48296 102.601 0 92.0192 0C81.4371 0 71.769 2.48296 63.1911 7.36879C57.0182 10.893 52.9136 14.8337 50.5727 17.5089C44.9289 23.9646 39.5257 32.0543 38.1789 47.4967C37.794 51.8859 37.7139 56.3713 37.778 60.5683C37.3932 60.4722 37.0084 60.3761 36.6236 60.296C35.1485 59.9756 33.6574 59.8154 32.1823 59.8154C25.0955 59.8154 19.2433 63.66 16.9025 69.8433C15.2189 74.2967 15.4915 79.0383 17.6721 83.1873C19.2273 86.1348 21.7125 88.7619 25.2559 91.2449C26.2019 91.9017 27.6609 92.8468 29.5208 94.0482C30.5149 94.689 31.9899 95.6501 33.4169 96.5953C33.6414 96.7394 34.411 97.3161 34.6675 97.8448C34.9561 98.4535 34.9722 99.1263 34.5232 100.344C33.7697 102.026 32.6794 104.06 31.1402 106.319C26.5546 113.015 20.0129 118.686 11.6435 123.219C7.21824 125.574 2.60061 127.128 0.660557 132.414C-0.814522 136.403 0.147486 140.936 3.88328 144.765C5.11786 146.078 6.65707 147.248 8.59712 148.321C13.1667 150.836 17.0468 152.069 20.0931 152.918C20.6222 153.079 21.8728 153.479 22.418 153.96C23.7808 155.145 23.5884 156.939 25.4002 159.55C26.4905 161.184 27.7571 162.29 28.7993 163.011C32.5992 165.638 36.8641 165.798 41.3855 165.974C45.4741 166.134 50.1077 166.31 55.3828 168.057C57.5793 168.777 59.8561 170.171 62.4856 171.789C68.8188 175.682 77.4929 181 92.0032 181C106.513 181 115.236 175.65 121.617 171.741C124.23 170.139 126.491 168.745 128.624 168.041C133.915 166.294 138.548 166.118 142.621 165.958C147.142 165.782 151.407 165.622 155.207 162.995C156.41 162.178 157.901 160.832 159.087 158.781C160.386 156.571 160.354 155.017 161.572 153.944C162.069 153.511 163.16 153.127 163.753 152.951C166.831 152.102 170.76 150.868 175.409 148.305C177.462 147.168 179.081 145.934 180.348 144.508C180.364 144.492 180.38 144.476 180.396 144.46C183.891 140.696 184.773 136.291 183.33 132.414M170.471 139.318C162.615 143.659 157.372 143.195 153.315 145.806C149.868 148.033 151.904 152.822 149.403 154.552C146.325 156.683 137.202 154.408 125.433 158.285C115.717 161.489 109.528 170.716 92.0513 170.716C74.5748 170.716 68.5142 161.537 58.6696 158.285C46.9011 154.408 37.778 156.683 34.6996 154.552C32.1984 152.822 34.2346 148.033 30.7874 145.806C26.7149 143.195 21.488 143.659 13.6316 139.318C8.62919 136.563 11.4671 134.849 13.1346 134.032C41.626 120.256 46.1635 98.9821 46.3719 97.3802C46.6125 95.4739 46.885 93.9681 44.7846 92.0138C42.7484 90.1396 33.7215 84.5489 31.2203 82.8028C27.0677 79.9034 25.2559 77.0199 26.5867 73.4637C27.5166 71.0127 29.8094 70.0836 32.2465 70.0836C33 70.0836 33.7697 70.1798 34.5072 70.3399C39.0607 71.3331 43.4859 73.6078 46.0352 74.2166C46.388 74.2967 46.6926 74.3447 46.9812 74.3447C48.3441 74.3447 48.8251 73.6559 48.7289 72.102C48.4403 67.1361 47.7348 57.4285 48.5204 48.3777C49.5947 35.9149 53.6191 29.7315 58.397 24.269C60.6898 21.6418 71.4643 10.2683 92.0833 10.2683C112.702 10.2683 123.477 21.6418 125.77 24.269C130.548 29.7315 134.572 35.9149 135.646 48.3777C136.432 57.4446 135.758 67.1361 135.438 72.102C135.326 73.736 135.823 74.3447 137.185 74.3447C137.458 74.3447 137.779 74.3127 138.131 74.2166C140.681 73.5918 145.106 71.3171 149.66 70.3399C150.397 70.1798 151.167 70.0836 151.92 70.0836C154.341 70.0836 156.65 71.0127 157.58 73.4637C158.927 77.0199 157.099 79.9034 152.946 82.8028C150.445 84.5489 141.418 90.1235 139.382 92.0138C137.282 93.9681 137.554 95.4579 137.795 97.3802C138.003 98.9821 142.541 120.256 171.032 134.032C172.7 134.833 175.538 136.547 170.535 139.318" fill="black"/>
</svg>