<svg width="160" height="178" viewBox="0 0 160 178" fill="none" xmlns="http://www.w3.org/2000/svg">
<path fill-rule="nonzero" clip-rule="evenodd" d="M0 63.0195C0 77.6994 3.91977 92.6598 11.6396 107.47C17.4396 118.58 25.3997 129.65 35.3096 140.38C51.7476 158.168 68.2359 169.207 68.9297 169.67L80.0195 177.04L91.0996 169.65C91.7896 169.18 108.27 158.12 124.7 140.32C134.61 129.59 142.57 118.51 148.36 107.41C156.08 92.6002 160 77.66 160 63V0H0V63.0195Z M80 153L80 20 20 20 20 63C20 113.12 80 153 80 153Z" fill="black"/>
</svg>