<svg width="200" height="120" viewBox="0 0 200 120" fill="none" xmlns="http://www.w3.org/2000/svg">
<path fill-rule="nonzero" clip-rule="evenodd" d="M100.007 0C133.268 0.00193035 153.558 14.0652 165.309 28.7529C171.058 35.9401 174.636 43.1007 176.785 48.4736C176.995 48.9986 177.191 49.5082 177.375 50H200V70H177.375C177.191 70.4918 176.995 71.0014 176.785 71.5264C174.636 76.8993 171.058 84.0599 165.309 91.2471C153.558 105.935 133.268 119.997 100.007 119.999L72.915 120C82.1494 111.85 89.4863 101.601 94.1826 90H71.9717C61.5973 107.934 42.2082 120 20 120V100C30.1433 100 39.4031 96.2224 46.4541 90H0V70H58.7393C59.5619 66.8038 60 63.453 60 60C60 56.547 59.5619 53.1962 58.7393 50H0V30H46.4541C39.4031 23.7776 30.1433 20 20 20V0C42.2082 0 61.5973 12.0663 71.9717 30H94.1826C89.4863 18.3992 82.1494 8.15016 72.915 0H100.007Z M112.025 20.8066C131.313 23.5139 142.773 32.5996 149.691 41.2471 153.942 46.5598 156.614 51.8994 158.215 55.9014 158.875 57.5524 159.341 58.9541 159.658 60 159.341 61.0459 158.875 62.4476 158.215 64.0986 156.614 68.1006 153.942 73.4402 149.691 78.7529 142.773 87.4003 131.313 96.4851 112.025 99.1924 117.158 87.157 120 73.9106 120 60 120 46.0891 117.158 32.8423 112.025 20.8066Z M79.1699 50L99.3809 50C99.7894 53.2759 100 56.6134 100 60 100 63.3866 99.7894 66.7241 99.3809 70L79.1699 70C79.7155 66.7479 80 63.4072 80 60 80 56.5928 79.7155 53.2521 79.1699 50Z" fill="black"/>
</svg>