<svg width="200" height="200" viewBox="0 0 200 200" fill="none" xmlns="http://www.w3.org/2000/svg">
<path d="M140 100H110.68L129.43 150H108.07L100 128.48L91.9297 150H70.5703L89.3203 100H60V80H140V100Z" fill="black"/>
<path d="M100 40C108.284 40 115 46.7157 115 55C115 63.2843 108.284 70 100 70C91.7157 70 85 63.2843 85 55C85 46.7157 91.7157 40 100 40Z" fill="black"/>
<path fill-rule="nonzero" clip-rule="evenodd" d="M100 0C155.228 0 200 44.7715 200 100C200 155.228 155.228 200 100 200C44.7715 200 0 155.228 0 100C0 44.7715 44.7715 0 100 0Z M100 20C55.8172 20 20 55.8172 20 100C20 144.183 55.8172 180 100 180C144.183 180 180 144.183 180 100C180 55.8172 144.183 20 100 20Z" fill="black"/>
</svg>