<svg width="120" height="200" viewBox="0 0 120 200" fill="none" xmlns="http://www.w3.org/2000/svg">
<path d="M50 160C50 154.477 54.4772 150 60 150C65.5229 150 70 154.477 70 160C70 165.523 65.5229 170 60 170C54.4772 170 50 165.523 50 160Z" fill="black"/>
<path fill-rule="nonzero" clip-rule="evenodd" d="M0 20C0 9.12703 8.67646 0.280848 19.4834 0.00683946L20 3.49691e-06L100 0C111.046 4.82823e-07 120 8.95431 120 20L120 180C120 191.046 111.046 200 100 200H20C8.95431 200 7.47664e-06 191.046 6.99382e-06 180L0 20Z M100 180L20 180 20 20 100 20 100 180Z" fill="black"/>
</svg>