<svg width="120" height="200" viewBox="0 0 120 200" fill="none" xmlns="http://www.w3.org/2000/svg">
<path fill-rule="nonzero" clip-rule="evenodd" d="M60 0C93.1371 0 120 26.8629 120 60V140C120 173.137 93.1371 200 60 200C26.8629 200 0 173.137 0 140V60C2.0619e-06 26.8629 26.8629 0 60 0Z M20 140L20 90 100 90 100 140C100 162.091 82.0914 180 60 180 37.9086 180 20 162.091 20 140Z M70 70L70 21.2598C87.2523 25.7002 100 41.3616 100 60L100 70 70 70Z M50 21.2598L50 70 20 70 20 60C20 41.3616 32.7477 25.7002 50 21.2598Z" fill="black"/>
</svg>