<svg width="160" height="160" viewBox="0 0 160 160" fill="none" xmlns="http://www.w3.org/2000/svg">
<path fill-rule="nonzero" clip-rule="evenodd" d="M130 0C146.57 0 160 13.43 160 30C160 46.57 146.57 60 130 60C121.936 60 114.616 56.8183 109.226 51.6426L59.7314 75.9834C59.9072 77.2973 60 78.6379 60 80C60 81.4155 59.8986 82.8076 59.709 84.1709L109.112 108.466C114.513 103.226 121.879 100 130 100C146.57 100 160 113.43 160 130C160 146.57 146.57 160 130 160C113.43 160 100 146.57 100 130C100 128.774 100.075 127.566 100.218 126.379L50.4805 101.92C45.1191 106.931 37.9188 110 30 110C13.43 110 0 96.57 0 80C0 63.43 13.43 50 30 50C37.9757 50 45.2234 53.112 50.5967 58.1875L100.235 33.7764C100.08 32.5394 100 31.2791 100 30C100 13.43 113.43 0 130 0Z M130 120C124.48 120 120 124.48 120 130C120 135.52 124.48 140 130 140C135.52 140 140 135.52 140 130C140 124.48 135.52 120 130 120Z M30 70C24.48 70 20 74.48 20 80C20 85.52 24.48 90 30 90C35.52 90 40 85.52 40 80C40 74.48 35.52 70 30 70Z M130 20C124.48 20 120 24.48 120 30C120 35.52 124.48 40 130 40C135.52 40 140 35.52 140 30C140 24.48 135.52 20 130 20Z" fill="black"/>
</svg>