<svg width="120" height="200" viewBox="0 0 120 200" fill="none" xmlns="http://www.w3.org/2000/svg">
<path d="M60 40C65.5228 40 70 44.4772 70 50C70 55.5228 65.5228 60 60 60C54.4772 60 50 55.5228 50 50C50 44.4772 54.4772 40 60 40Z" fill="black"/>
<path fill-rule="nonzero" clip-rule="evenodd" d="M60 0C93.1371 0 120 26.8629 120 60V140C120 173.137 93.1371 200 60 200C26.8629 200 0 173.137 0 140V60C2.0619e-06 26.8629 26.8629 0 60 0Z M60 20C82.0914 20 100 37.9086 100 60L100 140C100 162.091 82.0914 180 60 180 37.9086 180 20 162.091 20 140L20 60C20 37.9086 37.9086 20 60 20Z" fill="black"/>
</svg>