<svg width="200" height="200" viewBox="0 0 200 200" fill="none" xmlns="http://www.w3.org/2000/svg">
<path d="M128.568 72.0059C121.308 64.5979 111.192 60 100 60C77.9086 60 60 77.9086 60 100C60 122.091 77.9086 140 100 140C110.975 140 120.916 135.579 128.144 128.422L142.287 142.565C131.44 153.342 116.498 160 100 160C66.8629 160 40 133.137 40 100C40 66.8629 66.8629 40 100 40C116.715 40 131.833 46.8343 142.713 57.8613L128.568 72.0059Z" fill="black"/>
<path fill-rule="nonzero" clip-rule="evenodd" d="M200 100C200 155.228 155.228 200 100 200C44.7715 200 -2.41411e-06 155.228 0 100C2.41411e-06 44.7715 44.7715 -2.41411e-06 100 0C155.228 2.41411e-06 200 44.7715 200 100Z M180 100C180 55.8172 144.183 20 100 20C55.8172 20 20 55.8172 20 100C20 144.183 55.8172 180 100 180C144.183 180 180 144.183 180 100Z" fill="black"/>
</svg>