<svg width="180" height="160" viewBox="0 0 180 160" fill="none" xmlns="http://www.w3.org/2000/svg">
<path d="M160 120H180V140H160V160H140V140H120V120H140V100H160V120Z" fill="black"/>
<path d="M120 20H160V80H140V40H112L91.8574 20H68.1426L48 40H20V120H100V140H0V20H40L60 0H100L120 20Z" fill="black"/>
<path fill-rule="nonzero" clip-rule="evenodd" d="M80 50C96.5685 50 110 63.4315 110 80C110 96.5685 96.5685 110 80 110C63.4315 110 50 96.5685 50 80C50 63.4315 63.4315 50 80 50Z M80 70C74.4772 70 70 74.4772 70 80C70 85.5228 74.4772 90 80 90C85.5228 90 90 85.5228 90 80C90 74.4772 85.5228 70 80 70Z" fill="black"/>
<path d="M40 50.001C53.3333 49.8186 53.3333 70.1915 40 69.999C26.6667 70.1814 26.6667 49.8085 40 50.001Z" fill="black"/>
</svg>