<svg width="200" height="200" viewBox="0 0 200 200" fill="none" xmlns="http://www.w3.org/2000/svg">
<path d="M72.0059 71.4316C64.5979 78.6916 60 88.8083 60 100C60 122.091 77.9086 140 100 140C122.091 140 140 122.091 140 100C140 89.0251 135.579 79.0837 128.422 71.8564L142.565 57.7129C153.342 68.5596 160 83.5022 160 100C160 133.137 133.137 160 100 160C66.8629 160 40 133.137 40 100C40 83.2854 46.8343 68.1668 57.8613 57.2871L72.0059 71.4316Z" fill="black"/>
<path d="M110 100H90V40H110V100Z" fill="black"/>
<path fill-rule="nonzero" clip-rule="evenodd" d="M100 0C155.228 0 200 44.7715 200 100C200 155.228 155.228 200 100 200C44.7715 200 0 155.228 0 100C0 44.7715 44.7715 0 100 0Z M100 20C55.8172 20 20 55.8172 20 100C20 144.183 55.8172 180 100 180C144.183 180 180 144.183 180 100C180 55.8172 144.183 20 100 20Z" fill="black"/>
</svg>