<svg width="160" height="160" viewBox="0 0 160 160" fill="none" xmlns="http://www.w3.org/2000/svg">
<path fill-rule="nonzero" clip-rule="evenodd" d="M40 0C62.0914 3.86258e-06 80 17.9086 80 40C80 58.6383 67.2522 74.2988 50 78.7393V80C50 96.5685 63.4315 110 80 110H81.2607C85.7012 92.7478 101.362 80 120 80C142.091 80 160 97.9086 160 120C160 142.091 142.091 160 120 160C101.362 160 85.7012 147.252 81.2607 130H80C68.7436 130 58.3567 126.279 50 120.002V160H30V78.7393C12.7478 74.2988 -3.25883e-06 58.6383 0 40C3.86258e-06 17.9086 17.9086 -3.86258e-06 40 0Z M120 100C131.046 100 140 108.954 140 120 140 131.046 131.046 140 120 140 108.954 140 100 131.046 100 120 100 108.954 108.954 100 120 100Z M40 20C51.0457 20 60 28.9543 60 40 60 51.0457 51.0457 60 40 60 28.9543 60 20 51.0457 20 40 20 28.9543 28.9543 20 40 20Z" fill="black"/>
</svg>