<svg width="160" height="160" viewBox="0 0 160 160" fill="none" xmlns="http://www.w3.org/2000/svg">
<path fill-rule="nonzero" clip-rule="evenodd" d="M50 81.2598C64.0561 84.8775 75.1214 95.944 78.7393 110H80C96.5685 110 110 96.5685 110 80V78.7393C92.7478 74.2988 80 58.6383 80 40C80 17.9086 97.9086 1.84898e-06 120 0C142.091 1.93129e-06 160 17.9086 160 40C160 58.6383 147.252 74.2988 130 78.7393V80C130 107.614 107.614 130 80 130H78.7393C74.2988 147.252 58.6383 160 40 160C17.9086 160 1.84897e-06 142.091 0 120C1.62942e-06 101.362 12.7477 85.7002 30 81.2598V0H50V81.2598Z M40 100C51.0457 100 60 108.954 60 120 60 131.046 51.0457 140 40 140 28.9543 140 20 131.046 20 120 20 108.954 28.9543 100 40 100Z M120 20C131.046 20 140 28.9543 140 40 140 51.0457 131.046 60 120 60 108.954 60 100 51.0457 100 40 100 28.9543 108.954 20 120 20Z" fill="black"/>
</svg>