<svg width="180" height="180" viewBox="0 0 180 180" fill="none" xmlns="http://www.w3.org/2000/svg">
<path d="M42.9375 160C37.4147 160 32.9375 164.477 32.9375 170C32.9375 175.523 37.4147 180 42.9375 180C48.4603 180 52.9375 175.523 52.9375 170C52.9375 164.477 48.4603 160 42.9375 160Z" fill="black"/>
<path d="M106.875 118.08L128.796 139.999L107.582 161.213L121.725 175.355L142.938 154.142L164.858 176.062L179 161.92L157.08 140L178.293 118.787L164.15 104.645L142.938 125.857L121.018 103.938L106.875 118.08Z" fill="black"/>
<path d="M3.9375 150H81.9375V130H3.9375V150Z" fill="black"/>
<path d="M42.9375 100C37.4147 100 32.9375 104.477 32.9375 110C32.9375 115.523 37.4147 120 42.9375 120C48.4603 120 52.9375 115.523 52.9375 110C52.9375 104.477 48.4603 100 42.9375 100Z" fill="black"/>
<path d="M50 30H80V50H50V80H30V50H0V30H30V0H50V30Z" fill="black"/>
<path d="M180 50H100V30H180V50Z" fill="black"/>
</svg>