<svg width="167" height="160" viewBox="0 0 167 160" fill="none" xmlns="http://www.w3.org/2000/svg">
<path d="M41.5557 37.0059C59.8447 18.7092 86.7808 14.0959 109.279 23.3652C114.257 25.2163 118.595 27.8508 121.979 30.2998L103.192 38.9854C85.6999 31.6382 65.6612 36.6355 53.4307 48.8809C37.0201 65.2967 33.602 93.6695 52.4834 112.22L52.9189 112.67L0 159.999C3.35618 155.372 7.52322 151.001 11.6758 146.63C23.3944 134.299 35.0281 122.082 27.9316 104.811C18.4316 81.7011 23.9636 54.6191 41.5557 37.0059Z" fill="black"/>
<path d="M165.43 1.72266C148.008 25.7433 139.504 37.4904 146.33 66.8789L146.287 66.8369C150.994 86.8418 145.96 109.026 129.705 125.301C109.212 145.833 76.4161 150.403 49.4092 131.922L68.2383 123.193C85.4746 129.971 104.333 126.994 117.886 113.426C131.439 99.8564 134.483 80.0929 127.671 63.6475C126.376 60.529 122.494 59.7454 119.777 61.7529L64.3564 102.718L143.741 22.8818V22.9531L166.667 0C166.255 0.583735 165.842 1.15316 165.43 1.72266Z" fill="black"/>
</svg>