<svg width="160" height="152" viewBox="0 0 160 152" fill="none" xmlns="http://www.w3.org/2000/svg">
<path fill-rule="nonzero" clip-rule="evenodd" d="M80.0009 138.913C77.5092 141.18 74.7387 143.216 71.7035 144.969C48.8554 158.16 19.5961 150.32 6.40482 127.472C-6.78651 104.624 1.05414 75.3646 23.9022 62.1733C26.9375 60.4206 30.0854 59.0395 33.2943 58.015C32.5771 54.7242 32.1988 51.3066 32.1988 47.8021C32.1988 21.4194 53.6182 0 80.0009 0C106.384 0 127.803 21.4194 127.803 47.8021C127.803 51.3066 127.425 54.7242 126.707 58.015C129.916 59.0395 133.064 60.4206 136.1 62.1733C158.948 75.3646 166.788 104.624 153.597 127.472C140.406 150.32 111.146 158.16 88.2983 144.969C85.2631 143.216 82.4925 141.18 80.0009 138.913Z M41.7312 76.4351C29.3022 79.2081 20.0011 90.3119 20.0011 103.571C20.0011 118.915 32.4585 131.373 47.8025 131.373C55.8928 131.373 63.1798 127.91 68.2625 122.387C72.8199 117.434 75.6046 110.825 75.6046 103.571C75.6046 100.681 75.1629 97.8929 74.3429 95.2718C71.2952 94.912 68.3359 94.2648 65.4911 93.358C55.9086 90.3052 47.6338 84.3091 41.7312 76.4351Z M91.7477 84.7483C92.9567 87.5639 93.8744 90.4464 94.5107 93.358C96.6566 103.179 95.6037 113.339 91.7402 122.385C96.822 127.908 104.109 131.371 112.199 131.371C127.542 131.371 139.999 118.914 139.999 103.571C139.999 90.3128 130.698 79.2098 118.27 76.4367C116.315 76.0009 114.283 75.7712 112.199 75.7712C104.113 75.7712 96.8295 79.2306 91.7477 84.7483Z M106.536 56.112C107.358 53.4876 107.801 50.6962 107.801 47.8021C107.801 32.459 95.344 20.0024 80.0009 20.0024C64.6578 20.0024 52.2012 32.459 52.2012 47.8021C52.2012 50.6962 52.6438 53.4876 53.4663 56.112C56.4096 65.5074 64.2094 72.7636 73.9196 74.9337C75.7549 72.4755 77.794 70.2369 80.0009 68.227C87.4357 61.4552 96.7652 57.2868 106.536 56.112Z" fill="black"/>
</svg>