<svg width="139" height="160" viewBox="0 0 139 160" fill="none" xmlns="http://www.w3.org/2000/svg">
<path fill-rule="nonzero" clip-rule="evenodd" d="M68.3662 0.253762C68.7046 -0.084627 69.3808 -0.0845475 70.0576 0.253762L137.747 39.1747C138.085 39.5131 138.424 39.8515 138.424 40.5282C138.424 41.2051 138.086 41.5442 137.747 41.8827L105.257 62.5272C104.918 62.8656 104.241 62.8656 103.564 62.5272L69.043 42.2206L37.5674 61.5126V96.3485C37.5675 96.3563 37.5684 96.3641 37.5684 96.3719V98.7411L68.7236 117.837C68.8718 117.825 69.0209 117.832 69.1641 117.863C69.3465 117.739 69.558 117.65 69.7764 117.602L102.549 98.4032C102.887 98.0647 103.564 98.0647 104.241 98.4032L138.086 118.371C138.424 118.709 138.763 119.048 138.763 119.724C138.763 120.401 138.424 120.741 138.086 121.079L70.0576 160H69.043C68.7045 160 68.3662 159.999 68.3662 159.661L0.676758 120.401C0.338383 120.063 0 119.724 0 119.048V40.5282C0.000109022 39.8515 0.338367 39.5131 0.676758 39.1747L67.3906 0.814309C67.6116 0.551021 67.9202 0.370386 68.2939 0.294777L68.3662 0.253762Z M70.3955 156.172L70.3955 121.013 100.184 138.95 70.3955 156.172Z M38.6992 139.215L67.0107 122.167 67.0107 155.765 38.6992 139.215Z M4.09668 118.985L34.1836 102.061 34.1836 136.574 4.09668 118.985Z M37.5684 136.374L37.5684 102.43 65.5195 119.543 37.5684 136.374Z M73.083 119.107L101.534 102.439 101.534 136.24 73.083 119.107Z M104.919 136.213L104.919 102.434 134.024 119.387 104.919 136.213Z M3.0459 116.107L3.0459 82.495 3.04688 82.4959 31.9053 99.8729 3.0459 116.107Z M5.0166 80.1581L34.1826 62.5956 34.1826 97.7206 5.0166 80.1581Z M3.0459 77.8221L3.0459 42.5594 3.04688 42.5604 32.3271 60.1903 3.0459 77.8221Z M104.919 58.7147L104.919 23.9608 133.686 40.5282 104.919 58.7147Z M4.88867 40.1454L34.1836 23.3192 34.1836 57.786 4.88867 40.1454Z M72.0527 40.2079L101.534 22.4569 101.534 57.5506 72.0527 40.2079Z M37.5684 57.1727L37.5684 23.3338 65.7734 40.1913 37.5684 57.1727Z M70.3955 37.6844L70.3955 4.07798 98.9219 20.5067 70.3955 37.6844Z M39.0713 20.5126L67.0107 4.46665 67.0107 37.2127 39.0713 20.5126Z" fill="black"/>
</svg>