<svg width="188" height="172" viewBox="0 0 188 172" fill="none" xmlns="http://www.w3.org/2000/svg">
<path d="M132.821 0.000243876C117.611 0.000243876 103.841 6.17024 93.891 16.1502C83.931 6.18024 70.171 0.000243876 54.961 0.000243876C6.02102 -0.139756 -18.299 60.0302 16.111 93.9302L16.071 93.9702L93.851 171.75L171.631 93.9702C206.101 60.0702 181.771 -0.139756 132.821 0.000243876ZM167.821 55.0002C167.821 64.7102 163.871 73.4902 157.481 79.8302C137.671 99.6502 113.711 123.6 93.881 143.43C74.041 123.59 50.071 99.6202 30.241 79.7902C8.33102 58.2102 23.791 19.9102 54.951 20.0002C74.241 19.8502 90.081 36.0502 89.951 55.0002H97.821C97.801 45.7602 101.581 36.7502 107.991 30.3402C129.541 8.37024 167.921 23.8302 167.821 55.0002Z" fill="black"/>
</svg>