<svg width="161" height="161" viewBox="0 0 161 161" fill="none" xmlns="http://www.w3.org/2000/svg">
<path d="M136.832 22.9944C151.746 37.6057 161 57.9723 161 80.5002C161 124.959 124.959 161 80.5 161C36.0412 161 0.000125776 124.959 0 80.5002C0 58.0865 9.16041 37.8123 23.9414 23.217L38.084 37.3596C26.9221 48.3352 20 63.6094 20 80.5002C20.0001 113.913 47.0868 141 80.5 141C113.913 141 141 113.913 141 80.5002C141 63.4951 133.983 48.1291 122.688 37.1379L136.832 22.9944Z" fill="black"/>
<path d="M90 0H70V80H90V0Z" fill="black"/>
</svg>