<svg width="180" height="160" viewBox="0 0 180 160" fill="none" xmlns="http://www.w3.org/2000/svg">
<path d="M180 150H160V118.758C146.353 143.353 120.121 160 90 160C52.7232 160 21.4014 134.505 12.5205 100H33.415C41.6518 123.304 63.8757 140 90 140C116.124 140 138.348 123.304 146.585 100H110V80H180V150Z" fill="black"/>
<path d="M90 0C127.277 0 158.599 25.4955 167.479 60H146.585C138.348 36.6963 116.124 20 90 20C63.8757 20 41.6518 36.6963 33.415 60H73V80H0V10H20V41.2412C33.6471 16.6465 59.8793 0 90 0Z" fill="black"/>
</svg>