<svg width="162" height="157" viewBox="0 0 162 157" fill="none" xmlns="http://www.w3.org/2000/svg">
<path d="M159.31 61.7584L159.082 61.1763L137.032 3.62956C136.583 2.50168 135.788 1.54489 134.762 0.896474C133.736 0.259077 132.538 -0.047914 131.331 0.0169511C130.124 0.0818162 128.967 0.515414 128.014 1.2592C127.072 2.02434 126.389 3.06113 126.057 4.22848L111.168 49.78H50.88L35.9914 4.22848C35.6685 3.05477 34.9837 2.01278 34.0344 1.25076C33.0819 0.506977 31.924 0.0733789 30.7172 0.00851381C29.5104 -0.0563513 28.3128 0.25064 27.286 0.888037C26.2622 1.53907 25.4685 2.49502 25.0169 3.62113L2.92438 61.1426L2.70505 61.7247C-0.469191 70.0185 -0.860999 79.1194 1.5887 87.6553C4.0384 96.1913 9.19681 103.699 16.2862 109.048L16.3621 109.107L16.5645 109.25L50.1546 134.405L66.7725 146.982L76.895 154.624C78.0791 155.523 79.5249 156.01 81.0115 156.01C82.4982 156.01 83.944 155.523 85.1281 154.624L95.2506 146.982L111.868 134.405L145.661 109.098L145.745 109.031C152.819 103.682 157.965 96.1811 160.411 87.6567C162.857 79.1323 162.471 70.0443 159.31 61.7584Z" fill="black"/>
</svg>