<svg width="162" height="113" viewBox="0 0 162 113" fill="none" xmlns="http://www.w3.org/2000/svg">
<path fill-rule="nonzero" clip-rule="evenodd" d="M80.6396 0C80.7892 7.4453e-06 131.095 0.00493288 143.648 3.37207C150.592 5.23084 156.049 10.6875 157.907 17.6309C161.266 30.2035 161.279 56.4502 161.279 56.4502C161.279 56.5067 161.276 82.7103 157.907 95.2695C156.049 102.213 150.592 107.67 143.648 109.528C131.095 112.896 80.7892 112.9 80.6396 112.9C80.6396 112.9 30.2037 112.901 17.6309 109.528C10.6875 107.67 5.23074 102.213 3.37207 95.2695C0.00365019 82.7103 3.92085e-06 56.5067 0 56.4502C0 56.4502 1.66893e-06 30.2035 3.37207 17.6309C5.23074 10.6874 10.6875 5.23074 17.6309 3.37207C30.2035 -6.1512e-05 80.6396 0 80.6396 0Z M64.4961 80.6416L106.396 56.4521L64.4961 32.2637V80.6416Z" fill="black"/>
</svg>