<svg width="160" height="200" viewBox="0 0 160 200" fill="none" xmlns="http://www.w3.org/2000/svg">
<path d="M70 160C70 154.477 74.4772 150 80 150C85.5229 150 90 154.477 90 160C90 165.523 85.5229 170 80 170C74.4772 170 70 165.523 70 160Z" fill="black"/>
<path fill-rule="nonzero" clip-rule="evenodd" d="M0 20C0 9.12703 8.67646 0.28085 19.4834 0.00684121L20 5.24537e-06L140 0C151.046 4.82823e-07 160 8.95431 160 20V180C160 191.046 151.046 200 140 200H20C8.95431 200 7.47664e-06 191.046 6.99382e-06 180L0 20Z M140 180L20 180 20 20 140 20 140 180Z" fill="black"/>
</svg>