<svg width="200" height="160" viewBox="0 0 200 160" fill="none" xmlns="http://www.w3.org/2000/svg">
<path fill-rule="nonzero" clip-rule="evenodd" d="M100 0.00723889C140 0.507328 180 25.0805 180 25.0805V47.0072H200V140.007H160V160.007H140V140.007H60V160.007H40V140.007H0V47.0072H20V25.0805C20 25.0805 60.0031 -0.492811 100 0.00723889Z M20 70.0072V120.007H40V70.0072H20Z M60 120.007L60 90.0072 140 90.0072 140 120.007 60 120.007Z M160 120.007L160 70.0072 180 70.0072 180 120.007 160 120.007Z M100 20.0072C79.1856 20.0072 58.1368 25.9105 40 36.0307V47.0072H60V70.0072H140V47.0072H160V36.0307C141.863 25.9105 120.814 20.0072 100 20.0072Z" fill="black"/>
</svg>