<svg width="180" height="154" viewBox="0 0 180 154" fill="none" xmlns="http://www.w3.org/2000/svg">
<path fill-rule="nonzero" clip-rule="evenodd" d="M154.051 139.979L140.001 153.93L100.001 113.93V133.93H80.001V113.93H20.001V33.9297L0 14.0723L14.0723 0C60.9171 46.8448 106.695 92.6236 154.051 139.979Z M40.001 93.9297L40.001 54.0723 79.8584 93.9297 40.001 93.9297Z" fill="black"/>
<path d="M120.001 13.9297C153.138 13.9297 180.001 40.7926 180.001 73.9297C180.001 90.5095 173.273 105.516 162.402 116.375L148.261 102.233C155.513 94.9939 160.001 84.9869 160.001 73.9297C160.001 51.8383 142.092 33.9297 120.001 33.9297V13.9297Z" fill="black"/>
<path d="M120.001 53.9297C131.047 53.9297 140.001 62.884 140.001 73.9297C140.001 79.4637 137.753 84.4727 134.121 88.0938L120.001 73.9727V53.9297Z" fill="black"/>
<path d="M100.001 53.9727L80.001 33.9297V13.9297H100.001V53.9727Z" fill="black"/>
</svg>