<svg width="200" height="160" viewBox="0 0 200 160" fill="none" xmlns="http://www.w3.org/2000/svg">
<path d="M120 80H80V120H60V60H120V80Z" fill="black"/>
<path fill-rule="nonzero" clip-rule="evenodd" d="M80 0C124.18 0 160 35.82 160 80C160 124.18 124.18 160 80 160C35.82 160 0 124.18 0 80C0 35.82 35.82 0 80 0Z M80 20C46.86 20 20 46.86 20 80C20 113.14 46.86 140 80 140C113.14 140 140 113.14 140 80C140 46.86 113.14 20 80 20Z" fill="black"/>
<path d="M173.71 5.03125C208.76 48.7333 208.76 111.266 173.71 154.968L158.092 142.474C187.3 106.055 187.301 53.9439 158.092 17.5254L173.71 5.03125Z" fill="black"/>
</svg>