<svg width="160" height="140" viewBox="0 0 160 140" fill="none" xmlns="http://www.w3.org/2000/svg">
<path fill-rule="nonzero" clip-rule="evenodd" d="M80 50C96.5685 50 110 63.4315 110 80C110 96.5685 96.5685 110 80 110C63.4315 110 50 96.5685 50 80C50 63.4315 63.4315 50 80 50Z M80 70C74.4772 70 70 74.4772 70 80C70 85.5228 74.4772 90 80 90C85.5228 90 90 85.5228 90 80C90 74.4772 85.5228 70 80 70Z" fill="black"/>
<path fill-rule="nonzero" clip-rule="evenodd" d="M100 0L120 20H160V140H0V20H40L60 0H100Z M68.1426 20L48 40H20V120H140V40H112L91.8574 20H68.1426Z" fill="black"/>
<path d="M40 50.0014C26.6667 49.8089 26.6667 70.181 40 69.9986C53.3333 70.1911 53.3333 49.819 40 50.0014Z" fill="black"/>
</svg>