<svg width="200" height="140" viewBox="0 0 200 140" fill="none" xmlns="http://www.w3.org/2000/svg">
<path d="M140 120H120V140H140V120Z" fill="black"/>
<path d="M200 80H180V120H200V80Z" fill="black"/>
<path d="M20 80H0V120H20V80Z" fill="black"/>
<path d="M80 120H60V140H80V120Z" fill="black"/>
<path d="M140 40H60V20H40V60H20V80H40V120H60V100H140V120H160V80H180V60H160V20H140V40ZM60 80V60H80V80H60ZM140 80H120V60H140V80Z" fill="black"/>
<path d="M180 0H160V20H180V0Z" fill="black"/>
<path d="M200 20H180V40H200V20Z" fill="black"/>
<path d="M40 0H20V20H40V0Z" fill="black"/>
<path d="M20 20H0V40H20V20Z" fill="black"/>
</svg>