<svg width="160" height="140" viewBox="0 0 160 140" fill="none" xmlns="http://www.w3.org/2000/svg">
<path fill-rule="nonzero" clip-rule="evenodd" d="M80 140H60L53.5713 110H26.4287L20 140H0L30 0H50L80 140Z M30.7139 90L40 46.666 49.2861 90 30.7139 90Z" fill="black"/>
<path fill-rule="nonzero" clip-rule="evenodd" d="M150 120H160V140C148.954 140 140 131.046 140 120C140 131.046 131.046 140 120 140H110C98.9543 140 90 131.046 90 120V100C90 88.9543 98.9543 80 110 80H130V60H110V70H90V60C90 48.9543 98.9543 40 110 40H130C141.046 40 150 48.9543 150 60V120Z M110 120L110 100 130 100 130 120 110 120Z" fill="black"/>
</svg>