<svg width="186" height="200" viewBox="0 0 186 200" fill="none" xmlns="http://www.w3.org/2000/svg">
<path d="M185.818 185.818L171.677 199.961L127.031 155.315C121.602 157.264 115.901 158.644 110 159.38V180H140V200H60V180H90V159.38C50.537 154.459 20 120.796 20 80H40C40 113.137 66.8629 140 100 140C103.671 140 107.264 139.668 110.753 139.037L0.0390625 28.3232L14.1807 14.1816L185.818 185.818Z" fill="black"/>
<path d="M180 80C180 99.9832 172.672 118.253 160.558 132.273L146.364 118.08C154.883 107.721 160 94.459 160 80H180Z" fill="black"/>
<path d="M100 0C122.091 0 140 17.9086 140 40V80C140 88.9326 137.071 97.1805 132.122 103.838L117.665 89.3809C119.154 86.5829 120 83.3906 120 80V40C120 28.9543 111.046 20 100 20C88.9543 20 80 28.9543 80 40V51.7158L60.7178 32.4336C64.2548 13.9604 80.4956 0 100 0Z" fill="black"/>
</svg>