<svg width="200" height="181" viewBox="0 0 200 181" fill="none" xmlns="http://www.w3.org/2000/svg">
<path fill-rule="nonzero" clip-rule="evenodd" d="M110 11.542C138.377 16.3028 160 40.982 160 70.7119V130.712H180V150.712H130C130 167.282 116.57 180.712 100 180.712C83.43 180.712 70 167.282 70 150.712H20V130.712H40V70.7119C40 40.982 61.6229 16.3028 90 11.542V0.711914H110V11.542Z M90 150.712L110 150.712C110 156.232 105.52 160.712 100 160.712 94.48 160.712 90 156.232 90 150.712Z M100 30.7119C77.9086 30.7119 60 48.6205 60 70.7119V130.712H140V70.7119C140 48.6205 122.091 30.7119 100 30.7119Z" fill="black"/>
<path d="M43.4316 14.1426C28.9542 28.6198 20 48.6203 20 70.7119H0C0 43.0974 11.1923 18.0965 29.2891 0L43.4316 14.1426Z" fill="black"/>
<path d="M170.711 0.000976562C188.807 18.0974 200 43.0977 200 70.7119H180C180 48.6205 171.046 28.6207 156.568 14.1436L170.711 0.000976562Z" fill="black"/>
</svg>