<svg width="160" height="160" viewBox="0 0 160 160" fill="none" xmlns="http://www.w3.org/2000/svg">
<path fill-rule="nonzero" clip-rule="evenodd" d="M136.687 23.2503C121.648 8.26459 101.647 0.00760311 80.336 0C36.4227 0 0.68376 35.5636 0.66848 79.2777C0.66084 93.2521 4.33176 106.892 11.3031 118.913L0 160L42.2327 148.975C53.868 155.294 66.9702 158.62 80.3018 158.624H80.336C124.242 158.624 159.985 123.056 160 79.3423C160.008 58.1564 151.73 38.2399 136.687 23.2541V23.2503Z M80.336 145.235L80.336 145.231C116.832 145.231 146.535 115.67 146.55 79.3348 146.558 61.7299 139.678 45.1702 127.176 32.7162 114.673 20.2585 98.0489 13.3967 80.3631 13.3891 43.8371 13.3891 14.1336 42.95 14.1183 79.2817 14.1107 91.7314 17.6135 103.859 24.241 114.351L25.8148 116.845 19.1262 141.163 44.1885 134.621 46.6067 136.05C56.7751 142.053 68.4293 145.231 80.3093 145.235L80.336 145.235Z M116.656 95.883L116.652 95.8905C118.642 96.8826 119.972 97.3806 120.468 98.2055 120.964 99.0305 120.964 102.999 119.307 107.626 117.649 112.252 109.696 116.476 105.872 117.046 102.442 117.556 98.1027 117.769 93.3351 116.259 90.4436 115.347 86.7347 114.127 81.9862 112.085 62.0196 103.501 48.9787 83.4938 47.9818 82.1709 46.9849 80.8479 39.8529 71.4236 39.8529 61.6764 39.8529 51.9291 44.9947 47.1354 46.8204 45.1512 48.6462 43.1667 50.8009 42.6725 52.1302 42.6725 53.4596 42.6725 54.7849 42.6839 55.9462 42.741 57.1649 42.8056 58.8071 42.281 60.4231 46.1433 62.0849 50.1081 66.0649 59.8593 66.5618 60.8515 67.0582 61.844 67.3907 62.9993 66.7258 64.3223 66.0613 65.6417 65.7329 66.4701 64.7356 67.6259 63.7387 68.7817 62.6422 70.2072 61.7484 71.0967 60.7556 72.0813 59.7164 73.1535 60.8778 75.1377 62.0387 77.1223 66.0347 83.6075 71.9516 88.8613 79.5569 95.6092 85.9707 97.7 87.9604 98.6921 89.9507 99.6846 91.112 99.521 92.2733 98.198 93.4347 96.8791 97.2507 92.4161 98.576 90.4315 99.9018 88.4473 101.227 88.7777 103.053 89.4394 104.879 90.1006 114.665 94.8909 116.656 95.883Z" fill="black"/>
</svg>