<svg width="160" height="160" viewBox="0 0 160 160" fill="none" xmlns="http://www.w3.org/2000/svg">
<path d="M40 20H20V40H40V60H20V80H40V100H20V160H0V0H40V20Z" fill="black"/>
<path d="M80 100H60V80H80V100Z" fill="black"/>
<path d="M120 100H100V80H120V100Z" fill="black"/>
<path d="M160 100H140V80H160V100Z" fill="black"/>
<path d="M60 80H40V60H60V80Z" fill="black"/>
<path d="M100 80H80V60H100V80Z" fill="black"/>
<path d="M140 80H120V60H140V80Z" fill="black"/>
<path d="M80 60H60V40H80V60Z" fill="black"/>
<path d="M120 60H100V40H120V60Z" fill="black"/>
<path d="M160 60H140V40H160V60Z" fill="black"/>
<path d="M60 40H40V20H60V40Z" fill="black"/>
<path d="M100 40H80V20H100V40Z" fill="black"/>
<path d="M140 40H120V20H140V40Z" fill="black"/>
<path d="M80 20H60V0H80V20Z" fill="black"/>
<path d="M120 20H100V0H120V20Z" fill="black"/>
<path d="M160 20H140V0H160V20Z" fill="black"/>
</svg>