<svg width="200" height="200" viewBox="0 0 200 200" fill="none" xmlns="http://www.w3.org/2000/svg">
<path fill-rule="nonzero" clip-rule="evenodd" d="M100 0C155.23 0 200 44.77 200 100C200 155.23 155.23 200 100 200C44.77 200 0 155.23 0 100C0 44.77 44.77 0 100 0Z M100 20C55.82 20 20 55.82 20 100C20 144.18 55.82 180 100 180C144.18 180 180 144.18 180 100C180 55.82 144.18 20 100 20Z" fill="black"/>
<path d="M110 80V130H130V150H70V130H90V100H70V80H110Z" fill="black"/>
<path d="M100.24 52C105.63 52.0001 110 56.3698 110 61.7598C110 67.1496 105.63 71.5194 100.24 71.5195C94.8503 71.5195 90.4806 67.1497 90.4805 61.7598C90.4805 56.3698 94.8502 52 100.24 52Z" fill="black"/>
</svg>