<svg width="200" height="200" viewBox="0 0 200 200" fill="none" xmlns="http://www.w3.org/2000/svg">
<path d="M167.297 46.5547C186.711 56.4902 200 76.6932 200 100C200 133.137 173.137 160 140 160H102.28L128.13 185.85L113.99 199.99L64 150L114 100L128.14 114.14L102.28 140H140C162.091 140 180 122.091 180 100C180 82.0947 168.235 66.9395 152.014 61.8379L167.297 46.5547Z" fill="black"/>
<path d="M135.858 49.709L85.8584 99.709L72 85.8496L97.8604 59.9902H80V60H60C37.9086 60 20 77.9086 20 100C20 117.743 31.5534 132.785 47.5469 138.021L32.3213 153.246C13.1154 143.242 -1.39044e-06 123.153 0 100C8.69081e-06 66.8629 26.8629 40 60 40H66V39.9902H97.8604L72.0098 14.1396L86.1504 0L135.858 49.709Z" fill="black"/>
</svg>