<svg width="156" height="159" viewBox="0 0 156 159" fill="none" xmlns="http://www.w3.org/2000/svg">
<path d="M145.713 65.0779C149.3 54.2507 148.065 42.3901 142.329 32.5418C133.703 17.4365 116.361 9.66516 99.4247 13.3222C91.8903 4.78575 81.0654 -0.0688265 69.7169 0.000737494C52.405 -0.0390134 37.0447 11.1707 31.7187 27.7369C20.5974 30.0275 10.9979 37.0287 5.38041 46.9515C-3.3101 62.017 -1.32892 81.008 10.2815 93.927C6.69461 104.754 7.92976 116.615 13.6658 126.463C22.2921 141.568 39.6336 149.34 56.5699 145.683C64.0994 154.219 74.9292 159.074 86.2777 158.999C103.599 159.044 118.965 147.824 124.291 131.243C135.412 128.953 145.012 121.951 150.629 112.029C159.31 96.963 157.324 77.9869 145.718 65.0679L145.713 65.0779ZM86.2876 148.609C79.356 148.619 72.6417 146.18 67.3207 141.713C67.5628 141.583 67.9827 141.35 68.2544 141.181L99.7359 122.895C101.347 121.976 102.335 120.252 102.325 118.389V73.7535L115.63 81.48C115.773 81.5496 115.867 81.6887 115.887 81.8477V118.811C115.867 135.248 102.631 148.575 86.2876 148.609ZM22.633 121.266C19.1597 115.233 17.9098 108.163 19.1004 101.301C19.3327 101.44 19.7427 101.693 20.0342 101.862L51.5157 120.148C53.1115 121.087 55.0878 121.087 56.6885 120.148L95.1214 97.8276V113.281C95.1313 113.44 95.0572 113.594 94.9337 113.693L63.1113 132.172C48.9367 140.381 30.8344 135.501 22.6379 121.266H22.633ZM14.3476 52.1539C17.806 46.1117 23.2654 41.4907 29.7672 39.0907C29.7672 39.364 29.7524 39.846 29.7524 40.1839V76.7596C29.7425 78.618 30.7306 80.3422 32.3363 81.2614L70.7692 103.577L57.4642 111.303C57.3308 111.393 57.1628 111.407 57.0146 111.343L25.1873 92.8488C11.0423 84.6104 6.19067 66.4095 14.3427 52.1588L14.3476 52.1539ZM123.663 77.7385L85.2303 55.4184L98.5354 47.6968C98.6688 47.6073 98.8367 47.5924 98.9849 47.657L130.812 66.1362C144.982 74.3696 149.839 92.6003 141.652 106.851C138.189 112.883 132.734 117.504 126.237 119.909V82.2403C126.252 80.3819 125.269 78.6627 123.668 77.7385H123.663ZM136.904 57.6941C136.672 57.55 136.262 57.3016 135.97 57.1326L104.489 38.8473C102.893 37.9081 100.917 37.9081 99.316 38.8473L60.8831 61.1674V45.7142C60.8732 45.5552 60.9473 45.4012 61.0708 45.3018L92.8932 26.8375C107.068 18.6141 125.19 23.5084 133.362 37.769C136.815 43.7913 138.065 50.8421 136.894 57.6941H136.904ZM53.65 85.2365L40.3401 77.5099C40.1968 77.4404 40.1029 77.3012 40.0832 77.1422V40.1789C40.093 23.7221 53.3684 10.3856 69.7317 10.3956C76.6535 10.3956 83.3529 12.8403 88.6739 17.2924C88.4318 17.4215 88.0168 17.6551 87.7402 17.824L56.2587 36.1094C54.648 37.0287 53.6599 38.7479 53.6698 40.6112L53.65 85.2365ZM60.8781 69.5647L77.9973 59.622L95.1165 69.5598V89.4401L77.9973 99.3779L60.8781 89.4401V69.5647Z" fill="black"/>
</svg>