<svg width="200" height="200" viewBox="0 0 200 200" fill="none" xmlns="http://www.w3.org/2000/svg">
<path fill-rule="nonzero" clip-rule="evenodd" d="M100 0C155.23 0 200 44.77 200 100C200 155.23 155.23 200 100 200C44.77 200 0 155.23 0 100C0 44.77 44.77 0 100 0Z M36.8027 50.9443C26.2715 64.4914 20 81.5138 20 100C20 144.18 55.82 180 100 180C118.486 180 135.508 173.727 149.055 163.196L36.8027 50.9443Z M100 20C81.5138 20 64.4914 26.2715 50.9443 36.8027L163.196 149.055C173.727 135.508 180 118.486 180 100C180 55.82 144.18 20 100 20Z" fill="black"/>
</svg>