<svg width="160" height="160" viewBox="0 0 160 160" fill="none" xmlns="http://www.w3.org/2000/svg">
<path fill-rule="nonzero" clip-rule="evenodd" d="M25.8075 24.4105C24.3272 15.8305 22.1548 10.4351 19.7485 10.4249H19.7439C15.2568 10.4403 11.6196 29.1514 11.6196 52.253C11.6196 75.3548 15.262 94.0809 19.7537 94.0809C21.5953 94.0809 23.2946 90.9013 24.6625 85.573C26.8246 105.078 31.3111 118.486 36.5052 118.486C40.5238 118.486 44.1304 110.432 46.5517 97.7296C48.2049 121.887 52.3659 139.027 57.2292 139.027C60.2815 139.027 63.0641 132.235 65.1241 121.176C67.6013 144.005 73.3244 160 79.9983 160C86.6722 160 92.4056 144.01 94.8725 121.176C96.9175 132.235 99.7001 139.027 102.767 139.027C107.631 139.027 111.782 121.887 113.445 97.7296C115.866 110.432 119.463 118.486 123.492 118.486C128.68 118.486 133.172 105.083 135.334 85.573C136.692 90.9169 138.401 94.0809 140.243 94.0809C144.735 94.0809 148.377 75.3548 148.377 52.253C148.377 29.1514 144.735 10.4249 140.243 10.4249C137.832 10.4249 135.675 15.8356 134.179 24.4105C131.783 9.61577 127.892 0 123.492 0C118.267 0 113.74 13.5992 111.598 33.3461C109.503 18.9739 106.323 9.81157 102.762 9.81157C97.772 9.81157 93.5299 27.8322 91.9579 52.9693C89.0024 40.0812 84.7239 31.9959 79.9879 31.9959C75.2525 31.9959 70.974 40.0864 68.0237 52.9693C66.4466 27.8322 62.2096 9.81157 57.2189 9.81157C53.6635 9.81157 50.4891 18.9739 48.383 33.3461C46.2463 13.5992 41.7189 0 36.4948 0C32.1097 0 28.2035 9.62096 25.8075 24.4105Z M160 48.1389C160 37.812 157.935 29.4382 155.386 29.4382C152.838 29.4382 150.772 37.812 150.772 48.1389C150.772 58.4656 152.838 66.8399 155.386 66.8399C157.935 66.8399 160 58.4656 160 48.1389Z M9.2277 48.1389C9.2277 37.812 7.16251 29.4382 4.61385 29.4382C2.06577 29.4382 0 37.812 0 48.1389C0 58.4656 2.06577 66.8399 4.61385 66.8399C7.16251 66.8399 9.2277 58.4656 9.2277 48.1389Z" fill="black"/>
</svg>