<svg width="160" height="200" viewBox="0 0 160 200" fill="none" xmlns="http://www.w3.org/2000/svg">
<path d="M20 80C20 113.137 46.8629 140 80 140C113.137 140 140 113.137 140 80H160C160 120.796 129.463 154.459 90 159.38V180H120V200H40V180H70V159.38C30.537 154.459 0 120.796 0 80H20Z" fill="black"/>
<path fill-rule="nonzero" clip-rule="evenodd" d="M80 0C102.091 0 120 17.9086 120 40V80C120 102.091 102.091 120 80 120C57.9086 120 40 102.091 40 80V40C40 17.9086 57.9086 0 80 0Z M80 20C91.0457 20 100 28.9543 100 40L100 80C100 91.0457 91.0457 100 80 100 68.9543 100 60 91.0457 60 80L60 40C60 28.9543 68.9543 20 80 20Z" fill="black"/>
</svg>