<svg width="180" height="80" viewBox="0 0 180 80" fill="none" xmlns="http://www.w3.org/2000/svg">
<path fill-rule="nonzero" clip-rule="evenodd" d="M40 0C17.9086 0 0 17.9086 0 40C0 62.0914 17.9086 80 40 80H140C162.091 80 180 62.0914 180 40C180 17.9086 162.091 0 140 0C117.909 0 100 17.9086 100 40C100 47.286 101.949 54.1164 105.353 60H74.6475C78.0511 54.1164 80 47.286 80 40C80 17.9086 62.0914 0 40 0Z M140 20C151.046 20 160 28.9543 160 40C160 51.0457 151.046 60 140 60C128.954 60 120 51.0457 120 40C120 28.9543 128.954 20 140 20Z M40 20C51.0457 20 60 28.9543 60 40C60 51.0457 51.0457 60 40 60C28.9543 60 20 51.0457 20 40C20 28.9543 28.9543 20 40 20Z" fill="black"/>
</svg>