<svg width="200" height="160" viewBox="0 0 200 160" fill="none" xmlns="http://www.w3.org/2000/svg">
<path d="M40 70C45.5228 70 50 74.4772 50 80C50 85.5228 45.5228 90 40 90C34.4772 90 30 85.5228 30 80C30 74.4772 34.4772 70 40 70Z" fill="black"/>
<path fill-rule="nonzero" clip-rule="evenodd" d="M180 0C190.873 4.75273e-07 199.719 8.67646 199.993 19.4834L200 20V140C200 151.046 191.046 160 180 160H20C8.95431 160 -1.44847e-06 151.046 0 140V20C0 8.95431 8.95431 0 20 0H180Z M20 140L20 20 180 20 180 140 20 140Z" fill="black"/>
</svg>