<svg width="180" height="180" viewBox="0 0 180 180" fill="none" xmlns="http://www.w3.org/2000/svg">
<path d="M140 90C140 62.3858 117.614 40 90 40V60C106.569 60 120 73.4315 120 90H140Z" fill="black"/>
<path fill-rule="nonzero" clip-rule="evenodd" d="M180 90C180 40.2944 139.706 -2.57965e-07 90 0C40.2944 2.57966e-07 -2.57965e-07 40.2944 0 90C2.57965e-07 139.706 40.2944 180 90 180C139.706 180 180 139.706 180 90Z M160 90C160 128.66 128.66 160 90 160C51.3401 160 20 128.66 20 90C20 51.3401 51.3401 20 90 20C128.66 20 160 51.3401 160 90Z" fill="black"/>
</svg>