<svg width="160" height="160" viewBox="0 0 160 160" fill="none" xmlns="http://www.w3.org/2000/svg">
<path fill-rule="nonzero" clip-rule="evenodd" d="M80 0C124.183 0 160 35.8172 160 80C160 124.183 124.183 160 80 160C35.8172 160 0 124.183 0 80C0 35.8172 35.8172 0 80 0Z M31.0918 45.2334C24.107 55.0417 20 67.0415 20 80C20 113.137 46.8629 140 80 140C93.3891 140 105.753 135.613 115.735 128.2C115.414 128.439 115.092 128.675 114.766 128.907L31.0918 45.2334Z M80 20C67.0415 20 55.0417 24.107 45.2334 31.0918L128.907 114.766C128.437 115.426 127.952 116.075 127.456 116.715C135.318 106.567 140 93.8308 140 80C140 46.8629 113.137 20 80 20Z" fill="black"/>
</svg>