<svg width="180" height="169" viewBox="0 0 180 169" fill="none" xmlns="http://www.w3.org/2000/svg">
<path d="M124.145 44.1445L109.865 58.4229L72 20H20V72L89 140L109.645 119.355L124.145 133.855L89 169L0 80V0H80L124.145 44.1445Z" fill="black"/>
<path d="M160 79H180V99H160V119H140V99H120V79H140V59H160V79Z" fill="black"/>
<path d="M49.7598 40C55.1497 40 59.5194 44.3699 59.5195 49.7598C59.5195 55.1498 55.1498 59.5195 49.7598 59.5195C44.3699 59.5194 40 55.1497 40 49.7598C40.0001 44.3699 44.37 40.0001 49.7598 40Z" fill="black"/>
</svg>