<svg width="160" height="160" viewBox="0 0 160 160" fill="none" xmlns="http://www.w3.org/2000/svg">
<path fill-rule="nonzero" clip-rule="evenodd" d="M80 50C96.5685 50 110 63.4315 110 80C110 96.5685 96.5685 110 80 110C63.4315 110 50 96.5685 50 80C50 63.4315 63.4315 50 80 50Z M80 69C73.9249 69 69 73.9249 69 80C69 86.0751 73.9249 91 80 91C86.0751 91 91 86.0751 91 80C91 73.9249 86.0751 69 80 69Z" fill="black"/>
<path fill-rule="nonzero" clip-rule="evenodd" d="M80 0C124.183 0 160 35.8172 160 80C160 124.183 124.183 160 80 160C35.8172 160 0 124.183 0 80C0 35.8172 35.8172 0 80 0Z M80 20C46.8629 20 20 46.8629 20 80C20 113.137 46.8629 140 80 140C113.137 140 140 113.137 140 80C140 46.8629 113.137 20 80 20Z" fill="black"/>
</svg>