<svg width="160" height="160" viewBox="0 0 160 160" fill="none" xmlns="http://www.w3.org/2000/svg">
<path fill-rule="nonzero" clip-rule="evenodd" d="M75.0161 1.71858C78.3653 -0.532076 81.3983 -0.595578 84.7647 1.6666C108.375 17.5637 132.021 33.4169 155.701 49.2253C158.394 51.0248 159.989 53.2471 159.989 56.551L160 103.212C160 106.557 158.475 108.918 155.678 110.787C132.002 126.603 108.351 142.456 84.7248 158.345C81.3582 160.614 78.2965 160.515 74.9413 158.264C51.4725 142.448 27.948 126.695 4.36795 111.006C1.42727 109.045 3.76512e-05 106.632 0 103.062V56.9211C7.20682e-05 53.3685 1.44999 50.938 4.38481 48.9823C27.9284 33.2838 51.5415 17.527 75.0161 1.71858Z M45.0036 89.3306C53.8202 95.3253 62.6948 101.233 71.5114 107.228 72.2076 107.696 73.0994 108.6 73.0996 109.306L73.0996 140.431C73.0237 140.38 37.3994 116.45 19.463 104.445L41.8383 89.3306C43.0295 88.4743 43.8527 88.5322 45.0036 89.3306Z M118.259 89.4521L140.433 104.428 86.9116 140.303 86.9116 110.596C86.8944 108.929 87.1709 107.928 88.5577 107.014 97.3052 101.228 106.013 95.3758 114.679 89.4583 116.02 88.5442 116.936 88.5206 118.259 89.4521Z M79.8443 64.3807C80.3179 64.3636 80.789 64.4586 81.2196 64.6576 84.5345 66.87 104.081 79.9414 104.147 79.9859L81.7029 95.0305C81.1512 95.3434 80.5265 95.5023 79.8932 95.4911 79.2599 95.4799 78.6409 95.2989 78.1004 94.9667L55.7481 80.0028C55.8 79.9678 65.6015 73.3574 70.3368 70.166 73.0415 68.3433 75.7178 66.4918 78.4916 64.7559 78.9069 64.5263 79.3706 64.3978 79.8443 64.3807Z M13.8232 91.4835L13.8232 68.5634 30.8696 80.0034 13.8232 91.4835Z M128.584 80.026L145.613 68.5289 145.613 91.4542 128.584 80.026Z M86.9116 50.4577L86.9116 19.5869 140.467 55.5903 117.586 70.9068C117.243 71.078 116.866 71.1673 116.483 71.1673 116.101 71.1673 115.724 71.078 115.381 70.9068 106.204 64.8311 97.0671 58.6934 87.9704 52.4943 87.6595 52.2508 87.4039 51.943 87.2213 51.5918 87.0387 51.2405 86.933 50.8535 86.9116 50.4577Z M73.0996 19.7553L73.0996 49.6706C73.0569 50.2692 72.8918 50.8529 72.6146 51.3845 72.3374 51.916 71.9538 52.3846 71.4883 52.7604 62.6948 58.786 53.8491 64.7385 44.9519 70.6175 44.2786 71.0571 42.9093 71.2772 42.3222 70.8955 34.7775 65.9597 27.313 60.8963 19.4287 55.596 37.393 43.566 72.9973 19.8235 73.0996 19.7553Z" fill="black"/>
</svg>