<svg width="200" height="120" viewBox="0 0 200 120" fill="none" xmlns="http://www.w3.org/2000/svg">
<path d="M140 40C151.046 40 160 48.9543 160 60C160 71.0457 151.046 80 140 80C128.954 80 120 71.0457 120 60C120 48.9543 128.954 40 140 40Z" fill="black"/>
<path fill-rule="nonzero" clip-rule="evenodd" d="M140 0C173.137 0 200 26.8629 200 60C200 93.1371 173.137 120 140 120H60C26.8629 120 0 93.1371 0 60C0 26.8629 26.8629 0 60 0H140Z M60 20L140 20C162.091 20 180 37.9086 180 60 180 82.0914 162.091 100 140 100L60 100C37.9086 100 20 82.0914 20 60 20 37.9086 37.9086 20 60 20Z" fill="black"/>
</svg>