<svg width="30" height="120" viewBox="0 0 30 120" fill="none" xmlns="http://www.w3.org/2000/svg">
<path d="M15 75C23.2843 75 30 68.2843 30 60C30 51.7157 23.2843 45 15 45C6.71573 45 0 51.7157 0 60C0 68.2843 6.71573 75 15 75Z" fill="black"/>
<path d="M15 30C23.2843 30 30 23.2843 30 15C30 6.71573 23.2843 0 15 0C6.71573 0 0 6.71573 0 15C0 23.2843 6.71573 30 15 30Z" fill="black"/>
<path d="M15 120C23.2843 120 30 113.284 30 105C30 96.7157 23.2843 90 15 90C6.71573 90 0 96.7157 0 105C0 113.284 6.71573 120 15 120Z" fill="black"/>
</svg>