<svg width="180" height="180" viewBox="0 0 180 180" fill="none" xmlns="http://www.w3.org/2000/svg">
<path fill-rule="nonzero" clip-rule="evenodd" d="M145 0C164.33 8.4494e-07 180 15.67 180 35C180 54.33 164.33 70 145 70H130V110H145L145.903 110.012C164.816 110.491 180 125.972 180 145C180 164.33 164.33 180 145 180C125.972 180 110.491 164.816 110.012 145.903L110 145V130H70V145L69.9883 145.903C69.5091 164.816 54.0279 180 35 180C15.67 180 8.4494e-07 164.33 0 145C-8.4494e-07 125.67 15.67 110 35 110H50V70H35C15.67 70 0 54.33 0 35C0 15.67 15.67 0 35 0C54.33 0 70 15.67 70 35V50H110V35C110 15.67 125.67 -8.4494e-07 145 0Z M35 130L50 130 50 145 49.9951 145.387C49.79 153.492 43.155 160 35 160 26.7157 160 20 153.284 20 145 20 136.716 26.7157 130 35 130Z M130 130L145 130 145.387 130.005C153.492 130.21 160 136.845 160 145 160 153.284 153.284 160 145 160 136.845 160 130.21 153.492 130.005 145.387L130 145 130 130Z M70 110L70 70 110 70 110 110 70 110Z M35 20C43.2843 20 50 26.7157 50 35L50 50 35 50C26.7157 50 20 43.2843 20 35 20 26.7157 26.7157 20 35 20Z M145 20C153.284 20 160 26.7157 160 35 160 43.155 153.492 49.79 145.387 49.9951L145 50 130 50 130 35C130 26.7157 136.716 20 145 20Z" fill="black"/>
</svg>