<svg width="200" height="200" viewBox="0 0 200 200" fill="none" xmlns="http://www.w3.org/2000/svg">
<path d="M100 0C44.77 0 0 44.77 0 100C0 155.23 44.77 200 100 200C155.23 200 200 155.23 200 100C200 44.77 155.23 0 100 0ZM100 180C55.82 180 20 144.18 20 100C20 55.82 55.82 20 100 20C144.18 20 180 55.82 180 100C180 144.18 144.18 180 100 180Z" fill="black"/>
<path d="M149.995 99.995L135.855 85.855L109.995 111.715V49.995L89.995 49.995V111.715L64.145 85.865L50.005 100.005L99.995 149.995L149.995 99.995Z" fill="black"/>
</svg>