<svg width="160" height="160" viewBox="0 0 160 160" fill="none" xmlns="http://www.w3.org/2000/svg">
<path fill-rule="nonzero" clip-rule="evenodd" d="M80 0C124.183 0 160 35.8172 160 80C160 124.183 124.183 160 80 160C35.8172 160 0 124.183 0 80C0 35.8172 35.8172 0 80 0Z M20.8301 90C25.5909 118.377 50.2701 140 80 140C109.73 140 134.409 118.377 139.17 90H108.291C104.172 101.652 93.062 110 80 110C66.938 110 55.8275 101.652 51.709 90H20.8301Z M80 69C86.0751 69 91 73.9249 91 80 91 86.0751 86.0751 91 80 91 73.9249 91 69 86.0751 69 80 69 73.9249 73.9249 69 80 69Z M80 20C50.2701 20 25.5909 41.6229 20.8301 70H51.709C55.8275 58.3484 66.938 50 80 50C93.062 50 104.172 58.3484 108.291 70H139.17C134.409 41.6229 109.73 20 80 20Z" fill="black"/>
</svg>