<svg width="160" height="195" viewBox="0 0 160 195" fill="none" xmlns="http://www.w3.org/2000/svg">
<path fill-rule="nonzero" clip-rule="evenodd" d="M80 0C124.11 0 160 35.8897 160 80.0195C160 94.6994 156.08 109.66 148.36 124.47C142.56 135.58 134.6 146.65 124.69 157.38C108.252 175.168 91.7641 186.207 91.0703 186.67L79.9805 194.04L68.9004 186.65C68.2104 186.18 51.7298 175.12 35.2998 157.32C25.3898 146.59 17.4296 135.51 11.6396 124.41C3.91966 109.6 0 94.66 0 80C0 35.89 35.89 0 80 0Z M80 57C68.9543 57 60 65.9543 60 77C60 88.0457 68.9543 97 80 97C91.0457 97 100 88.0457 100 77C100 65.9543 91.0457 57 80 57Z" fill="black"/>
</svg>