<svg width="160" height="160" viewBox="0 0 160 160" fill="none" xmlns="http://www.w3.org/2000/svg">
<path d="M156.698 57.3578C157.601 60.3364 158.312 63.3703 158.825 66.4409C158.24 62.9315 157.396 59.4703 156.3 56.0854H156.339C157.418 59.4538 158.253 62.8959 158.839 66.3842V66.3657C159.612 70.8654 160.001 75.4231 160 79.9887C160 118.005 133.455 149.828 97.8799 157.949C94.3767 158.752 90.8228 159.319 87.2432 159.642C84.8539 159.86 82.4361 159.998 79.9932 159.998C77.0107 160.015 74.0293 159.866 71.0635 159.549V159.446L107.599 96.0014C110.491 91.1764 112.012 85.6528 111.996 80.0278C111.996 70.4294 107.599 62.1558 100.795 56.0854H156.3C156.437 56.5083 156.569 56.9326 156.698 57.3578Z" fill="black"/>
<path d="M15.7022 32.5346L52.3868 95.976C57.9908 105.575 67.9922 111.97 79.9932 111.97C83.5477 111.923 87.066 111.246 90.3838 109.97L62.6348 158.035V158.052C49.6289 155.16 37.5509 149.066 27.4981 140.324C17.4455 131.581 9.73538 120.467 5.06841 107.991C0.401465 95.514 -1.07462 82.0692 0.773487 68.8774C2.6216 55.6857 7.73561 43.1643 15.6514 32.4496L15.7022 32.5346Z" fill="black"/>
<path d="M79.9932 55.9955C84.7405 55.9956 89.381 57.4035 93.3282 60.0405C97.2755 62.6776 100.353 66.4258 102.169 70.811C103.985 75.1961 104.46 80.0213 103.533 84.6762C102.607 89.3313 100.32 93.6076 96.9629 96.9633C93.6055 100.319 89.3274 102.604 84.6709 103.529C80.0146 104.454 75.1884 103.977 70.8028 102.16C66.4172 100.342 62.6688 97.2659 60.0323 93.3188C57.3958 89.3717 55.9898 84.7311 55.9913 79.9848C56.0102 73.6271 58.5448 67.5354 63.042 63.0405C67.5394 58.5455 73.6339 56.0125 79.9932 55.9955Z" fill="black"/>
<path d="M49.6993 5.95941C60.5754 1.50854 72.2991 -0.491192 84.0362 0.10199C95.7733 0.695204 107.236 3.86722 117.607 9.39203C127.979 14.9168 137.006 22.6585 144.045 32.0668C144.084 32.1011 144.126 32.1322 144.17 32.1596C147.761 37.0655 150.832 42.3313 153.335 47.8715H153.274C150.77 42.3478 147.699 37.0987 144.109 32.2094L144.066 32.1811C147.669 37.0792 150.755 42.3375 153.274 47.8715H79.9932C72.6287 47.8816 65.4946 50.4428 59.8057 55.1186C54.117 59.7944 50.2243 66.2963 48.7901 73.518L21.1631 25.936L21.1592 25.9389L21.1094 25.8539C29.0618 17.2032 38.8231 10.4103 49.6993 5.95941Z" fill="black"/>
</svg>