<svg width="131" height="161" viewBox="0 0 131 161" fill="none" xmlns="http://www.w3.org/2000/svg">
<path d="M96.0089 0C96.3812 0 96.7536 0 97.147 0C98.0604 11.2835 93.7536 19.7146 88.5193 25.82C83.3834 31.8834 76.3505 37.764 64.9756 36.8717C64.2168 25.7498 68.5307 17.9441 73.758 11.8526C78.6058 6.17573 87.4935 1.12414 96.0089 0Z" fill="black"/>
<path d="M130.442 117.824C130.442 117.936 130.442 118.034 130.442 118.14C127.245 127.822 122.686 136.119 117.121 143.819C112.041 150.81 105.817 160.218 94.7016 160.218C85.0973 160.218 78.7178 154.042 68.8745 153.873C58.4622 153.705 52.7361 159.037 43.2161 160.379C42.1271 160.379 41.0381 160.379 39.9701 160.379C32.9794 159.368 27.3376 153.831 23.2275 148.843C11.1079 134.103 1.74241 115.063 0 90.6968C0 88.308 0 85.9263 0 83.5375C0.737716 66.0993 9.21091 51.9211 20.4734 45.0498C26.4172 41.3964 34.5883 38.2839 43.6868 39.675C47.5862 40.2792 51.5698 41.6142 55.0617 42.935C58.3709 44.2067 62.5091 46.462 66.4295 46.3426C69.0853 46.2653 71.727 44.8812 74.4039 43.9046C82.2448 41.0732 89.9311 37.8272 100.062 39.3518C112.238 41.1926 120.88 46.6025 126.22 54.9492C115.92 61.5044 107.777 71.3827 109.168 88.2518C110.404 103.575 119.313 112.54 130.442 117.824Z" fill="black"/>
</svg>