<svg width="201" height="194" viewBox="0 0 201 194" fill="none" xmlns="http://www.w3.org/2000/svg">
<path d="M110.052 97.001H140.052V117.001H110.052V147.001H90.0518V117.001H60.0518V97.001H90.0518V67.001H110.052V97.001Z" fill="black"/>
<path fill-rule="nonzero" clip-rule="evenodd" d="M100.052 27.001C144.232 27.0012 180.052 62.8211 180.052 107.001C180.052 127.87 172.058 146.873 158.967 161.117L175.631 180.478L160.473 193.524L143.708 174.047C131.154 182.238 116.159 187.001 100.053 187.001C83.9452 187.001 68.9488 182.239 56.3945 174.047L39.6309 193.524L24.4727 180.478L41.1357 161.116C28.0455 146.872 20.0518 127.87 20.0518 107.001C20.0518 62.8211 55.872 27.0012 100.052 27.001Z M100.052 47.001C66.912 47.0012 40.0518 73.8611 40.0518 107.001C40.0518 121.806 45.4139 135.358 54.3008 145.821C58.6327 150.921 63.8031 155.288 69.5977 158.708L69.5957 158.709C78.5228 163.978 88.934 167.001 100.052 167.001C111.169 167.001 121.579 163.977 130.506 158.709L130.505 158.708C136.3 155.288 141.469 150.921 145.801 145.821L145.802 145.823C154.69 135.359 160.052 121.807 160.052 107.001C160.052 73.8611 133.192 47.0012 100.052 47.001Z" fill="black"/>
<path d="M153.73 0.000976562C164.976 5.62589 175.524 13.1263 184.903 22.5059C190.716 28.3185 195.806 34.5803 200.177 41.1777L183.56 52.3135C179.902 46.7768 175.636 41.5233 170.761 36.6484C162.944 28.8322 154.154 22.5819 144.783 17.8945L153.73 0.000976562Z" fill="black"/>
<path d="M55.3174 17.8936C45.9459 22.581 37.1564 28.8319 29.3398 36.6484C24.5267 41.4616 20.3074 46.6441 16.6807 52.1035L0 41.0625C4.35355 34.5074 9.41853 28.2847 15.1973 22.5059C24.5771 13.1261 35.1243 5.62498 46.3701 0L55.3174 17.8936Z" fill="black"/>
</svg>