<svg width="200" height="120" viewBox="0 0 200 120" fill="none" xmlns="http://www.w3.org/2000/svg">
<path d="M100 40C111.046 40 120 48.9543 120 60C120 71.0457 111.046 80 100 80C88.9543 80 80 71.0457 80 60C80 48.9543 88.9543 40 100 40Z" fill="black"/>
<path fill-rule="nonzero" clip-rule="evenodd" d="M100 0C155.23 0 200 60 200 60C200 60 155.23 120 100 120C44.77 120 0 60 0 60C0 60 44.77 0 100 0Z M100 20C77.9086 20 60 37.9086 60 60C60 82.0914 77.9086 100 100 100C122.091 100 140 82.0914 140 60C140 37.9086 122.091 20 100 20Z" fill="black"/>
</svg>