<svg width="160" height="200" viewBox="0 0 160 200" fill="none" xmlns="http://www.w3.org/2000/svg">
<path d="M80 119.8C124.18 119.8 160 155.62 160 199.8H140C140 166.66 113.14 139.8 80 139.8C46.8601 139.8 20.0001 166.66 20 199.8H0C0.000131964 155.62 35.8201 119.8 80 119.8Z" fill="black"/>
<path fill-rule="nonzero" clip-rule="evenodd" d="M80 0C107.61 0 130 22.39 130 50C130 77.61 107.61 100 80 100C52.39 100 30 77.61 30 50C30 22.39 52.39 0 80 0Z M80 20C63.43 20 50 33.43 50 50C50 66.57 63.43 80 80 80C96.57 80 110 66.57 110 50C110 33.43 96.57 20 80 20Z" fill="black"/>
</svg>