<svg width="190" height="120" viewBox="0 0 190 120" fill="none" xmlns="http://www.w3.org/2000/svg">
<path fill-rule="nonzero" clip-rule="evenodd" d="M97 0C123.186 0 145.454 16.7756 153.644 40.166C174.027 42.0067 190 59.1369 190 80C190 102.091 172.091 120 150 120H39V119.987C17.3707 119.457 0 101.757 0 80C0 57.9086 17.9086 40 40 40C40.1375 40 40.2749 40.0035 40.4121 40.0049C48.6474 16.6984 70.8738 0 97 0Z M97 20C80.1202 20 65.6831 30.4559 59.8105 45.2441C71.8706 52.1331 80 65.1166 80 80H60C60 68.9543 51.0457 60 40 60C28.9543 60 20 68.9543 20 80C20 90.7104 28.4189 99.4536 39 99.9746V100H150C161.046 100 170 91.0457 170 80C170 68.9543 161.046 60 150 60C144.884 60 140.217 61.9217 136.68 65.082C136.891 63.4177 137 61.7216 137 60C137 37.9086 119.091 20 97 20Z" fill="black"/>
</svg>