<svg width="100" height="160" viewBox="0 0 100 160" fill="none" xmlns="http://www.w3.org/2000/svg">
<path d="M50 100C55.5228 100 60 104.477 60 110C60 115.523 55.5228 120 50 120C44.4772 120 40 115.523 40 110C40 104.477 44.4772 100 50 100Z" fill="black"/>
<path fill-rule="nonzero" clip-rule="evenodd" d="M91.9951 42.4268L77.8525 56.5684L59.4678 38.1836V60.8945C82.5522 65.3205 100 85.6268 100 110C100 137.61 77.61 160 50 160C22.39 160 0 137.61 0 110C0 85.9317 17.0143 65.8304 39.6689 61.0693V38.1836L21.2842 56.5684L7.14258 42.4268L49.5684 0L91.9951 42.4268Z M50 80C51.965 80 53.8856 80.1902 55.7451 80.5508 55.9543 80.5914 56.1625 80.6348 56.3701 80.6797 56.8803 80.79 57.3856 80.9129 57.8857 81.0488 58.3696 81.1803 58.8485 81.3238 59.3223 81.4785 71.3272 85.3991 80 96.6848 80 110 80 126.57 66.57 140 50 140 33.43 140 20 126.57 20 110 20 93.43 33.43 80 50 80Z" fill="black"/>
</svg>