<svg width="138" height="160" viewBox="0 0 138 160" fill="none" xmlns="http://www.w3.org/2000/svg">
<path fill-rule="nonzero" clip-rule="evenodd" d="M107.778 15.8662C107.778 15.8662 120.175 12.4567 126.029 18.2559C131.882 24.0549 136.704 29.1719 136.704 29.1719L132.915 38.3818L137.737 52.0273C137.719 52.0951 123.557 105.232 121.897 111.725C118.626 124.517 116.387 129.463 107.09 135.944C97.7926 142.427 80.9198 153.683 78.165 155.389C75.4105 157.094 71.967 160 68.8682 160C65.7691 160 62.3259 157.094 59.5713 155.389C56.8165 153.683 39.9437 142.427 30.6465 135.944C21.3492 129.463 19.1111 124.517 15.8398 111.725C14.1802 105.235 0.029606 52.1384 0 52.0273L4.82031 38.3818L1.0332 29.1719C1.0332 29.1719 5.85423 24.055 11.708 18.2559C12.8056 17.1686 14.1327 16.4048 15.5654 15.8818C15.9238 15.751 16.2887 15.6352 16.6582 15.5332C18.0126 15.1594 19.429 14.9699 20.8115 14.9014C21.3143 14.8764 21.8126 14.8682 22.3018 14.8721C26.4592 14.9052 29.958 15.8672 29.958 15.8672L44.0752 0H93.6611L107.778 15.8662Z M68.8701 99.5713C69.8152 99.5718 75.8617 101.687 80.7139 104.174 81.8161 104.739 82.8499 105.266 83.8018 105.752 87.0404 107.405 89.3379 108.579 90.207 109.117 91.3308 109.814 90.6456 111.129 89.6221 111.846 88.5981 112.563 74.8372 123.119 73.502 124.285 73.3311 124.435 73.1496 124.597 72.9609 124.766 71.6744 125.914 70.0336 127.38 68.8701 127.38 67.7062 127.38 66.0632 125.913 64.7764 124.765 64.5882 124.596 64.4077 124.434 64.2373 124.285 62.9013 123.119 49.1434 112.564 48.1182 111.846 47.0941 111.129 46.4082 109.814 47.5322 109.117 48.4016 108.578 50.702 107.404 53.9443 105.749 54.8948 105.264 55.9263 104.738 57.0264 104.174 61.8785 101.686 67.9263 99.5713 68.8701 99.5713Z M68.8691 24.3867C68.8691 24.3867 71.6248 24.3962 75.7568 25.7607 76.5915 26.0363 77.4403 26.3257 78.2803 26.6123 81.5986 27.7445 84.782 28.8309 86.4307 28.8311 88.4947 28.8311 103.79 25.9374 103.82 25.9316 103.894 26.0201 121.979 47.6878 121.979 52.3262 121.979 56.1688 120.418 57.673 118.579 59.4443 118.194 59.8154 117.796 60.1987 117.398 60.6172L103.782 74.9404C103.647 75.0824 103.497 75.2323 103.338 75.3906 101.979 76.7444 99.9775 78.7383 101.39 82.0488 101.484 82.2699 101.581 82.4946 101.68 82.7227 103.228 86.3098 105.14 90.7382 102.707 95.2256 100.119 99.9983 95.6856 103.184 92.8447 102.658 90.004 102.131 83.3325 98.6764 80.8789 97.0986 78.4256 95.5209 70.6495 89.1682 70.6494 86.7373 70.6494 84.71 76.2408 81.337 78.958 79.6982 79.4984 79.3722 79.9255 79.1147 80.1719 78.9502 80.4524 78.763 80.9218 78.4744 81.499 78.1191 83.9789 76.5927 88.4559 73.8374 88.5693 72.6152 88.7077 71.1085 88.655 70.6665 86.6562 66.9443 86.2311 66.1529 85.7337 65.3048 85.2197 64.4287 83.3162 61.1843 81.1844 57.5507 81.6562 54.9482 82.1891 52.0107 86.8357 50.3261 90.7715 48.8994 91.2632 48.7211 91.744 48.5471 92.2041 48.375 93.3527 47.9453 94.797 47.4101 96.3047 46.8506 100.234 45.3924 104.6 43.7723 105.32 43.4434 106.317 42.988 106.059 42.554 103.04 42.2705 102.641 42.233 102.144 42.1811 101.574 42.1211 97.8372 41.7276 90.9454 41.0015 87.5947 41.9268 86.9356 42.1087 86.1966 42.3068 85.4219 42.5146 81.6573 43.5245 77.0438 44.7631 76.6006 45.4766 76.5231 45.6013 76.4468 45.7084 76.375 45.8096 75.951 46.4067 75.6743 46.7961 76.1436 49.333 76.2832 50.0885 76.5707 51.5755 76.9258 53.4131 77.9657 58.7935 79.5876 67.1859 79.792 69.0713 79.8206 69.3352 79.8525 69.59 79.8828 69.835 80.143 71.9383 80.3153 73.338 77.8496 73.8965 77.6445 73.9429 77.429 73.992 77.2051 74.043 74.4226 74.6754 70.3429 75.6025 68.8691 75.6025 67.3942 75.6023 63.3122 74.6745 60.5303 74.042 60.3076 73.9913 60.0927 73.9427 59.8887 73.8965 57.4232 73.3379 57.5963 71.9382 57.8564 69.835 57.8867 69.59 57.9176 69.3352 57.9463 69.0713 58.1512 67.1832 59.7776 58.7701 60.8174 53.3906 61.1706 51.5634 61.4566 50.0855 61.5957 49.333 62.0646 46.7962 61.788 46.4066 61.3643 45.8096 61.2923 45.7083 61.2161 45.6012 61.1387 45.4766 60.6954 44.7631 56.0819 43.5255 52.3174 42.5156 51.5425 42.3078 50.8038 42.1087 50.1445 41.9268 46.794 41.0015 39.9022 41.7276 36.165 42.1211 35.5949 42.1811 35.0979 42.233 34.6982 42.2705 31.68 42.554 31.4224 42.988 32.4189 43.4434 33.1394 43.7723 37.5032 45.3909 41.4316 46.8486 42.9404 47.4085 44.3849 47.9449 45.5342 48.375 45.9946 48.5473 46.4758 48.722 46.9678 48.9004 50.9032 50.3271 55.5502 52.0109 56.083 54.9482 56.5547 57.5502 54.4236 61.1828 52.5205 64.4268 52.0062 65.3035 51.5082 66.1523 51.083 66.9443 49.0842 70.6665 49.0312 71.1085 49.1699 72.6152 49.2831 73.8372 53.7583 76.5918 56.2383 78.1182 56.8162 78.474 57.2867 78.7629 57.5674 78.9502 57.8136 79.1145 58.2396 79.3717 58.7793 79.6973 61.4961 81.3357 67.0898 84.7097 67.0898 86.7373 67.0898 89.1682 59.3138 95.5209 56.8604 97.0986 54.407 98.6764 47.7353 102.131 44.8945 102.658 42.0537 103.185 37.6202 99.9984 35.0322 95.2256 32.5997 90.7385 34.5107 86.3106 36.0586 82.7236 36.1571 82.4952 36.2543 82.2702 36.3486 82.0488 37.761 78.7377 35.7597 76.7434 34.4004 75.3896 34.2416 75.2314 34.0909 75.0823 33.9561 74.9404 33.2107 74.1562 29.5418 70.296 26.1357 66.7129 23.6528 64.101 21.3093 61.6361 20.3408 60.6172 19.943 60.1988 19.5453 59.8153 19.1602 59.4443 17.3212 57.6729 15.7598 56.1689 15.7598 52.3262 15.7598 47.6878 33.8452 26.02 33.9189 25.9316 33.9498 25.9375 49.2447 28.8311 51.3086 28.8311 52.9573 28.8309 56.1407 27.7444 59.459 26.6123 60.299 26.3257 61.1478 26.0363 61.9824 25.7607 66.0828 24.4067 68.8272 24.3869 68.8691 24.3867Z" fill="black"/>
</svg>