<svg width="160" height="160" viewBox="0 0 160 160" fill="none" xmlns="http://www.w3.org/2000/svg">
<path d="M64.275 89.4375C64.5875 82.6625 60.5875 77.1687 55.3562 77.1687C50.125 77.1687 45.625 82.3687 45.3125 89.1437C45 95.9187 49.5812 98.675 54.8187 98.675C60.0562 98.675 63.9625 96.2125 64.275 89.4375Z" fill="black"/>
<path d="M80 0C35.8187 0 0 35.8187 0 80C0 102.094 8.95625 122.094 23.4313 136.569L8.19375 151.806C5.16875 154.831 7.3125 160 11.5875 160H80C124.181 160 160 124.181 160 80C160 35.8187 124.181 0 80 0ZM133.356 94.1687C132.769 115.875 109.106 133.338 80.0375 133.338C50.9687 133.338 27.3375 115.894 26.7188 94.2062C20.3625 91.225 15.9625 84.775 15.9625 77.2875C15.9625 66.9688 24.325 58.6063 34.6438 58.6063C38.9438 58.6063 42.9062 60.0625 46.0625 62.5063C54.5625 57.2375 65.2688 53.9 76.9938 53.4062V53.3375C76.9938 42.2563 85.4125 33.1125 96.1938 31.9563C97.4438 25.8875 102.813 21.325 109.25 21.325C116.613 21.325 122.581 27.2938 122.581 34.6563C122.581 42.0188 116.613 47.9875 109.25 47.9875C102.944 47.9875 97.6625 43.6063 96.275 37.725V37.7375C88.625 38.8188 82.725 45.4062 82.725 53.3438V53.3938C94.5688 53.8375 105.394 57.175 113.969 62.4813C117.119 60.0563 121.063 58.6125 125.344 58.6125C135.663 58.6125 144.025 66.975 144.025 77.2937C144.025 84.7375 139.662 91.1687 133.356 94.1687Z" fill="black"/>
<path d="M98.5 104.819C92.7438 104.237 86.5313 103.919 80.0375 103.919C73.5438 103.919 67.325 104.237 61.575 104.819C60.5938 104.919 59.9688 105.937 60.35 106.85C63.575 114.544 71.1688 119.95 80.0375 119.95C88.9063 119.95 96.5063 114.544 99.725 106.85C100.106 105.937 99.4813 104.919 98.5 104.819Z" fill="black"/>
<path d="M104.725 77.1687C99.4875 77.1687 95.4937 82.6625 95.8062 89.4375C96.1187 96.2187 100.031 98.675 105.262 98.675C110.494 98.675 115.081 95.9187 114.769 89.1437C114.462 82.3687 109.962 77.1687 104.725 77.1687Z" fill="black"/>
</svg>