<svg width="200" height="200" viewBox="0 0 200 200" fill="none" xmlns="http://www.w3.org/2000/svg">
<path d="M100 0C155.23 0 200 44.77 200 100C200 155.23 155.23 200 100 200C44.77 200 0 155.23 0 100C0 44.77 44.77 0 100 0ZM100 180C144.18 180 180 144.18 180 100C180 55.82 144.18 20 100 20C55.82 20 20 55.82 20 100C20 144.18 55.82 180 100 180Z" fill="black"/>
<path d="M64.6482 64.6432H84.6452V101.215L128.288 57.5721L142.43 71.7142L98.7873 115.357H135.345V135.354L64.6482 135.354V64.6432Z" fill="black"/>
</svg>