<svg width="160" height="160" viewBox="0 0 160 160" fill="none" xmlns="http://www.w3.org/2000/svg">
<path fill-rule="nonzero" clip-rule="evenodd" d="M140 0C151.046 0 160 8.95431 160 20V140C160 151.046 151.046 160 140 160H20C8.95431 160 0 151.046 0 140V20C0 8.95431 8.95431 0 20 0H140Z M110 94C118.284 94 125 100.716 125 109 125 117.284 118.284 124 110 124 101.716 124 95 117.284 95 109 95 100.716 101.716 94 110 94Z M80 65C88.2843 65 95 71.7157 95 80 95 88.2843 88.2843 95 80 95 71.7157 95 65 88.2843 65 80 65 71.7157 71.7157 65 80 65Z M50 35C58.2843 35 65 41.7157 65 50 65 58.2843 58.2843 65 50 65 41.7157 65 35 58.2843 35 50 35 41.7157 41.7157 35 50 35Z" fill="black"/>
</svg>