<svg width="200" height="200" viewBox="0 0 200 200" fill="none" xmlns="http://www.w3.org/2000/svg">
<path d="M100 0C44.77 0 0 44.77 0 100C0 155.23 44.77 200 100 200C155.23 200 200 155.23 200 100C200 44.77 155.23 0 100 0ZM100 180C55.82 180 20 144.18 20 100C20 55.82 55.82 20 100 20C144.18 20 180 55.82 180 100C180 144.18 144.18 180 100 180Z" fill="black"/>
<path d="M135.352 64.6432H115.355V101.215L71.7122 57.5721L57.5701 71.7142L101.213 115.357H64.6553V135.354L135.352 135.354V64.6432Z" fill="black"/>
</svg>