<svg width="188" height="180" viewBox="0 0 188 180" fill="none" xmlns="http://www.w3.org/2000/svg">
<path fill-rule="nonzero" clip-rule="evenodd" d="M79.7499 9.72657C84.6262 -3.45148 103.64 -3.23871 108.06 10.3643L123.287 57.2266H172.561C187.092 57.2272 193.133 75.8214 181.378 84.3623L141.514 113.324L156.741 160.187C161.231 174.006 145.414 185.497 133.658 176.957L93.7948 147.994L53.9315 176.957C42.1758 185.498 26.3585 174.006 30.8485 160.187L46.0751 113.324L6.2118 84.3623C-5.54352 75.8213 0.497813 57.227 15.0282 57.2266H64.3026L79.5292 10.3643L79.7499 9.72657Z M54.6249 151.73L60.2997 134.263C63.0833 136.822 66.1612 139.066 69.4764 140.939L54.6249 151.73Z M127.288 134.263L132.964 151.73 118.111 140.94C121.427 139.067 124.504 136.822 127.288 134.263Z M45.2665 88.0156L30.4169 77.2266 48.7704 77.2266C47.2098 80.633 46.0237 84.2466 45.2665 88.0156Z M138.818 77.2266L157.173 77.2266 142.322 88.0156C141.565 84.2466 140.379 80.633 138.818 77.2266Z M88.121 48.6406L93.7948 31.1787 99.4677 48.6406C97.6062 48.4282 95.7132 48.3193 93.7948 48.3193 91.8762 48.3193 89.9828 48.4282 88.121 48.6406Z" fill="black"/>
<path d="M93.7948 30.8194L108.837 77.1152H157.516L118.134 105.728L133.176 152.024L93.7948 123.411L54.4132 152.024L69.4556 105.728L30.074 77.1152H78.7524L93.7948 30.8194Z" fill="black"/>
</svg>