<svg width="160" height="101" viewBox="0 0 160 101" fill="none" xmlns="http://www.w3.org/2000/svg">
<path d="M64.44 44.94C73.27 40.72 77.88 34.33 77.88 24.38C77.89 4.78 63.28 0 46.42 0H0V98.44H47.72C65.61 98.44 82.41 89.86 82.41 69.86C82.41 57.5 76.55 48.36 64.44 44.94ZM21.64 16.81H41.95C49.76 16.81 56.78 19 56.78 28.06C56.78 36.42 51.31 39.78 43.59 39.78H21.65V16.81H21.64ZM44.78 81.72H21.64V54.61H45.22C54.75 54.61 60.78 58.58 60.78 68.67C60.78 78.76 53.59 81.73 44.78 81.73V81.72ZM144.36 14.86H104.44V5.17H144.36V14.86ZM160 63.83C160 42.75 147.67 25.16 125.31 25.16C102.95 25.16 88.84 41.49 88.84 62.88C88.84 84.27 102.81 100.3 125.31 100.3C142.34 100.3 153.37 92.63 158.67 76.33H141.39C139.53 82.41 131.86 85.64 125.92 85.64C114.45 85.64 108.42 78.92 108.42 67.5H159.84C159.92 66.33 160.01 65.08 160.01 63.83H160ZM108.44 55.17C109.08 45.81 115.3 39.95 124.69 39.95C134.08 39.95 139.47 45.73 140.3 55.17H108.44Z" fill="black"/>
</svg>