<svg width="240" height="240" viewBox="0 0 240 240" fill="none" xmlns="http://www.w3.org/2000/svg">
<path d="M163.5 113.43C162.72 113.06 161.94 112.7 161.14 112.36C159.75 86.76 145.76 72.1 122.27 71.95C122.16 71.95 122.06 71.95 121.95 71.95C107.9 71.95 96.22 77.95 89.03 88.86L101.95 97.72C107.32 89.57 115.75 87.83 121.96 87.83C122.03 87.83 122.1 87.83 122.17 87.83C129.9 87.88 135.74 90.13 139.52 94.51C142.27 97.7 144.11 102.11 145.02 107.68C138.16 106.51 130.75 106.16 122.82 106.61C100.49 107.9 86.13 120.92 87.1 139.02C87.59 148.2 92.16 156.1 99.98 161.26C106.59 165.62 115.1 167.75 123.94 167.27C135.62 166.63 144.78 162.17 151.17 154.03C156.02 147.84 159.09 139.82 160.45 129.72C166.02 133.08 170.14 137.5 172.42 142.81C176.29 151.84 176.52 166.69 164.41 178.79C153.8 189.39 141.04 193.98 121.77 194.12C100.39 193.96 84.21 187.1 73.7 173.74C63.85 161.22 58.77 143.14 58.58 120.01C58.77 96.87 63.86 78.79 73.7 66.28C84.21 52.91 100.39 46.06 121.77 45.9C143.31 46.06 159.76 52.95 170.68 66.38C176.03 72.97 180.07 81.25 182.73 90.91L197.87 86.87C194.64 74.98 189.57 64.74 182.66 56.24C168.66 39.01 148.19 30.18 121.82 30H121.71C95.39 30.18 75.15 39.04 61.55 56.32C49.45 71.71 43.21 93.11 43 119.94V120V120.06C43.21 146.89 49.45 168.29 61.55 183.67C75.15 200.95 95.39 209.81 121.71 209.99H121.82C145.22 209.83 161.71 203.7 175.3 190.13C193.08 172.37 192.54 150.11 186.68 136.44C182.48 126.64 174.46 118.68 163.5 113.42V113.43ZM123.1 151.41C113.31 151.96 103.14 147.57 102.64 138.16C102.27 131.18 107.61 123.4 123.7 122.47C125.54 122.36 127.35 122.31 129.13 122.31C134.98 122.31 140.44 122.88 145.42 123.96C143.57 147.12 132.69 150.88 123.11 151.4L123.1 151.41Z" fill="black"/>
</svg>
