<svg width="200" height="152" viewBox="0 0 200 152" fill="none" xmlns="http://www.w3.org/2000/svg">
<path d="M157.28 58.96C163.72 64.24 169.23 69.58 173.55 74.11C169.25 78.61 163.77 83.92 157.38 89.17L171.58 103.37C189.16 88.62 199.99 74.11 199.99 74.11C199.99 74.11 155.22 14.11 99.99 14.11C94.54 14.11 89.18 14.7 83.97 15.76L102.38 34.17C123.8 35.08 143.95 48.03 157.28 58.97V58.96Z" fill="black"/>
<path d="M155.45 115.42L40.04 0L22.97 17.07L41.05 35.15C16.17 52.45 0 74.1 0 74.1C0 74.1 44.77 134.1 100 134.1C111.62 134.1 122.77 131.44 133.14 127.24L157.03 151.13L174.1 134.06L155.45 115.41V115.42ZM100 114.1C77.69 114.1 56.54 100.59 42.72 89.25C36.28 83.97 30.77 78.63 26.45 74.1C30.77 69.57 36.28 64.23 42.72 58.95C46.47 55.88 50.76 52.64 55.47 49.56L71.31 65.4C70.46 68.17 70.01 71.11 70.01 74.16C70.01 90.73 83.44 104.16 100.01 104.16C103.06 104.16 106 103.7 108.77 102.86L117.43 111.52C111.78 113.13 105.94 114.1 100.01 114.1H100Z" fill="black"/>
</svg>