<svg width="137" height="160" viewBox="0 0 137 160" fill="none" xmlns="http://www.w3.org/2000/svg">
<path d="M106.596 74.1641C105.906 73.8352 105.216 73.5152 104.508 73.213C103.279 50.4561 90.9028 37.4243 70.1233 37.291C70.026 37.291 69.9375 37.291 69.8402 37.291C57.4114 37.291 47.0791 42.6246 40.7187 52.3229L52.1479 60.1989C56.8983 52.9541 64.3556 51.4073 69.849 51.4073C69.911 51.4073 69.9729 51.4073 70.0348 51.4073C76.8729 51.4517 82.039 53.4519 85.3828 57.3454C87.8155 60.1811 89.4432 64.1013 90.2482 69.0527C84.1798 68.0127 77.6248 67.7015 70.6098 68.1016C50.8564 69.2483 38.1534 80.8223 39.0114 96.912C39.4449 105.073 43.4876 112.095 50.4052 116.682C56.2525 120.558 63.7806 122.451 71.6006 122.025C81.9328 121.456 90.0359 117.491 95.6886 110.255C99.9789 104.752 102.695 97.6232 103.898 88.6449C108.825 91.6318 112.47 95.5609 114.487 100.281C117.91 108.308 118.114 121.509 107.401 132.265C98.0151 141.688 86.7274 145.768 69.681 145.893C50.7679 145.75 36.4549 139.652 27.1576 127.776C18.4442 116.646 13.9503 100.574 13.7823 80.0133C13.9503 59.4433 18.453 43.3713 27.1576 32.2507C36.4549 20.3656 50.7679 14.2763 69.681 14.1341C88.7355 14.2763 103.287 20.4011 112.947 32.3396C117.68 38.1977 121.254 45.5581 123.607 54.1452L137 50.5539C134.143 39.9844 129.658 30.8817 123.545 23.3257C111.16 8.00933 93.0524 0.160009 69.7252 0H69.6279C46.3449 0.160009 28.4403 8.036 16.4096 23.3969C5.70575 37.0776 0.185769 56.1009 0 79.9511V80.0578C0.185769 103.908 5.70575 122.931 16.4096 136.603C28.4403 151.964 46.3449 159.84 69.6279 160H69.7252C90.4251 159.858 105.012 154.409 117.034 142.346C132.763 126.558 132.285 106.77 127.101 94.6186C123.386 85.907 116.291 78.831 106.596 74.1552V74.1641ZM70.8575 107.926C62.1971 108.415 53.2006 104.512 52.7583 96.1476C52.431 89.9428 57.1548 83.0268 71.3883 82.2001C73.0159 82.1023 74.6171 82.0579 76.1917 82.0579C81.3667 82.0579 86.1967 82.5646 90.6021 83.5246C88.9655 104.112 79.3409 107.455 70.8663 107.917L70.8575 107.926Z" fill="black"/>
</svg>