<svg width="160" height="160" viewBox="0 0 160 160" fill="none" xmlns="http://www.w3.org/2000/svg">
<path d="M80 0C115.044 0 134.516 0.000156403 147.275 12.7012C159.999 25.4377 160 44.913 160 79.9824C160 115.052 159.999 134.527 147.275 147.264C134.516 160 115.044 160 80 160C44.9561 160 25.4828 160 12.7236 147.299C-0.000237465 134.562 0 115.087 0 80.0176C0 44.9483 -0.000289917 25.4728 12.7236 12.7363C25.4828 -0.000164986 44.9561 0 80 0ZM122.108 37.6807C98.7341 14.2541 60.8079 14.254 37.3984 37.6807C14.0246 61.1073 14.0245 99.0696 37.3984 122.461C60.7727 145.888 98.6989 145.887 122.108 122.461C145.518 99.0343 145.518 61.0721 122.108 37.6807ZM49.4902 50.0293C53.4972 49.8176 56.5902 51.687 58.6289 55.1797C61.4057 59.9426 64.148 64.776 66.9248 69.5742C68.9283 73.0318 70.8608 76.5251 72.8994 79.9121C75.852 84.8868 80.2111 87.6736 86.0107 88.0264C94.2004 88.5201 101.827 82.558 102.812 73.8438C102.882 73.2087 102.917 72.5383 102.952 72.2207C102.917 69.3983 102.39 66.999 101.266 64.7764C98.2077 58.6375 101.476 51.7573 108.119 50.2754C113.532 49.0759 119.156 53.0628 119.859 58.5664C120.211 60.9302 119.719 63.1538 118.523 65.2354C108.647 82.4172 98.7695 99.5993 88.8926 116.816C87.0649 120.027 84.3936 121.932 80.7383 122.214C76.661 122.496 73.4273 120.767 71.3535 117.239C65.0969 106.479 58.9099 95.6476 52.7236 84.8516C48.9627 78.2893 45.1672 71.7265 41.4062 65.1289C37.6102 58.4961 41.898 50.4174 49.4902 50.0293Z" fill="black"/>
</svg>