<svg width="160" height="160" viewBox="0 0 160 160" fill="none" xmlns="http://www.w3.org/2000/svg">
<path fill-rule="nonzero" clip-rule="evenodd" d="M80.0044 36.3644C55.9053 36.3644 36.3665 55.9021 36.3665 79.9999C36.3665 104.098 55.9053 123.635 80.0044 123.635C104.104 123.635 123.642 104.098 123.642 79.9999C123.642 55.9021 104.104 36.3644 80.0044 36.3644Z M80.0044 109.093C63.9413 109.093 50.9095 96.071 50.9095 79.9999C50.9095 63.9288 63.9324 50.9066 80.0044 50.9066C96.0764 50.9066 109.099 63.9288 109.099 79.9999C109.099 96.071 96.0764 109.093 80.0044 109.093Z" fill="black"/>
<path d="M123.642 43.6355C127.658 43.6355 130.914 40.3802 130.914 36.3644C130.914 32.3487 127.658 29.0933 123.642 29.0933C119.626 29.0933 116.371 32.3487 116.371 36.3644C116.371 40.3802 119.626 43.6355 123.642 43.6355Z" fill="black"/>
<path fill-rule="nonzero" clip-rule="evenodd" d="M155.253 23.8222C151.066 15.6089 144.39 8.93333 136.185 4.75556C126.843 0 114.629 0 90.1828 0H69.8172C45.3803 0 33.1574 0 23.8235 4.75556C15.6098 8.94222 8.93383 15.6178 4.75582 23.8222C0 33.1644 0 45.3778 0 69.8222V90.1867C0 114.622 0 126.844 4.75582 136.178C8.94272 144.391 15.6186 151.067 23.8235 155.244C33.1574 160 45.3803 160 69.8172 160H90.1828C114.62 160 126.843 160 136.176 155.244C144.39 151.058 151.066 144.382 155.244 136.178C160 126.844 160 114.622 160 90.1867V69.8222C160 45.3867 160 33.1644 155.244 23.8311L155.253 23.8222Z M145.466 90.1778L145.466 69.8133C145.466 57.3511 145.457 48.8889 144.924 42.3378 144.408 35.9644 143.457 32.7022 142.301 30.4267 139.51 24.9511 135.065 20.5067 129.589 17.7156 127.314 16.56 124.051 15.6178 117.678 15.0933 111.126 14.56 102.663 14.5511 90.2006 14.5511L69.835 14.5511C57.3721 14.5511 48.9005 14.56 42.3579 15.0933 35.9842 15.6089 32.7218 16.56 30.4461 17.7156 24.9703 20.4978 20.5256 24.9511 17.7343 30.4267 16.5787 32.7022 15.6364 35.9644 15.1119 42.3378 14.5786 48.8889 14.5697 57.3511 14.5697 69.8133L14.5697 90.1778C14.5697 102.64 14.5786 111.102 15.1119 117.653 15.6275 124.027 16.5787 127.289 17.7343 129.564 20.5256 135.04 24.9703 139.484 30.4461 142.276 32.7218 143.431 35.9842 144.373 42.3579 144.898 48.9005 145.431 57.3721 145.44 69.835 145.44L90.2006 145.44C102.663 145.44 111.126 145.431 117.678 144.898 124.051 144.382 127.314 143.431 129.589 142.276 135.065 139.484 139.51 135.04 142.301 129.564 143.457 127.289 144.399 124.027 144.924 117.653 145.457 111.102 145.466 102.64 145.466 90.1778Z" fill="black"/>
</svg>