<svg width="200" height="120" viewBox="0 0 200 120" fill="none" xmlns="http://www.w3.org/2000/svg">
<path d="M40 50C45.5228 50 50 54.4772 50 60C50 65.5228 45.5228 70 40 70C34.4772 70 30 65.5228 30 60C30 54.4772 34.4772 50 40 50Z" fill="black"/>
<path fill-rule="nonzero" clip-rule="evenodd" d="M180 0C190.873 4.75273e-07 199.719 8.67646 199.993 19.4834L200 20V100C200 111.046 191.046 120 180 120H20C8.95431 120 -1.44847e-06 111.046 0 100V20C0 8.95431 8.95431 0 20 0H180Z M20 100L20 20 180 20 180 100 20 100Z" fill="black"/>
</svg>