<svg width="130" height="190" viewBox="0 0 130 190" fill="none" xmlns="http://www.w3.org/2000/svg">
<path fill-rule="nonzero" clip-rule="evenodd" d="M130 60H110V34L91.6553 52.3428C96.9262 60.2645 100 69.7735 100 80C100 104.185 82.8197 124.365 60 128.999V140H90V160H60V190H40V160H10V140H40V128.999C17.1803 124.365 0 104.185 0 80C0 52.39 22.39 30 50 30C60.2255 30 69.734 33.0728 77.6553 38.3428L96 20H70V0H130V60Z M50 50C66.57 50 80 63.43 80 80 80 96.57 66.57 110 50 110 33.43 110 20 96.57 20 80 20 63.43 33.43 50 50 50Z" fill="black"/>
</svg>