<svg width="160" height="160" viewBox="0 0 160 160" fill="none" xmlns="http://www.w3.org/2000/svg">
<path fill-rule="nonzero" clip-rule="evenodd" d="M50 100C63.062 100 74.1725 108.348 78.291 120H160V140H78.291C74.1725 151.652 63.062 160 50 160C36.938 160 25.8275 151.652 21.709 140H0V120H21.709C25.8275 108.348 36.938 100 50 100Z M50 120C55.5228 120 60 124.477 60 130 60 135.523 55.5228 140 50 140 44.4772 140 40 135.523 40 130 40 124.477 44.4772 120 50 120Z" fill="black"/>
<path fill-rule="nonzero" clip-rule="evenodd" d="M110 0C123.062 1.14191e-06 134.172 8.34839 138.291 20H160V40H138.291C134.172 51.6516 123.062 60 110 60C96.938 60 85.8275 51.6516 81.709 40H0V20H81.709C85.8275 8.34839 96.938 1.09322e-06 110 0Z M110 20C115.523 20 120 24.4772 120 30 120 35.5228 115.523 40 110 40 104.477 40 100 35.5228 100 30 100 24.4772 104.477 20 110 20Z" fill="black"/>
</svg>