<svg width="120" height="120" viewBox="0 0 120 120" fill="none" xmlns="http://www.w3.org/2000/svg">
<path fill-rule="nonzero" clip-rule="evenodd" d="M60 0C93.1371 0 120 26.8629 120 60C120 93.1371 93.1371 120 60 120C26.8629 120 0 93.1371 0 60C0 26.8629 26.8629 0 60 0Z M21.2607 70C24.8786 84.056 35.944 95.1214 50 98.7393V70H21.2607Z M70 70V98.7393C84.056 95.1214 95.1214 84.056 98.7393 70H70Z M50 21.2598C35.9439 24.8775 24.8786 35.944 21.2607 50H50V21.2598Z M70 50H98.7393C95.1214 35.944 84.0561 24.8775 70 21.2598V50Z" fill="black"/>
</svg>