<svg width="160" height="160" viewBox="0 0 160 160" fill="none" xmlns="http://www.w3.org/2000/svg">
<path d="M91.9787 159.097C84.0387 160.302 75.9616 160.302 68.0216 159.097L69.1359 151.687C76.3377 152.778 83.6626 152.778 90.8644 151.687L91.9787 159.097Z" fill="black"/>
<path d="M42.9289 142.3C49.0302 145.959 55.6408 148.694 62.5441 150.414L60.7492 157.688C54.1173 156.062 47.7227 153.587 41.7248 150.323L33.838 152.164L32.133 144.846L42.8615 142.346L42.9289 142.3Z" fill="black"/>
<path d="M121.344 148.483C114.477 152.641 107.021 155.736 99.2287 157.664L97.4328 150.392C104.504 148.647 111.271 145.841 117.503 142.072L121.344 148.483Z" fill="black"/>
<path d="M13.6095 134.504L9.99526 149.983L25.4738 146.391L27.1779 153.733L11.6994 157.301C10.5768 157.551 9.41273 157.551 8.29018 157.301C7.33031 157.076 6.42381 156.664 5.62319 156.089C4.82264 155.514 4.14339 154.786 3.62416 153.948C3.10488 153.11 2.75552 152.178 2.59682 151.205C2.43812 150.232 2.47324 149.237 2.69936 148.278L6.31264 132.799L13.6095 134.504Z" fill="black"/>
<path d="M80.0001 14.9954C92.2804 14.992 104.312 18.4591 114.707 24.9963C145.073 44.134 154.165 84.2732 135.05 114.639C115.935 145.005 75.7949 154.119 45.4064 135.004L18.7462 141.254L24.9962 114.571C18.4958 104.218 15.0385 92.2465 15.0187 80.0227C15.0188 44.1339 44.0886 15.0181 80.0001 14.9954Z" fill="black"/>
<path d="M144.414 127.503C139.633 133.944 133.918 139.636 127.458 144.391L123.003 138.345C128.868 134.034 134.048 128.861 138.368 123.003L144.414 127.503Z" fill="black"/>
<path d="M9.60854 97.3879C11.3068 104.313 14.0268 110.946 17.6779 117.071L15.1769 127.799L7.85854 126.117L9.69936 118.207C6.44599 112.205 3.97106 105.812 2.3351 99.1838L9.60854 97.3879Z" fill="black"/>
<path d="M157.665 99.1838C155.755 107 152.666 114.48 148.505 121.366L142.072 117.503C145.842 111.255 148.647 104.473 150.392 97.3879L157.665 99.1838Z" fill="black"/>
<path d="M8.31362 69.136C7.76836 72.7317 7.49471 76.3634 7.49526 80.0002C7.49557 83.6371 7.76921 87.2687 8.31362 90.8645L0.903461 91.9788C-0.301154 84.0312 -0.301154 75.9469 0.903461 67.9993L8.31362 69.136Z" fill="black"/>
<path d="M159.097 67.9993C160.301 75.9469 160.301 84.0312 159.097 91.9788L151.687 90.8645C152.231 87.2687 152.505 83.6371 152.505 80.0002C152.506 76.3634 152.232 72.7317 151.687 69.136L159.097 67.9993Z" fill="black"/>
<path d="M17.9279 42.4973C14.1625 48.7394 11.3576 55.5132 9.60854 62.5901L2.3351 60.7942C4.24941 52.9865 7.33835 45.5148 11.4953 38.634L17.9279 42.4973Z" fill="black"/>
<path d="M148.505 38.634C152.662 45.5068 155.751 52.9712 157.665 60.7717L150.392 62.5676C148.646 55.4966 145.841 48.7295 142.072 42.4973L148.505 38.634Z" fill="black"/>
<path d="M36.9972 21.6321C31.132 25.9517 25.9516 31.1321 21.632 36.9973L15.5861 32.4973C20.3506 26.051 26.0509 20.3506 32.4972 15.5862L36.9972 21.6321Z" fill="black"/>
<path d="M127.503 15.5862C133.949 20.3506 139.65 26.051 144.414 32.4973L138.368 36.9973C134.049 31.1321 128.868 25.9517 123.003 21.6321L127.503 15.5862Z" fill="black"/>
<path d="M62.59 9.60863C55.5131 11.3577 48.7393 14.1626 42.4972 17.928L38.6564 11.4954C45.5271 7.33456 52.9922 4.24628 60.7941 2.33617L62.59 9.60863Z" fill="black"/>
<path d="M99.2062 2.33617C107.021 4.25034 114.501 7.33819 121.39 11.4954L117.503 17.928C111.261 14.1626 104.487 11.3577 97.4103 9.60863L99.2062 2.33617Z" fill="black"/>
<path d="M68.0216 0.903556C75.9616 -0.301185 84.0387 -0.301185 91.9787 0.903556L90.8644 8.31371C83.6626 7.22261 76.3377 7.22261 69.1359 8.31371L68.0216 0.903556Z" fill="black"/>
</svg>