<svg width="140" height="200" viewBox="0 0 140 200" fill="none" xmlns="http://www.w3.org/2000/svg">
<path d="M50 0C77.6142 0 100 22.3858 100 50V130C100 146.569 86.5685 160 70 160C53.4315 160 40 146.569 40 130V60H60V130C60 135.523 64.4772 140 70 140C75.5228 140 80 135.523 80 130V50C80 33.4315 66.5685 20 50 20C33.4315 20 20 33.4315 20 50V130C20 157.614 42.3858 180 70 180C97.6142 180 120 157.614 120 130V60H140V130C140 168.66 108.66 200 70 200C31.3401 200 0 168.66 0 130V50C0 22.3858 22.3858 0 50 0Z" fill="black"/>
</svg>