<svg width="200" height="200" viewBox="0 0 200 200" fill="none" xmlns="http://www.w3.org/2000/svg">
<path fill-rule="nonzero" clip-rule="evenodd" d="M100 0C155.228 0 200 44.7715 200 100C200 155.228 155.228 200 100 200C44.7715 200 0 155.228 0 100C0 44.7715 44.7715 0 100 0Z M110 60H90V20.6191C53.8129 25.1316 25.1327 53.8129 20.6201 90H60V110H20.6201C25.1326 146.187 53.8129 174.867 90 179.38V140H110V179.38C146.187 174.867 174.867 146.187 179.38 110H140V90H179.38C174.867 53.8129 146.187 25.1316 110 20.6191V60Z" fill="black"/>
</svg>