<svg width="152" height="160" viewBox="0 0 152 160" fill="none" xmlns="http://www.w3.org/2000/svg">
<path d="M151.381 35.4256C149.039 18.2359 133.88 4.67692 115.887 2.05128C112.847 1.6 101.365 0 74.7441 0H74.5387C47.8977 0 42.1874 1.62051 39.1679 2.05128C21.6879 4.61538 5.72794 16.7795 1.84577 34.1744C-0.00287509 42.7487 -0.20828 52.2462 0.140909 60.9641C0.633882 73.4564 0.736584 85.9282 1.88685 98.3795C2.68794 106.646 4.06415 114.851 6.03604 122.913C9.7128 137.826 24.6252 150.236 39.2296 155.282C54.8609 160.554 71.6631 161.436 87.7874 157.805C89.5539 157.395 91.3204 156.923 93.0458 156.39C96.9485 155.159 101.55 153.785 104.918 151.364C104.959 151.323 105 151.282 105.021 151.241C105.041 151.2 105.062 151.138 105.062 151.077V139.015C105.062 139.015 105.062 138.913 105.021 138.872C105 138.831 104.959 138.79 104.918 138.749C104.877 138.708 104.836 138.687 104.774 138.687C104.713 138.687 104.672 138.687 104.61 138.687C94.2987 141.128 83.7204 142.338 73.1009 142.318C54.8404 142.318 49.9312 133.764 48.5139 130.195C47.3842 127.118 46.6652 123.897 46.3777 120.636C46.3777 120.574 46.3777 120.533 46.3982 120.472C46.4187 120.431 46.4598 120.369 46.5009 120.349C46.542 120.308 46.6036 120.287 46.6447 120.287C46.7063 120.287 46.7474 120.287 46.809 120.287C56.956 122.708 67.3496 123.918 77.8047 123.918C80.3106 123.918 82.8166 123.918 85.3225 123.856C95.8187 123.569 106.89 123.036 117.222 121.046C117.489 121.005 117.736 120.944 117.961 120.882C134.25 117.785 149.758 108.082 151.34 83.5282C151.401 82.5641 151.545 73.3949 151.545 72.3897C151.545 68.9846 152.654 48.2051 151.381 35.4256ZM109.17 96.718V55.2615C109.17 46.5436 105.493 42.0923 97.996 42.0923C89.7593 42.0923 85.6512 47.3641 85.6512 57.7641V80.4513H68.6231V57.7641C68.6231 47.3641 64.4944 42.0923 56.2577 42.0923C48.822 42.0923 45.1042 46.5436 45.0836 55.2615V96.718H27.9733V54.0103C27.9733 45.2923 30.2328 38.359 34.7312 33.2103C39.3939 28.0821 45.4944 25.4564 53.0739 25.4564C61.8447 25.4564 68.4793 28.7795 72.8955 35.4462L77.1679 42.5231L81.4404 35.4462C85.8566 28.8 92.4912 25.4564 101.241 25.4564C108.8 25.4564 114.921 28.0821 119.584 33.2103C124.103 38.3385 126.342 45.2718 126.342 54.0103V96.718H109.17Z" fill="black"/>
</svg>