<svg width="200" height="120" viewBox="0 0 200 120" fill="none" xmlns="http://www.w3.org/2000/svg">
<path d="M100 20C122.31 20 143.46 33.51 157.28 44.85C163.72 50.13 169.23 55.47 173.55 60C169.23 64.53 163.72 69.87 157.28 75.15C143.46 86.49 122.3 100 100 100C77.7 100 56.54 86.49 42.72 75.15C36.28 69.87 30.77 64.53 26.45 60C30.77 55.47 36.28 50.13 42.72 44.85C56.54 33.51 77.7 20 100 20ZM100 0C44.77 0 0 60 0 60C0 60 44.77 120 100 120C155.23 120 200 60 200 60C200 60 155.23 0 100 0Z" fill="black"/>
<path d="M99.93 30.0699C83.36 30.0699 69.93 43.4999 69.93 60.0699C69.93 76.6399 83.36 90.0699 99.93 90.0699C116.5 90.0699 129.93 76.6399 129.93 60.0699C129.93 43.4999 116.5 30.0699 99.93 30.0699ZM99.93 70.0699C94.41 70.0699 89.93 65.5899 89.93 60.0699C89.93 54.5499 94.41 50.0699 99.93 50.0699C105.45 50.0699 109.93 54.5499 109.93 60.0699C109.93 65.5899 105.45 70.0699 99.93 70.0699Z" fill="black"/>
</svg>