<svg width="161" height="160" viewBox="0 0 161 160" fill="none" xmlns="http://www.w3.org/2000/svg">
<path d="M9.99117e-07 20H20V140H9.99117e-07V20Z" fill="black"/>
<path d="M140 40H160V140H140V40Z" fill="black"/>
<path d="M9.99117e-07 160V140H160V160H9.99117e-07Z" fill="black"/>
<path d="M9.99117e-07 20L0 4.5897e-06L120 0V20L9.99117e-07 20Z" fill="black"/>
<path d="M50 40V20H80V40H50Z" fill="black"/>
<path d="M120.142 7.74998e-07L160.154 40.0119L146.012 54.1541L106 14.1421L120.142 7.74998e-07Z" fill="black"/>
<path d="M80 60C63.43 60 50 73.43 50 90C50 106.57 63.43 120 80 120C96.57 120 110 106.57 110 90C110 73.43 96.57 60 80 60ZM80 100C74.48 100 70 95.52 70 90C70 84.48 74.48 80 80 80C85.52 80 90 84.48 90 90C90 95.52 85.52 100 80 100Z" fill="black"/>
</svg>