<svg width="160" height="60" viewBox="0 0 160 60" fill="none" xmlns="http://www.w3.org/2000/svg">
<path fill-rule="nonzero" clip-rule="evenodd" d="M110 0C96.938 -1.14191e-06 85.8275 8.34839 81.709 20L1.74846e-06 20L0 40L81.709 40C85.8275 51.6516 96.938 60 110 60C123.062 60 134.172 51.6516 138.291 40H160V20L138.291 20C134.172 8.34839 123.062 1.14191e-06 110 0Z M110 20C115.523 20 120 24.4772 120 30C120 35.5228 115.523 40 110 40C104.477 40 100 35.5228 100 30C100 24.4772 104.477 20 110 20Z" fill="black"/>
</svg>