<svg width="120" height="160" viewBox="0 0 120 160" fill="none" xmlns="http://www.w3.org/2000/svg">
<path fill-rule="nonzero" clip-rule="evenodd" d="M60 0C80.6046 0 95.7107 15.8963 105.006 32.7422C114.564 50.0647 120 71.7251 120 90C120 111.557 114.61 129.202 103.775 141.585C92.7874 154.143 77.3251 160 60 160C42.6749 160 27.2126 154.143 16.2246 141.585C5.38951 129.202 2.03448e-05 111.557 0 90C0 71.7251 5.43597 50.0647 14.9941 32.7422C24.2894 15.8963 39.3954 0 60 0Z M60 20C50.6047 20 40.7106 27.5348 32.5059 42.4043C24.564 56.7975 20 75.1378 20 90C20 108.443 24.6106 120.798 31.2754 128.415C37.7874 135.857 47.3253 140 60 140C72.6748 140 82.2127 135.857 88.7246 128.415C95.3894 120.798 100 108.443 100 90C100 75.1378 95.436 56.7975 87.4941 42.4043C79.2894 27.5348 69.3953 20 60 20Z" fill="black"/>
</svg>