<svg width="200" height="120" viewBox="0 0 200 120" fill="none" xmlns="http://www.w3.org/2000/svg">
<path d="M60 80C48.9543 80 40 71.0457 40 60C40 48.9543 48.9543 40 60 40C71.0457 40 80 48.9543 80 60C80 71.0457 71.0457 80 60 80Z" fill="black"/>
<path fill-rule="nonzero" clip-rule="evenodd" d="M60 120C26.8629 120 -2.89694e-06 93.1371 0 60C2.89694e-06 26.8629 26.8629 -2.89694e-06 60 0L140 6.99382e-06C173.137 9.89076e-06 200 26.8629 200 60C200 93.1371 173.137 120 140 120L60 120Z M140 100C162.091 100 180 82.0914 180 60C180 37.9086 162.091 20 140 20L60 20C37.9086 20 20 37.9086 20 60C20 82.0914 37.9086 100 60 100L140 100Z" fill="black"/>
</svg>