<svg width="160" height="200" viewBox="0 0 160 200" fill="none" xmlns="http://www.w3.org/2000/svg">
<path d="M40 50C40 55.5229 44.4771 60 50 60C55.5228 60 60 55.5229 60 50C60 44.4772 55.5228 40 50 40C44.4771 40 40 44.4772 40 50Z" fill="black"/>
<path fill-rule="nonzero" clip-rule="evenodd" d="M6.99382e-06 180C7.94437e-06 190.873 8.67647 199.719 19.4834 199.993L20 200H140C151.046 200 160 191.046 160 180V20C160 8.95431 151.046 -1.93129e-06 140 0L20 5.24537e-06C8.95431 5.72819e-06 -4.82823e-07 8.95431 0 20L6.99382e-06 180Z M140 20L20 20 20 180 140 180 140 20Z" fill="black"/>
<path d="M90 50C90 44.4772 94.4772 40 100 40H120C125.523 40 130 44.4772 130 50C130 55.5229 125.523 60 120 60H100C94.4772 60 90 55.5229 90 50Z" fill="black"/>
</svg>