<svg width="180" height="180" viewBox="0 0 180 180" fill="none" xmlns="http://www.w3.org/2000/svg">
<path fill-rule="nonzero" clip-rule="evenodd" d="M90 40.9099C62.89 40.9099 40.91 62.8899 40.91 89.9999C40.91 117.11 62.89 139.09 90 139.09C117.11 139.09 139.09 117.11 139.09 89.9999C139.09 62.8899 117.11 40.9099 90 40.9099Z M90 122.73C71.93 122.73 57.27 108.08 57.27 89.9999C57.27 71.9199 71.92 57.2699 90 57.2699C108.08 57.2699 122.73 71.9199 122.73 89.9999C122.73 108.08 108.08 122.73 90 122.73Z" fill="black"/>
<path d="M139.09 49.09C143.608 49.09 147.27 45.4277 147.27 40.91C147.27 36.3923 143.608 32.73 139.09 32.73C134.572 32.73 130.91 36.3923 130.91 40.91C130.91 45.4277 134.572 49.09 139.09 49.09Z" fill="black"/>
<path fill-rule="nonzero" clip-rule="evenodd" d="M174.65 26.8C169.94 17.56 162.43 10.05 153.2 5.35C142.69 0 128.95 0 101.45 0H78.54C51.05 0 37.3 0 26.8 5.35C17.56 10.06 10.05 17.57 5.35 26.8C0 37.31 0 51.05 0 78.55V101.46C0 128.95 0 142.7 5.35 153.2C10.06 162.44 17.57 169.95 26.8 174.65C37.3 180 51.05 180 78.54 180H101.45C128.94 180 142.69 180 153.19 174.65C162.43 169.94 169.94 162.43 174.64 153.2C179.99 142.7 179.99 128.95 179.99 101.46V78.55C179.99 51.06 179.99 37.31 174.64 26.81L174.65 26.8Z M163.64 101.45L163.64 78.54C163.64 64.52 163.63 55 163.03 47.63 162.45 40.46 161.38 36.79 160.08 34.23 156.94 28.07 151.94 23.07 145.78 19.93 143.22 18.63 139.55 17.57 132.38 16.98 125.01 16.38 115.49 16.37 101.47 16.37L78.56 16.37C64.54 16.37 55.01 16.38 47.65 16.98 40.48 17.56 36.81 18.63 34.25 19.93 28.09 23.06 23.09 28.07 19.95 34.23 18.65 36.79 17.59 40.46 17 47.63 16.4 55 16.39 64.52 16.39 78.54L16.39 101.45C16.39 115.47 16.4 124.99 17 132.36 17.58 139.53 18.65 143.2 19.95 145.76 23.09 151.92 28.09 156.92 34.25 160.06 36.81 161.36 40.48 162.42 47.65 163.01 55.01 163.61 64.54 163.62 78.56 163.62L101.47 163.62C115.49 163.62 125.01 163.61 132.38 163.01 139.55 162.43 143.22 161.36 145.78 160.06 151.94 156.92 156.94 151.92 160.08 145.76 161.38 143.2 162.44 139.53 163.03 132.36 163.63 124.99 163.64 115.47 163.64 101.45Z" fill="black"/>
</svg>