<svg width="180" height="160" viewBox="0 0 180 160" fill="none" xmlns="http://www.w3.org/2000/svg">
<path d="M180 150H160V118.758C146.353 143.353 120.121 160 90 160C52.7232 160 21.4014 134.505 12.5205 100H33.415C41.6518 123.304 63.8757 140 90 140C116.124 140 138.348 123.304 146.585 100H130V80H180V150Z" fill="black"/>
<path d="M90 0C127.277 0 158.599 25.4955 167.479 60H146.585C138.348 36.6963 116.124 20 90 20C63.8757 20 41.6518 36.6963 33.415 60H50V80H0V10H20V41.2412C33.6471 16.6465 59.8793 0 90 0Z" fill="black"/>
<path d="M80 40H100V90H80V40Z" fill="black"/>
<path d="M89.7598 101C95.1497 101 99.5194 105.37 99.5195 110.76C99.5195 116.15 95.1498 120.52 89.7598 120.52C84.3699 120.519 80 116.15 80 110.76C80.0001 105.37 84.37 101 89.7598 101Z" fill="black"/>
</svg>