<svg width="121" height="201" viewBox="0 0 121 201" fill="none" xmlns="http://www.w3.org/2000/svg">
<path d="M59.93 170.07C65.32 170.07 69.69 165.7 69.69 160.31C69.69 154.92 65.32 150.55 59.93 150.55C54.54 150.55 50.17 154.92 50.17 160.31C50.17 165.7 54.54 170.07 59.93 170.07Z" fill="black"/>
<path d="M120.07 20.15C120.07 9.02 111.05 0 99.92 0H20.22C14.64 0 9.58 2.27 5.94 5.94C2.27 9.59 0 14.64 0 20.22V180C0 180 0 180.05 0 180.07C0 191.2 9.02 200.22 20.15 200.22H99.85C110.98 200.22 120 191.2 120 180.07C120 180.07 120 180.02 120 180V20.22C120 20.22 120 20.17 120 20.15H120.08H120.07ZM99.85 180.07H20.15V20.15H99.85V180.08V180.07Z" fill="black"/>
</svg>