<svg width="160" height="120" viewBox="0 0 160 120" fill="none" xmlns="http://www.w3.org/2000/svg">
<path d="M10.9091 120H36.3636V58.1974L0 30.9315V109.094C0 115.128 4.89091 120 10.9091 120Z" fill="black"/>
<path d="M123.636 120H149.091C155.127 120 160 115.11 160 109.094V30.9315L123.636 58.1974" fill="black"/>
<path d="M123.636 10.9373V58.1974L160 30.9315V16.3905C160 2.90294 144.6 -4.78603 133.818 3.30284" fill="black"/>
<path d="M36.3636 58.1974V10.9365L80 43.6556L123.636 10.9373V58.1974L80 90.9164" fill="black"/>
<path d="M0 16.3905V30.9315L36.3636 58.1974V10.9365L26.1818 3.30284C15.3818 -4.78603 0 2.90294 0 16.3905Z" fill="black"/>
</svg>