<svg width="123" height="161" viewBox="0 0 123 161" fill="none" xmlns="http://www.w3.org/2000/svg">
<path fill-rule="nonzero" clip-rule="evenodd" d="M61.2227 0C62.8795 1.907e-05 64.2227 1.34316 64.2227 3V42.5645L100.001 6.86523C100.859 6.00869 102.149 5.75307 103.27 6.21777C104.389 6.68252 105.12 7.7758 105.12 8.98828V46.6934H119.627C121.284 46.6936 122.627 48.0367 122.627 49.6934V107.824C122.627 109.481 121.284 110.824 119.627 110.824H105.12V148.773C105.12 149.986 104.39 151.08 103.27 151.545C102.149 152.01 100.859 151.754 100.001 150.897L64.2227 115.196V157.217C64.2226 158.874 62.8795 160.217 61.2227 160.217C59.566 160.217 58.2227 158.874 58.2227 157.217V115.385L22.6299 150.897C21.7714 151.754 20.4814 152.01 19.3613 151.545C18.2412 151.08 17.5108 149.986 17.5107 148.773V110.824H3C1.34316 110.824 1.90703e-05 109.481 0 107.824V49.6934C4.32935e-05 48.0365 1.34317 46.6934 3 46.6934H17.5068V8.98828C17.507 7.77571 18.2374 6.68246 19.3574 6.21777C20.4776 5.75313 21.7675 6.00871 22.626 6.86523L58.2227 42.3799V3C58.2227 1.34326 59.566 0.000191714 61.2227 0Z M23.5107 91.6514L58.2227 57.0186 58.2227 106.909 23.5107 141.542 23.5107 91.6514Z M64.3174 106.815L64.3174 56.9277 99.1191 91.6504 99.1152 107.824 99.1201 107.923 99.1201 141.542 64.3174 106.815Z M6 104.824L6 52.6934 20.2891 52.6934C20.361 52.6985 20.4336 52.7021 20.5068 52.7021L54.0508 52.7021 18.3926 88.2832 18.1924 88.5029C17.7539 89.0369 17.5109 89.7092 17.5107 90.4062L17.5078 104.824 6 104.824Z M102.12 52.7021C102.193 52.7021 102.266 52.6985 102.338 52.6934L116.627 52.6934 116.627 104.824 105.12 104.824 105.12 90.4062C105.12 89.6096 104.802 88.8459 104.238 88.2832L68.5801 52.7021 102.12 52.7021Z M23.5068 46.6934L23.5068 16.2197 54.0498 46.6934 23.5068 46.6934Z M68.5791 46.6934L99.1201 16.2188 99.1201 46.6934 68.5791 46.6934Z" fill="black"/>
</svg>