<svg width="240" height="240" viewBox="0 0 240 240" fill="none" xmlns="http://www.w3.org/2000/svg">
<path fill-rule="evenodd" clip-rule="evenodd" d="M120 70.9099C92.8899 70.9099 70.9099 92.8899 70.9099 120C70.9099 147.11 92.8899 169.09 120 169.09C147.11 169.09 169.09 147.11 169.09 120C169.09 92.8899 147.11 70.9099 120 70.9099ZM120 152.73C101.93 152.73 87.2699 138.08 87.2699 120C87.2699 101.92 101.92 87.2699 120 87.2699C138.08 87.2699 152.73 101.92 152.73 120C152.73 138.08 138.08 152.73 120 152.73Z" fill="black"/>
<path d="M169.09 79.09C173.608 79.09 177.27 75.4277 177.27 70.91C177.27 66.3923 173.608 62.73 169.09 62.73C164.572 62.73 160.91 66.3923 160.91 70.91C160.91 75.4277 164.572 79.09 169.09 79.09Z" fill="black"/>
<path fill-rule="evenodd" clip-rule="evenodd" d="M204.65 56.8C199.94 47.56 192.43 40.05 183.2 35.35C172.69 30 158.95 30 131.45 30H108.54C81.05 30 67.3 30 56.8 35.35C47.56 40.06 40.05 47.57 35.35 56.8C30 67.31 30 81.05 30 108.55V131.46C30 158.95 30 172.7 35.35 183.2C40.06 192.44 47.57 199.95 56.8 204.65C67.3 210 81.05 210 108.54 210H131.45C158.94 210 172.69 210 183.19 204.65C192.43 199.94 199.94 192.43 204.64 183.2C209.99 172.7 209.99 158.95 209.99 131.46V108.55C209.99 81.06 209.99 67.31 204.64 56.81L204.65 56.8ZM193.64 131.45C193.64 145.47 193.63 154.99 193.03 162.36C192.44 169.53 191.38 173.2 190.08 175.76C186.94 181.92 181.94 186.92 175.78 190.06C173.22 191.36 169.55 192.43 162.38 193.01C155.01 193.61 145.49 193.62 131.47 193.62H108.56C94.54 193.62 85.01 193.61 77.65 193.01C70.48 192.42 66.81 191.36 64.25 190.06C58.09 186.92 53.09 181.92 49.95 175.76C48.65 173.2 47.58 169.53 47 162.36C46.4 154.99 46.39 145.47 46.39 131.45V108.54C46.39 94.52 46.4 85 47 77.63C47.59 70.46 48.65 66.79 49.95 64.23C53.09 58.07 58.09 53.06 64.25 49.93C66.81 48.63 70.48 47.56 77.65 46.98C85.01 46.38 94.54 46.37 108.56 46.37H131.47C145.49 46.37 155.01 46.38 162.38 46.98C169.55 47.57 173.22 48.63 175.78 49.93C181.94 53.07 186.94 58.07 190.08 64.23C191.38 66.79 192.45 70.46 193.03 77.63C193.63 85 193.64 94.52 193.64 108.54V131.45Z" fill="black"/>
</svg>
