<svg width="200" height="200" viewBox="0 0 200 200" fill="none" xmlns="http://www.w3.org/2000/svg">
<path d="M60 100C60 122.091 77.9086 140 100 140C122.091 140 140 122.091 140 100H160C160 133.137 133.137 160 100 160C66.8629 160 40 133.137 40 100H60Z" fill="black"/>
<path d="M70 60C75.5228 60 80 64.4772 80 70C80 75.5228 75.5228 80 70 80C64.4772 80 60 75.5228 60 70C60 64.4772 64.4772 60 70 60Z" fill="black"/>
<path d="M130 60C135.523 60 140 64.4772 140 70C140 75.5228 135.523 80 130 80C124.477 80 120 75.5228 120 70C120 64.4772 124.477 60 130 60Z" fill="black"/>
<path fill-rule="nonzero" clip-rule="evenodd" d="M100 0C155.228 0 200 44.7715 200 100C200 155.228 155.228 200 100 200C44.7715 200 0 155.228 0 100C0 44.7715 44.7715 0 100 0Z M100 20C55.8172 20 20 55.8172 20 100C20 144.183 55.8172 180 100 180C144.183 180 180 144.183 180 100C180 55.8172 144.183 20 100 20Z" fill="black"/>
</svg>