<svg width="160" height="160" viewBox="0 0 160 160" fill="none" xmlns="http://www.w3.org/2000/svg">
<path d="M50 65C58.2843 65 65 58.2843 65 50C65 41.7157 58.2843 35 50 35C41.7157 35 35 41.7157 35 50C35 58.2843 41.7157 65 50 65Z" fill="black"/>
<path d="M110 124C118.284 124 125 117.284 125 109C125 100.716 118.284 94 110 94C101.716 94 95 100.716 95 109C95 117.284 101.716 124 110 124Z" fill="black"/>
<path fill-rule="nonzero" clip-rule="evenodd" d="M140 0C151.046 0 160 8.95431 160 20V140C160 151.046 151.046 160 140 160H20C8.95431 160 0 151.046 0 140V20C0 8.95431 8.95431 0 20 0H140Z M20 20L140 20 140 140 20 140 20 20Z" fill="black"/>
</svg>