<svg width="200" height="200" viewBox="0 0 200 200" fill="none" xmlns="http://www.w3.org/2000/svg">
<path fill-rule="nonzero" clip-rule="evenodd" d="M100 0C155.23 0 200 44.77 200 100C200 155.23 155.23 200 100 200C44.77 200 0 155.23 0 100C0 44.77 44.77 0 100 0Z M100 20C55.82 20 20 55.82 20 100C20 144.18 55.82 180 100 180C144.18 180 180 144.18 180 100C180 55.82 144.18 20 100 20Z" fill="black"/>
<path d="M100 60C122.091 60 140 77.9086 140 100C140 122.091 122.091 140 100 140C77.9086 140 60 122.091 60 100C60 77.9086 77.9086 60 100 60Z" fill="black"/>
</svg>