<svg width="80" height="120" viewBox="0 0 80 120" fill="none" xmlns="http://www.w3.org/2000/svg">
<path d="M65 75C73.2843 75 80 68.2843 80 60C80 51.7157 73.2843 45 65 45C56.7157 45 50 51.7157 50 60C50 68.2843 56.7157 75 65 75Z" fill="black"/>
<path d="M15 75C23.2843 75 30 68.2843 30 60C30 51.7157 23.2843 45 15 45C6.71573 45 0 51.7157 0 60C0 68.2843 6.71573 75 15 75Z" fill="black"/>
<path d="M65 30C73.2843 30 80 23.2843 80 15C80 6.71573 73.2843 0 65 0C56.7157 0 50 6.71573 50 15C50 23.2843 56.7157 30 65 30Z" fill="black"/>
<path d="M15 30C23.2843 30 30 23.2843 30 15C30 6.71573 23.2843 0 15 0C6.71573 0 0 6.71573 0 15C0 23.2843 6.71573 30 15 30Z" fill="black"/>
<path d="M65 120C73.2843 120 80 113.284 80 105C80 96.7157 73.2843 90 65 90C56.7157 90 50 96.7157 50 105C50 113.284 56.7157 120 65 120Z" fill="black"/>
<path d="M15 120C23.2843 120 30 113.284 30 105C30 96.7157 23.2843 90 15 90C6.71573 90 0 96.7157 0 105C0 113.284 6.71573 120 15 120Z" fill="black"/>
</svg>