<svg width="180" height="180" viewBox="0 0 180 180" fill="none" xmlns="http://www.w3.org/2000/svg">
<path d="M90 80C95.5228 80 100 84.4772 100 90C100 95.5228 95.5228 100 90 100C84.4772 100 80 95.5228 80 90C80 84.4772 84.4772 80 90 80Z" fill="black"/>
<path fill-rule="nonzero" clip-rule="evenodd" d="M90 40C117.614 40 140 62.3858 140 90C140 117.614 117.614 140 90 140C62.3858 140 40 117.614 40 90C40 62.3858 62.3858 40 90 40Z M90 60C73.4315 60 60 73.4315 60 90C60 106.569 73.4315 120 90 120C106.569 120 120 106.569 120 90C120 73.4315 106.569 60 90 60Z" fill="black"/>
<path fill-rule="nonzero" clip-rule="evenodd" d="M90 0C139.706 0 180 40.2944 180 90C180 139.706 139.706 180 90 180C40.2944 180 0 139.706 0 90C0 40.2944 40.2944 0 90 0Z M90 20C51.3401 20 20 51.3401 20 90C20 128.66 51.3401 160 90 160C128.66 160 160 128.66 160 90C160 51.3401 128.66 20 90 20Z" fill="black"/>
</svg>