<svg width="140" height="140" viewBox="0 0 140 140" fill="none" xmlns="http://www.w3.org/2000/svg">
<path fill-rule="nonzero" clip-rule="evenodd" d="M123.38 0H16.6423C7.45992 0 0.0126456 7.44202 0.00013416 16.6303V123.28C-0.0176222 127.708 1.72783 131.961 4.85076 135.099C7.97369 138.236 12.2169 140 16.6423 140H123.38C127.802 139.994 132.039 138.228 135.157 135.091C138.275 131.954 140.018 127.704 140 123.28V16.6303C139.987 7.45078 132.554 0.012363 123.38 0Z M60.3781 100.837L60.3108 31.3754C60.2985 28.319 57.8254 25.8443 54.771 25.832L31.4452 25.832C28.3944 25.8444 25.9278 28.3226 25.9278 31.3754L25.9278 100.837C25.9278 103.89 28.3944 106.368 31.4452 106.38L54.771 106.38C56.2501 106.392 57.673 105.814 58.7252 104.774 59.7774 103.734 60.3722 102.317 60.3781 100.837Z M114.207 68.9452L114.117 31.3754C114.117 28.3226 111.65 25.8444 108.6 25.832L85.2739 25.832C82.2194 25.8443 79.7463 28.319 79.734 31.3754L79.734 68.9452C79.7463 72.0016 82.2194 74.4763 85.2739 74.489L108.6 74.489C110.081 74.5066 111.507 73.9305 112.561 72.889 113.614 71.8474 114.207 70.4271 114.207 68.9452Z" fill="black"/>
</svg>