<svg width="180" height="180" viewBox="0 0 180 180" fill="none" xmlns="http://www.w3.org/2000/svg">
<path d="M50.2598 119.746C55.6497 119.746 60.0194 124.116 60.0195 129.506C60.0195 134.896 55.6498 139.266 50.2598 139.266C44.8699 139.265 40.5 134.896 40.5 129.506C40.5001 124.116 44.87 119.746 50.2598 119.746Z" fill="black"/>
<path fill-rule="nonzero" clip-rule="evenodd" d="M100 17.7744L114.478 5L180 80L160 100V180C123.355 180 86.5323 180 50 180C22.3858 180 0 157.614 0 130V0H100V17.7744Z M90.0898 159.883L140 115.703 140 160 90.002 160C90.0313 159.961 90.0606 159.922 90.0898 159.883Z M20 130L20 20 80 20 80 130C80 146.569 66.5685 160 50 160 33.4315 160 20 146.569 20 130Z M100 44.4473L112.714 33.2295 152.412 78.2188 100 124.466 100 44.4473Z" fill="black"/>
</svg>