<svg width="160" height="160" viewBox="0 0 160 160" fill="none" xmlns="http://www.w3.org/2000/svg">
<path d="M102.3 143.796C102.437 144.135 102.604 144.448 102.788 144.741C95.6538 147.25 87.9894 148.632 79.9977 148.632C73.2611 148.632 66.7592 147.642 60.6114 145.835L81.2024 86.0017L102.3 143.796Z" fill="black"/>
<path d="M50.0487 141.763C27.1575 130.639 11.3712 107.163 11.3712 79.9983C11.3712 70.0488 13.5054 60.6034 17.3132 52.0682L50.0487 141.763Z" fill="black"/>
<path d="M140.215 47.0714C145.576 56.8472 148.623 68.0676 148.622 79.9994C148.622 105.318 134.899 127.422 114.497 139.32L135.46 78.7109C139.377 68.9221 140.678 61.0931 140.678 54.129C140.678 51.6047 140.51 49.2575 140.215 47.0714Z" fill="black"/>
<path d="M79.9977 11.3716C97.864 11.3716 114.131 18.2014 126.341 29.3874C126.044 29.3704 125.756 29.333 125.452 29.333C118.712 29.333 113.928 35.2054 113.928 41.5141C113.928 47.1672 117.188 51.9544 120.667 57.6073C123.28 62.1792 126.327 68.0541 126.327 76.5358C126.327 82.4108 124.068 89.2285 121.102 98.7206L114.257 121.596L89.4565 47.8221C93.5811 47.6056 97.3029 47.1686 97.3109 47.1677C101.008 46.7302 100.573 41.2961 96.8705 41.5141C96.7987 41.5198 85.7349 42.3849 78.5813 42.3849C71.8593 42.3849 60.5763 41.5196 60.505 41.5141C56.8069 41.2961 56.3732 46.9509 60.0713 47.1677C60.1065 47.172 63.5911 47.6064 67.2679 47.8221L77.9597 77.1178L62.9416 122.161L37.9506 47.8244C42.0874 47.6076 45.805 47.1699 45.805 47.1699C49.5004 46.7323 49.064 41.2983 45.3646 41.5164C45.3131 41.5204 34.2369 42.3883 27.0754 42.3883C25.7865 42.3883 24.2686 42.3539 22.6585 42.3056C34.9294 23.6734 56.0228 11.3717 79.9977 11.3716Z" fill="black"/>
<path fill-rule="nonzero" clip-rule="evenodd" d="M79.9977 0C124.106 0 159.999 35.887 160 79.9983C160 124.115 124.106 160 79.9977 160C35.8881 160 2.50514e-05 124.115 0 79.9983C0 35.8871 35.8881 0.000165175 79.9977 0Z M79.9977 3.66861C37.9095 3.66877 3.66848 37.9099 3.66848 79.9983C3.6685 122.089 37.9108 156.333 79.9977 156.334C122.083 156.334 156.324 122.089 156.324 79.9983C156.324 37.9098 122.083 3.66861 79.9977 3.66861Z" fill="black"/>
</svg>